<?xml version="1.0" encoding="UTF-8" standalone="no"?><!DOCTYPE svg PUBLIC "-//W3C//DTD SVG 1.1//EN" "http://www.w3.org/Graphics/SVG/1.1/DTD/svg11.dtd"><svg width="100%" height="100%" viewBox="0 0 301 301" version="1.1" xmlns="http://www.w3.org/2000/svg" xmlns:xlink="http://www.w3.org/1999/xlink" xml:space="preserve" xmlns:serif="http://www.serif.com/" style="fill-rule:evenodd;clip-rule:evenodd;stroke-linejoin:round;stroke-miterlimit:2;"><g><g><g><g><g transform="matrix(0.226648,0,0,1.99301,-45.0797,-198.801)"><rect x="200" y="100" width="1323.64" height="150.526" style="fill:#1b00d5;fill-rule:nonzero;"/><g transform="matrix(4.41212,0,0,0.501754,-682.424,49.8246)"><path d="M200,100l300,0l0,27.273l-300,0l0,-27.273Zm0,27.273l27.273,0l0,272.727l-27.273,0l0,-272.727Zm54.545,0l245.455,0l0,27.272l-245.455,0l0,-27.272Zm-27.272,27.272l27.272,0l0,245.455l-27.272,0l0,-245.455Zm54.545,0l218.182,0l0,27.273l-218.182,0l0,-27.273Zm-27.273,27.273l27.273,0l0,218.182l-27.273,0l0,-218.182Zm54.546,0l190.909,0l0,27.273l-190.909,0l0,-27.273Zm-27.273,27.273l27.273,0l0,190.909l-27.273,0l0,-190.909Zm54.546,0l163.636,0l0,27.273l-163.636,0l0,-27.273Zm-27.273,27.273l27.273,0l0,163.636l-27.273,0l0,-163.636Zm54.545,0l136.364,0l0,27.272l-136.364,0l0,-27.272Zm-27.272,27.272l27.272,0l0,136.364l-27.272,0l0,-136.364Zm54.545,0l109.091,0l0,27.273l-109.091,0l0,-27.273Zm-27.273,27.273l27.273,0l0,109.091l-27.273,0l0,-109.091Zm54.546,0l81.818,0l0,27.273l-81.818,0l0,-27.273Zm-27.273,27.273l27.273,0l0,81.818l-27.273,0l0,-81.818Zm54.546,0l54.545,0l0,27.273l-54.545,0l0,-27.273Zm-27.273,27.273l27.273,0l0,54.545l-27.273,0l0,-54.545Zm54.545,0l27.273,0l0,27.272l-27.273,0l0,-27.272Zm-27.272,27.272l27.272,0l0,27.273l-27.272,0l0,-27.273Z" style="fill:#fff;"/><path d="M227.273,127.273l27.272,0l0,27.272l-27.272,0l0,-27.272Zm27.272,27.272l27.273,0l0,27.273l-27.273,0l0,-27.273Zm27.273,27.273l27.273,0l0,27.273l-27.273,0l0,-27.273Zm27.273,27.273l27.273,0l0,27.273l-27.273,0l0,-27.273Zm27.273,27.273l27.272,0l0,27.272l-27.272,0l0,-27.272Zm27.272,27.272l27.273,0l0,27.273l-27.273,0l0,-27.273Zm27.273,27.273l27.273,0l0,27.273l-27.273,0l0,-27.273Zm27.273,27.273l27.273,0l0,27.273l-27.273,0l0,-27.273Zm27.273,27.273l27.272,0l0,27.272l-27.272,0l0,-27.272Z" style="fill:#f5daf5;"/><rect x="472.727" y="372.727" width="27.273" height="27.273" style="fill:#edc7f7;"/></g><g transform="matrix(4.41212,0,0,0.501754,-682.424,49.8246)"><text x="210.301px" y="117.206px" style="font-family:'HelveticaNeue-Bold', 'Helvetica Neue';font-weight:700;font-size:10px;fill:#ff2600;">X</text><text x="238.129px" y="117.206px" style="font-family:'HelveticaNeue-Bold', 'Helvetica Neue';font-weight:700;font-size:10px;fill:#1222e7;">1</text><text x="265.402px" y="117.206px" style="font-family:'HelveticaNeue-Bold', 'Helvetica Neue';font-weight:700;font-size:10px;fill:#1222e7;">2</text><text x="292.675px" y="117.206px" style="font-family:'HelveticaNeue-Bold', 'Helvetica Neue';font-weight:700;font-size:10px;fill:#1222e7;">3</text><text x="319.947px" y="117.206px" style="font-family:'HelveticaNeue-Bold', 'Helvetica Neue';font-weight:700;font-size:10px;fill:#1222e7;">4</text><text x="347.22px" y="117.206px" style="font-family:'HelveticaNeue-Bold', 'Helvetica Neue';font-weight:700;font-size:10px;fill:#1222e7;">5</text><text x="374.493px" y="117.206px" style="font-family:'HelveticaNeue-Bold', 'Helvetica Neue';font-weight:700;font-size:10px;fill:#1222e7;">6</text><text x="401.765px" y="117.206px" style="font-family:'HelveticaNeue-Bold', 'Helvetica Neue';font-weight:700;font-size:10px;fill:#1222e7;">7</text><text x="429.038px" y="117.206px" style="font-family:'HelveticaNeue-Bold', 'Helvetica Neue';font-weight:700;font-size:10px;fill:#1222e7;">8</text><text x="456.311px" y="117.206px" style="font-family:'HelveticaNeue-Bold', 'Helvetica Neue';font-weight:700;font-size:10px;fill:#1222e7;">9</text><text x="480.804px" y="117.206px" style="font-family:'HelveticaNeue-Bold', 'Helvetica Neue';font-weight:700;font-size:10px;fill:#1222e7;">10</text><text x="210.856px" y="144.479px" style="font-family:'HelveticaNeue-Bold', 'Helvetica Neue';font-weight:700;font-size:10px;fill:#1a00ef;">1</text><text x="238.129px" y="144.479px" style="font-family:'HelveticaNeue-Bold', 'Helvetica Neue';font-weight:700;font-size:10px;">1</text><text x="265.402px" y="144.479px" style="font-family:'HelveticaNeue', 'Helvetica Neue';font-size:10px;">2</text><text x="292.675px" y="144.479px" style="font-family:'HelveticaNeue', 'Helvetica Neue';font-size:10px;">3</text><text x="319.947px" y="144.479px" style="font-family:'HelveticaNeue', 'Helvetica Neue';font-size:10px;">4</text><text x="347.22px" y="144.479px" style="font-family:'HelveticaNeue', 'Helvetica Neue';font-size:10px;">5</text><text x="374.493px" y="144.479px" style="font-family:'HelveticaNeue', 'Helvetica Neue';font-size:10px;">6</text><text x="401.765px" y="144.479px" style="font-family:'HelveticaNeue', 'Helvetica Neue';font-size:10px;">7</text><text x="429.038px" y="144.479px" style="font-family:'HelveticaNeue', 'Helvetica Neue';font-size:10px;">8</text><text x="456.311px" y="144.479px" style="font-family:'HelveticaNeue', 'Helvetica Neue';font-size:10px;">9</text><text x="480.804px" y="144.479px" style="font-family:'HelveticaNeue-Bold', 'Helvetica Neue';font-weight:700;font-size:10px;fill:#ff2600;">10</text><text x="210.856px" y="171.752px" style="font-family:'HelveticaNeue-Bold', 'Helvetica Neue';font-weight:700;font-size:10px;fill:#1a00ef;">2</text><text x="238.129px" y="171.752px" style="font-family:'HelveticaNeue', 'Helvetica Neue';font-size:10px;">2</text><text x="265.402px" y="171.752px" style="font-family:'HelveticaNeue-Bold', 'Helvetica Neue';font-weight:700;font-size:10px;">4</text><text x="292.675px" y="171.752px" style="font-family:'HelveticaNeue', 'Helvetica Neue';font-size:10px;">6</text><text x="319.947px" y="171.752px" style="font-family:'HelveticaNeue', 'Helvetica Neue';font-size:10px;">8</text><text x="344.44px" y="171.752px" style="font-family:'HelveticaNeue', 'Helvetica Neue';font-size:10px;">10</text><text x="371.713px" y="171.752px" style="font-family:'HelveticaNeue', 'Helvetica Neue';font-size:10px;">12</text><text x="398.985px" y="171.752px" style="font-family:'HelveticaNeue', 'Helvetica Neue';font-size:10px;">14</text><text x="426.258px" y="171.752px" style="font-family:'HelveticaNeue', 'Helvetica Neue';font-size:10px;">16</text><text x="453.531px" y="171.752px" style="font-family:'HelveticaNeue', 'Helvetica Neue';font-size:10px;">18</text><text x="480.804px" y="171.752px" style="font-family:'HelveticaNeue-Bold', 'Helvetica Neue';font-weight:700;font-size:10px;fill:#ff2600;">20</text><text x="210.856px" y="199.025px" style="font-family:'HelveticaNeue-Bold', 'Helvetica Neue';font-weight:700;font-size:10px;fill:#1a00ef;">3</text><text x="238.129px" y="199.025px" style="font-family:'HelveticaNeue', 'Helvetica Neue';font-size:10px;">3</text><text x="265.402px" y="199.025px" style="font-family:'HelveticaNeue', 'Helvetica Neue';font-size:10px;">6</text><text x="292.675px" y="199.025px" style="font-family:'HelveticaNeue-Bold', 'Helvetica Neue';font-weight:700;font-size:10px;">9</text><text x="317.167px" y="199.025px" style="font-family:'HelveticaNeue', 'Helvetica Neue';font-size:10px;">12</text><text x="344.44px" y="199.025px" style="font-family:'HelveticaNeue', 'Helvetica Neue';font-size:10px;">15</text><text x="371.713px" y="199.025px" style="font-family:'HelveticaNeue', 'Helvetica Neue';font-size:10px;">18</text><text x="398.985px" y="199.025px" style="font-family:'HelveticaNeue', 'Helvetica Neue';font-size:10px;">21</text><text x="426.258px" y="199.025px" style="font-family:'HelveticaNeue', 'Helvetica Neue';font-size:10px;">24</text><text x="453.531px" y="199.025px" style="font-family:'HelveticaNeue', 'Helvetica Neue';font-size:10px;">27</text><text x="480.804px" y="199.025px" style="font-family:'HelveticaNeue-Bold', 'Helvetica Neue';font-weight:700;font-size:10px;fill:#ff2600;">30</text><text x="210.856px" y="226.297px" style="font-family:'HelveticaNeue-Bold', 'Helvetica Neue';font-weight:700;font-size:10px;fill:#1a00ef;">4</text><text x="238.129px" y="226.297px" style="font-family:'HelveticaNeue', 'Helvetica Neue';font-size:10px;">4</text><text x="265.402px" y="226.297px" style="font-family:'HelveticaNeue', 'Helvetica Neue';font-size:10px;">8</text><text x="289.895px" y="226.297px" style="font-family:'HelveticaNeue', 'Helvetica Neue';font-size:10px;">12</text><text x="317.167px" y="226.297px" style="font-family:'HelveticaNeue-Bold', 'Helvetica Neue';font-weight:700;font-size:10px;">16</text><text x="344.44px" y="226.297px" style="font-family:'HelveticaNeue', 'Helvetica Neue';font-size:10px;">20</text><text x="371.713px" y="226.297px" style="font-family:'HelveticaNeue', 'Helvetica Neue';font-size:10px;">24</text><text x="398.985px" y="226.297px" style="font-family:'HelveticaNeue', 'Helvetica Neue';font-size:10px;">28</text><text x="426.258px" y="226.297px" style="font-family:'HelveticaNeue', 'Helvetica Neue';font-size:10px;">32</text><text x="453.531px" y="226.297px" style="font-family:'HelveticaNeue', 'Helvetica Neue';font-size:10px;">36</text><text x="480.804px" y="226.297px" style="font-family:'HelveticaNeue-Bold', 'Helvetica Neue';font-weight:700;font-size:10px;fill:#ff2600;">40</text><text x="210.856px" y="253.57px" style="font-family:'HelveticaNeue-Bold', 'Helvetica Neue';font-weight:700;font-size:10px;fill:#1a00ef;">5</text><text x="238.129px" y="253.57px" style="font-family:'HelveticaNeue', 'Helvetica Neue';font-size:10px;">5</text><text x="262.622px" y="253.57px" style="font-family:'HelveticaNeue', 'Helvetica Neue';font-size:10px;">10</text><text x="289.895px" y="253.57px" style="font-family:'HelveticaNeue', 'Helvetica Neue';font-size:10px;">15</text><text x="317.167px" y="253.57px" style="font-family:'HelveticaNeue', 'Helvetica Neue';font-size:10px;">20</text><text x="344.44px" y="253.57px" style="font-family:'HelveticaNeue-Bold', 'Helvetica Neue';font-weight:700;font-size:10px;">25</text><text x="371.713px" y="253.57px" style="font-family:'HelveticaNeue', 'Helvetica Neue';font-size:10px;">30</text><text x="398.985px" y="253.57px" style="font-family:'HelveticaNeue', 'Helvetica Neue';font-size:10px;">35</text><text x="426.258px" y="253.57px" style="font-family:'HelveticaNeue', 'Helvetica Neue';font-size:10px;">40</text><text x="453.531px" y="253.57px" style="font-family:'HelveticaNeue', 'Helvetica Neue';font-size:10px;">45</text><text x="480.804px" y="253.57px" style="font-family:'HelveticaNeue-Bold', 'Helvetica Neue';font-weight:700;font-size:10px;fill:#ff2600;">50</text><text x="210.856px" y="280.843px" style="font-family:'HelveticaNeue-Bold', 'Helvetica Neue';font-weight:700;font-size:10px;fill:#1a00ef;">6</text><text x="238.129px" y="280.843px" style="font-family:'HelveticaNeue', 'Helvetica Neue';font-size:10px;">6</text><text x="262.622px" y="280.843px" style="font-family:'HelveticaNeue', 'Helvetica Neue';font-size:10px;">12</text><text x="289.895px" y="280.843px" style="font-family:'HelveticaNeue', 'Helvetica Neue';font-size:10px;">18</text><text x="317.167px" y="280.843px" style="font-family:'HelveticaNeue', 'Helvetica Neue';font-size:10px;">24</text><text x="344.44px" y="280.843px" style="font-family:'HelveticaNeue', 'Helvetica Neue';font-size:10px;">30</text><text x="371.713px" y="280.843px" style="font-family:'HelveticaNeue-Bold', 'Helvetica Neue';font-weight:700;font-size:10px;">36</text><text x="398.985px" y="280.843px" style="font-family:'HelveticaNeue', 'Helvetica Neue';font-size:10px;">42</text><text x="426.258px" y="280.843px" style="font-family:'HelveticaNeue', 'Helvetica Neue';font-size:10px;">48</text><text x="453.531px" y="280.843px" style="font-family:'HelveticaNeue', 'Helvetica Neue';font-size:10px;">54</text><text x="480.804px" y="280.843px" style="font-family:'HelveticaNeue-Bold', 'Helvetica Neue';font-weight:700;font-size:10px;fill:#ff2600;">60</text><text x="210.856px" y="308.115px" style="font-family:'HelveticaNeue-Bold', 'Helvetica Neue';font-weight:700;font-size:10px;fill:#1a00ef;">7</text><text x="238.129px" y="308.115px" style="font-family:'HelveticaNeue', 'Helvetica Neue';font-size:10px;">7</text><text x="262.622px" y="308.115px" style="font-family:'HelveticaNeue', 'Helvetica Neue';font-size:10px;">14</text><text x="289.895px" y="308.115px" style="font-family:'HelveticaNeue', 'Helvetica Neue';font-size:10px;">21</text><text x="317.167px" y="308.115px" style="font-family:'HelveticaNeue', 'Helvetica Neue';font-size:10px;">28</text><text x="344.44px" y="308.115px" style="font-family:'HelveticaNeue', 'Helvetica Neue';font-size:10px;">35</text><text x="371.713px" y="308.115px" style="font-family:'HelveticaNeue', 'Helvetica Neue';font-size:10px;">42</text><text x="398.985px" y="308.115px" style="font-family:'HelveticaNeue-Bold', 'Helvetica Neue';font-weight:700;font-size:10px;">49</text><text x="426.258px" y="308.115px" style="font-family:'HelveticaNeue', 'Helvetica Neue';font-size:10px;">56</text><text x="453.531px" y="308.115px" style="font-family:'HelveticaNeue', 'Helvetica Neue';font-size:10px;">63</text><text x="480.804px" y="308.115px" style="font-family:'HelveticaNeue-Bold', 'Helvetica Neue';font-weight:700;font-size:10px;fill:#ff2600;">70</text><text x="210.856px" y="335.388px" style="font-family:'HelveticaNeue-Bold', 'Helvetica Neue';font-weight:700;font-size:10px;fill:#1a00ef;">8</text><text x="238.129px" y="335.388px" style="font-family:'HelveticaNeue', 'Helvetica Neue';font-size:10px;">8</text><text x="262.622px" y="335.388px" style="font-family:'HelveticaNeue', 'Helvetica Neue';font-size:10px;">16</text><text x="289.895px" y="335.388px" style="font-family:'HelveticaNeue', 'Helvetica Neue';font-size:10px;">24</text><text x="317.167px" y="335.388px" style="font-family:'HelveticaNeue', 'Helvetica Neue';font-size:10px;">32</text><text x="344.44px" y="335.388px" style="font-family:'HelveticaNeue', 'Helvetica Neue';font-size:10px;">40</text><text x="371.713px" y="335.388px" style="font-family:'HelveticaNeue', 'Helvetica Neue';font-size:10px;">48</text><text x="398.985px" y="335.388px" style="font-family:'HelveticaNeue', 'Helvetica Neue';font-size:10px;">56</text><text x="426.258px" y="335.388px" style="font-family:'HelveticaNeue-Bold', 'Helvetica Neue';font-weight:700;font-size:10px;">64</text><text x="453.531px" y="335.388px" style="font-family:'HelveticaNeue', 'Helvetica Neue';font-size:10px;">72</text><text x="480.804px" y="335.388px" style="font-family:'HelveticaNeue-Bold', 'Helvetica Neue';font-weight:700;font-size:10px;fill:#ff2600;">80</text><text x="210.856px" y="362.661px" style="font-family:'HelveticaNeue-Bold', 'Helvetica Neue';font-weight:700;font-size:10px;fill:#1a00ef;">9</text><text x="238.129px" y="362.661px" style="font-family:'HelveticaNeue', 'Helvetica Neue';font-size:10px;">9</text><text x="262.622px" y="362.661px" style="font-family:'HelveticaNeue', 'Helvetica Neue';font-size:10px;">18</text><text x="289.895px" y="362.661px" style="font-family:'HelveticaNeue', 'Helvetica Neue';font-size:10px;">27</text><text x="317.167px" y="362.661px" style="font-family:'HelveticaNeue', 'Helvetica Neue';font-size:10px;">36</text><text x="344.44px" y="362.661px" style="font-family:'HelveticaNeue', 'Helvetica Neue';font-size:10px;">45</text><text x="371.713px" y="362.661px" style="font-family:'HelveticaNeue', 'Helvetica Neue';font-size:10px;">54</text><text x="398.985px" y="362.661px" style="font-family:'HelveticaNeue', 'Helvetica Neue';font-size:10px;">63</text><text x="426.258px" y="362.661px" style="font-family:'HelveticaNeue', 'Helvetica Neue';font-size:10px;">72</text><text x="453.531px" y="362.661px" style="font-family:'HelveticaNeue-Bold', 'Helvetica Neue';font-weight:700;font-size:10px;">81</text><text x="480.804px" y="362.661px" style="font-family:'HelveticaNeue-Bold', 'Helvetica Neue';font-weight:700;font-size:10px;fill:#ff2600;">90</text><text x="208.076px" y="389.934px" style="font-family:'HelveticaNeue-Bold', 'Helvetica Neue';font-weight:700;font-size:10px;fill:#1a00ef;">10</text><text x="235.349px" y="389.934px" style="font-family:'HelveticaNeue-Bold', 'Helvetica Neue';font-weight:700;font-size:10px;fill:#ff2600;">10</text><text x="262.622px" y="389.934px" style="font-family:'HelveticaNeue-Bold', 'Helvetica Neue';font-weight:700;font-size:10px;fill:#ff2600;">20</text><text x="289.895px" y="389.934px" style="font-family:'HelveticaNeue-Bold', 'Helvetica Neue';font-weight:700;font-size:10px;fill:#ff2600;">30</text><text x="317.167px" y="389.934px" style="font-family:'HelveticaNeue-Bold', 'Helvetica Neue';font-weight:700;font-size:10px;fill:#ff2600;">40</text><text x="344.44px" y="389.934px" style="font-family:'HelveticaNeue-Bold', 'Helvetica Neue';font-weight:700;font-size:10px;fill:#ff2600;">50</text><text x="371.713px" y="389.934px" style="font-family:'HelveticaNeue-Bold', 'Helvetica Neue';font-weight:700;font-size:10px;fill:#ea4025;">60</text><text x="398.985px" y="389.934px" style="font-family:'HelveticaNeue-Bold', 'Helvetica Neue';font-weight:700;font-size:10px;fill:#ea4025;">70</text><text x="426.258px" y="389.934px" style="font-family:'HelveticaNeue-Bold', 'Helvetica Neue';font-weight:700;font-size:10px;fill:#ea4025;">80</text><text x="453.531px" y="389.934px" style="font-family:'HelveticaNeue-Bold', 'Helvetica Neue';font-weight:700;font-size:10px;fill:#ff2600;">90</text><text x="478.024px" y="389.934px" style="font-family:'HelveticaNeue-Bold', 'Helvetica Neue';font-weight:700;font-size:10px;fill:#ff2600;">100</text><path d="M200,99.75l0,300.5m300,-300.5l0,300.5m-272.727,-300.25l0,300m27.272,-300l0,300m27.273,-300l0,300m27.273,-300l0,300m27.273,-300l0,300m27.272,-300l0,300m27.273,-300l0,300m27.273,-300l0,300m27.273,-300l0,300m27.272,-300l0,300m-272.727,-300l300,0m-300,27.273l300,0m-300,27.272l300,0m-300,27.273l300,0m-300,27.273l300,0m-300,27.273l300,0m-300,27.272l300,0m-300,27.273l300,0m-300,27.273l300,0m-300,27.273l300,0m-300,27.272l300,0m-300,27.273l300,0" style="fill:none;stroke:#000;stroke-width:0.5px;"/></g></g></g></g></g></g></svg>