<?xml version="1.0" encoding="UTF-8"?>
<!DOCTYPE svg PUBLIC "-//W3C//DTD SVG 1.1//EN" "http://www.w3.org/Graphics/SVG/1.1/DTD/svg11.dtd">
<svg version="1.1" xmlns="http://www.w3.org/2000/svg" xmlns:xlink="http://www.w3.org/1999/xlink" x="0" y="0" width="452" height="232.7" viewBox="0, 0, 452, 232.7">
  <g id="Calque_1" transform="translate(-196, -165.3)">
    <g>
      <g>
        <g>
          <path d="M347.5,256.5 L536.5,256.5 L536.5,393.5 L347.5,393.5 L347.5,256.5 z" fill="#EC4B4B"/>
          <path d="M347.5,256.5 L536.5,256.5 L536.5,393.5 L347.5,393.5 L347.5,256.5 z" fill-opacity="0" stroke="#4C13C1" stroke-width="2"/>
        </g>
        <path d="M347.5,256.5 L454.5,193.5" fill-opacity="0" stroke="#4C13C1" stroke-width="2"/>
        <path d="M536.5,256.5 L643.5,193.5" fill-opacity="0" stroke="#4C13C1" stroke-width="2"/>
        <path d="M536.5,393.5 L643.5,330.5" fill-opacity="0" stroke="#4C13C1" stroke-width="2"/>
        <path d="M454.5,193.5 L643.5,193.5" fill-opacity="0" stroke="#4C13C1" stroke-width="2"/>
        <path d="M643.5,193.5 L643.5,330.5" fill-opacity="0" stroke="#4C13C1" stroke-width="2"/>
        <g>
          <path d="M347.468,260.675 C345.058,260.675 343.104,258.884 343.104,256.675 C343.104,254.466 345.058,252.675 347.468,252.675 C349.878,252.675 351.831,254.466 351.831,256.675 C351.831,258.884 349.878,260.675 347.468,260.675 z" fill="#86C113"/>
          <path d="M347.468,260.675 C345.058,260.675 343.104,258.884 343.104,256.675 C343.104,254.466 345.058,252.675 347.468,252.675 C349.878,252.675 351.831,254.466 351.831,256.675 C351.831,258.884 349.878,260.675 347.468,260.675 z" fill-opacity="0" stroke="#4C36AD" stroke-width="2"/>
        </g>
        <path d="M318.456,220.925 z" fill-opacity="0" stroke="#4C13C1" stroke-width="2"/>
      </g>
      <text transform="matrix(1, 0, 0, 1, 270.616, 267.8)">
        <tspan x="-64.2" y="-6.5" font-family="HelveticaNeue-Bold" font-size="24" fill="#86C212">un sommet</tspan>
      </text>
      <text transform="matrix(1, 0, 0, 1, 535.116, 194.8)">
        <tspan x="-54.012" y="-6.5" font-family="HelveticaNeue-Bold" font-size="24" fill="#4C14C1">une arête</tspan>
      </text>
      <text transform="matrix(1, 0, 0, 1, 263.116, 337.8)">
        <tspan x="-49.116" y="-6.5" font-family="HelveticaNeue-Bold" font-size="24" fill="#EC4B4C">une face</tspan>
      </text>
      <g>
        <path d="M210.5,338.3 L396.7,338.3" fill-opacity="0" stroke="#000000" stroke-width="2"/>
        <path d="M396.7,341.9 L406.3,338.3 L396.7,334.7 z" fill="#000000" fill-opacity="1" stroke="#000000" stroke-width="2" stroke-opacity="1"/>
      </g>
    </g>
  </g>
</svg>
