<?xml version="1.0" encoding="UTF-8" standalone="no"?><!DOCTYPE svg PUBLIC "-//W3C//DTD SVG 1.1//EN" "http://www.w3.org/Graphics/SVG/1.1/DTD/svg11.dtd"><svg width="100%" height="100%" viewBox="0 0 287 306" version="1.1" xmlns="http://www.w3.org/2000/svg" xmlns:xlink="http://www.w3.org/1999/xlink" xml:space="preserve" xmlns:serif="http://www.serif.com/" style="fill-rule:evenodd;clip-rule:evenodd;stroke-linecap:round;stroke-linejoin:round;stroke-miterlimit:1.5;"><g><path d="M144.75,0.5l70.467,142.856l-142.472,-0.769l72.005,-142.087Z" style="fill:#fff;stroke:#000;stroke-width:1px;"/><path d="M215.217,143.356l70.466,142.856l-142.472,-0.769l72.006,-142.087Z" style="fill:#fff;stroke:#000;stroke-width:1px;"/><path d="M72.505,142.587l70.466,142.856l-142.471,-0.77l72.005,-142.086Z" style="fill:#fff;stroke:#000;stroke-width:1px;"/><path d="M143.211,285.443l72.006,-142.087l-142.472,-0.769l70.466,142.856Z" style="fill:#fff;stroke:#000;stroke-width:1px;"/><path d="M285.683,286.452l-142.472,-0.769l35.519,18.51l71.236,0.385l35.717,-18.126Z" style="fill:#dafdff;stroke:#000;stroke-width:1px;"/><path d="M72.745,142.587l-72.058,141.442l0.733,-44.164l36.029,-70.722l35.296,-26.556Z" style="fill:#dafdff;stroke:#000;stroke-width:1px;"/><path d="M214.918,143.834l-69.861,-142.54l35.229,26.929l34.931,71.27l-0.299,44.341Z" style="fill:#dafdff;stroke:#000;stroke-width:1px;"/></g></svg>