<?xml version="1.0" encoding="UTF-8" standalone="no"?><!DOCTYPE svg PUBLIC "-//W3C//DTD SVG 1.1//EN" "http://www.w3.org/Graphics/SVG/1.1/DTD/svg11.dtd"><svg width="100%" height="100%" viewBox="0 0 391 364" version="1.1" xmlns="http://www.w3.org/2000/svg" xmlns:xlink="http://www.w3.org/1999/xlink" xml:space="preserve" xmlns:serif="http://www.serif.com/" style="fill-rule:evenodd;clip-rule:evenodd;stroke-miterlimit:10;"><g><rect x="64.315" y="68.35" width="262.114" height="122.733" style="fill:#fff;stroke:#000;stroke-width:1px;"/><rect x="64.315" y="235.6" width="262.114" height="122.733" style="fill:#fff;stroke:#000;stroke-width:1px;"/><rect x="64.315" y="191.083" width="262.114" height="44.517" style="fill:#fff;stroke:#000;stroke-width:1px;"/><rect x="64.315" y="23.833" width="262.114" height="44.517" style="fill:#fff;stroke:#000;stroke-width:1px;"/><path d="M64.315,68.35l0,122.733l-40.548,0l0,-122.733l40.548,0Z" style="fill:#fff;stroke:#000;stroke-width:1px;"/><path d="M366.979,68.35l0,122.733l-40.549,0l0,-122.733l40.549,0Z" style="fill:#fff;stroke:#000;stroke-width:1px;"/><path d="M366.979,191.09l0,-122.74l23.28,30.685l0,61.37l-23.28,30.685Z" style="fill:#dafdff;stroke:#000;stroke-width:1px;stroke-linecap:round;stroke-linejoin:round;stroke-miterlimit:1.5;"/><path d="M23.78,191.09l0,-122.74l-23.28,30.685l0,61.37l23.28,30.685Z" style="fill:#dafdff;stroke:#000;stroke-width:1px;stroke-linecap:round;stroke-linejoin:round;stroke-miterlimit:1.5;"/><path d="M326.43,23.833l-262.115,0l65.529,-23.333l131.057,0l65.529,23.333Z" style="fill:#dafdff;stroke:#000;stroke-width:1px;stroke-linecap:round;stroke-linejoin:round;stroke-miterlimit:1.5;"/><path d="M366.965,68.35l-40.535,0l10.134,-12.898l20.267,0l10.134,12.898Z" style="fill:#dafdff;stroke:#000;stroke-width:1px;stroke-linecap:round;stroke-linejoin:round;stroke-miterlimit:1.5;"/><path d="M366.979,191.083l-40.536,0l10.134,12.898l20.268,0l10.134,-12.898Z" style="fill:#dafdff;stroke:#000;stroke-width:1px;stroke-linecap:round;stroke-linejoin:round;stroke-miterlimit:1.5;"/><path d="M64.315,191.083l-40.535,0l10.134,12.898l20.268,0l10.133,-12.898Z" style="fill:#dafdff;stroke:#000;stroke-width:1px;stroke-linecap:round;stroke-linejoin:round;stroke-miterlimit:1.5;"/><path d="M64.315,68.35l-40.535,0l10.134,-12.898l20.268,0l10.133,12.898Z" style="fill:#dafdff;stroke:#000;stroke-width:1px;stroke-linecap:round;stroke-linejoin:round;stroke-miterlimit:1.5;"/></g></svg>