<?xml version="1.0" encoding="UTF-8" standalone="no"?><!DOCTYPE svg PUBLIC "-//W3C//DTD SVG 1.1//EN" "http://www.w3.org/Graphics/SVG/1.1/DTD/svg11.dtd"><svg width="100%" height="100%" viewBox="0 0 301 301" version="1.1" xmlns="http://www.w3.org/2000/svg" xmlns:xlink="http://www.w3.org/1999/xlink" xml:space="preserve" xmlns:serif="http://www.serif.com/" style="fill-rule:evenodd;clip-rule:evenodd;stroke-linejoin:round;stroke-miterlimit:2;"><g><g transform="matrix(0.226648,0,0,1.99301,-45.0797,-198.801)"><rect x="200" y="100" width="1323.64" height="150.526" style="fill:#f9cbff;fill-rule:nonzero;"/><g transform="matrix(4.41212,0,0,0.501754,-682.424,49.8246)"><path d="M200,100l300,0l0,27.273l-300,0l0,-27.273Zm0,27.273l300,0l0,27.272l-300,0l0,-27.272Zm0,27.272l300,0l0,27.273l-300,0l0,-27.273Zm0,27.273l300,0l0,27.273l-300,0l0,-27.273Zm0,27.273l300,0l0,27.273l-300,0l0,-27.273Zm0,27.273l300,0l0,27.272l-300,0l0,-27.272Zm0,27.272l300,0l0,27.273l-300,0l0,-27.273Zm0,27.273l300,0l0,27.273l-300,0l0,-27.273Zm0,27.273l300,0l0,27.273l-300,0l0,-27.273Zm0,27.273l300,0l0,27.272l-300,0l0,-27.272Zm0,27.272l300,0l0,27.273l-300,0l0,-27.273Z" style="fill:#fff;"/></g><g transform="matrix(4.41212,0,0,0.501754,-682.424,49.8246)"><text x="210.581px" y="117.206px" style="font-family:'HelveticaNeue', 'Helvetica Neue';font-size:10px;">X</text><text x="238.129px" y="117.206px" style="font-family:'HelveticaNeue', 'Helvetica Neue';font-size:10px;">1</text><text x="265.402px" y="117.206px" style="font-family:'HelveticaNeue', 'Helvetica Neue';font-size:10px;">2</text><text x="292.675px" y="117.206px" style="font-family:'HelveticaNeue', 'Helvetica Neue';font-size:10px;">3</text><text x="319.947px" y="117.206px" style="font-family:'HelveticaNeue', 'Helvetica Neue';font-size:10px;">4</text><text x="347.22px" y="117.206px" style="font-family:'HelveticaNeue', 'Helvetica Neue';font-size:10px;">5</text><text x="374.493px" y="117.206px" style="font-family:'HelveticaNeue', 'Helvetica Neue';font-size:10px;">6</text><text x="401.765px" y="117.206px" style="font-family:'HelveticaNeue', 'Helvetica Neue';font-size:10px;">7</text><text x="429.038px" y="117.206px" style="font-family:'HelveticaNeue', 'Helvetica Neue';font-size:10px;">8</text><text x="456.311px" y="117.206px" style="font-family:'HelveticaNeue', 'Helvetica Neue';font-size:10px;">9</text><text x="480.804px" y="117.206px" style="font-family:'HelveticaNeue', 'Helvetica Neue';font-size:10px;">10</text><text x="210.856px" y="144.479px" style="font-family:'HelveticaNeue', 'Helvetica Neue';font-size:10px;">1</text><text x="238.129px" y="144.479px" style="font-family:'HelveticaNeue', 'Helvetica Neue';font-size:10px;">1</text><text x="265.402px" y="144.479px" style="font-family:'HelveticaNeue', 'Helvetica Neue';font-size:10px;">2</text><text x="292.675px" y="144.479px" style="font-family:'HelveticaNeue', 'Helvetica Neue';font-size:10px;">3</text><text x="319.947px" y="144.479px" style="font-family:'HelveticaNeue', 'Helvetica Neue';font-size:10px;">4</text><text x="347.22px" y="144.479px" style="font-family:'HelveticaNeue', 'Helvetica Neue';font-size:10px;">5</text><text x="374.493px" y="144.479px" style="font-family:'HelveticaNeue', 'Helvetica Neue';font-size:10px;">6</text><text x="401.765px" y="144.479px" style="font-family:'HelveticaNeue', 'Helvetica Neue';font-size:10px;">7</text><text x="429.038px" y="144.479px" style="font-family:'HelveticaNeue', 'Helvetica Neue';font-size:10px;">8</text><text x="456.311px" y="144.479px" style="font-family:'HelveticaNeue', 'Helvetica Neue';font-size:10px;">9</text><text x="480.804px" y="144.479px" style="font-family:'HelveticaNeue', 'Helvetica Neue';font-size:10px;">10</text><text x="210.856px" y="171.752px" style="font-family:'HelveticaNeue', 'Helvetica Neue';font-size:10px;">2</text><text x="238.129px" y="171.752px" style="font-family:'HelveticaNeue', 'Helvetica Neue';font-size:10px;">2</text><text x="265.402px" y="171.752px" style="font-family:'HelveticaNeue', 'Helvetica Neue';font-size:10px;">4</text><text x="292.675px" y="171.752px" style="font-family:'HelveticaNeue', 'Helvetica Neue';font-size:10px;">6</text><text x="319.947px" y="171.752px" style="font-family:'HelveticaNeue', 'Helvetica Neue';font-size:10px;">8</text><text x="344.44px" y="171.752px" style="font-family:'HelveticaNeue', 'Helvetica Neue';font-size:10px;">10</text><text x="371.713px" y="171.752px" style="font-family:'HelveticaNeue', 'Helvetica Neue';font-size:10px;">12</text><text x="398.985px" y="171.752px" style="font-family:'HelveticaNeue', 'Helvetica Neue';font-size:10px;">14</text><text x="426.258px" y="171.752px" style="font-family:'HelveticaNeue', 'Helvetica Neue';font-size:10px;">16</text><text x="453.531px" y="171.752px" style="font-family:'HelveticaNeue', 'Helvetica Neue';font-size:10px;">18</text><text x="480.804px" y="171.752px" style="font-family:'HelveticaNeue', 'Helvetica Neue';font-size:10px;">20</text><text x="210.856px" y="199.025px" style="font-family:'HelveticaNeue', 'Helvetica Neue';font-size:10px;">3</text><text x="238.129px" y="199.025px" style="font-family:'HelveticaNeue', 'Helvetica Neue';font-size:10px;">3</text><text x="265.402px" y="199.025px" style="font-family:'HelveticaNeue', 'Helvetica Neue';font-size:10px;">6</text><text x="292.675px" y="199.025px" style="font-family:'HelveticaNeue', 'Helvetica Neue';font-size:10px;">9</text><text x="317.167px" y="199.025px" style="font-family:'HelveticaNeue', 'Helvetica Neue';font-size:10px;">12</text><text x="344.44px" y="199.025px" style="font-family:'HelveticaNeue', 'Helvetica Neue';font-size:10px;">15</text><text x="371.713px" y="199.025px" style="font-family:'HelveticaNeue', 'Helvetica Neue';font-size:10px;">18</text><text x="398.985px" y="199.025px" style="font-family:'HelveticaNeue', 'Helvetica Neue';font-size:10px;">21</text><text x="426.258px" y="199.025px" style="font-family:'HelveticaNeue', 'Helvetica Neue';font-size:10px;">24</text><text x="453.531px" y="199.025px" style="font-family:'HelveticaNeue', 'Helvetica Neue';font-size:10px;">27</text><text x="480.804px" y="199.025px" style="font-family:'HelveticaNeue', 'Helvetica Neue';font-size:10px;">30</text><text x="210.856px" y="226.297px" style="font-family:'HelveticaNeue', 'Helvetica Neue';font-size:10px;">4</text><text x="238.129px" y="226.297px" style="font-family:'HelveticaNeue', 'Helvetica Neue';font-size:10px;">4</text><text x="265.402px" y="226.297px" style="font-family:'HelveticaNeue', 'Helvetica Neue';font-size:10px;">8</text><text x="289.895px" y="226.297px" style="font-family:'HelveticaNeue', 'Helvetica Neue';font-size:10px;">12</text><text x="317.167px" y="226.297px" style="font-family:'HelveticaNeue', 'Helvetica Neue';font-size:10px;">16</text><text x="344.44px" y="226.297px" style="font-family:'HelveticaNeue', 'Helvetica Neue';font-size:10px;">20</text><text x="371.713px" y="226.297px" style="font-family:'HelveticaNeue', 'Helvetica Neue';font-size:10px;">24</text><text x="398.985px" y="226.297px" style="font-family:'HelveticaNeue', 'Helvetica Neue';font-size:10px;">28</text><text x="426.258px" y="226.297px" style="font-family:'HelveticaNeue', 'Helvetica Neue';font-size:10px;">32</text><text x="453.531px" y="226.297px" style="font-family:'HelveticaNeue', 'Helvetica Neue';font-size:10px;">36</text><text x="480.804px" y="226.297px" style="font-family:'HelveticaNeue', 'Helvetica Neue';font-size:10px;">40</text><text x="210.856px" y="253.57px" style="font-family:'HelveticaNeue', 'Helvetica Neue';font-size:10px;">5</text><text x="238.129px" y="253.57px" style="font-family:'HelveticaNeue', 'Helvetica Neue';font-size:10px;">5</text><text x="262.622px" y="253.57px" style="font-family:'HelveticaNeue', 'Helvetica Neue';font-size:10px;">10</text><text x="289.895px" y="253.57px" style="font-family:'HelveticaNeue', 'Helvetica Neue';font-size:10px;">15</text><text x="317.167px" y="253.57px" style="font-family:'HelveticaNeue', 'Helvetica Neue';font-size:10px;">20</text><text x="344.44px" y="253.57px" style="font-family:'HelveticaNeue', 'Helvetica Neue';font-size:10px;">25</text><text x="371.713px" y="253.57px" style="font-family:'HelveticaNeue', 'Helvetica Neue';font-size:10px;">30</text><text x="398.985px" y="253.57px" style="font-family:'HelveticaNeue', 'Helvetica Neue';font-size:10px;">35</text><text x="426.258px" y="253.57px" style="font-family:'HelveticaNeue', 'Helvetica Neue';font-size:10px;">40</text><text x="453.531px" y="253.57px" style="font-family:'HelveticaNeue', 'Helvetica Neue';font-size:10px;">45</text><text x="480.804px" y="253.57px" style="font-family:'HelveticaNeue', 'Helvetica Neue';font-size:10px;">50</text><text x="210.856px" y="280.843px" style="font-family:'HelveticaNeue', 'Helvetica Neue';font-size:10px;">6</text><text x="238.129px" y="280.843px" style="font-family:'HelveticaNeue', 'Helvetica Neue';font-size:10px;">6</text><text x="262.622px" y="280.843px" style="font-family:'HelveticaNeue', 'Helvetica Neue';font-size:10px;">12</text><text x="289.895px" y="280.843px" style="font-family:'HelveticaNeue', 'Helvetica Neue';font-size:10px;">18</text><text x="317.167px" y="280.843px" style="font-family:'HelveticaNeue', 'Helvetica Neue';font-size:10px;">24</text><text x="344.44px" y="280.843px" style="font-family:'HelveticaNeue', 'Helvetica Neue';font-size:10px;">30</text><text x="371.713px" y="280.843px" style="font-family:'HelveticaNeue', 'Helvetica Neue';font-size:10px;">36</text><text x="398.985px" y="280.843px" style="font-family:'HelveticaNeue', 'Helvetica Neue';font-size:10px;">42</text><text x="426.258px" y="280.843px" style="font-family:'HelveticaNeue', 'Helvetica Neue';font-size:10px;">48</text><text x="453.531px" y="280.843px" style="font-family:'HelveticaNeue', 'Helvetica Neue';font-size:10px;">54</text><text x="480.804px" y="280.843px" style="font-family:'HelveticaNeue', 'Helvetica Neue';font-size:10px;">60</text><text x="210.856px" y="308.115px" style="font-family:'HelveticaNeue', 'Helvetica Neue';font-size:10px;">7</text><text x="238.129px" y="308.115px" style="font-family:'HelveticaNeue', 'Helvetica Neue';font-size:10px;">7</text><text x="262.622px" y="308.115px" style="font-family:'HelveticaNeue', 'Helvetica Neue';font-size:10px;">14</text><text x="289.895px" y="308.115px" style="font-family:'HelveticaNeue', 'Helvetica Neue';font-size:10px;">21</text><text x="317.167px" y="308.115px" style="font-family:'HelveticaNeue', 'Helvetica Neue';font-size:10px;">28</text><text x="344.44px" y="308.115px" style="font-family:'HelveticaNeue', 'Helvetica Neue';font-size:10px;">35</text><text x="371.713px" y="308.115px" style="font-family:'HelveticaNeue', 'Helvetica Neue';font-size:10px;">42</text><text x="398.985px" y="308.115px" style="font-family:'HelveticaNeue', 'Helvetica Neue';font-size:10px;">49</text><text x="426.258px" y="308.115px" style="font-family:'HelveticaNeue', 'Helvetica Neue';font-size:10px;">56</text><text x="453.531px" y="308.115px" style="font-family:'HelveticaNeue', 'Helvetica Neue';font-size:10px;">63</text><text x="480.804px" y="308.115px" style="font-family:'HelveticaNeue', 'Helvetica Neue';font-size:10px;">70</text><text x="210.856px" y="335.388px" style="font-family:'HelveticaNeue', 'Helvetica Neue';font-size:10px;">8</text><text x="238.129px" y="335.388px" style="font-family:'HelveticaNeue', 'Helvetica Neue';font-size:10px;">8</text><text x="262.622px" y="335.388px" style="font-family:'HelveticaNeue', 'Helvetica Neue';font-size:10px;">16</text><text x="289.895px" y="335.388px" style="font-family:'HelveticaNeue', 'Helvetica Neue';font-size:10px;">24</text><text x="317.167px" y="335.388px" style="font-family:'HelveticaNeue', 'Helvetica Neue';font-size:10px;">32</text><text x="344.44px" y="335.388px" style="font-family:'HelveticaNeue', 'Helvetica Neue';font-size:10px;">40</text><text x="371.713px" y="335.388px" style="font-family:'HelveticaNeue', 'Helvetica Neue';font-size:10px;">48</text><text x="398.985px" y="335.388px" style="font-family:'HelveticaNeue', 'Helvetica Neue';font-size:10px;">56</text><text x="426.258px" y="335.388px" style="font-family:'HelveticaNeue', 'Helvetica Neue';font-size:10px;">64</text><text x="453.531px" y="335.388px" style="font-family:'HelveticaNeue', 'Helvetica Neue';font-size:10px;">72</text><text x="480.804px" y="335.388px" style="font-family:'HelveticaNeue', 'Helvetica Neue';font-size:10px;">80</text><text x="210.856px" y="362.661px" style="font-family:'HelveticaNeue', 'Helvetica Neue';font-size:10px;">9</text><text x="238.129px" y="362.661px" style="font-family:'HelveticaNeue', 'Helvetica Neue';font-size:10px;">9</text><text x="262.622px" y="362.661px" style="font-family:'HelveticaNeue', 'Helvetica Neue';font-size:10px;">18</text><text x="289.895px" y="362.661px" style="font-family:'HelveticaNeue', 'Helvetica Neue';font-size:10px;">27</text><text x="317.167px" y="362.661px" style="font-family:'HelveticaNeue', 'Helvetica Neue';font-size:10px;">36</text><text x="344.44px" y="362.661px" style="font-family:'HelveticaNeue', 'Helvetica Neue';font-size:10px;">45</text><text x="371.713px" y="362.661px" style="font-family:'HelveticaNeue', 'Helvetica Neue';font-size:10px;">54</text><text x="398.985px" y="362.661px" style="font-family:'HelveticaNeue', 'Helvetica Neue';font-size:10px;">63</text><text x="426.258px" y="362.661px" style="font-family:'HelveticaNeue', 'Helvetica Neue';font-size:10px;">72</text><text x="453.531px" y="362.661px" style="font-family:'HelveticaNeue', 'Helvetica Neue';font-size:10px;">81</text><text x="480.804px" y="362.661px" style="font-family:'HelveticaNeue', 'Helvetica Neue';font-size:10px;">90</text><text x="208.076px" y="389.934px" style="font-family:'HelveticaNeue', 'Helvetica Neue';font-size:10px;">10</text><text x="235.349px" y="389.934px" style="font-family:'HelveticaNeue', 'Helvetica Neue';font-size:10px;">10</text><text x="262.622px" y="389.934px" style="font-family:'HelveticaNeue', 'Helvetica Neue';font-size:10px;">20</text><text x="289.895px" y="389.934px" style="font-family:'HelveticaNeue', 'Helvetica Neue';font-size:10px;">30</text><text x="317.167px" y="389.934px" style="font-family:'HelveticaNeue', 'Helvetica Neue';font-size:10px;">40</text><text x="344.44px" y="389.934px" style="font-family:'HelveticaNeue', 'Helvetica Neue';font-size:10px;">50</text><text x="371.713px" y="389.934px" style="font-family:'HelveticaNeue', 'Helvetica Neue';font-size:10px;">60</text><text x="398.985px" y="389.934px" style="font-family:'HelveticaNeue', 'Helvetica Neue';font-size:10px;">70</text><text x="426.258px" y="389.934px" style="font-family:'HelveticaNeue', 'Helvetica Neue';font-size:10px;">80</text><text x="453.531px" y="389.934px" style="font-family:'HelveticaNeue', 'Helvetica Neue';font-size:10px;">90</text><text x="478.024px" y="389.934px" style="font-family:'HelveticaNeue', 'Helvetica Neue';font-size:10px;">100</text><path d="M200,99.75l0,300.5m300,-300.5l0,300.5m-272.727,-300.25l0,300m27.272,-300l0,300m27.273,-300l0,300m27.273,-300l0,300m27.273,-300l0,300m27.272,-300l0,300m27.273,-300l0,300m27.273,-300l0,300m27.273,-300l0,300m27.272,-300l0,300m-272.727,-300l300,0m-300,27.273l300,0m-300,27.272l300,0m-300,27.273l300,0m-300,27.273l300,0m-300,27.273l300,0m-300,27.272l300,0m-300,27.273l300,0m-300,27.273l300,0m-300,27.273l300,0m-300,27.272l300,0m-300,27.273l300,0" style="fill:none;stroke:#000;stroke-width:0.5px;"/></g></g></g></svg>