<?xml version="1.0" encoding="UTF-8" standalone="no"?>
<!DOCTYPE svg PUBLIC "-//W3C//DTD SVG 1.1//EN" "http://www.w3.org/Graphics/SVG/1.1/DTD/svg11.dtd">
<svg width="100%" height="100%" viewBox="0 0 4727 3216" version="1.1" xmlns="http://www.w3.org/2000/svg" xmlns:xlink="http://www.w3.org/1999/xlink" xml:space="preserve" xmlns:serif="http://www.serif.com/" style="fill-rule:evenodd;clip-rule:evenodd;stroke-linecap:round;stroke-linejoin:round;stroke-miterlimit:1.5;">
    <g transform="matrix(1,0,0,1,-1416.07,-1510.56)">
        <g transform="matrix(0.8,0,0,0.8,1228.35,944.882)">
            <g>
                <g transform="matrix(6.12323e-17,-1,1,6.12323e-17,-1714.64,4498.42)">
                    <g transform="matrix(1,0,0,1,10.2351,1242.2)">
                        <rect x="236.22" y="1181.1" width="236.22" height="236.22" style="fill:rgb(235,235,235);fill-opacity:0;stroke:black;stroke-width:3.13px;"/>
                    </g>
                    <g transform="matrix(1,0,0,1,246.456,1242.2)">
                        <rect x="236.22" y="1181.1" width="236.22" height="236.22" style="fill:rgb(235,235,235);fill-opacity:0;stroke:black;stroke-width:3.13px;"/>
                    </g>
                    <g transform="matrix(1,0,0,1,482.676,1242.2)">
                        <rect x="236.22" y="1181.1" width="236.22" height="236.22" style="fill:rgb(235,235,235);fill-opacity:0;stroke:black;stroke-width:3.13px;"/>
                    </g>
                    <g transform="matrix(1,0,0,1,718.897,1242.2)">
                        <rect x="236.22" y="1181.1" width="236.22" height="236.22" style="fill:rgb(235,235,235);fill-opacity:0;stroke:black;stroke-width:3.13px;"/>
                    </g>
                    <g transform="matrix(1,0,0,1,955.117,1242.2)">
                        <rect x="236.22" y="1181.1" width="236.22" height="236.22" style="fill:rgb(235,235,235);fill-opacity:0;stroke:black;stroke-width:3.13px;"/>
                    </g>
                    <g transform="matrix(1,0,0,1,1191.34,1242.2)">
                        <rect x="236.22" y="1181.1" width="236.22" height="236.22" style="fill:rgb(235,235,235);fill-opacity:0;stroke:black;stroke-width:3.13px;"/>
                    </g>
                    <g transform="matrix(1,0,0,1,1427.56,1242.2)">
                        <rect x="236.22" y="1181.1" width="236.22" height="236.22" style="fill:rgb(235,235,235);fill-opacity:0;stroke:black;stroke-width:3.13px;"/>
                    </g>
                    <g transform="matrix(1,0,0,1,1663.78,1242.2)">
                        <rect x="236.22" y="1181.1" width="236.22" height="236.22" style="fill:rgb(235,235,235);fill-opacity:0;stroke:black;stroke-width:3.13px;"/>
                    </g>
                    <g transform="matrix(1,0,0,1,1900,1242.2)">
                        <rect x="236.22" y="1181.1" width="236.22" height="236.22" style="fill:rgb(235,235,235);fill-opacity:0;stroke:black;stroke-width:3.13px;"/>
                    </g>
                </g>
                <g transform="matrix(1,0,0,1,1133.86,-944.882)">
                    <g transform="matrix(1,0,0,1,2173.23,3307.09)">
                        <rect x="236.22" y="1181.1" width="236.22" height="236.22" style="fill:rgb(235,235,235);fill-opacity:0;stroke:black;stroke-width:3.13px;"/>
                    </g>
                    <g transform="matrix(1,0,0,1,2409.45,3307.09)">
                        <rect x="236.22" y="1181.1" width="236.22" height="236.22" style="fill:rgb(235,235,235);fill-opacity:0;stroke:black;stroke-width:3.13px;"/>
                    </g>
                    <g transform="matrix(1,0,0,1,2645.67,3307.09)">
                        <rect x="236.22" y="1181.1" width="236.22" height="236.22" style="fill:rgb(235,235,235);fill-opacity:0;stroke:black;stroke-width:3.13px;"/>
                    </g>
                    <g transform="matrix(1,0,0,1,2881.89,3307.09)">
                        <rect x="236.22" y="1181.1" width="236.22" height="236.22" style="fill:rgb(235,235,235);fill-opacity:0;stroke:black;stroke-width:3.13px;"/>
                    </g>
                    <g transform="matrix(1,0,0,1,3118.11,3307.09)">
                        <rect x="236.22" y="1181.1" width="236.22" height="236.22" style="fill:rgb(235,235,235);fill-opacity:0;stroke:black;stroke-width:3.13px;"/>
                    </g>
                    <g transform="matrix(1,0,0,1,3354.33,3307.09)">
                        <rect x="236.22" y="1181.1" width="236.22" height="236.22" style="fill:rgb(235,235,235);fill-opacity:0;stroke:black;stroke-width:3.13px;"/>
                    </g>
                    <g transform="matrix(1,0,0,1,3590.55,3307.09)">
                        <rect x="236.22" y="1181.1" width="236.22" height="236.22" style="fill:rgb(235,235,235);fill-opacity:0;stroke:black;stroke-width:3.13px;"/>
                    </g>
                    <g transform="matrix(1,0,0,1,3826.77,3307.09)">
                        <rect x="236.22" y="1181.1" width="236.22" height="236.22" style="fill:rgb(235,235,235);fill-opacity:0;stroke:black;stroke-width:3.13px;"/>
                    </g>
                </g>
                <g transform="matrix(1,0,0,1,-553.98,-1895.41)">
                    <g transform="matrix(1,0,0,1,3388.63,2367.85)">
                        <rect x="236.22" y="1181.1" width="236.22" height="236.22" style="fill:rgb(235,235,235);fill-opacity:0;stroke:black;stroke-width:3.13px;"/>
                    </g>
                    <g transform="matrix(1,0,0,1,3624.85,2367.85)">
                        <rect x="236.22" y="1181.1" width="236.22" height="236.22" style="fill:rgb(235,235,235);fill-opacity:0;stroke:black;stroke-width:3.13px;"/>
                    </g>
                    <g transform="matrix(1,0,0,1,3861.07,2367.85)">
                        <rect x="236.22" y="1181.1" width="236.22" height="236.22" style="fill:rgb(235,235,235);fill-opacity:0;stroke:black;stroke-width:3.13px;"/>
                    </g>
                    <g transform="matrix(1,0,0,1,4097.29,2367.85)">
                        <rect x="236.22" y="1181.1" width="236.22" height="236.22" style="fill:rgb(235,235,235);fill-opacity:0;stroke:black;stroke-width:3.13px;"/>
                    </g>
                    <g transform="matrix(1,0,0,1,4333.51,2367.85)">
                        <rect x="236.22" y="1181.1" width="236.22" height="236.22" style="fill:rgb(235,235,235);fill-opacity:0;stroke:black;stroke-width:3.13px;"/>
                    </g>
                    <g transform="matrix(1,0,0,1,4569.73,2367.85)">
                        <rect x="236.22" y="1181.1" width="236.22" height="236.22" style="fill:rgb(235,235,235);fill-opacity:0;stroke:black;stroke-width:3.13px;"/>
                    </g>
                    <g transform="matrix(1,0,0,1,4805.95,2367.85)">
                        <rect x="236.22" y="1181.1" width="236.22" height="236.22" style="fill:rgb(235,235,235);fill-opacity:0;stroke:black;stroke-width:3.13px;"/>
                    </g>
                    <g transform="matrix(1,0,0,1,5042.17,2367.85)">
                        <rect x="236.22" y="1181.1" width="236.22" height="236.22" style="fill:rgb(235,235,235);fill-opacity:0;stroke:black;stroke-width:3.13px;"/>
                    </g>
                </g>
                <g transform="matrix(6.12323e-17,-1,1,6.12323e-17,939.235,6695.71)">
                    <g transform="matrix(1,0,0,1,3388.63,2367.85)">
                        <rect x="236.22" y="1181.1" width="236.22" height="236.22" style="fill:rgb(235,235,235);fill-opacity:0;stroke:black;stroke-width:3.13px;"/>
                    </g>
                    <g transform="matrix(1,0,0,1,3624.85,2367.85)">
                        <rect x="236.22" y="1181.1" width="236.22" height="236.22" style="fill:rgb(235,235,235);fill-opacity:0;stroke:black;stroke-width:3.13px;"/>
                    </g>
                    <g transform="matrix(1,0,0,1,3861.07,2367.85)">
                        <rect x="236.22" y="1181.1" width="236.22" height="236.22" style="fill:rgb(235,235,235);fill-opacity:0;stroke:black;stroke-width:3.13px;"/>
                    </g>
                    <g transform="matrix(1,0,0,1,4097.29,2367.85)">
                        <rect x="236.22" y="1181.1" width="236.22" height="236.22" style="fill:rgb(235,235,235);fill-opacity:0;stroke:black;stroke-width:3.13px;"/>
                    </g>
                    <g transform="matrix(1,0,0,1,4333.51,2367.85)">
                        <rect x="236.22" y="1181.1" width="236.22" height="236.22" style="fill:rgb(235,235,235);fill-opacity:0;stroke:black;stroke-width:3.13px;"/>
                    </g>
                    <g transform="matrix(1,0,0,1,4569.73,2367.85)">
                        <rect x="236.22" y="1181.1" width="236.22" height="236.22" style="fill:rgb(235,235,235);fill-opacity:0;stroke:black;stroke-width:3.13px;"/>
                    </g>
                    <g transform="matrix(1,0,0,1,4805.95,2367.85)">
                        <rect x="236.22" y="1181.1" width="236.22" height="236.22" style="fill:rgb(235,235,235);fill-opacity:0;stroke:black;stroke-width:3.13px;"/>
                    </g>
                    <g transform="matrix(1,0,0,1,5042.17,2367.85)">
                        <rect x="236.22" y="1181.1" width="236.22" height="236.22" style="fill:rgb(235,235,235);fill-opacity:0;stroke:black;stroke-width:3.13px;"/>
                    </g>
                </g>
                <g transform="matrix(1,0,0,1,-1.81899e-12,236.22)">
                    <g transform="matrix(1,0,0,1,-81.5388,230.573)">
                        <g transform="matrix(1,0,0,1,3388.63,2367.85)">
                            <rect x="236.22" y="1181.1" width="236.22" height="236.22" style="fill:rgb(235,235,235);fill-opacity:0;stroke:black;stroke-width:3.13px;"/>
                        </g>
                        <g transform="matrix(1,0,0,1,3624.85,2367.85)">
                            <rect x="236.22" y="1181.1" width="236.22" height="236.22" style="fill:rgb(235,235,235);fill-opacity:0;stroke:black;stroke-width:3.13px;"/>
                        </g>
                        <g transform="matrix(1,0,0,1,3861.07,2367.85)">
                            <rect x="236.22" y="1181.1" width="236.22" height="236.22" style="fill:rgb(235,235,235);fill-opacity:0;stroke:black;stroke-width:3.13px;"/>
                        </g>
                        <g transform="matrix(1,0,0,1,4097.29,2367.85)">
                            <rect x="236.22" y="1181.1" width="236.22" height="236.22" style="fill:rgb(235,235,235);fill-opacity:0;stroke:black;stroke-width:3.13px;"/>
                        </g>
                        <g transform="matrix(1,0,0,1,4333.51,2367.85)">
                            <rect x="236.22" y="1181.1" width="236.22" height="236.22" style="fill:rgb(235,235,235);fill-opacity:0;stroke:black;stroke-width:3.13px;"/>
                        </g>
                        <g transform="matrix(1,0,0,1,4569.73,2367.85)">
                            <rect x="236.22" y="1181.1" width="236.22" height="236.22" style="fill:rgb(235,235,235);fill-opacity:0;stroke:black;stroke-width:3.13px;"/>
                        </g>
                        <g transform="matrix(1,0,0,1,4805.95,2367.85)">
                            <rect x="236.22" y="1181.1" width="236.22" height="236.22" style="fill:rgb(235,235,235);fill-opacity:0;stroke:black;stroke-width:3.13px;"/>
                        </g>
                        <g transform="matrix(1,0,0,1,5042.17,2367.85)">
                            <rect x="236.22" y="1181.1" width="236.22" height="236.22" style="fill:rgb(235,235,235);fill-opacity:0;stroke:black;stroke-width:3.13px;"/>
                        </g>
                    </g>
                    <g transform="matrix(1,0,0,1,-206.052,-256.077)">
                        <g transform="matrix(1,0,0,1,3040.7,2854.5)">
                            <rect x="236.22" y="1181.1" width="236.22" height="236.22" style="fill:rgb(235,235,235);fill-opacity:0;stroke:black;stroke-width:3.13px;"/>
                        </g>
                        <g transform="matrix(1,0,0,1,3276.92,2854.5)">
                            <rect x="236.22" y="1181.1" width="236.22" height="236.22" style="fill:rgb(235,235,235);fill-opacity:0;stroke:black;stroke-width:3.13px;"/>
                        </g>
                    </g>
                </g>
                <g transform="matrix(6.12323e-17,-1,1,6.12323e-17,1884.12,7640.59)">
                    <g transform="matrix(1,0,0,1,3388.63,2367.85)">
                        <rect x="236.22" y="1181.1" width="236.22" height="236.22" style="fill:rgb(235,235,235);fill-opacity:0;stroke:black;stroke-width:3.13px;"/>
                    </g>
                    <g transform="matrix(1,0,0,1,3624.85,2367.85)">
                        <rect x="236.22" y="1181.1" width="236.22" height="236.22" style="fill:rgb(235,235,235);fill-opacity:0;stroke:black;stroke-width:3.13px;"/>
                    </g>
                    <g transform="matrix(1,0,0,1,3861.07,2367.85)">
                        <rect x="236.22" y="1181.1" width="236.22" height="236.22" style="fill:rgb(235,235,235);fill-opacity:0;stroke:black;stroke-width:3.13px;"/>
                    </g>
                    <g transform="matrix(1,0,0,1,4097.29,2367.85)">
                        <rect x="236.22" y="1181.1" width="236.22" height="236.22" style="fill:rgb(235,235,235);fill-opacity:0;stroke:black;stroke-width:3.13px;"/>
                    </g>
                    <g transform="matrix(1,0,0,1,4333.51,2367.85)">
                        <rect x="236.22" y="1181.1" width="236.22" height="236.22" style="fill:rgb(235,235,235);fill-opacity:0;stroke:black;stroke-width:3.13px;"/>
                    </g>
                    <g transform="matrix(1,0,0,1,4569.73,2367.85)">
                        <rect x="236.22" y="1181.1" width="236.22" height="236.22" style="fill:rgb(235,235,235);fill-opacity:0;stroke:black;stroke-width:3.13px;"/>
                    </g>
                    <g transform="matrix(1,0,0,1,4805.95,2367.85)">
                        <rect x="236.22" y="1181.1" width="236.22" height="236.22" style="fill:rgb(235,235,235);fill-opacity:0;stroke:black;stroke-width:3.13px;"/>
                    </g>
                    <g transform="matrix(1,0,0,1,5042.17,2367.85)">
                        <rect x="236.22" y="1181.1" width="236.22" height="236.22" style="fill:rgb(235,235,235);fill-opacity:0;stroke:black;stroke-width:3.13px;"/>
                    </g>
                </g>
                <g transform="matrix(1,0,0,1,154.682,-714.309)">
                    <g transform="matrix(1,0,0,1,3388.63,2367.85)">
                        <rect x="236.22" y="1181.1" width="236.22" height="236.22" style="fill:rgb(235,235,235);fill-opacity:0;stroke:black;stroke-width:3.13px;"/>
                    </g>
                    <g transform="matrix(1,0,0,1,3624.85,2367.85)">
                        <rect x="236.22" y="1181.1" width="236.22" height="236.22" style="fill:rgb(235,235,235);fill-opacity:0;stroke:black;stroke-width:3.13px;"/>
                    </g>
                    <g transform="matrix(1,0,0,1,3861.07,2367.85)">
                        <rect x="236.22" y="1181.1" width="236.22" height="236.22" style="fill:rgb(235,235,235);fill-opacity:0;stroke:black;stroke-width:3.13px;"/>
                    </g>
                    <g transform="matrix(1,0,0,1,4097.29,2367.85)">
                        <rect x="236.22" y="1181.1" width="236.22" height="236.22" style="fill:rgb(235,235,235);fill-opacity:0;stroke:black;stroke-width:3.13px;"/>
                    </g>
                    <g transform="matrix(1,0,0,1,4333.51,2367.85)">
                        <rect x="236.22" y="1181.1" width="236.22" height="236.22" style="fill:rgb(235,235,235);fill-opacity:0;stroke:black;stroke-width:3.13px;"/>
                    </g>
                    <g transform="matrix(1,0,0,1,4569.73,2367.85)">
                        <rect x="236.22" y="1181.1" width="236.22" height="236.22" style="fill:rgb(235,235,235);fill-opacity:0;stroke:black;stroke-width:3.13px;"/>
                    </g>
                    <g transform="matrix(1,0,0,1,4805.95,2367.85)">
                        <rect x="236.22" y="1181.1" width="236.22" height="236.22" style="fill:rgb(235,235,235);fill-opacity:0;stroke:black;stroke-width:3.13px;"/>
                    </g>
                    <g transform="matrix(1,0,0,1,5042.17,2367.85)">
                        <rect x="236.22" y="1181.1" width="236.22" height="236.22" style="fill:rgb(235,235,235);fill-opacity:0;stroke:black;stroke-width:3.13px;"/>
                    </g>
                </g>
                <g transform="matrix(1,0,0,1,4322.83,1795.28)">
                    <g transform="matrix(1,0,0,1,1110.24,-141.732)">
                        <rect x="236.22" y="1181.1" width="236.22" height="236.22" style="fill:rgb(235,235,235);fill-opacity:0;stroke:black;stroke-width:3.13px;"/>
                    </g>
                    <g transform="matrix(1,0,0,1,1346.46,-141.732)">
                        <rect x="236.22" y="1181.1" width="236.22" height="236.22" style="fill:rgb(235,235,235);fill-opacity:0;stroke:black;stroke-width:3.13px;"/>
                    </g>
                </g>
                <g transform="matrix(1,0,0,1,4322.83,2503.94)">
                    <g transform="matrix(1,0,0,1,1110.24,-141.732)">
                        <rect x="236.22" y="1181.1" width="236.22" height="236.22" style="fill:rgb(235,235,235);fill-opacity:0;stroke:black;stroke-width:3.13px;"/>
                    </g>
                    <g transform="matrix(1,0,0,1,1346.46,-141.732)">
                        <rect x="236.22" y="1181.1" width="236.22" height="236.22" style="fill:rgb(235,235,235);fill-opacity:0;stroke:black;stroke-width:3.13px;"/>
                    </g>
                </g>
                <g transform="matrix(1,0,0,1,5196.85,2834.65)">
                    <rect x="236.22" y="1181.1" width="236.22" height="236.22" style="fill:rgb(235,235,235);fill-opacity:0;stroke:black;stroke-width:3.13px;"/>
                </g>
                <g transform="matrix(1,0,0,1,4724.41,472.441)">
                    <rect x="236.22" y="1181.1" width="236.22" height="236.22" style="fill:rgb(235,235,235);fill-opacity:0;stroke:black;stroke-width:3.13px;"/>
                </g>
                <g transform="matrix(1,0,0,1,4251.97,1889.76)">
                    <rect x="236.22" y="1181.1" width="236.22" height="236.22" style="fill:rgb(235,235,235);fill-opacity:0;stroke:black;stroke-width:3.13px;"/>
                </g>
                <g transform="matrix(1,0,0,1,-614.173,-590.551)">
                    <g transform="matrix(1,0,0,1,3685.04,118.11)">
                        <rect x="236.22" y="1181.1" width="236.22" height="236.22" style="fill:rgb(235,235,235);fill-opacity:0;stroke:black;stroke-width:3.13px;"/>
                    </g>
                    <g transform="matrix(6.12323e-17,-1,1,6.12323e-17,1497.96,3907.87)">
                        <g transform="matrix(1,0,0,1,10.2351,1242.2)">
                            <rect x="236.22" y="1181.1" width="236.22" height="236.22" style="fill:rgb(235,235,235);fill-opacity:0;stroke:black;stroke-width:3.13px;"/>
                        </g>
                        <g transform="matrix(1,0,0,1,246.456,1242.2)">
                            <rect x="236.22" y="1181.1" width="236.22" height="236.22" style="fill:rgb(235,235,235);fill-opacity:0;stroke:black;stroke-width:3.13px;"/>
                        </g>
                        <g transform="matrix(1,0,0,1,482.676,1242.2)">
                            <rect x="236.22" y="1181.1" width="236.22" height="236.22" style="fill:rgb(235,235,235);fill-opacity:0;stroke:black;stroke-width:3.13px;"/>
                        </g>
                        <g transform="matrix(1,0,0,1,718.897,1242.2)">
                            <rect x="236.22" y="1181.1" width="236.22" height="236.22" style="fill:rgb(235,235,235);fill-opacity:0;stroke:black;stroke-width:3.13px;"/>
                        </g>
                        <g transform="matrix(1,0,0,1,955.117,1242.2)">
                            <rect x="236.22" y="1181.1" width="236.22" height="236.22" style="fill:rgb(235,235,235);fill-opacity:0;stroke:black;stroke-width:3.13px;"/>
                        </g>
                        <g transform="matrix(1,0,0,1,1191.34,1242.2)">
                            <rect x="236.22" y="1181.1" width="236.22" height="236.22" style="fill:rgb(235,235,235);fill-opacity:0;stroke:black;stroke-width:3.13px;"/>
                        </g>
                        <g transform="matrix(1,0,0,1,1427.56,1242.2)">
                            <rect x="236.22" y="1181.1" width="236.22" height="236.22" style="fill:rgb(235,235,235);fill-opacity:0;stroke:black;stroke-width:3.13px;"/>
                        </g>
                        <g transform="matrix(1,0,0,1,1663.78,1242.2)">
                            <rect x="236.22" y="1181.1" width="236.22" height="236.22" style="fill:rgb(235,235,235);fill-opacity:0;stroke:black;stroke-width:3.13px;"/>
                        </g>
                        <g transform="matrix(1,0,0,1,1900,1242.2)">
                            <rect x="236.22" y="1181.1" width="236.22" height="236.22" style="fill:rgb(235,235,235);fill-opacity:0;stroke:black;stroke-width:3.13px;"/>
                        </g>
                    </g>
                </g>
                <g transform="matrix(1,0,0,1,2362.2,236.22)">
                    <rect x="236.22" y="1181.1" width="236.22" height="236.22" style="fill:rgb(235,235,235);fill-opacity:0;stroke:black;stroke-width:3.13px;"/>
                </g>
                <g transform="matrix(1,0,0,1,-521.311,-273.837)">
                    <g transform="matrix(1,0,0,1,2174.85,1454.94)">
                        <rect x="236.22" y="1181.1" width="236.22" height="236.22" style="fill:rgb(235,235,235);fill-opacity:0;stroke:black;stroke-width:3.13px;"/>
                    </g>
                    <g transform="matrix(1,0,0,1,2411.07,1454.94)">
                        <rect x="236.22" y="1181.1" width="236.22" height="236.22" style="fill:rgb(235,235,235);fill-opacity:0;stroke:black;stroke-width:3.13px;"/>
                    </g>
                    <g transform="matrix(1,0,0,1,2647.3,1454.94)">
                        <rect x="236.22" y="1181.1" width="236.22" height="236.22" style="fill:rgb(235,235,235);fill-opacity:0;stroke:black;stroke-width:3.13px;"/>
                    </g>
                    <g transform="matrix(1,0,0,1,2883.52,1454.94)">
                        <rect x="236.22" y="1181.1" width="236.22" height="236.22" style="fill:rgb(235,235,235);fill-opacity:0;stroke:black;stroke-width:3.13px;"/>
                    </g>
                    <g transform="matrix(1,0,0,1,3119.74,1454.94)">
                        <rect x="236.22" y="1181.1" width="236.22" height="236.22" style="fill:rgb(235,235,235);fill-opacity:0;stroke:black;stroke-width:3.13px;"/>
                    </g>
                </g>
                <g transform="matrix(1,0,0,1,1170.87,411.341)">
                    <g transform="matrix(1,0,0,1,10.2351,1242.2)">
                        <rect x="236.22" y="1181.1" width="236.22" height="236.22" style="fill:rgb(235,235,235);fill-opacity:0;stroke:black;stroke-width:3.13px;"/>
                    </g>
                    <g transform="matrix(1,0,0,1,246.456,1242.2)">
                        <rect x="236.22" y="1181.1" width="236.22" height="236.22" style="fill:rgb(235,235,235);fill-opacity:0;stroke:black;stroke-width:3.13px;"/>
                    </g>
                    <g transform="matrix(1,0,0,1,482.676,1242.2)">
                        <rect x="236.22" y="1181.1" width="236.22" height="236.22" style="fill:rgb(235,235,235);fill-opacity:0;stroke:black;stroke-width:3.13px;"/>
                    </g>
                    <g transform="matrix(1,0,0,1,718.897,1242.2)">
                        <rect x="236.22" y="1181.1" width="236.22" height="236.22" style="fill:rgb(235,235,235);fill-opacity:0;stroke:black;stroke-width:3.13px;"/>
                    </g>
                    <g transform="matrix(1,0,0,1,955.117,1242.2)">
                        <rect x="236.22" y="1181.1" width="236.22" height="236.22" style="fill:rgb(235,235,235);fill-opacity:0;stroke:black;stroke-width:3.13px;"/>
                    </g>
                    <g transform="matrix(1,0,0,1,1191.34,1242.2)">
                        <rect x="236.22" y="1181.1" width="236.22" height="236.22" style="fill:rgb(235,235,235);fill-opacity:0;stroke:black;stroke-width:3.13px;"/>
                    </g>
                    <g transform="matrix(1,0,0,1,1427.56,1242.2)">
                        <rect x="236.22" y="1181.1" width="236.22" height="236.22" style="fill:rgb(235,235,235);fill-opacity:0;stroke:black;stroke-width:3.13px;"/>
                    </g>
                    <g transform="matrix(1,0,0,1,1663.78,1242.2)">
                        <rect x="236.22" y="1181.1" width="236.22" height="236.22" style="fill:rgb(235,235,235);fill-opacity:0;stroke:black;stroke-width:3.13px;"/>
                    </g>
                    <g transform="matrix(1,0,0,1,1900,1242.2)">
                        <rect x="236.22" y="1181.1" width="236.22" height="236.22" style="fill:rgb(235,235,235);fill-opacity:0;stroke:black;stroke-width:3.13px;"/>
                    </g>
                </g>
                <g transform="matrix(6.12323e-17,-1,1,6.12323e-17,175.121,4025.98)">
                    <g transform="matrix(1,0,0,1,10.2351,1242.2)">
                        <rect x="236.22" y="1181.1" width="236.22" height="236.22" style="fill:rgb(235,235,235);fill-opacity:0;stroke:black;stroke-width:3.13px;"/>
                    </g>
                    <g transform="matrix(1,0,0,1,246.456,1242.2)">
                        <rect x="236.22" y="1181.1" width="236.22" height="236.22" style="fill:rgb(235,235,235);fill-opacity:0;stroke:black;stroke-width:3.13px;"/>
                    </g>
                    <g transform="matrix(1,0,0,1,482.676,1242.2)">
                        <rect x="236.22" y="1181.1" width="236.22" height="236.22" style="fill:rgb(235,235,235);fill-opacity:0;stroke:black;stroke-width:3.13px;"/>
                    </g>
                    <g transform="matrix(1,0,0,1,718.897,1242.2)">
                        <rect x="236.22" y="1181.1" width="236.22" height="236.22" style="fill:rgb(235,235,235);fill-opacity:0;stroke:black;stroke-width:3.13px;"/>
                    </g>
                    <g transform="matrix(1,0,0,1,955.117,1242.2)">
                        <rect x="236.22" y="1181.1" width="236.22" height="236.22" style="fill:rgb(235,235,235);fill-opacity:0;stroke:black;stroke-width:3.13px;"/>
                    </g>
                    <g transform="matrix(1,0,0,1,1191.34,1242.2)">
                        <rect x="236.22" y="1181.1" width="236.22" height="236.22" style="fill:rgb(235,235,235);fill-opacity:0;stroke:black;stroke-width:3.13px;"/>
                    </g>
                    <g transform="matrix(1,0,0,1,1427.56,1242.2)">
                        <rect x="236.22" y="1181.1" width="236.22" height="236.22" style="fill:rgb(235,235,235);fill-opacity:0;stroke:black;stroke-width:3.13px;"/>
                    </g>
                    <g transform="matrix(1,0,0,1,1663.78,1242.2)">
                        <rect x="236.22" y="1181.1" width="236.22" height="236.22" style="fill:rgb(235,235,235);fill-opacity:0;stroke:black;stroke-width:3.13px;"/>
                    </g>
                    <g transform="matrix(1,0,0,1,1900,1242.2)">
                        <rect x="236.22" y="1181.1" width="236.22" height="236.22" style="fill:rgb(235,235,235);fill-opacity:0;stroke:black;stroke-width:3.13px;"/>
                    </g>
                </g>
                <g transform="matrix(1,0,0,1,-2174.45,1600.78)">
                    <g transform="matrix(1,0,0,1,2174.45,1706.3)">
                        <rect x="236.22" y="1181.1" width="236.22" height="236.22" style="fill:rgb(235,235,235);fill-opacity:0;stroke:black;stroke-width:3.13px;"/>
                    </g>
                    <g transform="matrix(1,0,0,1,2410.67,1706.3)">
                        <rect x="236.22" y="1181.1" width="236.22" height="236.22" style="fill:rgb(235,235,235);fill-opacity:0;stroke:black;stroke-width:3.13px;"/>
                    </g>
                    <g transform="matrix(1,0,0,1,2646.89,1706.3)">
                        <rect x="236.22" y="1181.1" width="236.22" height="236.22" style="fill:rgb(235,235,235);fill-opacity:0;stroke:black;stroke-width:3.13px;"/>
                    </g>
                    <g transform="matrix(1,0,0,1,2883.11,1706.3)">
                        <rect x="236.22" y="1181.1" width="236.22" height="236.22" style="fill:rgb(235,235,235);fill-opacity:0;stroke:black;stroke-width:3.13px;"/>
                    </g>
                    <g transform="matrix(1,0,0,1,3119.33,1706.3)">
                        <rect x="236.22" y="1181.1" width="236.22" height="236.22" style="fill:rgb(235,235,235);fill-opacity:0;stroke:black;stroke-width:3.13px;"/>
                    </g>
                    <g transform="matrix(1,0,0,1,3355.55,1706.3)">
                        <rect x="236.22" y="1181.1" width="236.22" height="236.22" style="fill:rgb(235,235,235);fill-opacity:0;stroke:black;stroke-width:3.13px;"/>
                    </g>
                </g>
                <g transform="matrix(6.12323e-17,-1,1,6.12323e-17,-769.761,4970.87)">
                    <g transform="matrix(1,0,0,1,10.2351,1242.2)">
                        <rect x="236.22" y="1181.1" width="236.22" height="236.22" style="fill:rgb(235,235,235);fill-opacity:0;stroke:black;stroke-width:3.13px;"/>
                    </g>
                    <g transform="matrix(1,0,0,1,246.456,1242.2)">
                        <rect x="236.22" y="1181.1" width="236.22" height="236.22" style="fill:rgb(235,235,235);fill-opacity:0;stroke:black;stroke-width:3.13px;"/>
                    </g>
                    <g transform="matrix(1,0,0,1,482.676,1242.2)">
                        <rect x="236.22" y="1181.1" width="236.22" height="236.22" style="fill:rgb(235,235,235);fill-opacity:0;stroke:black;stroke-width:3.13px;"/>
                    </g>
                    <g transform="matrix(1,0,0,1,718.897,1242.2)">
                        <rect x="236.22" y="1181.1" width="236.22" height="236.22" style="fill:rgb(235,235,235);fill-opacity:0;stroke:black;stroke-width:3.13px;"/>
                    </g>
                    <g transform="matrix(1,0,0,1,955.117,1242.2)">
                        <rect x="236.22" y="1181.1" width="236.22" height="236.22" style="fill:rgb(235,235,235);fill-opacity:0;stroke:black;stroke-width:3.13px;"/>
                    </g>
                    <g transform="matrix(1,0,0,1,1191.34,1242.2)">
                        <rect x="236.22" y="1181.1" width="236.22" height="236.22" style="fill:rgb(235,235,235);fill-opacity:0;stroke:black;stroke-width:3.13px;"/>
                    </g>
                    <g transform="matrix(1,0,0,1,1427.56,1242.2)">
                        <rect x="236.22" y="1181.1" width="236.22" height="236.22" style="fill:rgb(235,235,235);fill-opacity:0;stroke:black;stroke-width:3.13px;"/>
                    </g>
                    <g transform="matrix(1,0,0,1,1663.78,1242.2)">
                        <rect x="236.22" y="1181.1" width="236.22" height="236.22" style="fill:rgb(235,235,235);fill-opacity:0;stroke:black;stroke-width:3.13px;"/>
                    </g>
                    <g transform="matrix(1,0,0,1,1900,1242.2)">
                        <rect x="236.22" y="1181.1" width="236.22" height="236.22" style="fill:rgb(235,235,235);fill-opacity:0;stroke:black;stroke-width:3.13px;"/>
                    </g>
                </g>
                <g transform="matrix(1,0,0,1,-310.143,462.971)">
                    <g transform="matrix(1,0,0,1,1018.8,1899.23)">
                        <rect x="236.22" y="1181.1" width="236.22" height="236.22" style="fill:rgb(235,235,235);fill-opacity:0;stroke:black;stroke-width:3.13px;"/>
                    </g>
                    <g transform="matrix(1,0,0,1,1255.02,1899.23)">
                        <rect x="236.22" y="1181.1" width="236.22" height="236.22" style="fill:rgb(235,235,235);fill-opacity:0;stroke:black;stroke-width:3.13px;"/>
                    </g>
                    <g transform="matrix(1,0,0,1,1491.25,1899.23)">
                        <rect x="236.22" y="1181.1" width="236.22" height="236.22" style="fill:rgb(235,235,235);fill-opacity:0;stroke:black;stroke-width:3.13px;"/>
                    </g>
                    <g transform="matrix(1,0,0,1,1727.47,1899.23)">
                        <rect x="236.22" y="1181.1" width="236.22" height="236.22" style="fill:rgb(235,235,235);fill-opacity:0;stroke:black;stroke-width:3.13px;"/>
                    </g>
                    <g transform="matrix(1,0,0,1,1963.69,1899.23)">
                        <rect x="236.22" y="1181.1" width="236.22" height="236.22" style="fill:rgb(235,235,235);fill-opacity:0;stroke:black;stroke-width:3.13px;"/>
                    </g>
                    <g transform="matrix(1,0,0,1,2199.91,1899.23)">
                        <rect x="236.22" y="1181.1" width="236.22" height="236.22" style="fill:rgb(235,235,235);fill-opacity:0;stroke:black;stroke-width:3.13px;"/>
                    </g>
                    <g transform="matrix(1,0,0,1,2436.13,1899.23)">
                        <rect x="236.22" y="1181.1" width="236.22" height="236.22" style="fill:rgb(235,235,235);fill-opacity:0;stroke:black;stroke-width:3.13px;"/>
                    </g>
                    <g transform="matrix(1,0,0,1,2672.35,1899.23)">
                        <rect x="236.22" y="1181.1" width="236.22" height="236.22" style="fill:rgb(235,235,235);fill-opacity:0;stroke:black;stroke-width:3.13px;"/>
                    </g>
                </g>
                <g>
                    <g transform="matrix(1.25,0,0,1.25,-183.071,-537.402)">
                        <g transform="matrix(50,0,0,50,760.091,2185.42)">
                        </g>
                        <text x="732.283px" y="2185.42px" style="font-family:'ArialMT', 'Arial', sans-serif;font-size:50px;fill:rgb(35,31,32);stroke:rgb(35,31,32);stroke-width:2.5px;stroke-linecap:butt;stroke-miterlimit:2;">5</text>
                    </g>
                    <g transform="matrix(1.25,0,0,1.25,991.384,-310.667)">
                        <g transform="matrix(50,0,0,50,760.091,2185.42)">
                        </g>
                        <text x="732.283px" y="2185.42px" style="font-family:'ArialMT', 'Arial', sans-serif;font-size:50px;fill:rgb(35,31,32);stroke:rgb(35,31,32);stroke-width:2.5px;stroke-linecap:butt;stroke-miterlimit:2;">7</text>
                    </g>
                    <g transform="matrix(1.25,0,0,1.25,1704.66,-1244.1)">
                        <g transform="matrix(50,0,0,50,760.091,2185.42)">
                        </g>
                        <text x="732.283px" y="2185.42px" style="font-family:'ArialMT', 'Arial', sans-serif;font-size:50px;fill:rgb(35,31,32);stroke:rgb(35,31,32);stroke-width:2.5px;stroke-linecap:butt;stroke-miterlimit:2;">3</text>
                    </g>
                    <g transform="matrix(1.25,0,0,1.25,2411.2,-1955.22)">
                        <g transform="matrix(50,0,0,50,760.091,2185.42)">
                        </g>
                        <text x="732.283px" y="2185.42px" style="font-family:'ArialMT', 'Arial', sans-serif;font-size:50px;fill:rgb(35,31,32);stroke:rgb(35,31,32);stroke-width:2.5px;stroke-linecap:butt;stroke-miterlimit:2;">1</text>
                    </g>
                    <g transform="matrix(1.25,0,0,1.25,2173.11,-1011.53)">
                        <g transform="matrix(50,0,0,50,760.091,2185.42)">
                        </g>
                        <text x="732.283px" y="2185.42px" style="font-family:'ArialMT', 'Arial', sans-serif;font-size:50px;fill:rgb(35,31,32);stroke:rgb(35,31,32);stroke-width:2.5px;stroke-linecap:butt;stroke-miterlimit:2;">4</text>
                    </g>
                    <g transform="matrix(1.25,0,0,1.25,3590.24,-1492.22)">
                        <g transform="matrix(50,0,0,50,760.091,2185.42)">
                        </g>
                        <text x="732.283px" y="2185.42px" style="font-family:'ArialMT', 'Arial', sans-serif;font-size:50px;fill:rgb(35,31,32);stroke:rgb(35,31,32);stroke-width:2.5px;stroke-linecap:butt;stroke-miterlimit:2;">2</text>
                    </g>
                    <g transform="matrix(1.25,0,0,1.25,4533.92,-545.63)">
                        <g transform="matrix(50,0,0,50,760.091,2185.42)">
                        </g>
                        <text x="732.283px" y="2185.42px" style="font-family:'ArialMT', 'Arial', sans-serif;font-size:50px;fill:rgb(35,31,32);stroke:rgb(35,31,32);stroke-width:2.5px;stroke-linecap:butt;stroke-miterlimit:2;">6</text>
                    </g>
                    <g transform="matrix(1.25,0,0,1.25,2887.8,166.512)">
                        <g transform="matrix(50,0,0,50,787.899,2185.42)">
                        </g>
                        <text x="732.283px" y="2185.42px" style="font-family:'ArialMT', 'Arial', sans-serif;font-size:50px;fill:rgb(35,31,32);stroke:rgb(35,31,32);stroke-width:2.5px;stroke-linecap:butt;stroke-miterlimit:2;">10</text>
                    </g>
                    <g transform="matrix(1.25,0,0,1.25,2646.99,881.492)">
                        <g transform="matrix(50,0,0,50,787.899,2185.42)">
                        </g>
                        <text x="732.283px" y="2185.42px" style="font-family:'ArialMT', 'Arial', sans-serif;font-size:50px;fill:rgb(35,31,32);stroke:rgb(35,31,32);stroke-width:2.5px;stroke-linecap:butt;stroke-miterlimit:2;">12</text>
                    </g>
                    <g transform="matrix(1.25,0,0,1.25,2175.79,1337.87)">
                        <g transform="matrix(50,0,0,50,787.899,2185.42)">
                        </g>
                        <text x="732.283px" y="2185.42px" style="font-family:'ArialMT', 'Arial', sans-serif;font-size:50px;fill:rgb(35,31,32);stroke:rgb(35,31,32);stroke-width:2.5px;stroke-linecap:butt;stroke-miterlimit:2;">13</text>
                    </g>
                    <g transform="matrix(1.25,0,0,1.25,752.967,-70.9022)">
                        <g transform="matrix(50,0,0,50,760.091,2185.42)">
                        </g>
                        <text x="732.283px" y="2185.42px" style="font-family:'ArialMT', 'Arial', sans-serif;font-size:50px;fill:rgb(35,31,32);stroke:rgb(35,31,32);stroke-width:2.5px;stroke-linecap:butt;stroke-miterlimit:2;">8</text>
                    </g>
                    <g transform="matrix(1.25,0,0,1.25,520.269,166.569)">
                        <g transform="matrix(50,0,0,50,760.091,2185.42)">
                        </g>
                        <text x="732.283px" y="2185.42px" style="font-family:'ArialMT', 'Arial', sans-serif;font-size:50px;fill:rgb(35,31,32);stroke:rgb(35,31,32);stroke-width:2.5px;stroke-linecap:butt;stroke-miterlimit:2;">9</text>
                    </g>
                    <g transform="matrix(1.25,0,0,1.25,-188.403,877.908)">
                        <g transform="matrix(50,0,0,50,784.188,2185.42)">
                        </g>
                        <text x="732.283px" y="2185.42px" style="font-family:'ArialMT', 'Arial', sans-serif;font-size:50px;fill:rgb(35,31,32);stroke:rgb(35,31,32);stroke-width:2.5px;stroke-linecap:butt;stroke-miterlimit:2;">1<tspan x="756.38px " y="2185.42px ">1</tspan></text>
                    </g>
                    <g transform="matrix(1.25,0,0,1.25,-667.159,1821.76)">
                        <g transform="matrix(50,0,0,50,787.899,2185.42)">
                        </g>
                        <text x="732.283px" y="2185.42px" style="font-family:'ArialMT', 'Arial', sans-serif;font-size:50px;fill:rgb(35,31,32);stroke:rgb(35,31,32);stroke-width:2.5px;stroke-linecap:butt;stroke-miterlimit:2;">14</text>
                    </g>
                </g>
            </g>
        </g>
    </g>
</svg>
