<?xml version="1.0" encoding="UTF-8" standalone="no"?>
<!DOCTYPE svg PUBLIC "-//W3C//DTD SVG 1.1//EN" "http://www.w3.org/Graphics/SVG/1.1/DTD/svg11.dtd">
<svg width="100%" height="100%" viewBox="0 0 1872 1405" version="1.1" xmlns="http://www.w3.org/2000/svg" xmlns:xlink="http://www.w3.org/1999/xlink" xml:space="preserve" xmlns:serif="http://www.serif.com/" style="fill-rule:evenodd;clip-rule:evenodd;stroke-linecap:round;stroke-linejoin:round;stroke-miterlimit:1.5;">
    <g transform="matrix(1,0,0,1,-660.271,-345.055)">
        <g>
            <g transform="matrix(2.9935e-17,-0.488876,0.494231,3.02629e-17,1362.51,1978.99)">
                <rect x="472.423" y="234.547" width="238.808" height="236.083" style="fill:none;stroke:black;stroke-width:4.66px;"/>
            </g>
            <g transform="matrix(0.488876,1.19487e-16,-1.20796e-16,0.494231,898.24,1515.36)">
                <rect x="472.423" y="234.547" width="238.808" height="236.083" style="fill:none;stroke:black;stroke-width:4.66px;"/>
            </g>
            <path d="M1245.94,1631.28L1362.44,1631.28L1362.69,1747.96L1245.94,1747.96" style="fill:none;stroke:black;stroke-width:2.29px;"/>
            <g transform="matrix(-0.488876,-5.98701e-17,6.05258e-17,-0.494231,1242.34,578.939)">
                <rect x="472.423" y="234.547" width="238.808" height="236.083" style="fill:none;stroke:black;stroke-width:4.66px;"/>
            </g>
            <g transform="matrix(2.9935e-17,-0.488876,0.494231,3.02629e-17,778.992,1627.88)">
                <rect x="472.423" y="234.547" width="238.808" height="236.083" style="fill:none;stroke:black;stroke-width:4.66px;"/>
            </g>
            <g transform="matrix(2.9935e-17,-0.488876,0.494231,3.02629e-17,778.992,1511.14)">
                <rect x="472.423" y="234.547" width="238.808" height="236.083" style="fill:none;stroke:black;stroke-width:4.66px;"/>
            </g>
            <g transform="matrix(2.9935e-17,-0.488876,0.494231,3.02629e-17,778.992,1394.39)">
                <rect x="472.423" y="234.547" width="238.808" height="236.083" style="fill:none;stroke:black;stroke-width:4.66px;"/>
            </g>
            <g transform="matrix(2.9935e-17,-0.488876,0.494231,3.02629e-17,778.992,1277.64)">
                <rect x="472.423" y="234.547" width="238.808" height="236.083" style="fill:none;stroke:black;stroke-width:4.66px;"/>
            </g>
            <g transform="matrix(2.9935e-17,-0.488876,0.494231,3.02629e-17,778.992,1160.89)">
                <rect x="472.423" y="234.547" width="238.808" height="236.083" style="fill:none;stroke:black;stroke-width:4.66px;"/>
            </g>
            <g transform="matrix(2.9935e-17,-0.488876,0.494231,3.02629e-17,778.992,1044.15)">
                <rect x="472.423" y="234.547" width="238.808" height="236.083" style="fill:none;stroke:black;stroke-width:4.66px;"/>
            </g>
            <g transform="matrix(2.9935e-17,-0.488876,0.494231,3.02629e-17,778.992,927.4)">
                <rect x="472.423" y="234.547" width="238.808" height="236.083" style="fill:none;stroke:black;stroke-width:4.66px;"/>
            </g>
            <g transform="matrix(2.9935e-17,-0.488876,0.494231,3.02629e-17,778.992,810.652)">
                <rect x="472.423" y="234.547" width="238.808" height="236.083" style="fill:none;stroke:black;stroke-width:4.66px;"/>
            </g>
            <g transform="matrix(2.9935e-17,-0.488876,0.494231,3.02629e-17,778.992,693.905)">
                <rect x="472.423" y="234.547" width="238.808" height="236.083" style="fill:none;stroke:black;stroke-width:4.66px;"/>
            </g>
            <g transform="matrix(-0.488876,-5.98701e-17,6.05258e-17,-0.494231,1592.95,1162.11)">
                <rect x="472.423" y="234.547" width="238.808" height="236.083" style="fill:none;stroke:black;stroke-width:4.66px;"/>
            </g>
            <g transform="matrix(-0.488876,-5.98701e-17,6.05258e-17,-0.494231,1476.2,1162.11)">
                <rect x="472.423" y="234.547" width="238.808" height="236.083" style="fill:none;stroke:black;stroke-width:4.66px;"/>
            </g>
            <g transform="matrix(-0.488876,-5.96173e-17,6.02703e-17,-0.494231,1710.14,1396.65)">
                <rect x="472.423" y="234.547" width="238.808" height="236.083" style="fill:none;stroke:black;stroke-width:4.66px;"/>
            </g>
            <g transform="matrix(-0.488876,-5.96173e-17,6.02703e-17,-0.494231,1593.4,1396.65)">
                <rect x="472.423" y="234.547" width="238.808" height="236.083" style="fill:none;stroke:black;stroke-width:4.66px;"/>
            </g>
            <g transform="matrix(-0.488876,-5.96173e-17,6.02703e-17,-0.494231,1476.65,1396.65)">
                <rect x="472.423" y="234.547" width="238.808" height="236.083" style="fill:none;stroke:black;stroke-width:4.66px;"/>
            </g>
            <g transform="matrix(-0.488876,-5.96173e-17,6.02703e-17,-0.494231,1359.9,1396.65)">
                <rect x="472.423" y="234.547" width="238.808" height="236.083" style="fill:none;stroke:black;stroke-width:4.66px;"/>
            </g>
            <path d="M1362.69,1747.96L1478.43,1747.96" style="fill:none;stroke:black;stroke-width:2.29px;"/>
            <g transform="matrix(0.488876,1.19487e-16,-1.20796e-16,0.494231,1247.48,813.702)">
                <rect x="472.423" y="234.547" width="238.808" height="236.083" style="fill:none;stroke:black;stroke-width:4.66px;"/>
            </g>
            <g transform="matrix(0.488876,1.19487e-16,-1.20796e-16,0.494231,1364.22,813.702)">
                <rect x="472.423" y="234.547" width="238.808" height="236.083" style="fill:none;stroke:black;stroke-width:4.66px;"/>
            </g>
            <path d="M1713.2,929.938L1830.09,929.938" style="fill:none;stroke:black;stroke-width:2.29px;"/>
            <path d="M1711.93,1045.84L1830.09,1045.84" style="fill:none;stroke:black;stroke-width:2.29px;"/>
            <g transform="matrix(0.488876,1.19487e-16,-1.20796e-16,0.494231,1598.72,813.702)">
                <rect x="472.423" y="234.547" width="238.808" height="236.083" style="fill:none;stroke:black;stroke-width:4.66px;"/>
            </g>
            <g transform="matrix(-8.95523e-17,0.488876,-0.494231,-9.05332e-17,2179.17,1165.66)">
                <rect x="472.423" y="234.547" width="238.808" height="236.083" style="fill:none;stroke:black;stroke-width:4.66px;"/>
            </g>
            <g transform="matrix(-8.95523e-17,0.488876,-0.494231,-9.05332e-17,2179.17,1282.4)">
                <rect x="472.423" y="234.547" width="238.808" height="236.083" style="fill:none;stroke:black;stroke-width:4.66px;"/>
            </g>
            <g transform="matrix(-8.95523e-17,0.488876,-0.494231,-9.05332e-17,2179.74,464.956)">
                <rect x="472.423" y="234.547" width="238.808" height="236.083" style="fill:none;stroke:black;stroke-width:4.66px;"/>
            </g>
            <g transform="matrix(1,0,0,1,169.912,99.0909)">
                <g transform="matrix(33.3333,0,0,33.3333,745.538,279.877)">
                </g>
                <text x="727px" y="279.877px" style="font-family:'ArialMT', 'Arial', sans-serif;font-size:33.333px;">1</text>
            </g>
            <g transform="matrix(-0.488876,-0.00062948,0.000636374,-0.49423,2761.04,929.626)">
                <rect x="472.423" y="234.547" width="238.808" height="236.083" style="fill:none;stroke:black;stroke-width:4.66px;"/>
            </g>
            <g transform="matrix(-0.00062948,0.488876,-0.49423,-0.000636374,2180.04,1049.81)">
                <rect x="472.423" y="234.547" width="238.808" height="236.083" style="fill:none;stroke:black;stroke-width:4.66px;"/>
            </g>
            <g transform="matrix(-0.00062948,0.488876,-0.49423,-0.000636374,2180.04,816.014)">
                <rect x="472.423" y="234.547" width="238.808" height="236.083" style="fill:none;stroke:black;stroke-width:4.66px;"/>
            </g>
            <g transform="matrix(-0.00062948,0.488876,-0.49423,-0.000636374,2180.04,699.116)">
                <rect x="472.423" y="234.547" width="238.808" height="236.083" style="fill:none;stroke:black;stroke-width:4.66px;"/>
            </g>
            <g transform="matrix(-0.00062948,0.488876,-0.49423,-0.000636374,2180.04,582.218)">
                <rect x="472.423" y="234.547" width="238.808" height="236.083" style="fill:none;stroke:black;stroke-width:4.66px;"/>
            </g>
            <g transform="matrix(-0.00062948,0.488876,-0.49423,-0.000636374,2646.99,1165.87)">
                <rect x="472.423" y="234.547" width="238.808" height="236.083" style="fill:none;stroke:black;stroke-width:4.66px;"/>
            </g>
            <g transform="matrix(-0.00062948,0.488876,-0.49423,-0.000636374,2646.99,1048.97)">
                <rect x="472.423" y="234.547" width="238.808" height="236.083" style="fill:none;stroke:black;stroke-width:4.66px;"/>
            </g>
            <g transform="matrix(-0.00062948,0.488876,-0.49423,-0.000636374,2646.99,932.077)">
                <rect x="472.423" y="234.547" width="238.808" height="236.083" style="fill:none;stroke:black;stroke-width:4.66px;"/>
            </g>
            <g transform="matrix(-0.00062948,0.488876,-0.49423,-0.000636374,2646.99,815.179)">
                <rect x="472.423" y="234.547" width="238.808" height="236.083" style="fill:none;stroke:black;stroke-width:4.66px;"/>
            </g>
            <g transform="matrix(-0.00062948,0.488876,-0.49423,-0.000636374,2646.99,698.281)">
                <rect x="472.423" y="234.547" width="238.808" height="236.083" style="fill:none;stroke:black;stroke-width:4.66px;"/>
            </g>
            <g transform="matrix(-0.488876,-0.00062948,0.000636374,-0.49423,1943.85,1629.52)">
                <rect x="472.423" y="234.547" width="238.808" height="236.083" style="fill:none;stroke:black;stroke-width:4.66px;"/>
            </g>
            <g transform="matrix(-0.488876,-0.00062948,0.000636374,-0.49423,2060.75,1629.52)">
                <rect x="472.423" y="234.547" width="238.808" height="236.083" style="fill:none;stroke:black;stroke-width:4.66px;"/>
            </g>
            <g transform="matrix(-0.488876,-0.00062948,0.000636374,-0.49423,2177.65,1629.52)">
                <rect x="472.423" y="234.547" width="238.808" height="236.083" style="fill:none;stroke:black;stroke-width:4.66px;"/>
            </g>
            <g transform="matrix(-0.488876,-0.00062948,0.000636374,-0.49423,2410.8,1629.52)">
                <rect x="472.423" y="234.547" width="238.808" height="236.083" style="fill:none;stroke:black;stroke-width:4.66px;"/>
            </g>
            <g transform="matrix(-0.488876,-0.00062948,0.000636374,-0.49423,2527.7,1629.52)">
                <rect x="472.423" y="234.547" width="238.808" height="236.083" style="fill:none;stroke:black;stroke-width:4.66px;"/>
            </g>
            <g transform="matrix(-0.488876,-0.00062948,0.000636374,-0.49423,2644.6,1629.52)">
                <rect x="472.423" y="234.547" width="238.808" height="236.083" style="fill:none;stroke:black;stroke-width:4.66px;"/>
            </g>
            <g transform="matrix(-0.488876,-0.00062948,0.000636374,-0.49423,1943.85,1396.1)">
                <rect x="472.423" y="234.547" width="238.808" height="236.083" style="fill:none;stroke:black;stroke-width:4.66px;"/>
            </g>
            <g transform="matrix(-0.488876,-0.00062948,0.000636374,-0.49423,2060.75,1396.1)">
                <rect x="472.423" y="234.547" width="238.808" height="236.083" style="fill:none;stroke:black;stroke-width:4.66px;"/>
            </g>
            <g transform="matrix(-0.488876,-0.00062948,0.000636374,-0.49423,2177.65,1396.1)">
                <rect x="472.423" y="234.547" width="238.808" height="236.083" style="fill:none;stroke:black;stroke-width:4.66px;"/>
            </g>
            <g transform="matrix(-0.488876,-0.00062948,0.000636374,-0.49423,2527.25,1396.08)">
                <rect x="472.423" y="234.547" width="238.808" height="236.083" style="fill:none;stroke:black;stroke-width:4.66px;"/>
            </g>
            <g transform="matrix(-0.488876,-0.00062948,0.000636374,-0.49423,2644.15,1396.08)">
                <rect x="472.423" y="234.547" width="238.808" height="236.083" style="fill:none;stroke:black;stroke-width:4.66px;"/>
            </g>
            <g transform="matrix(-0.488876,-0.00062948,0.000636374,-0.49423,2644.3,929.476)">
                <rect x="472.423" y="234.547" width="238.808" height="236.083" style="fill:none;stroke:black;stroke-width:4.66px;"/>
            </g>
            <g transform="matrix(-0.488876,-0.00062948,0.000636374,-0.49423,2527.55,929.326)">
                <rect x="472.423" y="234.547" width="238.808" height="236.083" style="fill:none;stroke:black;stroke-width:4.66px;"/>
            </g>
            <g transform="matrix(-0.488876,-0.00062948,0.000636374,-0.49423,2410.8,929.175)">
                <rect x="472.423" y="234.547" width="238.808" height="236.083" style="fill:none;stroke:black;stroke-width:4.66px;"/>
            </g>
            <g transform="matrix(2.9935e-17,-0.488876,0.494231,3.02629e-17,2181.09,1043.83)">
                <rect x="472.423" y="234.547" width="238.808" height="236.083" style="fill:none;stroke:black;stroke-width:5.09px;"/>
            </g>
            <g transform="matrix(0.488875,-0.00107844,0.00109025,0.49423,1598.33,580.975)">
                <rect x="472.423" y="234.547" width="238.808" height="236.083" style="fill:none;stroke:black;stroke-width:4.66px;"/>
            </g>
            <g transform="matrix(0.488876,0,0,0.494231,430.461,347.821)">
                <rect x="472.423" y="234.547" width="238.808" height="236.083" style="fill:none;stroke:black;stroke-width:4.66px;"/>
            </g>
            <g transform="matrix(0.488876,0,0,0.494231,547.208,347.821)">
                <rect x="472.423" y="234.547" width="238.808" height="236.083" style="fill:none;stroke:black;stroke-width:4.66px;"/>
            </g>
            <g transform="matrix(0.488876,0,0,0.494231,663.956,347.821)">
                <rect x="472.423" y="234.547" width="238.808" height="236.083" style="fill:none;stroke:black;stroke-width:4.66px;"/>
            </g>
            <g transform="matrix(0.488876,0,0,0.494231,780.703,347.821)">
                <rect x="472.423" y="234.547" width="238.808" height="236.083" style="fill:none;stroke:black;stroke-width:4.66px;"/>
            </g>
            <g transform="matrix(0.488876,0,0,0.494231,897.451,347.821)">
                <rect x="472.423" y="234.547" width="238.808" height="236.083" style="fill:none;stroke:black;stroke-width:4.66px;"/>
            </g>
            <g transform="matrix(2.95998e-17,-0.488876,0.494231,2.9924e-17,1012.78,811.378)">
                <rect x="472.423" y="234.547" width="238.808" height="236.083" style="fill:none;stroke:black;stroke-width:5.51px;"/>
            </g>
            <g transform="matrix(2.95998e-17,-0.488876,0.494231,2.9924e-17,1362.84,1043.68)">
                <rect x="472.423" y="234.547" width="238.808" height="236.083" style="fill:none;stroke:black;stroke-width:5.51px;"/>
            </g>
            <g transform="matrix(2.95998e-17,-0.488876,0.494231,2.9924e-17,1246.16,1861.93)">
                <rect x="472.423" y="234.547" width="238.808" height="236.083" style="fill:none;stroke:black;stroke-width:5.51px;"/>
            </g>
            <g transform="matrix(2.95998e-17,-0.488876,0.494231,2.9924e-17,1246.16,1745.18)">
                <rect x="472.423" y="234.547" width="238.808" height="236.083" style="fill:none;stroke:black;stroke-width:5.51px;"/>
            </g>
            <g transform="matrix(2.95998e-17,-0.488876,0.494231,2.9924e-17,1246.16,1628.43)">
                <rect x="472.423" y="234.547" width="238.808" height="236.083" style="fill:none;stroke:black;stroke-width:5.51px;"/>
            </g>
            <g transform="matrix(-0.488876,-5.95348e-17,6.01869e-17,-0.494231,1592.95,928.581)">
                <rect x="472.423" y="234.547" width="238.808" height="236.083" style="fill:none;stroke:black;stroke-width:5.51px;"/>
            </g>
            <g transform="matrix(-0.488876,-5.95348e-17,6.01869e-17,-0.494231,1476.2,928.581)">
                <rect x="472.423" y="234.547" width="238.808" height="236.083" style="fill:none;stroke:black;stroke-width:5.51px;"/>
            </g>
            <g transform="matrix(-0.488876,-5.95348e-17,6.01869e-17,-0.494231,1359.45,928.581)">
                <rect x="472.423" y="234.547" width="238.808" height="236.083" style="fill:none;stroke:black;stroke-width:5.51px;"/>
            </g>
            <g transform="matrix(2.95998e-17,-0.488876,0.494231,2.9924e-17,662.038,1511.68)">
                <rect x="472.423" y="234.547" width="238.808" height="236.083" style="fill:none;stroke:black;stroke-width:5.51px;"/>
            </g>
            <g transform="matrix(2.95998e-17,-0.488876,0.494231,2.9924e-17,1246.07,1277.15)">
                <rect x="472.423" y="234.547" width="238.808" height="236.083" style="fill:none;stroke:black;stroke-width:5.51px;"/>
            </g>
            <g transform="matrix(2.95998e-17,-0.488876,0.494231,2.9924e-17,1246.07,1160.4)">
                <rect x="472.423" y="234.547" width="238.808" height="236.083" style="fill:none;stroke:black;stroke-width:5.51px;"/>
            </g>
            <g transform="matrix(2.95998e-17,-0.488876,0.494231,2.9924e-17,1246.07,1043.65)">
                <rect x="472.423" y="234.547" width="238.808" height="236.083" style="fill:none;stroke:black;stroke-width:5.51px;"/>
            </g>
            <g transform="matrix(2.95998e-17,-0.488876,0.494231,2.9924e-17,1246.07,926.903)">
                <rect x="472.423" y="234.547" width="238.808" height="236.083" style="fill:none;stroke:black;stroke-width:5.51px;"/>
            </g>
            <g transform="matrix(2.95998e-17,-0.488876,0.494231,2.9924e-17,1246.07,810.156)">
                <rect x="472.423" y="234.547" width="238.808" height="236.083" style="fill:none;stroke:black;stroke-width:5.51px;"/>
            </g>
            <g transform="matrix(1,0,0,1,413.028,680.752)">
                <g transform="matrix(33.3333,0,0,33.3333,745.538,279.877)">
                </g>
                <text x="727px" y="279.877px" style="font-family:'ArialMT', 'Arial', sans-serif;font-size:33.333px;">7</text>
            </g>
            <g transform="matrix(1,0,0,1,649.248,218.201)">
                <g transform="matrix(33.3333,0,0,33.3333,745.538,279.877)">
                </g>
                <text x="727px" y="279.877px" style="font-family:'ArialMT', 'Arial', sans-serif;font-size:33.333px;">3</text>
            </g>
            <g transform="matrix(1,0,0,1,1116.43,451.214)">
                <g transform="matrix(33.3333,0,0,33.3333,745.538,279.877)">
                </g>
                <text x="727px" y="279.877px" style="font-family:'ArialMT', 'Arial', sans-serif;font-size:33.333px;">5</text>
            </g>
            <g transform="matrix(1,0,0,1,1233.63,448.819)">
                <g transform="matrix(33.3333,0,0,33.3333,745.538,279.877)">
                </g>
                <text x="727px" y="279.877px" style="font-family:'ArialMT', 'Arial', sans-serif;font-size:33.333px;">6</text>
            </g>
            <g transform="matrix(1,0,0,1,1696.94,680.752)">
                <g transform="matrix(33.3333,0,0,33.3333,745.538,279.877)">
                </g>
                <text x="727px" y="279.877px" style="font-family:'ArialMT', 'Arial', sans-serif;font-size:33.333px;">8</text>
            </g>
            <g transform="matrix(1,0,0,1,-59.4134,218.201)">
                <g transform="matrix(33.3333,0,0,33.3333,745.538,279.877)">
                </g>
                <text x="727px" y="279.877px" style="font-family:'ArialMT', 'Arial', sans-serif;font-size:33.333px;">2</text>
            </g>
            <g transform="matrix(1,0,0,1,173.7,445.573)">
                <g transform="matrix(33.3333,0,0,33.3333,745.538,279.877)">
                </g>
                <text x="727px" y="279.877px" style="font-family:'ArialMT', 'Arial', sans-serif;font-size:33.333px;">4</text>
            </g>
            <g transform="matrix(1,0,0,1,56.57,913.893)">
                <g transform="matrix(33.3333,0,0,33.3333,745.538,279.877)">
                </g>
                <text x="727px" y="279.877px" style="font-family:'ArialMT', 'Arial', sans-serif;font-size:33.333px;">9</text>
            </g>
            <g transform="matrix(1,0,0,1,412.963,1387.04)">
                <g transform="matrix(33.3333,0,0,33.3333,764.077,279.877)">
                </g>
                <text x="727px" y="279.877px" style="font-family:'ArialMT', 'Arial', sans-serif;font-size:33.333px;">13</text>
            </g>
            <g transform="matrix(1,0,0,1,638.63,918.868)">
                <g transform="matrix(33.3333,0,0,33.3333,764.077,279.877)">
                </g>
                <text x="727px" y="279.877px" style="font-family:'ArialMT', 'Arial', sans-serif;font-size:33.333px;">10</text>
            </g>
            <g transform="matrix(1,0,0,1,874.299,913.449)">
                <g transform="matrix(33.3333,0,0,33.3333,761.603,279.877)">
                </g>
                <text x="727px" y="279.877px" style="font-family:'ArialMT', 'Arial', sans-serif;font-size:33.333px;">1<tspan x="743.064px " y="279.877px ">1</tspan></text>
            </g>
            <g transform="matrix(1,0,0,1,876.299,1151.48)">
                <g transform="matrix(33.3333,0,0,33.3333,764.077,279.877)">
                </g>
                <text x="727px" y="279.877px" style="font-family:'ArialMT', 'Arial', sans-serif;font-size:33.333px;">12</text>
            </g>
            <path d="M2063.82,1164.05L2179.7,1163.43" style="fill:none;stroke:black;stroke-width:2.29px;"/>
            <path d="M2180.14,1279.63L2063.82,1280.18" style="fill:none;stroke:black;stroke-width:2.29px;"/>
            <path d="M2063.82,1162.73L2063.82,1280.18" style="fill:none;stroke:black;stroke-width:2.29px;"/>
        </g>
    </g>
</svg>
