<?xml version="1.0" encoding="UTF-8" standalone="no"?>
<!DOCTYPE svg PUBLIC "-//W3C//DTD SVG 1.1//EN" "http://www.w3.org/Graphics/SVG/1.1/DTD/svg11.dtd">
<svg width="100%" height="100%" viewBox="0 0 2925 1988" version="1.1" xmlns="http://www.w3.org/2000/svg" xmlns:xlink="http://www.w3.org/1999/xlink" xml:space="preserve" xmlns:serif="http://www.serif.com/" style="fill-rule:evenodd;clip-rule:evenodd;stroke-linecap:round;stroke-linejoin:round;stroke-miterlimit:1.5;">
    <g transform="matrix(1,0,0,1,-126.457,-118.327)">
        <g>
            <g transform="matrix(0.488876,1.19487e-16,-1.20796e-16,0.494231,1064.04,1405.42)">
                <rect x="472.423" y="234.547" width="238.808" height="236.083" style="fill:none;stroke:black;stroke-width:4.66px;"/>
            </g>
            <g transform="matrix(0.488876,1.19487e-16,-1.20796e-16,0.494231,1180.79,1405.42)">
                <rect x="472.423" y="234.547" width="238.808" height="236.083" style="fill:none;stroke:black;stroke-width:4.66px;"/>
            </g>
            <g transform="matrix(0.488876,1.19487e-16,-1.20796e-16,0.494231,1415.04,937.976)">
                <rect x="472.423" y="234.547" width="238.808" height="236.083" style="fill:none;stroke:black;stroke-width:4.66px;"/>
            </g>
            <g transform="matrix(1,0,0,1,-599.397,1501.92)">
                <g transform="matrix(33.3333,0,0,33.3333,764.077,279.877)">
                </g>
                <text x="727px" y="279.877px" style="font-family:'ArialMT', 'Arial', sans-serif;font-size:33.333px;">13</text>
            </g>
            <g transform="matrix(-0.488876,-5.98701e-17,6.05258e-17,-0.494231,1525.81,468.959)">
                <rect x="472.423" y="234.547" width="238.808" height="236.083" style="fill:none;stroke:black;stroke-width:4.66px;"/>
            </g>
            <g transform="matrix(2.9935e-17,-0.488876,0.494231,3.02629e-17,1062.46,1517.9)">
                <rect x="472.423" y="234.547" width="238.808" height="236.083" style="fill:none;stroke:black;stroke-width:4.66px;"/>
            </g>
            <g transform="matrix(2.9935e-17,-0.488876,0.494231,3.02629e-17,1062.46,1401.16)">
                <rect x="472.423" y="234.547" width="238.808" height="236.083" style="fill:none;stroke:black;stroke-width:4.66px;"/>
            </g>
            <g transform="matrix(2.9935e-17,-0.488876,0.494231,3.02629e-17,1062.46,1284.41)">
                <rect x="472.423" y="234.547" width="238.808" height="236.083" style="fill:none;stroke:black;stroke-width:4.66px;"/>
            </g>
            <g transform="matrix(2.9935e-17,-0.488876,0.494231,3.02629e-17,1062.46,1167.66)">
                <rect x="472.423" y="234.547" width="238.808" height="236.083" style="fill:none;stroke:black;stroke-width:4.66px;"/>
            </g>
            <g transform="matrix(2.9935e-17,-0.488876,0.494231,3.02629e-17,1062.46,1050.91)">
                <rect x="472.423" y="234.547" width="238.808" height="236.083" style="fill:none;stroke:black;stroke-width:4.66px;"/>
            </g>
            <g transform="matrix(2.9935e-17,-0.488876,0.494231,3.02629e-17,1062.46,934.167)">
                <rect x="472.423" y="234.547" width="238.808" height="236.083" style="fill:none;stroke:black;stroke-width:4.66px;"/>
            </g>
            <g transform="matrix(2.9935e-17,-0.488876,0.494231,3.02629e-17,1062.46,817.419)">
                <rect x="472.423" y="234.547" width="238.808" height="236.083" style="fill:none;stroke:black;stroke-width:4.66px;"/>
            </g>
            <g transform="matrix(2.9935e-17,-0.488876,0.494231,3.02629e-17,1062.46,700.672)">
                <rect x="472.423" y="234.547" width="238.808" height="236.083" style="fill:none;stroke:black;stroke-width:4.66px;"/>
            </g>
            <g transform="matrix(2.9935e-17,-0.488876,0.494231,3.02629e-17,1062.46,583.924)">
                <rect x="472.423" y="234.547" width="238.808" height="236.083" style="fill:none;stroke:black;stroke-width:4.66px;"/>
            </g>
            <g transform="matrix(-0.488876,-5.95348e-17,6.01869e-17,-0.494231,1526.73,1052.33)">
                <rect x="472.423" y="234.547" width="238.808" height="236.083" style="fill:none;stroke:black;stroke-width:5.51px;"/>
            </g>
            <g transform="matrix(1,0,0,1,453.377,-10.8898)">
                <g transform="matrix(33.3333,0,0,33.3333,745.538,279.877)">
                </g>
                <text x="727px" y="279.877px" style="font-family:'ArialMT', 'Arial', sans-serif;font-size:33.333px;">1</text>
            </g>
            <g transform="matrix(1,0,0,1,1044.65,694)">
                <g transform="matrix(33.3333,0,0,33.3333,745.538,279.877)">
                </g>
                <text x="727px" y="279.877px" style="font-family:'ArialMT', 'Arial', sans-serif;font-size:33.333px;">7</text>
            </g>
            <g transform="matrix(1,0,0,1,-127.28,108.22)">
                <g transform="matrix(33.3333,0,0,33.3333,745.538,279.877)">
                </g>
                <text x="727px" y="279.877px" style="font-family:'ArialMT', 'Arial', sans-serif;font-size:33.333px;">3</text>
            </g>
            <g transform="matrix(1,0,0,1,1153.96,1748.03)">
                <g transform="matrix(33.3333,0,0,33.3333,764.077,279.877)">
                </g>
                <text x="727px" y="279.877px" style="font-family:'ArialMT', 'Arial', sans-serif;font-size:33.333px;">15</text>
            </g>
            <g transform="matrix(1,0,0,1,1039.37,1275.59)">
                <g transform="matrix(33.3333,0,0,33.3333,764.077,279.877)">
                </g>
                <text x="727px" y="279.877px" style="font-family:'ArialMT', 'Arial', sans-serif;font-size:33.333px;">12</text>
            </g>
            <g transform="matrix(1,0,0,1,690.323,1511.81)">
                <g transform="matrix(33.3333,0,0,33.3333,764.077,279.877)">
                </g>
                <text x="727px" y="279.877px" style="font-family:'ArialMT', 'Arial', sans-serif;font-size:33.333px;">14</text>
            </g>
            <g transform="matrix(0.488876,0,0,0.494231,947.42,237.841)">
                <rect x="472.423" y="234.547" width="238.808" height="236.083" style="fill:none;stroke:black;stroke-width:4.66px;"/>
            </g>
            <g transform="matrix(1,0,0,1,-9.16929,342)">
                <g transform="matrix(33.3333,0,0,33.3333,745.538,279.877)">
                </g>
                <text x="727px" y="279.877px" style="font-family:'ArialMT', 'Arial', sans-serif;font-size:33.333px;">5</text>
            </g>
            <g transform="matrix(2.9935e-17,-0.488876,0.494231,3.02629e-17,1647.64,2101.75)">
                <rect x="472.423" y="234.547" width="238.808" height="236.083" style="fill:none;stroke:black;stroke-width:4.66px;"/>
            </g>
            <g transform="matrix(2.9935e-17,-0.488876,0.494231,3.02629e-17,2467.41,2335.42)">
                <rect x="472.423" y="234.547" width="238.808" height="236.083" style="fill:none;stroke:black;stroke-width:4.66px;"/>
            </g>
            <g transform="matrix(2.9935e-17,-0.488876,0.494231,3.02629e-17,1647.64,1985)">
                <rect x="472.423" y="234.547" width="238.808" height="236.083" style="fill:none;stroke:black;stroke-width:4.66px;"/>
            </g>
            <g transform="matrix(2.9935e-17,-0.488876,0.494231,3.02629e-17,1764.51,1401.7)">
                <rect x="472.423" y="234.547" width="238.808" height="236.083" style="fill:none;stroke:black;stroke-width:4.66px;"/>
            </g>
            <g transform="matrix(2.9935e-17,-0.488876,0.494231,3.02629e-17,1647.64,1868.26)">
                <rect x="472.423" y="234.547" width="238.808" height="236.083" style="fill:none;stroke:black;stroke-width:4.66px;"/>
            </g>
            <g transform="matrix(-0.488876,-5.98701e-17,6.05258e-17,-0.494231,1994.52,1987.06)">
                <rect x="472.423" y="234.547" width="238.808" height="236.083" style="fill:none;stroke:black;stroke-width:4.66px;"/>
            </g>
            <g transform="matrix(-0.488876,-5.98701e-17,6.05258e-17,-0.494231,1877.77,1987.06)">
                <rect x="472.423" y="234.547" width="238.808" height="236.083" style="fill:none;stroke:black;stroke-width:4.66px;"/>
            </g>
            <g transform="matrix(-0.488876,-5.98701e-17,6.05258e-17,-0.494231,1761.02,1987.06)">
                <rect x="472.423" y="234.547" width="238.808" height="236.083" style="fill:none;stroke:black;stroke-width:4.66px;"/>
            </g>
            <g transform="matrix(-0.488876,-5.98701e-17,6.05258e-17,-0.494231,2813.62,2220.31)">
                <rect x="472.423" y="234.547" width="238.808" height="236.083" style="fill:none;stroke:black;stroke-width:4.66px;"/>
            </g>
            <g transform="matrix(-0.488876,-5.98701e-17,6.05258e-17,-0.494231,2695.87,2220.31)">
                <rect x="472.423" y="234.547" width="238.808" height="236.083" style="fill:none;stroke:black;stroke-width:4.66px;"/>
            </g>
            <g transform="matrix(-0.488876,-5.98701e-17,6.05258e-17,-0.494231,2112.27,2103.17)">
                <rect x="472.423" y="234.547" width="238.808" height="236.083" style="fill:none;stroke:black;stroke-width:4.66px;"/>
            </g>
            <g transform="matrix(2.9935e-17,-0.488876,0.494231,3.02629e-17,1647.64,1751.51)">
                <rect x="472.423" y="234.547" width="238.808" height="236.083" style="fill:none;stroke:black;stroke-width:4.66px;"/>
            </g>
            <g transform="matrix(-0.488876,-5.95348e-17,6.01869e-17,-0.494231,2111.91,1636.18)">
                <rect x="472.423" y="234.547" width="238.808" height="236.083" style="fill:none;stroke:black;stroke-width:5.51px;"/>
            </g>
            <g transform="matrix(-0.488876,-5.98701e-17,6.05258e-17,-0.494231,2694.76,1286.6)">
                <rect x="472.423" y="234.547" width="238.808" height="236.083" style="fill:none;stroke:black;stroke-width:4.66px;"/>
            </g>
            <g transform="matrix(-0.488876,-5.98701e-17,6.05258e-17,-0.494231,2578.01,1286.6)">
                <rect x="472.423" y="234.547" width="238.808" height="236.083" style="fill:none;stroke:black;stroke-width:4.66px;"/>
            </g>
            <g transform="matrix(-0.488876,-5.98701e-17,6.05258e-17,-0.494231,2461.27,1286.6)">
                <rect x="472.423" y="234.547" width="238.808" height="236.083" style="fill:none;stroke:black;stroke-width:4.66px;"/>
            </g>
            <g transform="matrix(-0.488876,-5.98701e-17,6.05258e-17,-0.494231,2579.13,2220.31)">
                <rect x="472.423" y="234.547" width="238.808" height="236.083" style="fill:none;stroke:black;stroke-width:4.66px;"/>
            </g>
            <g transform="matrix(-0.488876,-5.98701e-17,6.05258e-17,-0.494231,2462.38,2220.31)">
                <rect x="472.423" y="234.547" width="238.808" height="236.083" style="fill:none;stroke:black;stroke-width:4.66px;"/>
            </g>
            <g transform="matrix(-0.488876,-5.98701e-17,6.05258e-17,-0.494231,2345.63,2220.31)">
                <rect x="472.423" y="234.547" width="238.808" height="236.083" style="fill:none;stroke:black;stroke-width:4.66px;"/>
            </g>
            <g transform="matrix(-0.488876,-5.98701e-17,6.05258e-17,-0.494231,2228.88,2220.31)">
                <rect x="472.423" y="234.547" width="238.808" height="236.083" style="fill:none;stroke:black;stroke-width:4.66px;"/>
            </g>
            <g transform="matrix(-8.94698e-17,0.488876,-0.494231,-9.04498e-17,2113.56,1757.04)">
                <rect x="472.423" y="234.547" width="238.808" height="236.083" style="fill:none;stroke:black;stroke-width:5.51px;"/>
            </g>
            <g transform="matrix(2.9935e-17,-0.488876,0.494231,3.02629e-17,1647.64,1634.76)">
                <rect x="472.423" y="234.547" width="238.808" height="236.083" style="fill:none;stroke:black;stroke-width:4.66px;"/>
            </g>
            <g transform="matrix(2.9935e-17,-0.488876,0.494231,3.02629e-17,1647.64,1518.01)">
                <rect x="472.423" y="234.547" width="238.808" height="236.083" style="fill:none;stroke:black;stroke-width:4.66px;"/>
            </g>
            <g transform="matrix(1,0,0,1,1157.48,226.331)">
                <g transform="matrix(33.3333,0,0,33.3333,745.538,279.877)">
                </g>
                <text x="727px" y="279.877px" style="font-family:'ArialMT', 'Arial', sans-serif;font-size:33.333px;">4</text>
            </g>
            <g transform="matrix(-0.488876,-5.98701e-17,6.05258e-17,-0.494231,2812.75,1753.31)">
                <rect x="472.423" y="234.547" width="238.808" height="236.083" style="fill:none;stroke:black;stroke-width:4.66px;"/>
            </g>
            <g transform="matrix(2.9935e-17,-0.488876,0.494231,3.02629e-17,2348.94,1751.44)">
                <rect x="472.423" y="234.547" width="238.808" height="236.083" style="fill:none;stroke:black;stroke-width:4.66px;"/>
            </g>
            <g transform="matrix(2.9935e-17,-0.488876,0.494231,3.02629e-17,2348.94,1634.69)">
                <rect x="472.423" y="234.547" width="238.808" height="236.083" style="fill:none;stroke:black;stroke-width:4.66px;"/>
            </g>
            <g transform="matrix(2.9935e-17,-0.488876,0.494231,3.02629e-17,2348.94,1517.95)">
                <rect x="472.423" y="234.547" width="238.808" height="236.083" style="fill:none;stroke:black;stroke-width:4.66px;"/>
            </g>
            <g transform="matrix(2.9935e-17,-0.488876,0.494231,3.02629e-17,2348.94,1401.2)">
                <rect x="472.423" y="234.547" width="238.808" height="236.083" style="fill:none;stroke:black;stroke-width:4.66px;"/>
            </g>
            <g transform="matrix(2.9935e-17,-0.488876,0.494231,3.02629e-17,2348.94,1284.45)">
                <rect x="472.423" y="234.547" width="238.808" height="236.083" style="fill:none;stroke:black;stroke-width:4.66px;"/>
            </g>
            <g transform="matrix(2.9935e-17,-0.488876,0.494231,3.02629e-17,2348.94,1167.7)">
                <rect x="472.423" y="234.547" width="238.808" height="236.083" style="fill:none;stroke:black;stroke-width:4.66px;"/>
            </g>
            <g transform="matrix(2.9935e-17,-0.488876,0.494231,3.02629e-17,2348.94,1050.91)">
                <rect x="472.423" y="234.547" width="238.808" height="236.083" style="fill:none;stroke:black;stroke-width:4.66px;"/>
            </g>
            <g transform="matrix(2.9935e-17,-0.488876,0.494231,3.02629e-17,2348.94,934.167)">
                <rect x="472.423" y="234.547" width="238.808" height="236.083" style="fill:none;stroke:black;stroke-width:4.66px;"/>
            </g>
            <g transform="matrix(-0.488876,-5.98701e-17,6.05258e-17,-0.494231,3047.8,2220.85)">
                <rect x="472.423" y="234.547" width="238.808" height="236.083" style="fill:none;stroke:black;stroke-width:4.66px;"/>
            </g>
            <g transform="matrix(2.9935e-17,-0.488876,0.494231,3.02629e-17,2583.99,2218.98)">
                <rect x="472.423" y="234.547" width="238.808" height="236.083" style="fill:none;stroke:black;stroke-width:4.66px;"/>
            </g>
            <g transform="matrix(2.9935e-17,-0.488876,0.494231,3.02629e-17,2583.99,2102.23)">
                <rect x="472.423" y="234.547" width="238.808" height="236.083" style="fill:none;stroke:black;stroke-width:4.66px;"/>
            </g>
            <g transform="matrix(2.9935e-17,-0.488876,0.494231,3.02629e-17,2583.99,1985.48)">
                <rect x="472.423" y="234.547" width="238.808" height="236.083" style="fill:none;stroke:black;stroke-width:4.66px;"/>
            </g>
            <g transform="matrix(2.9935e-17,-0.488876,0.494231,3.02629e-17,2583.99,1868.74)">
                <rect x="472.423" y="234.547" width="238.808" height="236.083" style="fill:none;stroke:black;stroke-width:4.66px;"/>
            </g>
            <g transform="matrix(2.9935e-17,-0.488876,0.494231,3.02629e-17,2583.99,1751.99)">
                <rect x="472.423" y="234.547" width="238.808" height="236.083" style="fill:none;stroke:black;stroke-width:4.66px;"/>
            </g>
            <g transform="matrix(-0.488876,-5.95348e-17,6.01869e-17,-0.494231,3047.26,1753.41)">
                <rect x="472.423" y="234.547" width="238.808" height="236.083" style="fill:none;stroke:black;stroke-width:5.51px;"/>
            </g>
            <g transform="matrix(2.9935e-17,-0.488876,0.494231,3.02629e-17,2583.99,1635.24)">
                <rect x="472.423" y="234.547" width="238.808" height="236.083" style="fill:none;stroke:black;stroke-width:4.66px;"/>
            </g>
            <g transform="matrix(2.9935e-17,-0.488876,0.494231,3.02629e-17,2583.99,1518.45)">
                <rect x="472.423" y="234.547" width="238.808" height="236.083" style="fill:none;stroke:black;stroke-width:4.66px;"/>
            </g>
            <g transform="matrix(2.9935e-17,-0.488876,0.494231,3.02629e-17,2583.99,1401.7)">
                <rect x="472.423" y="234.547" width="238.808" height="236.083" style="fill:none;stroke:black;stroke-width:4.66px;"/>
            </g>
            <g transform="matrix(-0.488876,-5.98701e-17,6.05258e-17,-0.494231,2696,1753.31)">
                <rect x="472.423" y="234.547" width="238.808" height="236.083" style="fill:none;stroke:black;stroke-width:4.66px;"/>
            </g>
            <g transform="matrix(-0.488876,-5.98701e-17,6.05258e-17,-0.494231,2579.26,1753.31)">
                <rect x="472.423" y="234.547" width="238.808" height="236.083" style="fill:none;stroke:black;stroke-width:4.66px;"/>
            </g>
            <g transform="matrix(-0.488876,-5.98701e-17,6.05258e-17,-0.494231,2462.51,1753.31)">
                <rect x="472.423" y="234.547" width="238.808" height="236.083" style="fill:none;stroke:black;stroke-width:4.66px;"/>
            </g>
            <g transform="matrix(-0.488876,-5.98701e-17,6.05258e-17,-0.494231,2345.76,1753.31)">
                <rect x="472.423" y="234.547" width="238.808" height="236.083" style="fill:none;stroke:black;stroke-width:4.66px;"/>
            </g>
            <g transform="matrix(-8.94698e-17,0.488876,-0.494231,-9.04498e-17,2347.18,1290.04)">
                <rect x="472.423" y="234.547" width="238.808" height="236.083" style="fill:none;stroke:black;stroke-width:5.51px;"/>
            </g>
            <g transform="matrix(-0.488876,-5.98701e-17,6.05258e-17,-0.494231,2229.01,1753.31)">
                <rect x="472.423" y="234.547" width="238.808" height="236.083" style="fill:none;stroke:black;stroke-width:4.66px;"/>
            </g>
            <g transform="matrix(2.9935e-17,-0.488876,0.494231,3.02629e-17,2349.31,467.177)">
                <rect x="472.423" y="234.547" width="238.808" height="236.083" style="fill:none;stroke:black;stroke-width:4.66px;"/>
            </g>
            <g transform="matrix(-0.488876,-5.98701e-17,6.05258e-17,-0.494231,3280.2,585.643)">
                <rect x="472.423" y="234.547" width="238.808" height="236.083" style="fill:none;stroke:black;stroke-width:4.66px;"/>
            </g>
            <g transform="matrix(-0.488876,-5.98701e-17,6.05258e-17,-0.494231,3163.45,585.643)">
                <rect x="472.423" y="234.547" width="238.808" height="236.083" style="fill:none;stroke:black;stroke-width:4.66px;"/>
            </g>
            <g transform="matrix(-0.488876,-5.98701e-17,6.05258e-17,-0.494231,3046.71,585.643)">
                <rect x="472.423" y="234.547" width="238.808" height="236.083" style="fill:none;stroke:black;stroke-width:4.66px;"/>
            </g>
            <g transform="matrix(-8.94698e-17,0.488876,-0.494231,-9.04498e-17,3048.12,122.374)">
                <rect x="472.423" y="234.547" width="238.808" height="236.083" style="fill:none;stroke:black;stroke-width:5.51px;"/>
            </g>
            <g transform="matrix(-0.488876,-5.98701e-17,6.05258e-17,-0.494231,2929.96,585.643)">
                <rect x="472.423" y="234.547" width="238.808" height="236.083" style="fill:none;stroke:black;stroke-width:4.66px;"/>
            </g>
            <g transform="matrix(-0.488876,-5.98701e-17,6.05258e-17,-0.494231,3280.85,1286.28)">
                <rect x="472.423" y="234.547" width="238.808" height="236.083" style="fill:none;stroke:black;stroke-width:4.66px;"/>
            </g>
            <g transform="matrix(-0.488876,-5.98701e-17,6.05258e-17,-0.494231,3164.11,1286.28)">
                <rect x="472.423" y="234.547" width="238.808" height="236.083" style="fill:none;stroke:black;stroke-width:4.66px;"/>
            </g>
            <g transform="matrix(-0.488876,-5.98701e-17,6.05258e-17,-0.494231,3047.36,1286.28)">
                <rect x="472.423" y="234.547" width="238.808" height="236.083" style="fill:none;stroke:black;stroke-width:4.66px;"/>
            </g>
            <g transform="matrix(-8.94698e-17,0.488876,-0.494231,-9.04498e-17,3048.78,823.016)">
                <rect x="472.423" y="234.547" width="238.808" height="236.083" style="fill:none;stroke:black;stroke-width:5.51px;"/>
            </g>
            <g transform="matrix(-0.488876,-5.98701e-17,6.05258e-17,-0.494231,2930.61,1286.28)">
                <rect x="472.423" y="234.547" width="238.808" height="236.083" style="fill:none;stroke:black;stroke-width:4.66px;"/>
            </g>
            <g transform="matrix(-0.488876,-5.98701e-17,6.05258e-17,-0.494231,2696,1986.77)">
                <rect x="472.423" y="234.547" width="238.808" height="236.083" style="fill:none;stroke:black;stroke-width:4.66px;"/>
            </g>
            <g transform="matrix(-0.488876,-5.98701e-17,6.05258e-17,-0.494231,2579.26,1986.77)">
                <rect x="472.423" y="234.547" width="238.808" height="236.083" style="fill:none;stroke:black;stroke-width:4.66px;"/>
            </g>
            <g transform="matrix(-0.488876,-5.98701e-17,6.05258e-17,-0.494231,2462.51,1986.77)">
                <rect x="472.423" y="234.547" width="238.808" height="236.083" style="fill:none;stroke:black;stroke-width:4.66px;"/>
            </g>
            <g transform="matrix(-0.488876,-5.98701e-17,6.05258e-17,-0.494231,2345.76,1986.77)">
                <rect x="472.423" y="234.547" width="238.808" height="236.083" style="fill:none;stroke:black;stroke-width:4.66px;"/>
            </g>
            <g transform="matrix(-8.94698e-17,0.488876,-0.494231,-9.04498e-17,2347.18,1523.51)">
                <rect x="472.423" y="234.547" width="238.808" height="236.083" style="fill:none;stroke:black;stroke-width:5.51px;"/>
            </g>
            <g transform="matrix(-0.488876,-5.98701e-17,6.05258e-17,-0.494231,2229.01,1986.77)">
                <rect x="472.423" y="234.547" width="238.808" height="236.083" style="fill:none;stroke:black;stroke-width:4.66px;"/>
            </g>
            <g transform="matrix(-0.488876,-5.98701e-17,6.05258e-17,-0.494231,2694.82,702.705)">
                <rect x="472.423" y="234.547" width="238.808" height="236.083" style="fill:none;stroke:black;stroke-width:4.66px;"/>
            </g>
            <g transform="matrix(-0.488876,-5.98701e-17,6.05258e-17,-0.494231,2577.07,702.705)">
                <rect x="472.423" y="234.547" width="238.808" height="236.083" style="fill:none;stroke:black;stroke-width:4.66px;"/>
            </g>
            <g transform="matrix(-0.488876,-5.98701e-17,6.05258e-17,-0.494231,2460.32,702.705)">
                <rect x="472.423" y="234.547" width="238.808" height="236.083" style="fill:none;stroke:black;stroke-width:4.66px;"/>
            </g>
            <g transform="matrix(-0.488876,-5.98701e-17,6.05258e-17,-0.494231,2226.83,702.705)">
                <rect x="472.423" y="234.547" width="238.808" height="236.083" style="fill:none;stroke:black;stroke-width:4.66px;"/>
            </g>
            <g transform="matrix(-0.488876,-5.98701e-17,6.05258e-17,-0.494231,2343.21,702.993)">
                <rect x="472.423" y="234.547" width="238.808" height="236.083" style="fill:none;stroke:black;stroke-width:4.66px;"/>
            </g>
            <g transform="matrix(2.9935e-17,-0.488876,0.494231,3.02629e-17,2348.94,817.419)">
                <rect x="472.423" y="234.547" width="238.808" height="236.083" style="fill:none;stroke:black;stroke-width:4.66px;"/>
            </g>
            <g transform="matrix(2.9935e-17,-0.488876,0.494231,3.02629e-17,2348.94,700.672)">
                <rect x="472.423" y="234.547" width="238.808" height="236.083" style="fill:none;stroke:black;stroke-width:4.66px;"/>
            </g>
            <g transform="matrix(2.9935e-17,-0.488876,0.494231,3.02629e-17,2348.94,583.924)">
                <rect x="472.423" y="234.547" width="238.808" height="236.083" style="fill:none;stroke:black;stroke-width:4.66px;"/>
            </g>
            <g transform="matrix(-0.488876,-5.95348e-17,6.01869e-17,-0.494231,2812.21,585.344)">
                <rect x="472.423" y="234.547" width="238.808" height="236.083" style="fill:none;stroke:black;stroke-width:5.51px;"/>
            </g>
            <g transform="matrix(2.9935e-17,-0.488876,0.494231,3.02629e-17,1647.64,1401.27)">
                <rect x="472.423" y="234.547" width="238.808" height="236.083" style="fill:none;stroke:black;stroke-width:4.66px;"/>
            </g>
            <g transform="matrix(2.9935e-17,-0.488876,0.494231,3.02629e-17,1647.64,1284.52)">
                <rect x="472.423" y="234.547" width="238.808" height="236.083" style="fill:none;stroke:black;stroke-width:4.66px;"/>
            </g>
            <g transform="matrix(0.488876,0,0,0.494231,1532.61,821.688)">
                <rect x="472.423" y="234.547" width="238.808" height="236.083" style="fill:none;stroke:black;stroke-width:4.66px;"/>
            </g>
            <g transform="matrix(-0.488876,-5.98701e-17,6.05258e-17,-0.494231,942.375,1753.88)">
                <rect x="472.423" y="234.547" width="238.808" height="236.083" style="fill:none;stroke:black;stroke-width:4.66px;"/>
            </g>
            <g transform="matrix(-0.488876,-5.98701e-17,6.05258e-17,-0.494231,825.628,1753.88)">
                <rect x="472.423" y="234.547" width="238.808" height="236.083" style="fill:none;stroke:black;stroke-width:4.66px;"/>
            </g>
            <g transform="matrix(0.488876,1.19487e-16,-1.20796e-16,0.494231,596.904,1405.47)">
                <rect x="472.423" y="234.547" width="238.808" height="236.083" style="fill:none;stroke:black;stroke-width:4.66px;"/>
            </g>
            <g transform="matrix(0.488876,1.19487e-16,-1.20796e-16,0.494231,713.651,1405.47)">
                <rect x="472.423" y="234.547" width="238.808" height="236.083" style="fill:none;stroke:black;stroke-width:4.66px;"/>
            </g>
            <g transform="matrix(0.488876,1.19487e-16,-1.20796e-16,0.494231,830.398,1405.47)">
                <rect x="472.423" y="234.547" width="238.808" height="236.083" style="fill:none;stroke:black;stroke-width:4.66px;"/>
            </g>
            <g transform="matrix(-8.98051e-17,0.488876,-0.494231,-9.07887e-17,1293.23,1290.44)">
                <rect x="472.423" y="234.547" width="238.808" height="236.083" style="fill:none;stroke:black;stroke-width:5.09px;"/>
            </g>
            <g transform="matrix(2.95998e-17,-0.488876,0.494231,2.9924e-17,595.498,1868.92)">
                <rect x="472.423" y="234.547" width="238.808" height="236.083" style="fill:none;stroke:black;stroke-width:5.51px;"/>
            </g>
            <g transform="matrix(1,0,0,1,-127.28,806.992)">
                <g transform="matrix(33.3333,0,0,33.3333,745.538,279.877)">
                </g>
                <text x="727px" y="279.877px" style="font-family:'ArialMT', 'Arial', sans-serif;font-size:33.333px;">8</text>
            </g>
            <g transform="matrix(-0.488876,-5.98701e-17,6.05258e-17,-0.494231,942.375,1987.17)">
                <rect x="472.423" y="234.547" width="238.808" height="236.083" style="fill:none;stroke:black;stroke-width:4.66px;"/>
            </g>
            <g transform="matrix(-0.488876,-5.98701e-17,6.05258e-17,-0.494231,825.628,1987.17)">
                <rect x="472.423" y="234.547" width="238.808" height="236.083" style="fill:none;stroke:black;stroke-width:4.66px;"/>
            </g>
            <g transform="matrix(1,0,0,1,-245.39,1275.59)">
                <g transform="matrix(33.3333,0,0,33.3333,761.603,279.877)">
                </g>
                <text x="727px" y="279.877px" style="font-family:'ArialMT', 'Arial', sans-serif;font-size:33.333px;">1<tspan x="743.064px " y="279.877px ">1</tspan></text>
            </g>
            <g transform="matrix(0.488876,1.19487e-16,-1.20796e-16,0.494231,-103.354,1638.59)">
                <rect x="472.423" y="234.547" width="238.808" height="236.083" style="fill:none;stroke:black;stroke-width:4.66px;"/>
            </g>
            <g transform="matrix(0.488876,1.19487e-16,-1.20796e-16,0.494231,13.4724,1638.59)">
                <rect x="472.423" y="234.547" width="238.808" height="236.083" style="fill:none;stroke:black;stroke-width:4.66px;"/>
            </g>
            <g transform="matrix(0.488876,1.19487e-16,-1.20796e-16,0.494231,130.22,1638.59)">
                <rect x="472.423" y="234.547" width="238.808" height="236.083" style="fill:none;stroke:black;stroke-width:4.66px;"/>
            </g>
            <g transform="matrix(0.488876,1.19487e-16,-1.20796e-16,0.494231,1297.67,237.841)">
                <rect x="472.423" y="234.547" width="238.808" height="236.083" style="fill:none;stroke:black;stroke-width:4.66px;"/>
            </g>
            <g transform="matrix(0.488876,1.19487e-16,-1.20796e-16,0.494231,1414.5,237.841)">
                <rect x="472.423" y="234.547" width="238.808" height="236.083" style="fill:none;stroke:black;stroke-width:4.66px;"/>
            </g>
            <g transform="matrix(0.488876,1.19487e-16,-1.20796e-16,0.494231,1531.24,237.841)">
                <rect x="472.423" y="234.547" width="238.808" height="236.083" style="fill:none;stroke:black;stroke-width:4.66px;"/>
            </g>
            <g transform="matrix(0.488876,0,0,0.494231,1180.92,237.841)">
                <rect x="472.423" y="234.547" width="238.808" height="236.083" style="fill:none;stroke:black;stroke-width:4.66px;"/>
            </g>
            <g transform="matrix(2.95998e-17,-0.488876,0.494231,2.9924e-17,1296.24,701.397)">
                <rect x="472.423" y="234.547" width="238.808" height="236.083" style="fill:none;stroke:black;stroke-width:5.51px;"/>
            </g>
            <g transform="matrix(0.488876,1.19487e-16,-1.20796e-16,0.494231,1182.01,704.147)">
                <rect x="472.423" y="234.547" width="238.808" height="236.083" style="fill:none;stroke:black;stroke-width:4.66px;"/>
            </g>
            <g transform="matrix(0.488876,1.19487e-16,-1.20796e-16,0.494231,1298.84,704.147)">
                <rect x="472.423" y="234.547" width="238.808" height="236.083" style="fill:none;stroke:black;stroke-width:4.66px;"/>
            </g>
            <g transform="matrix(0.488876,1.19487e-16,-1.20796e-16,0.494231,1415.59,704.147)">
                <rect x="472.423" y="234.547" width="238.808" height="236.083" style="fill:none;stroke:black;stroke-width:4.66px;"/>
            </g>
            <g transform="matrix(0.488876,0,0,0.494231,1065.26,704.147)">
                <rect x="472.423" y="234.547" width="238.808" height="236.083" style="fill:none;stroke:black;stroke-width:4.66px;"/>
            </g>
            <g transform="matrix(2.95998e-17,-0.488876,0.494231,2.9924e-17,1180.58,1167.7)">
                <rect x="472.423" y="234.547" width="238.808" height="236.083" style="fill:none;stroke:black;stroke-width:5.51px;"/>
            </g>
            <g transform="matrix(0.488876,1.19487e-16,-1.20796e-16,0.494231,1415.04,470.061)">
                <rect x="472.423" y="234.547" width="238.808" height="236.083" style="fill:none;stroke:black;stroke-width:4.66px;"/>
            </g>
            <g transform="matrix(0.488876,1.19487e-16,-1.20796e-16,0.494231,1531.79,470.061)">
                <rect x="472.423" y="234.547" width="238.808" height="236.083" style="fill:none;stroke:black;stroke-width:4.66px;"/>
            </g>
            <g transform="matrix(0.488876,1.19487e-16,-1.20796e-16,0.494231,480.431,238.841)">
                <rect x="472.423" y="234.547" width="238.808" height="236.083" style="fill:none;stroke:black;stroke-width:4.66px;"/>
            </g>
            <g transform="matrix(0.488876,1.19487e-16,-1.20796e-16,0.494231,362.595,239.41)">
                <rect x="472.423" y="234.547" width="238.808" height="236.083" style="fill:none;stroke:black;stroke-width:4.66px;"/>
            </g>
            <g transform="matrix(0.488876,1.19487e-16,-1.20796e-16,0.494231,597.178,238.841)">
                <rect x="472.423" y="234.547" width="238.808" height="236.083" style="fill:none;stroke:black;stroke-width:4.66px;"/>
            </g>
            <g transform="matrix(0.488876,1.19487e-16,-1.20796e-16,0.494231,596.178,704.08)">
                <rect x="472.423" y="234.547" width="238.808" height="236.083" style="fill:none;stroke:black;stroke-width:4.66px;"/>
            </g>
            <g transform="matrix(0.488876,1.19487e-16,-1.20796e-16,0.494231,713.004,704.08)">
                <rect x="472.423" y="234.547" width="238.808" height="236.083" style="fill:none;stroke:black;stroke-width:4.66px;"/>
            </g>
            <g transform="matrix(0.488876,1.19487e-16,-1.20796e-16,0.494231,829.752,704.08)">
                <rect x="472.423" y="234.547" width="238.808" height="236.083" style="fill:none;stroke:black;stroke-width:4.66px;"/>
            </g>
            <g transform="matrix(0.488876,1.19487e-16,-1.20796e-16,0.494231,479.431,704.08)">
                <rect x="472.423" y="234.547" width="238.808" height="236.083" style="fill:none;stroke:black;stroke-width:4.66px;"/>
            </g>
            <g transform="matrix(0.488876,1.19487e-16,-1.20796e-16,0.494231,597.139,471.061)">
                <rect x="472.423" y="234.547" width="238.808" height="236.083" style="fill:none;stroke:black;stroke-width:4.66px;"/>
            </g>
            <g transform="matrix(0.488876,1.19487e-16,-1.20796e-16,0.494231,713.965,471.061)">
                <rect x="472.423" y="234.547" width="238.808" height="236.083" style="fill:none;stroke:black;stroke-width:4.66px;"/>
            </g>
            <g transform="matrix(0.488876,1.19487e-16,-1.20796e-16,0.494231,830.712,471.061)">
                <rect x="472.423" y="234.547" width="238.808" height="236.083" style="fill:none;stroke:black;stroke-width:4.66px;"/>
            </g>
            <g transform="matrix(0.488876,1.19487e-16,-1.20796e-16,0.494231,479.342,471.061)">
                <rect x="472.423" y="234.547" width="238.808" height="236.083" style="fill:none;stroke:black;stroke-width:4.66px;"/>
            </g>
            <g transform="matrix(-0.488876,-5.98701e-17,6.05258e-17,-0.494231,1291.59,1286.67)">
                <rect x="472.423" y="234.547" width="238.808" height="236.083" style="fill:none;stroke:black;stroke-width:4.66px;"/>
            </g>
            <g transform="matrix(1,0,0,1,-9.16929,570.772)">
                <g transform="matrix(33.3333,0,0,33.3333,745.538,279.877)">
                </g>
                <text x="727px" y="279.877px" style="font-family:'ArialMT', 'Arial', sans-serif;font-size:33.333px;">6</text>
            </g>
            <g transform="matrix(0.488876,1.19487e-16,-1.20796e-16,0.494231,362.604,938.08)">
                <rect x="472.423" y="234.547" width="238.808" height="236.083" style="fill:none;stroke:black;stroke-width:4.66px;"/>
            </g>
            <g transform="matrix(0.488876,1.19487e-16,-1.20796e-16,0.494231,479.431,938.08)">
                <rect x="472.423" y="234.547" width="238.808" height="236.083" style="fill:none;stroke:black;stroke-width:4.66px;"/>
            </g>
            <g transform="matrix(0.488876,1.19487e-16,-1.20796e-16,0.494231,596.178,938.08)">
                <rect x="472.423" y="234.547" width="238.808" height="236.083" style="fill:none;stroke:black;stroke-width:4.66px;"/>
            </g>
            <g transform="matrix(0.488876,1.19487e-16,-1.20796e-16,0.494231,596.904,1638.77)">
                <rect x="472.423" y="234.547" width="238.808" height="236.083" style="fill:none;stroke:black;stroke-width:4.66px;"/>
            </g>
            <g transform="matrix(0.488876,1.19487e-16,-1.20796e-16,0.494231,713.651,1638.77)">
                <rect x="472.423" y="234.547" width="238.808" height="236.083" style="fill:none;stroke:black;stroke-width:4.66px;"/>
            </g>
            <g transform="matrix(0.488876,1.19487e-16,-1.20796e-16,0.494231,830.398,1638.77)">
                <rect x="472.423" y="234.547" width="238.808" height="236.083" style="fill:none;stroke:black;stroke-width:4.66px;"/>
            </g>
            <g transform="matrix(-8.98051e-17,0.488876,-0.494231,-9.07887e-17,1293.23,1523.73)">
                <rect x="472.423" y="234.547" width="238.808" height="236.083" style="fill:none;stroke:black;stroke-width:5.09px;"/>
            </g>
            <g transform="matrix(2.95998e-17,-0.488876,0.494231,2.9924e-17,595.498,2102.21)">
                <rect x="472.423" y="234.547" width="238.808" height="236.083" style="fill:none;stroke:black;stroke-width:5.51px;"/>
            </g>
            <g transform="matrix(-0.488876,-5.96173e-17,6.02703e-17,-0.494231,1526.01,1520.29)">
                <rect x="472.423" y="234.547" width="238.808" height="236.083" style="fill:none;stroke:black;stroke-width:4.66px;"/>
            </g>
            <g transform="matrix(-8.95523e-17,0.488876,-0.494231,-9.05332e-17,1410.22,1523.96)">
                <rect x="472.423" y="234.547" width="238.808" height="236.083" style="fill:none;stroke:black;stroke-width:4.66px;"/>
            </g>
            <g transform="matrix(2.95998e-17,-0.488876,0.494231,2.9924e-17,1062.03,1985.56)">
                <rect x="472.423" y="234.547" width="238.808" height="236.083" style="fill:none;stroke:black;stroke-width:5.51px;"/>
            </g>
            <g transform="matrix(2.95998e-17,-0.488876,0.494231,2.9924e-17,1062.03,1868.82)">
                <rect x="472.423" y="234.547" width="238.808" height="236.083" style="fill:none;stroke:black;stroke-width:5.51px;"/>
            </g>
            <g transform="matrix(2.95998e-17,-0.488876,0.494231,2.9924e-17,1062.03,1752.07)">
                <rect x="472.423" y="234.547" width="238.808" height="236.083" style="fill:none;stroke:black;stroke-width:5.51px;"/>
            </g>
            <g transform="matrix(1,0,0,1,1973.65,804.15)">
                <g transform="matrix(33.3333,0,0,33.3333,764.077,279.877)">
                </g>
                <text x="727px" y="279.877px" style="font-family:'ArialMT', 'Arial', sans-serif;font-size:33.333px;">10</text>
            </g>
            <g transform="matrix(-0.488876,-5.96173e-17,6.02703e-17,-0.494231,1876.86,1286.67)">
                <rect x="472.423" y="234.547" width="238.808" height="236.083" style="fill:none;stroke:black;stroke-width:4.66px;"/>
            </g>
            <g transform="matrix(-0.488876,-5.96173e-17,6.02703e-17,-0.494231,1760.11,1286.67)">
                <rect x="472.423" y="234.547" width="238.808" height="236.083" style="fill:none;stroke:black;stroke-width:4.66px;"/>
            </g>
            <g transform="matrix(-0.488876,-5.96173e-17,6.02703e-17,-0.494231,1643.37,1286.67)">
                <rect x="472.423" y="234.547" width="238.808" height="236.083" style="fill:none;stroke:black;stroke-width:4.66px;"/>
            </g>
            <g transform="matrix(2.9935e-17,-0.488876,0.494231,3.02629e-17,1297.28,1401.7)">
                <rect x="472.423" y="234.547" width="238.808" height="236.083" style="fill:none;stroke:black;stroke-width:5.09px;"/>
            </g>
            <g transform="matrix(0.488876,0,0,0.494231,713.925,237.841)">
                <rect x="472.423" y="234.547" width="238.808" height="236.083" style="fill:none;stroke:black;stroke-width:4.66px;"/>
            </g>
            <g transform="matrix(0.488876,0,0,0.494231,830.673,237.841)">
                <rect x="472.423" y="234.547" width="238.808" height="236.083" style="fill:none;stroke:black;stroke-width:4.66px;"/>
            </g>
            <g transform="matrix(0.488876,0,0,0.494231,1064.17,237.841)">
                <rect x="472.423" y="234.547" width="238.808" height="236.083" style="fill:none;stroke:black;stroke-width:4.66px;"/>
            </g>
            <g transform="matrix(-0.488876,-5.95348e-17,6.01869e-17,-0.494231,1876.41,818.6)">
                <rect x="472.423" y="234.547" width="238.808" height="236.083" style="fill:none;stroke:black;stroke-width:5.51px;"/>
            </g>
            <g transform="matrix(-0.488876,-5.95348e-17,6.01869e-17,-0.494231,1759.66,818.6)">
                <rect x="472.423" y="234.547" width="238.808" height="236.083" style="fill:none;stroke:black;stroke-width:5.51px;"/>
            </g>
            <g transform="matrix(-0.488876,-5.95348e-17,6.01869e-17,-0.494231,1642.92,818.6)">
                <rect x="472.423" y="234.547" width="238.808" height="236.083" style="fill:none;stroke:black;stroke-width:5.51px;"/>
            </g>
            <g transform="matrix(2.95998e-17,-0.488876,0.494231,2.9924e-17,945.502,1401.7)">
                <rect x="472.423" y="234.547" width="238.808" height="236.083" style="fill:none;stroke:black;stroke-width:5.51px;"/>
            </g>
            <g transform="matrix(1,0,0,1,1748.03,-126)">
                <g transform="matrix(33.3333,0,0,33.3333,745.538,279.877)">
                </g>
                <text x="727px" y="279.877px" style="font-family:'ArialMT', 'Arial', sans-serif;font-size:33.333px;">2</text>
            </g>
            <g transform="matrix(1,0,0,1,1393.7,803.15)">
                <g transform="matrix(33.3333,0,0,33.3333,745.538,279.877)">
                </g>
                <text x="727px" y="279.877px" style="font-family:'ArialMT', 'Arial', sans-serif;font-size:33.333px;">9</text>
            </g>
        </g>
    </g>
</svg>
