<?xml version="1.0" encoding="UTF-8" standalone="no"?>
<!DOCTYPE svg PUBLIC "-//W3C//DTD SVG 1.1//EN" "http://www.w3.org/Graphics/SVG/1.1/DTD/svg11.dtd">
<svg width="100%" height="100%" viewBox="0 0 1520 1871" version="1.1" xmlns="http://www.w3.org/2000/svg" xmlns:xlink="http://www.w3.org/1999/xlink" xml:space="preserve" xmlns:serif="http://www.serif.com/" style="fill-rule:evenodd;clip-rule:evenodd;stroke-linecap:round;stroke-linejoin:round;stroke-miterlimit:1.5;">
    <g transform="matrix(1,0,0,1,-477.198,-120.854)">
        <g>
            <g transform="matrix(6.12323e-17,-1,1,6.12323e-17,-462.946,3889.7)">
                <g transform="matrix(0.488876,0,0,0.494231,1669.49,1876.03)">
                    <rect x="472.423" y="234.547" width="238.808" height="236.083" style="fill:none;stroke:black;stroke-width:4.66px;"/>
                </g>
                <g transform="matrix(0.488876,0,0,0.494231,1786.24,1876.03)">
                    <rect x="472.423" y="234.547" width="238.808" height="236.083" style="fill:none;stroke:black;stroke-width:4.66px;"/>
                </g>
                <g transform="matrix(0.488876,0,0,0.494231,1902.99,1876.03)">
                    <rect x="472.423" y="234.547" width="238.808" height="236.083" style="fill:none;stroke:black;stroke-width:4.66px;"/>
                </g>
                <g transform="matrix(0.488876,0,0,0.494231,2019.73,1876.03)">
                    <rect x="472.423" y="234.547" width="238.808" height="236.083" style="fill:none;stroke:black;stroke-width:4.66px;"/>
                </g>
            </g>
            <g>
                <g transform="matrix(2.9935e-17,-0.488876,0.494231,3.02629e-17,1762.75,1286.41)">
                    <rect x="472.423" y="234.547" width="238.808" height="236.083" style="fill:none;stroke:black;stroke-width:4.66px;"/>
                </g>
                <g transform="matrix(2.9935e-17,-0.488876,0.494231,3.02629e-17,1762.75,1169.66)">
                    <rect x="472.423" y="234.547" width="238.808" height="236.083" style="fill:none;stroke:black;stroke-width:4.66px;"/>
                </g>
                <g transform="matrix(2.9935e-17,-0.488876,0.494231,3.02629e-17,1762.75,1052.91)">
                    <rect x="472.423" y="234.547" width="238.808" height="236.083" style="fill:none;stroke:black;stroke-width:4.66px;"/>
                </g>
                <g transform="matrix(2.9935e-17,-0.488876,0.494231,3.02629e-17,1762.75,936.167)">
                    <rect x="472.423" y="234.547" width="238.808" height="236.083" style="fill:none;stroke:black;stroke-width:4.66px;"/>
                </g>
                <g transform="matrix(2.9935e-17,-0.488876,0.494231,3.02629e-17,1762.75,819.419)">
                    <rect x="472.423" y="234.547" width="238.808" height="236.083" style="fill:none;stroke:black;stroke-width:4.66px;"/>
                </g>
                <g transform="matrix(2.9935e-17,-0.488876,0.494231,3.02629e-17,1762.75,702.672)">
                    <rect x="472.423" y="234.547" width="238.808" height="236.083" style="fill:none;stroke:black;stroke-width:4.66px;"/>
                </g>
                <g transform="matrix(2.9935e-17,-0.488876,0.494231,3.02629e-17,1762.75,585.924)">
                    <rect x="472.423" y="234.547" width="238.808" height="236.083" style="fill:none;stroke:black;stroke-width:4.66px;"/>
                </g>
                <g transform="matrix(0.488876,1.06008e-19,-1.07169e-19,0.494231,1415.23,706.229)">
                    <rect x="472.423" y="234.547" width="238.808" height="236.083" style="fill:none;stroke:black;stroke-width:4.66px;"/>
                </g>
                <g transform="matrix(0.488876,1.06008e-19,-1.07169e-19,0.494231,1531.98,706.229)">
                    <rect x="472.423" y="234.547" width="238.808" height="236.083" style="fill:none;stroke:black;stroke-width:4.66px;"/>
                </g>
                <g transform="matrix(2.96823e-17,-0.488876,0.494231,3.00074e-17,1413.15,1169.66)">
                    <rect x="472.423" y="234.547" width="238.808" height="236.083" style="fill:none;stroke:black;stroke-width:4.66px;"/>
                </g>
                <g transform="matrix(2.96823e-17,-0.488876,0.494231,3.00074e-17,1413.15,1052.91)">
                    <rect x="472.423" y="234.547" width="238.808" height="236.083" style="fill:none;stroke:black;stroke-width:4.66px;"/>
                </g>
                <g transform="matrix(2.96823e-17,-0.488876,0.494231,3.00074e-17,1413.15,936.167)">
                    <rect x="472.423" y="234.547" width="238.808" height="236.083" style="fill:none;stroke:black;stroke-width:4.66px;"/>
                </g>
                <g transform="matrix(2.96823e-17,-0.488876,0.494231,3.00074e-17,1413.15,819.419)">
                    <rect x="472.423" y="234.547" width="238.808" height="236.083" style="fill:none;stroke:black;stroke-width:4.66px;"/>
                </g>
                <g transform="matrix(2.96823e-17,-0.488876,0.494231,3.00074e-17,1413.15,702.672)">
                    <rect x="472.423" y="234.547" width="238.808" height="236.083" style="fill:none;stroke:black;stroke-width:4.66px;"/>
                </g>
                <g transform="matrix(2.96823e-17,-0.488876,0.494231,3.00074e-17,1413.15,585.924)">
                    <rect x="472.423" y="234.547" width="238.808" height="236.083" style="fill:none;stroke:black;stroke-width:4.66px;"/>
                </g>
                <g transform="matrix(0.00062948,-0.488876,0.49423,0.000636374,1061.63,1170.04)">
                    <rect x="472.423" y="234.547" width="238.808" height="236.083" style="fill:none;stroke:black;stroke-width:4.66px;"/>
                </g>
                <g transform="matrix(0.00062948,-0.488876,0.49423,0.000636374,1061.78,1053.29)">
                    <rect x="472.423" y="234.547" width="238.808" height="236.083" style="fill:none;stroke:black;stroke-width:4.66px;"/>
                </g>
                <g transform="matrix(0.00062948,-0.488876,0.49423,0.000636374,1061.93,936.544)">
                    <rect x="472.423" y="234.547" width="238.808" height="236.083" style="fill:none;stroke:black;stroke-width:4.66px;"/>
                </g>
                <g transform="matrix(0.00062948,-0.488876,0.49423,0.000636374,1062.08,819.796)">
                    <rect x="472.423" y="234.547" width="238.808" height="236.083" style="fill:none;stroke:black;stroke-width:4.66px;"/>
                </g>
                <g transform="matrix(0.00062948,-0.488876,0.49423,0.000636374,1062.23,703.049)">
                    <rect x="472.423" y="234.547" width="238.808" height="236.083" style="fill:none;stroke:black;stroke-width:4.66px;"/>
                </g>
                <g transform="matrix(0.00062948,-0.488876,0.49423,0.000636374,1062.38,586.302)">
                    <rect x="472.423" y="234.547" width="238.808" height="236.083" style="fill:none;stroke:black;stroke-width:4.66px;"/>
                </g>
                <g transform="matrix(0.00062948,-0.488876,0.49423,0.000636374,1062.53,469.554)">
                    <rect x="472.423" y="234.547" width="238.808" height="236.083" style="fill:none;stroke:black;stroke-width:4.66px;"/>
                </g>
                <g transform="matrix(0.00062948,-0.488876,0.49423,0.000636374,595.17,1287.26)">
                    <rect x="472.423" y="234.547" width="238.808" height="236.083" style="fill:none;stroke:black;stroke-width:4.66px;"/>
                </g>
                <g transform="matrix(0.00062948,-0.488876,0.49423,0.000636374,595.32,1170.51)">
                    <rect x="472.423" y="234.547" width="238.808" height="236.083" style="fill:none;stroke:black;stroke-width:4.66px;"/>
                </g>
                <g transform="matrix(0.00062948,-0.488876,0.49423,0.000636374,595.471,1053.76)">
                    <rect x="472.423" y="234.547" width="238.808" height="236.083" style="fill:none;stroke:black;stroke-width:4.66px;"/>
                </g>
                <g transform="matrix(0.00062948,-0.488876,0.49423,0.000636374,595.621,937.017)">
                    <rect x="472.423" y="234.547" width="238.808" height="236.083" style="fill:none;stroke:black;stroke-width:4.66px;"/>
                </g>
                <g transform="matrix(0.00062948,-0.488876,0.49423,0.000636374,595.771,820.269)">
                    <rect x="472.423" y="234.547" width="238.808" height="236.083" style="fill:none;stroke:black;stroke-width:4.66px;"/>
                </g>
                <g transform="matrix(0.00062948,-0.488876,0.49423,0.000636374,595.922,703.522)">
                    <rect x="472.423" y="234.547" width="238.808" height="236.083" style="fill:none;stroke:black;stroke-width:4.66px;"/>
                </g>
                <g transform="matrix(0.00062948,-0.488876,0.49423,0.000636374,596.072,586.775)">
                    <rect x="472.423" y="234.547" width="238.808" height="236.083" style="fill:none;stroke:black;stroke-width:4.66px;"/>
                </g>
                <g transform="matrix(0.488875,-0.00107844,0.00109025,0.49423,247.424,708.792)">
                    <rect x="472.423" y="234.547" width="238.808" height="236.083" style="fill:none;stroke:black;stroke-width:4.66px;"/>
                </g>
                <g transform="matrix(0.488875,-0.00107844,0.00109025,0.49423,364.171,708.534)">
                    <rect x="472.423" y="234.547" width="238.808" height="236.083" style="fill:none;stroke:black;stroke-width:4.66px;"/>
                </g>
                <g transform="matrix(0.488875,-0.00107844,0.00109025,0.49423,480.919,708.277)">
                    <rect x="472.423" y="234.547" width="238.808" height="236.083" style="fill:none;stroke:black;stroke-width:4.66px;"/>
                </g>
                <g transform="matrix(0.488875,-0.00107844,0.00109025,0.49423,597.666,708.019)">
                    <rect x="472.423" y="234.547" width="238.808" height="236.083" style="fill:none;stroke:black;stroke-width:4.66px;"/>
                </g>
                <g transform="matrix(0.488875,-0.00107844,0.00109025,0.49423,830.612,591.082)">
                    <rect x="472.423" y="234.547" width="238.808" height="236.083" style="fill:none;stroke:black;stroke-width:4.66px;"/>
                </g>
                <g transform="matrix(0.488875,-0.00107844,0.00109025,0.49423,947.36,590.825)">
                    <rect x="472.423" y="234.547" width="238.808" height="236.083" style="fill:none;stroke:black;stroke-width:4.66px;"/>
                </g>
                <g transform="matrix(0.488875,-0.00107844,0.00109025,0.49423,1064.11,590.567)">
                    <rect x="472.423" y="234.547" width="238.808" height="236.083" style="fill:none;stroke:black;stroke-width:4.66px;"/>
                </g>
                <g transform="matrix(1,0,0,1,-844.512,4.79366)">
                    <g transform="matrix(0.488876,0,0,0.494231,1091.9,1169.04)">
                        <rect x="472.423" y="234.547" width="238.808" height="236.083" style="fill:none;stroke:black;stroke-width:4.66px;"/>
                    </g>
                    <g transform="matrix(0.488876,0,0,0.494231,1208.65,1169.04)">
                        <rect x="472.423" y="234.547" width="238.808" height="236.083" style="fill:none;stroke:black;stroke-width:4.66px;"/>
                    </g>
                    <g transform="matrix(0.488876,0,0,0.494231,1325.39,1169.04)">
                        <rect x="472.423" y="234.547" width="238.808" height="236.083" style="fill:none;stroke:black;stroke-width:4.66px;"/>
                    </g>
                    <g transform="matrix(0.488876,0,0,0.494231,1442.14,1169.04)">
                        <rect x="472.423" y="234.547" width="238.808" height="236.083" style="fill:none;stroke:black;stroke-width:4.66px;"/>
                    </g>
                    <g transform="matrix(0.488876,0,0,0.494231,1558.89,1169.04)">
                        <rect x="472.423" y="234.547" width="238.808" height="236.083" style="fill:none;stroke:black;stroke-width:4.66px;"/>
                    </g>
                    <g transform="matrix(0.488876,0,0,0.494231,1675.64,1169.04)">
                        <rect x="472.423" y="234.547" width="238.808" height="236.083" style="fill:none;stroke:black;stroke-width:4.66px;"/>
                    </g>
                </g>
                <g transform="matrix(1,0,0,1,-723.227,362.693)">
                    <g transform="matrix(0.488876,0,0,0.494231,1087.36,1277.42)">
                        <rect x="472.423" y="234.547" width="238.808" height="236.083" style="fill:none;stroke:black;stroke-width:4.66px;"/>
                    </g>
                    <g transform="matrix(0.488876,0,0,0.494231,1204.11,1277.42)">
                        <rect x="472.423" y="234.547" width="238.808" height="236.083" style="fill:none;stroke:black;stroke-width:4.66px;"/>
                    </g>
                    <g transform="matrix(0.488876,0,0,0.494231,1320.86,1277.42)">
                        <rect x="472.423" y="234.547" width="238.808" height="236.083" style="fill:none;stroke:black;stroke-width:4.66px;"/>
                    </g>
                    <g transform="matrix(0.488876,0,0,0.494231,1437.6,1277.42)">
                        <rect x="472.423" y="234.547" width="238.808" height="236.083" style="fill:none;stroke:black;stroke-width:4.66px;"/>
                    </g>
                    <g transform="matrix(0.488876,0,0,0.494231,1554.35,1277.42)">
                        <rect x="472.423" y="234.547" width="238.808" height="236.083" style="fill:none;stroke:black;stroke-width:4.66px;"/>
                    </g>
                    <g transform="matrix(0.488876,0,0,0.494231,1671.1,1277.42)">
                        <rect x="472.423" y="234.547" width="238.808" height="236.083" style="fill:none;stroke:black;stroke-width:4.66px;"/>
                    </g>
                    <g transform="matrix(0.488876,0,0,0.494231,1787.85,1277.42)">
                        <rect x="472.423" y="234.547" width="238.808" height="236.083" style="fill:none;stroke:black;stroke-width:4.66px;"/>
                    </g>
                    <g transform="matrix(0.488876,0,0,0.494231,1904.59,1277.42)">
                        <rect x="472.423" y="234.547" width="238.808" height="236.083" style="fill:none;stroke:black;stroke-width:4.66px;"/>
                    </g>
                    <g transform="matrix(0.488876,0,0,0.494231,2021.34,1277.42)">
                        <rect x="472.423" y="234.547" width="238.808" height="236.083" style="fill:none;stroke:black;stroke-width:4.66px;"/>
                    </g>
                    <g transform="matrix(0.488876,0,0,0.494231,2138.09,1277.42)">
                        <rect x="472.423" y="234.547" width="238.808" height="236.083" style="fill:none;stroke:black;stroke-width:4.66px;"/>
                    </g>
                </g>
                <g transform="matrix(1,0,0,1,-396.581,-400.144)">
                    <g transform="matrix(0.488876,0,0,0.494231,1227.7,639.985)">
                        <rect x="472.423" y="234.547" width="238.808" height="236.083" style="fill:none;stroke:black;stroke-width:5.09px;"/>
                    </g>
                    <g transform="matrix(0.488876,0,0,0.494231,1344.45,639.985)">
                        <rect x="472.423" y="234.547" width="238.808" height="236.083" style="fill:none;stroke:black;stroke-width:5.09px;"/>
                    </g>
                    <g transform="matrix(0.488876,0,0,0.494231,1461.2,639.985)">
                        <rect x="472.423" y="234.547" width="238.808" height="236.083" style="fill:none;stroke:black;stroke-width:5.09px;"/>
                    </g>
                    <g transform="matrix(0.488876,0,0,0.494231,1577.95,639.985)">
                        <rect x="472.423" y="234.547" width="238.808" height="236.083" style="fill:none;stroke:black;stroke-width:5.09px;"/>
                    </g>
                    <g transform="matrix(0.488876,0,0,0.494231,1694.69,639.985)">
                        <rect x="472.423" y="234.547" width="238.808" height="236.083" style="fill:none;stroke:black;stroke-width:5.09px;"/>
                    </g>
                    <g transform="matrix(0.488876,0,0,0.494231,1811.44,639.985)">
                        <rect x="472.423" y="234.547" width="238.808" height="236.083" style="fill:none;stroke:black;stroke-width:5.09px;"/>
                    </g>
                </g>
                <g transform="matrix(2.9924e-17,-0.494231,0.494231,2.9924e-17,595.383,2106.92)">
                    <g transform="matrix(0.989166,0,0,1,-231.084,474.114)">
                        <rect x="472.423" y="234.547" width="238.808" height="236.083" style="fill:none;stroke:black;stroke-width:5.51px;"/>
                    </g>
                    <g transform="matrix(0.989166,0,0,1,5.13604,474.114)">
                        <rect x="472.423" y="234.547" width="238.808" height="236.083" style="fill:none;stroke:black;stroke-width:5.51px;"/>
                    </g>
                    <g transform="matrix(0.989166,0,0,1,241.357,474.114)">
                        <rect x="472.423" y="234.547" width="238.808" height="236.083" style="fill:none;stroke:black;stroke-width:5.51px;"/>
                    </g>
                    <g transform="matrix(0.989166,0,0,1,477.577,474.114)">
                        <rect x="472.423" y="234.547" width="238.808" height="236.083" style="fill:none;stroke:black;stroke-width:5.51px;"/>
                    </g>
                    <g transform="matrix(0.989166,0,0,1,713.797,474.114)">
                        <rect x="472.423" y="234.547" width="238.808" height="236.083" style="fill:none;stroke:black;stroke-width:5.51px;"/>
                    </g>
                    <g transform="matrix(0.989166,0,0,1,950.018,474.114)">
                        <rect x="472.423" y="234.547" width="238.808" height="236.083" style="fill:none;stroke:black;stroke-width:5.51px;"/>
                    </g>
                    <g transform="matrix(0.989166,0,0,1,1186.24,474.114)">
                        <rect x="472.423" y="234.547" width="238.808" height="236.083" style="fill:none;stroke:black;stroke-width:5.51px;"/>
                    </g>
                    <g transform="matrix(0.989166,0,0,1,1422.46,474.114)">
                        <rect x="472.423" y="234.547" width="238.808" height="236.083" style="fill:none;stroke:black;stroke-width:5.51px;"/>
                    </g>
                    <g transform="matrix(0.989166,0,0,1,1658.68,474.114)">
                        <rect x="472.423" y="234.547" width="238.808" height="236.083" style="fill:none;stroke:black;stroke-width:5.51px;"/>
                    </g>
                    <g transform="matrix(0.989166,0,0,1,1894.9,474.114)">
                        <rect x="472.423" y="234.547" width="238.808" height="236.083" style="fill:none;stroke:black;stroke-width:5.51px;"/>
                    </g>
                    <g transform="matrix(0.989166,0,0,1,2131.12,474.114)">
                        <rect x="472.423" y="234.547" width="238.808" height="236.083" style="fill:none;stroke:black;stroke-width:5.51px;"/>
                    </g>
                    <g transform="matrix(0.989166,0,0,1,2367.34,474.114)">
                        <rect x="472.423" y="234.547" width="238.808" height="236.083" style="fill:none;stroke:black;stroke-width:5.51px;"/>
                    </g>
                    <g transform="matrix(0.989166,0,0,1,2603.56,474.114)">
                        <rect x="472.423" y="234.547" width="238.808" height="236.083" style="fill:none;stroke:black;stroke-width:5.51px;"/>
                    </g>
                </g>
            </g>
            <g transform="matrix(1,0,0,1,-6,-12)">
                <g transform="matrix(33.3333,0,0,33.3333,745.538,279.877)">
                </g>
                <text x="727px" y="279.877px" style="font-family:'ArialMT', 'Arial', sans-serif;font-size:33.333px;">2</text>
            </g>
            <g transform="matrix(1,0,0,1,224.625,226.331)">
                <g transform="matrix(33.3333,0,0,33.3333,745.538,279.877)">
                </g>
                <text x="727px" y="279.877px" style="font-family:'ArialMT', 'Arial', sans-serif;font-size:33.333px;">6</text>
            </g>
            <g transform="matrix(1,0,0,1,227.051,462.551)">
                <g transform="matrix(33.3333,0,0,33.3333,745.538,279.877)">
                </g>
                <text x="727px" y="279.877px" style="font-family:'ArialMT', 'Arial', sans-serif;font-size:33.333px;">7</text>
            </g>
            <g transform="matrix(1,0,0,1,-238.22,575.517)">
                <g transform="matrix(33.3333,0,0,33.3333,745.538,279.877)">
                </g>
                <text x="727px" y="279.877px" style="font-family:'ArialMT', 'Arial', sans-serif;font-size:33.333px;">8</text>
            </g>
            <g transform="matrix(1,0,0,1,343,105.761)">
                <g transform="matrix(33.3333,0,0,33.3333,745.538,279.877)">
                </g>
                <text x="727px" y="279.877px" style="font-family:'ArialMT', 'Arial', sans-serif;font-size:33.333px;">5</text>
            </g>
            <g transform="matrix(1,0,0,1,809.15,572.517)">
                <g transform="matrix(33.3333,0,0,33.3333,745.538,279.877)">
                </g>
                <text x="727px" y="279.877px" style="font-family:'ArialMT', 'Arial', sans-serif;font-size:33.333px;">9</text>
            </g>
            <g transform="matrix(1,0,0,1,-245.39,1039.37)">
                <g transform="matrix(33.3333,0,0,33.3333,764.077,279.877)">
                </g>
                <text x="727px" y="279.877px" style="font-family:'ArialMT', 'Arial', sans-serif;font-size:33.333px;">10</text>
            </g>
            <g transform="matrix(1,0,0,1,803.15,1275.59)">
                <g transform="matrix(33.3333,0,0,33.3333,761.603,279.877)">
                </g>
                <text x="727px" y="279.877px" style="font-family:'ArialMT', 'Arial', sans-serif;font-size:33.333px;">1<tspan x="743.064px " y="279.877px ">1</tspan></text>
            </g>
            <g transform="matrix(1,0,0,1,-128.732,1511.81)">
                <g transform="matrix(33.3333,0,0,33.3333,764.077,279.877)">
                </g>
                <text x="727px" y="279.877px" style="font-family:'ArialMT', 'Arial', sans-serif;font-size:33.333px;">12</text>
            </g>
            <g transform="matrix(1,0,0,1,464.692,-125.622)">
                <g transform="matrix(33.3333,0,0,33.3333,745.538,279.877)">
                </g>
                <text x="727px" y="279.877px" style="font-family:'ArialMT', 'Arial', sans-serif;font-size:33.333px;">1</text>
            </g>
            <g transform="matrix(1,0,0,1,807.526,-14.0381)">
                <g transform="matrix(33.3333,0,0,33.3333,745.538,279.877)">
                </g>
                <text x="727px" y="279.877px" style="font-family:'ArialMT', 'Arial', sans-serif;font-size:33.333px;">3</text>
            </g>
            <g transform="matrix(1,0,0,1,1161.37,-12.8091)">
                <g transform="matrix(33.3333,0,0,33.3333,745.538,279.877)">
                </g>
                <text x="727px" y="279.877px" style="font-family:'ArialMT', 'Arial', sans-serif;font-size:33.333px;">4</text>
            </g>
        </g>
    </g>
</svg>
