<?xml version="1.0" encoding="UTF-8" standalone="no"?><!DOCTYPE svg PUBLIC "-//W3C//DTD SVG 1.1//EN" "http://www.w3.org/Graphics/SVG/1.1/DTD/svg11.dtd"><svg width="100%" height="100%" viewBox="0 0 684 136" version="1.1" xmlns="http://www.w3.org/2000/svg" xmlns:xlink="http://www.w3.org/1999/xlink" xml:space="preserve" xmlns:serif="http://www.serif.com/" style="fill-rule:evenodd;clip-rule:evenodd;stroke-linejoin:round;stroke-miterlimit:2;"><g><g><g transform="matrix(1.27511,0,0,1.27511,-792.833,-162.498)"><text x="639.679px" y="137.427px" style="font-family:'ArialMT', 'Arial', sans-serif;font-size:12px;fill:#ff3520;">t</text><text x="680.257px" y="137.427px" style="font-family:'ArialMT', 'Arial', sans-serif;font-size:12px;">q</text><text x="769.425px" y="137.427px" style="font-family:'ArialMT', 'Arial', sans-serif;font-size:12px;fill:#ff2c20;">kg</text><text x="832.176px" y="137.427px" style="font-family:'ArialMT', 'Arial', sans-serif;font-size:12px;">hg</text><text x="893.489px" y="137.427px" style="font-family:'ArialMT', 'Arial', sans-serif;font-size:12px;">dag</text><text x="953.625px" y="137.427px" style="font-family:'ArialMT', 'Arial', sans-serif;font-size:12px;fill:#ff3f27;">g</text><text x="1002.5px" y="137.427px" style="font-family:'ArialMT', 'Arial', sans-serif;font-size:12px;">dg</text><text x="1063.44px" y="137.427px" style="font-family:'ArialMT', 'Arial', sans-serif;font-size:12px;">cg</text><text x="1120.76px" y="137.427px" style="font-family:'ArialMT', 'Arial', sans-serif;font-size:12px;">mg</text><text x="628.589px" y="162.75px" style="font-family:'ArialMT', 'Arial', sans-serif;font-size:10.195px;fill:#ff3a23;">tonne</text><text x="668.573px" y="162.75px" style="font-family:'ArialMT', 'Arial', sans-serif;font-size:10.195px;">quintal</text><text x="749.418px" y="162.75px" style="font-family:'ArialMT', 'Arial', sans-serif;font-size:10.195px;fill:#ff391c;">kilogramme</text><text x="807.684px" y="162.75px" style="font-family:'ArialMT', 'Arial', sans-serif;font-size:10.195px;">hectogramme</text><text x="873.75px" y="162.75px" style="font-family:'ArialMT', 'Arial', sans-serif;font-size:10.195px;">décagramme</text><text x="938.266px" y="162.75px" style="font-family:'ArialMT', 'Arial', sans-serif;font-size:10.195px;fill:#ff3524;">gramme</text><text x="981.122px" y="162.75px" style="font-family:'ArialMT', 'Arial', sans-serif;font-size:10.195px;">décigramme</text><text x="1040.31px" y="162.75px" style="font-family:'ArialMT', 'Arial', sans-serif;font-size:10.195px;">centigramme</text><text x="1101.63px" y="162.75px" style="font-family:'ArialMT', 'Arial', sans-serif;font-size:10.195px;">milligramme</text><text x="638.009px" y="190.658px" style="font-family:'ArialMT', 'Arial', sans-serif;font-size:12px;">1</text><text x="680.257px" y="190.658px" style="font-family:'ArialMT', 'Arial', sans-serif;font-size:12px;">0</text><text x="723.055px" y="190.658px" style="font-family:'ArialMT', 'Arial', sans-serif;font-size:12px;">0</text><text x="772.425px" y="190.658px" style="font-family:'ArialMT', 'Arial', sans-serif;font-size:12px;">0</text><text x="680.257px" y="203.966px" style="font-family:'ArialMT', 'Arial', sans-serif;font-size:12px;">1</text><text x="723.055px" y="203.966px" style="font-family:'ArialMT', 'Arial', sans-serif;font-size:12px;">0</text><text x="772.425px" y="203.966px" style="font-family:'ArialMT', 'Arial', sans-serif;font-size:12px;">0</text><text x="772.425px" y="216.428px" style="font-family:'ArialMT', 'Arial', sans-serif;font-size:12px;">1</text><text x="835.513px" y="216.428px" style="font-family:'ArialMT', 'Arial', sans-serif;font-size:12px;">0</text><text x="900.163px" y="216.428px" style="font-family:'ArialMT', 'Arial', sans-serif;font-size:12px;">0</text><text x="953.625px" y="216.428px" style="font-family:'ArialMT', 'Arial', sans-serif;font-size:12px;">0</text><text x="953.625px" y="229.736px" style="font-family:'ArialMT', 'Arial', sans-serif;font-size:12px;">1</text><text x="1005.83px" y="229.736px" style="font-family:'ArialMT', 'Arial', sans-serif;font-size:12px;">0</text><text x="1066.44px" y="229.736px" style="font-family:'ArialMT', 'Arial', sans-serif;font-size:12px;">0</text><text x="1125.76px" y="229.736px" style="font-family:'ArialMT', 'Arial', sans-serif;font-size:12px;">0</text><path d="M621.973,127.635l0,106.01m535.599,-106.01l0,106.01m-496.853,-105.814l0,105.618m45.751,-105.618l0,105.618m39.844,-105.618l0,105.618m58.897,-105.618l0,105.618m67.278,-105.618l0,105.618m62.021,-105.618l0,105.618m44.903,-105.618l0,105.618m59.512,-105.618l0,105.618m61.702,-105.618l0,105.618m-478.654,-105.618l535.599,0m-535.599,13.308l535.599,0m-535.599,13.308l535.599,0m-535.599,13.308l535.599,0m-535.599,13.308l535.599,0m-535.599,13.308l535.599,0m-535.599,12.462l535.599,0m-535.599,13.308l535.599,0m-535.599,13.308l535.599,0" style="fill:none;stroke:#000;stroke-width:0.39px;"/></g></g></g></svg>