<?xml version="1.0" encoding="UTF-8" standalone="no"?><!DOCTYPE svg PUBLIC "-//W3C//DTD SVG 1.1//EN" "http://www.w3.org/Graphics/SVG/1.1/DTD/svg11.dtd"><svg width="100%" height="100%" viewBox="0 0 132 136" version="1.1" xmlns="http://www.w3.org/2000/svg" xmlns:xlink="http://www.w3.org/1999/xlink" xml:space="preserve" xmlns:serif="http://www.serif.com/" style="fill-rule:evenodd;clip-rule:evenodd;stroke-linejoin:round;"><g><g><rect x="0.31" y="0.308" width="130.968" height="134.878" style="fill:none;"/><path d="M0.332,135.137l0,-101.11l31.033,-33.695l99.868,0l0,101.085l-31.033,33.72l-99.868,0Z" style="fill:#ffeb4e;"/><path d="M0.332,135.137l0,-101.11l31.033,-33.695l99.868,0l0,101.085l-31.033,33.72l-99.868,0Z" style="fill:none;stroke:#3465a4;stroke-width:0.66px;"/><path d="M0.332,34.027l31.033,-33.695l99.868,0l-31.033,33.695l-99.868,0Z" style="fill:#cdffb1;"/><path d="M0.332,34.027l31.033,-33.695l99.868,0l-31.033,33.695l-99.868,0Z" style="fill:none;stroke:#3465a4;stroke-width:0.66px;"/><path d="M100.2,135.137l0,-101.11l31.033,-33.695l0,101.085l-31.033,33.72Z" style="fill:#ff6632;"/><path d="M100.2,135.137l0,-101.11l31.033,-33.695l0,101.085l-31.033,33.72Z" style="fill:none;stroke:#3465a4;stroke-width:0.66px;"/></g><g transform="matrix(0.24,0,0,0.24,0.309846,-131.989)"><text x="118.11px" y="929.107px" style="font-family:'Arial-BoldMT', 'Arial', sans-serif;font-weight:700;font-size:100px;fill:#0433ff;">1 m</text><text x="290.425px" y="895.807px" style="font-family:'Arial-BoldMT', 'Arial', sans-serif;font-weight:700;font-size:58.3px;fill:#0433ff;">3</text></g><text x="27.889px" y="131.277px" style="font-family:'ArialMT', 'Arial', sans-serif;font-size:12px;">un mètre</text><g transform="matrix(6.12323e-17,-1,1,6.12323e-17,-480.231,133.128)"><text x="26.584px" y="489.177px" style="font-family:'ArialMT', 'Arial', sans-serif;font-size:12px;">un mètre</text></g><text x="27.889px" y="30.437px" style="font-family:'ArialMT', 'Arial', sans-serif;font-size:12px;">un mètre</text><g transform="matrix(0.0100115,-0.99995,0.99995,0.0100115,-339.023,222.689)"><text x="143.088px" y="465.059px" style="font-family:'ArialMT', 'Arial', sans-serif;font-size:12px;">un mètre</text></g></g></svg>