<?xml version="1.0" encoding="UTF-8" standalone="no"?><!DOCTYPE svg PUBLIC "-//W3C//DTD SVG 1.1//EN" "http://www.w3.org/Graphics/SVG/1.1/DTD/svg11.dtd"><svg width="100%" height="100%" viewBox="0 0 500 143" version="1.1" xmlns="http://www.w3.org/2000/svg" xmlns:xlink="http://www.w3.org/1999/xlink" xml:space="preserve" xmlns:serif="http://www.serif.com/" style="fill-rule:evenodd;clip-rule:evenodd;stroke-linejoin:round;stroke-miterlimit:2;"><g><g transform="matrix(1,0,0,1,-319.599,-139.873)"><text x="372.515px" y="159.246px" style="font-family:'Arial-BoldMT', 'Arial', sans-serif;font-weight:700;font-size:16px;fill:#ff2600;">m</text><text x="386.741px" y="153.918px" style="font-family:'Arial-BoldMT', 'Arial', sans-serif;font-weight:700;font-size:9.328px;fill:#ff2600;">3</text><text x="493.261px" y="159.25px" style="font-family:'ArialMT', 'Arial', sans-serif;font-size:16px;">dm</text><text x="515.487px" y="153.922px" style="font-family:'ArialMT', 'Arial', sans-serif;font-size:9.328px;">3</text><text x="617.558px" y="159.246px" style="font-family:'Arial-BoldMT', 'Arial', sans-serif;font-weight:700;font-size:16px;fill:#ff2600;">cm</text><text x="640.683px" y="153.918px" style="font-family:'Arial-BoldMT', 'Arial', sans-serif;font-weight:700;font-size:9.328px;fill:#ff2600;">3</text><text x="740.538px" y="159.25px" style="font-family:'ArialMT', 'Arial', sans-serif;font-size:16px;">mm</text><text x="767.194px" y="153.922px" style="font-family:'ArialMT', 'Arial', sans-serif;font-size:9.328px;">3</text><text x="352.207px" y="183.493px" style="font-family:'ArialMT', 'Arial', sans-serif;font-size:12px;fill:#ff2600;">mètre cube</text><text x="465.946px" y="183.493px" style="font-family:'ArialMT', 'Arial', sans-serif;font-size:12px;">décimètre cube</text><text x="589.025px" y="183.493px" style="font-family:'ArialMT', 'Arial', sans-serif;font-size:12px;fill:#ff2600;">centimètre cube</text><text x="716.115px" y="183.493px" style="font-family:'ArialMT', 'Arial', sans-serif;font-size:12px;">millimètre cube</text><text x="369.618px" y="209.915px" style="font-family:'ArialMT', 'Arial', sans-serif;font-size:24px;">•••</text><text x="494.364px" y="209.915px" style="font-family:'ArialMT', 'Arial', sans-serif;font-size:24px;">•••</text><text x="619.11px" y="209.915px" style="font-family:'ArialMT', 'Arial', sans-serif;font-size:24px;">•••</text><text x="743.856px" y="209.915px" style="font-family:'ArialMT', 'Arial', sans-serif;font-size:24px;">•••</text><text x="378.885px" y="241.768px" style="font-family:'ArialMT', 'Arial', sans-serif;font-size:12px;">1</text><text x="496.957px" y="241.768px" style="font-family:'ArialMT', 'Arial', sans-serif;font-size:12px;">000</text><text x="378.885px" y="259.471px" style="font-family:'ArialMT', 'Arial', sans-serif;font-size:12px;">1</text><text x="496.957px" y="259.471px" style="font-family:'ArialMT', 'Arial', sans-serif;font-size:12px;">000</text><text x="621.703px" y="259.471px" style="font-family:'ArialMT', 'Arial', sans-serif;font-size:12px;">000</text><text x="628.377px" y="277.174px" style="font-family:'ArialMT', 'Arial', sans-serif;font-size:12px;">1</text><text x="746.449px" y="277.174px" style="font-family:'ArialMT', 'Arial', sans-serif;font-size:12px;">000</text><path d="M319.849,140.123l0,141.855m498.984,-141.855l0,141.855m-374.238,-141.605l0,141.355m124.746,-141.355l0,141.355m124.746,-141.355l0,141.355m-374.238,-141.355l498.984,0m-498.984,26.293l498.984,0m-498.984,25.058l498.984,0m-498.984,19.191l498.984,0m-498.984,17.703l498.984,0m-498.984,17.704l498.984,0m-498.984,17.703l498.984,0m-498.984,17.703l498.984,0" style="fill:none;stroke:#000;stroke-width:0.5px;"/></g></g></svg>