<?xml version="1.0" encoding="UTF-8" standalone="no"?>
<!DOCTYPE svg PUBLIC "-//W3C//DTD SVG 1.1//EN" "http://www.w3.org/Graphics/SVG/1.1/DTD/svg11.dtd">
<svg width="100%" height="100%" viewBox="0 0 1815 1037" version="1.1" xmlns="http://www.w3.org/2000/svg" xmlns:xlink="http://www.w3.org/1999/xlink" xml:space="preserve" xmlns:serif="http://www.serif.com/" style="fill-rule:evenodd;clip-rule:evenodd;stroke-linejoin:round;stroke-miterlimit:2;">
    <g transform="matrix(1,0,0,1,-882.034,-496.063)">
        <g>
            <g transform="matrix(-1.93526,0,0,1.89491,1788.79,1221.88)">
                <g transform="matrix(1,0,0,1,-88.838,-90.673)">
                    <g transform="matrix(-1,0,0,1,175.278,0)">
                        <path d="M41.552,48.668L4.191,25.58L97.034,4.463L166.75,14.882L41.552,48.668Z" style="fill:rgb(246,8,8);fill-rule:nonzero;"/>
                    </g>
                    <g transform="matrix(-1,0,0,1,175.278,0)">
                        <path d="M41.552,48.668L166.752,14.882L171.087,127.992L67.567,175.162L41.559,48.672L41.552,48.668Z" style="fill:rgb(161,162,226);fill-rule:nonzero;"/>
                    </g>
                    <g transform="matrix(-1,0,0,1,175.278,0)">
                        <path d="M67.564,175.16L26.967,117.6L4.191,25.58L41.552,48.668L67.564,175.16Z" style="fill:rgb(67,123,67);fill-rule:nonzero;"/>
                    </g>
                    <g transform="matrix(-1,0,0,1,175.278,0)">
                        <path d="M84.487,92.281C86.643,91.515 88.613,90.344 90.336,88.885C92.055,87.43 93.529,85.681 94.7,83.752C95.871,81.822 96.738,79.704 97.232,77.51C97.73,75.309 97.855,73.022 97.538,70.76C97.217,68.483 96.476,66.44 95.404,64.695C94.328,62.937 92.914,61.479 91.258,60.389C89.588,59.29 87.673,58.566 85.609,58.285C83.529,58.003 81.3,58.173 79.026,58.866C76.735,59.564 74.624,60.724 72.77,62.226C70.911,63.734 69.317,65.58 68.068,67.637C66.819,69.694 65.919,71.96 65.442,74.305C64.967,76.64 64.915,79.047 65.355,81.398C65.793,83.732 66.674,85.784 67.888,87.496C69.093,89.192 70.624,90.554 72.373,91.523C74.107,92.484 76.056,93.061 78.116,93.204C80.16,93.342 82.316,93.053 84.487,92.281ZM142.5,71.677C144.313,71.032 146.001,70.002 147.503,68.691C149,67.382 150.316,65.794 151.39,64.021C152.463,62.25 153.299,60.294 153.834,58.253C154.37,56.205 154.605,54.066 154.474,51.94C154.341,49.798 153.851,47.866 153.074,46.202C152.291,44.525 151.215,43.122 149.921,42.055C148.615,40.981 147.089,40.246 145.415,39.925C143.728,39.601 141.896,39.694 139.998,40.273C138.089,40.856 136.298,41.875 134.697,43.216C133.093,44.563 131.685,46.233 130.546,48.112C129.404,49.992 128.536,52.074 128.007,54.244C127.481,56.407 127.293,58.648 127.512,60.856C127.729,63.047 128.325,64.995 129.212,66.633C130.094,68.261 131.264,69.584 132.634,70.552C133.994,71.512 135.553,72.119 137.231,72.323C138.901,72.521 140.691,72.324 142.511,71.677L142.5,71.677ZM104.01,125.06C103.051,123.662 101.785,122.552 100.299,121.786C98.803,121.012 97.081,120.583 95.223,120.55C93.352,120.516 91.344,120.885 89.291,121.706C87.225,122.531 85.315,123.735 83.635,125.206C81.949,126.68 80.5,128.417 79.357,130.301C78.214,132.185 77.381,134.211 76.929,136.263C76.477,138.31 76.403,140.374 76.772,142.344C77.139,144.302 77.909,145.978 78.98,147.328C80.045,148.669 81.407,149.689 82.971,150.353C84.523,151.012 86.273,151.321 88.129,151.245C89.971,151.167 91.921,150.71 93.889,149.837C95.844,148.97 97.637,147.774 99.209,146.349C100.775,144.93 102.129,143.281 103.205,141.507C104.281,139.732 105.085,137.824 105.553,135.888C106.022,133.946 106.156,131.967 105.887,130.053C105.617,128.133 104.967,126.463 104.007,125.073L104.01,125.06ZM157.94,108.08C157.827,106.247 157.382,104.631 156.675,103.277C155.962,101.917 154.981,100.817 153.797,100.033C152.606,99.244 151.209,98.771 149.678,98.67C148.137,98.566 146.459,98.837 144.719,99.532C142.971,100.231 141.33,101.294 139.862,102.613C138.391,103.936 137.096,105.517 136.046,107.252C134.995,108.984 134.191,110.863 133.694,112.782C133.201,114.697 133.016,116.645 133.202,118.521C133.386,120.388 133.919,122.006 134.72,123.331C135.517,124.644 136.577,125.671 137.825,126.366C139.063,127.057 140.487,127.427 142.022,127.431C143.547,127.438 145.182,127.088 146.858,126.345C148.526,125.605 150.081,124.544 151.463,123.259C152.846,121.978 154.061,120.47 155.057,118.829C156.05,117.188 156.827,115.415 157.327,113.596C157.837,111.766 158.057,109.896 157.947,108.076L157.94,108.08ZM55.97,20.042C56.722,20.312 57.797,20.497 59.099,20.6C60.416,20.704 61.959,20.723 63.623,20.661C65.295,20.598 67.079,20.451 68.864,20.224C70.646,19.999 72.416,19.7 74.065,19.328C75.697,18.961 77.045,18.561 78.084,18.158C79.107,17.76 79.826,17.357 80.223,16.974C80.613,16.599 80.692,16.245 80.445,15.929C80.203,15.619 79.646,15.35 78.76,15.139C77.888,14.931 76.776,14.799 75.513,14.736C74.263,14.674 72.857,14.679 71.38,14.75C69.909,14.817 68.357,14.949 66.804,15.14C65.248,15.33 63.68,15.581 62.179,15.892C60.664,16.205 59.353,16.55 58.275,16.909C57.182,17.271 56.326,17.648 55.744,18.019C55.152,18.396 54.843,18.768 54.859,19.111C54.876,19.458 55.231,19.777 55.97,20.042ZM31.954,27.69C33.701,27.639 35.632,27.484 37.63,27.227C39.623,26.972 41.668,26.62 43.647,26.173C45.604,25.733 47.296,25.247 48.678,24.749C50.037,24.261 51.09,23.762 51.799,23.283C52.495,22.813 52.86,22.365 52.862,21.964C52.864,21.568 52.518,21.22 51.793,20.94C51.081,20.666 50.068,20.48 48.848,20.38C47.641,20.281 46.225,20.265 44.687,20.326C43.156,20.388 41.493,20.524 39.78,20.737C38.064,20.951 36.285,21.24 34.524,21.603C32.746,21.97 31.142,22.382 29.761,22.814C28.358,23.252 27.178,23.714 26.278,24.173C25.36,24.641 24.729,25.107 24.45,25.543C24.165,25.988 24.245,26.401 24.761,26.754C25.285,27.111 26.209,27.37 27.434,27.525C28.674,27.688 30.217,27.741 31.954,27.69ZM82.309,14.375C83.213,14.577 84.382,14.71 85.723,14.772C87.078,14.836 88.601,14.833 90.193,14.759C91.792,14.687 93.45,14.548 95.062,14.347C96.671,14.147 98.226,13.886 99.622,13.574C101.005,13.261 102.094,12.929 102.876,12.595C103.647,12.267 104.12,11.938 104.29,11.629C104.458,11.325 104.331,11.04 103.907,10.792C103.491,10.548 102.788,10.339 101.794,10.181C100.815,10.025 99.643,9.933 98.359,9.898C97.089,9.865 95.706,9.885 94.287,9.96C92.874,10.033 91.419,10.157 89.999,10.329C88.575,10.502 87.178,10.724 85.883,10.991C84.578,11.261 83.493,11.554 82.649,11.852C81.793,12.156 81.181,12.467 80.836,12.77C80.485,13.079 80.411,13.377 80.64,13.649C80.869,13.927 81.417,14.176 82.307,14.375L82.309,14.375ZM136.016,20.417C137.565,19.979 138.667,19.501 139.34,19.019C140.001,18.544 140.241,18.066 140.085,17.612C139.934,17.169 139.397,16.748 138.501,16.377C137.622,16.013 136.397,15.694 134.842,15.448C133.313,15.204 131.602,15.05 129.817,14.974C128.051,14.901 126.2,14.908 124.362,14.985C122.534,15.063 120.708,15.214 118.981,15.434C117.249,15.654 115.604,15.946 114.143,16.305C112.667,16.669 111.51,17.073 110.682,17.491C109.838,17.916 109.329,18.359 109.176,18.798C109.016,19.245 109.223,19.688 109.817,20.098C110.424,20.517 111.436,20.903 112.872,21.225C114.337,21.553 116.099,21.783 118.028,21.913C119.985,22.045 122.102,22.074 124.241,22.003C126.393,21.932 128.552,21.759 130.573,21.491C132.613,21.221 134.473,20.861 136.033,20.417L136.016,20.417ZM111.966,23.55C111.298,23.068 110.241,22.64 108.796,22.295C107.382,21.958 105.72,21.732 103.929,21.607C102.159,21.483 100.251,21.46 98.308,21.527C96.374,21.594 94.392,21.756 92.463,22.006C90.528,22.256 88.632,22.598 86.874,23.031C85.096,23.469 83.615,23.964 82.457,24.483C81.279,25.013 80.43,25.575 79.945,26.135C79.45,26.708 79.335,27.283 79.643,27.826C79.959,28.382 80.718,28.901 81.966,29.348C83.243,29.805 84.902,30.139 86.814,30.347C88.755,30.559 90.94,30.639 93.224,30.587C95.523,30.536 97.9,30.353 100.202,30.04C102.497,29.728 104.693,29.294 106.64,28.742C108.56,28.198 110.037,27.596 111.068,26.979C112.078,26.375 112.65,25.759 112.791,25.168C112.931,24.595 112.651,24.043 111.971,23.55L111.966,23.55ZM75.714,36.937C77.236,36.149 78.307,35.337 78.903,34.554C79.484,33.789 79.613,33.053 79.274,32.387C78.943,31.738 78.167,31.154 76.927,30.674C75.716,30.204 74.168,29.876 72.41,29.678C70.677,29.484 68.725,29.414 66.668,29.466C64.623,29.518 62.456,29.689 60.273,29.977C58.084,30.266 55.859,30.676 53.702,31.207C51.517,31.746 49.591,32.362 47.972,33.023C46.32,33.698 44.978,34.419 44.01,35.152C43.018,35.902 42.415,36.666 42.276,37.395C42.133,38.144 42.481,38.859 43.401,39.487C44.344,40.133 45.793,40.62 47.615,40.943C49.468,41.273 51.689,41.431 54.125,41.414C56.579,41.395 59.225,41.2 61.896,40.828C64.558,40.458 67.213,39.917 69.694,39.214C72.138,38.521 74.158,37.743 75.714,36.937ZM39.437,73.118C39.156,71.305 38.77,69.47 38.314,67.704C37.859,65.937 37.334,64.25 36.775,62.729C36.218,61.214 35.629,59.874 35.041,58.794C34.457,57.721 33.875,56.91 33.328,56.449C32.785,55.991 32.329,55.921 31.969,56.181C31.613,56.441 31.35,57.028 31.19,57.888C31.032,58.742 30.974,59.867 31.026,61.212C31.079,62.55 31.239,64.107 31.517,65.836C31.793,67.561 32.163,69.298 32.592,70.966C33.023,72.635 33.516,74.238 34.04,75.695C34.566,77.156 35.127,78.471 35.691,79.557C36.259,80.649 36.832,81.51 37.379,82.051C37.928,82.596 38.4,82.765 38.783,82.601C39.168,82.436 39.463,81.933 39.652,81.136C39.843,80.334 39.931,79.235 39.9,77.885C39.869,76.533 39.718,74.926 39.437,73.118ZM37.393,95.565C37.127,93.917 36.769,92.232 36.348,90.601C35.928,88.97 35.449,87.398 34.94,85.97C34.432,84.546 33.896,83.27 33.364,82.227C32.835,81.19 32.309,80.384 31.818,79.894C31.331,79.408 30.924,79.277 30.606,79.456C30.29,79.634 30.06,80.116 29.924,80.855C29.789,81.591 29.746,82.584 29.805,83.787C29.862,84.983 30.018,86.392 30.28,87.973C30.542,89.549 30.885,91.149 31.284,92.698C31.683,94.246 32.136,95.745 32.616,97.117C33.098,98.492 33.609,99.743 34.122,100.788C34.636,101.838 35.153,102.683 35.643,103.236C36.138,103.798 36.559,104.01 36.899,103.918C37.239,103.821 37.496,103.414 37.657,102.73C37.821,102.042 37.887,101.077 37.847,99.872C37.808,98.658 37.659,97.209 37.393,95.565ZM50.88,127.6C50.442,125.903 49.933,124.242 49.386,122.708C48.841,121.181 48.259,119.786 47.674,118.615C47.092,117.45 46.508,116.51 45.955,115.882C45.405,115.257 44.938,115.001 44.564,115.069C44.192,115.135 43.912,115.522 43.733,116.185C43.555,116.845 43.476,117.779 43.507,118.948C43.537,120.109 43.675,121.507 43.932,123.099C44.187,124.689 44.537,126.328 44.951,127.936C45.365,129.544 45.844,131.124 46.359,132.591C46.876,134.063 47.43,135.425 47.991,136.592C48.555,137.765 49.129,138.742 49.681,139.437C50.236,140.134 50.718,140.479 51.113,140.5C51.511,140.521 51.821,140.218 52.029,139.618C52.239,139.014 52.346,138.114 52.336,136.951C52.327,135.781 52.199,134.347 51.941,132.687C51.682,131.027 51.317,129.297 50.88,127.597L50.88,127.6ZM23.219,60.885C22.946,59.244 22.593,57.594 22.186,56.017C21.78,54.44 21.324,52.94 20.846,51.6C20.369,50.263 19.872,49.088 19.383,48.156C18.897,47.226 18.42,46.54 17.981,46.169C17.545,45.802 17.189,45.782 16.917,46.06C16.646,46.335 16.459,46.904 16.359,47.714C16.26,48.52 16.248,49.566 16.328,50.803C16.408,52.035 16.579,53.459 16.847,55.032C17.115,56.598 17.454,58.169 17.839,59.668C18.224,61.168 18.656,62.601 19.109,63.893C19.563,65.188 20.039,66.343 20.511,67.286C20.985,68.23 21.456,68.962 21.896,69.397C22.34,69.836 22.711,69.936 23.002,69.739C23.295,69.541 23.508,69.04 23.631,68.278C23.755,67.512 23.788,66.486 23.722,65.242C23.656,63.987 23.491,62.521 23.219,60.885ZM34.505,113.68C34.252,112.16 33.916,110.598 33.524,109.076C33.133,107.554 32.688,106.075 32.217,104.722C31.748,103.373 31.254,102.154 30.765,101.143C30.278,100.137 29.797,99.341 29.348,98.832C28.903,98.326 28.534,98.152 28.245,98.269C27.959,98.384 27.754,98.788 27.635,99.435C27.517,100.08 27.485,100.966 27.545,102.059C27.605,103.146 27.756,104.438 28.005,105.898C28.253,107.355 28.576,108.845 28.949,110.295C29.321,111.745 29.743,113.158 30.189,114.46C30.636,115.765 31.109,116.961 31.581,117.97C32.055,118.985 32.53,119.813 32.978,120.376C33.43,120.943 33.813,121.189 34.118,121.147C34.426,121.103 34.654,120.766 34.795,120.169C34.937,119.567 34.989,118.705 34.944,117.612C34.901,116.502 34.757,115.172 34.505,113.662L34.505,113.68Z" style="fill:rgb(0,17,150);fill-rule:nonzero;"/>
                    </g>
                    <g transform="matrix(-1,0,0,1,175.278,0)">
                        <path d="M85.487,91.281C87.643,90.515 89.613,89.344 91.336,87.885C93.055,86.43 94.529,84.681 95.7,82.752C96.871,80.822 97.738,78.704 98.232,76.51C98.73,74.309 98.855,72.022 98.538,69.76C98.217,67.483 97.476,65.44 96.404,63.695C95.328,61.937 93.914,60.479 92.258,59.389C90.588,58.29 88.673,57.566 86.609,57.285C84.529,57.003 82.3,57.173 80.026,57.866C77.735,58.564 75.624,59.724 73.77,61.226C71.911,62.734 70.317,64.58 69.068,66.637C67.819,68.694 66.919,70.96 66.442,73.305C65.967,75.64 65.915,78.047 66.355,80.398C66.793,82.732 67.674,84.784 68.888,86.496C70.093,88.192 71.624,89.554 73.373,90.523C75.107,91.484 77.056,92.061 79.116,92.204C81.16,92.342 83.316,92.053 85.487,91.281ZM143.5,70.677C145.313,70.032 147.001,69.002 148.503,67.691C150,66.382 151.316,64.794 152.39,63.021C153.463,61.25 154.299,59.294 154.834,57.253C155.37,55.205 155.605,53.066 155.474,50.94C155.341,48.798 154.851,46.866 154.074,45.202C153.291,43.525 152.215,42.122 150.921,41.055C149.615,39.981 148.089,39.246 146.415,38.925C144.728,38.601 142.896,38.694 140.998,39.273C139.089,39.856 137.298,40.875 135.697,42.216C134.093,43.563 132.685,45.233 131.546,47.112C130.404,48.992 129.536,51.074 129.007,53.244C128.481,55.407 128.293,57.648 128.512,59.856C128.729,62.047 129.325,63.995 130.212,65.633C131.094,67.261 132.264,68.584 133.634,69.552C134.994,70.512 136.553,71.119 138.231,71.323C139.901,71.521 141.691,71.324 143.511,70.677L143.5,70.677ZM105.01,124.06C104.051,122.662 102.785,121.552 101.299,120.786C99.803,120.012 98.081,119.583 96.223,119.55C94.352,119.516 92.344,119.885 90.291,120.706C88.225,121.531 86.315,122.735 84.635,124.206C82.949,125.68 81.5,127.417 80.357,129.301C79.214,131.185 78.381,133.211 77.929,135.263C77.477,137.31 77.403,139.374 77.772,141.344C78.139,143.302 78.909,144.978 79.98,146.328C81.045,147.669 82.407,148.689 83.971,149.353C85.523,150.012 87.273,150.321 89.129,150.245C90.971,150.167 92.921,149.71 94.889,148.837C96.844,147.97 98.637,146.774 100.209,145.349C101.775,143.93 103.129,142.281 104.205,140.507C105.281,138.732 106.085,136.824 106.553,134.888C107.022,132.946 107.156,130.967 106.887,129.053C106.617,127.133 105.967,125.463 105.007,124.073L105.01,124.06ZM158.94,107.08C158.827,105.247 158.382,103.631 157.675,102.277C156.962,100.917 155.981,99.817 154.797,99.033C153.606,98.244 152.209,97.771 150.678,97.67C149.137,97.566 147.459,97.837 145.719,98.532C143.971,99.231 142.33,100.294 140.862,101.613C139.391,102.936 138.096,104.517 137.046,106.252C135.995,107.984 135.191,109.863 134.694,111.782C134.201,113.697 134.016,115.645 134.202,117.521C134.386,119.388 134.919,121.006 135.72,122.331C136.517,123.644 137.577,124.671 138.825,125.366C140.063,126.057 141.487,126.427 143.022,126.431C144.547,126.438 146.182,126.088 147.858,125.345C149.526,124.605 151.081,123.544 152.463,122.259C153.846,120.978 155.061,119.47 156.057,117.829C157.05,116.188 157.827,114.415 158.327,112.596C158.837,110.766 159.057,108.896 158.947,107.076L158.94,107.08ZM56.97,19.042C57.722,19.312 58.797,19.497 60.099,19.6C61.416,19.704 62.959,19.723 64.623,19.661C66.295,19.598 68.079,19.451 69.864,19.224C71.646,18.999 73.416,18.7 75.065,18.328C76.697,17.961 78.045,17.561 79.084,17.158C80.107,16.76 80.826,16.357 81.223,15.974C81.613,15.599 81.692,15.245 81.445,14.929C81.203,14.619 80.646,14.35 79.76,14.139C78.888,13.931 77.776,13.799 76.513,13.736C75.263,13.674 73.857,13.679 72.38,13.75C70.909,13.817 69.357,13.949 67.804,14.14C66.248,14.33 64.68,14.581 63.179,14.892C61.664,15.205 60.353,15.55 59.275,15.909C58.182,16.271 57.326,16.648 56.744,17.019C56.152,17.396 55.843,17.768 55.859,18.111C55.876,18.458 56.231,18.777 56.97,19.042ZM32.954,26.69C34.701,26.639 36.632,26.484 38.63,26.227C40.623,25.972 42.668,25.62 44.647,25.173C46.604,24.733 48.296,24.247 49.678,23.749C51.037,23.261 52.09,22.762 52.799,22.283C53.495,21.813 53.86,21.365 53.862,20.964C53.864,20.568 53.518,20.22 52.793,19.94C52.081,19.666 51.068,19.48 49.848,19.38C48.641,19.281 47.225,19.265 45.687,19.326C44.156,19.388 42.493,19.524 40.78,19.737C39.064,19.951 37.285,20.24 35.524,20.603C33.746,20.97 32.142,21.382 30.761,21.814C29.358,22.252 28.178,22.714 27.278,23.173C26.36,23.641 25.729,24.107 25.45,24.543C25.165,24.988 25.245,25.401 25.761,25.754C26.285,26.111 27.209,26.37 28.434,26.525C29.674,26.688 31.217,26.741 32.954,26.69ZM83.309,13.375C84.213,13.577 85.382,13.71 86.723,13.772C88.078,13.836 89.601,13.833 91.193,13.759C92.792,13.687 94.45,13.548 96.062,13.347C97.671,13.147 99.226,12.886 100.622,12.574C102.005,12.261 103.094,11.929 103.876,11.595C104.647,11.267 105.12,10.938 105.29,10.629C105.458,10.325 105.331,10.04 104.907,9.792C104.491,9.548 103.788,9.339 102.794,9.181C101.815,9.025 100.643,8.933 99.359,8.898C98.089,8.865 96.706,8.885 95.287,8.96C93.874,9.033 92.419,9.157 90.999,9.329C89.575,9.502 88.178,9.724 86.883,9.991C85.578,10.261 84.493,10.554 83.649,10.852C82.793,11.156 82.181,11.467 81.836,11.77C81.485,12.079 81.411,12.377 81.64,12.649C81.869,12.927 82.417,13.176 83.307,13.375L83.309,13.375ZM137.016,19.417C138.565,18.979 139.667,18.501 140.34,18.019C141.001,17.544 141.241,17.066 141.086,16.612C140.934,16.169 140.397,15.748 139.501,15.377C138.622,15.013 137.397,14.694 135.842,14.448C134.313,14.204 132.602,14.05 130.817,13.974C129.051,13.901 127.2,13.908 125.362,13.985C123.534,14.063 121.708,14.214 119.981,14.434C118.249,14.654 116.604,14.946 115.143,15.305C113.667,15.669 112.51,16.073 111.682,16.491C110.838,16.916 110.329,17.359 110.176,17.798C110.016,18.245 110.223,18.688 110.817,19.098C111.424,19.517 112.436,19.903 113.872,20.225C115.337,20.553 117.099,20.783 119.028,20.913C120.985,21.045 123.102,21.074 125.241,21.003C127.393,20.932 129.552,20.759 131.573,20.491C133.613,20.221 135.473,19.861 137.033,19.417L137.016,19.417ZM112.966,22.55C112.298,22.068 111.241,21.64 109.796,21.295C108.382,20.958 106.72,20.732 104.929,20.607C103.159,20.483 101.251,20.46 99.308,20.527C97.374,20.594 95.392,20.756 93.463,21.006C91.528,21.256 89.632,21.598 87.874,22.031C86.096,22.469 84.615,22.964 83.457,23.483C82.279,24.013 81.43,24.575 80.945,25.135C80.45,25.708 80.335,26.283 80.643,26.826C80.959,27.382 81.718,27.901 82.966,28.348C84.243,28.805 85.902,29.139 87.814,29.347C89.755,29.559 91.94,29.639 94.224,29.587C96.523,29.536 98.9,29.353 101.202,29.04C103.497,28.728 105.693,28.294 107.64,27.742C109.56,27.198 111.037,26.596 112.068,25.979C113.078,25.375 113.65,24.759 113.791,24.168C113.931,23.595 113.651,23.043 112.971,22.55L112.966,22.55ZM76.714,35.937C78.236,35.149 79.307,34.337 79.903,33.554C80.484,32.789 80.613,32.053 80.274,31.387C79.943,30.738 79.167,30.154 77.927,29.674C76.716,29.204 75.168,28.876 73.41,28.678C71.677,28.484 69.725,28.414 67.668,28.466C65.623,28.518 63.456,28.689 61.273,28.977C59.084,29.266 56.859,29.676 54.702,30.207C52.517,30.746 50.591,31.362 48.972,32.023C47.32,32.698 45.978,33.419 45.01,34.152C44.018,34.902 43.415,35.666 43.276,36.395C43.133,37.144 43.481,37.859 44.401,38.487C45.344,39.133 46.793,39.62 48.615,39.943C50.468,40.273 52.689,40.431 55.125,40.414C57.579,40.395 60.225,40.2 62.896,39.828C65.558,39.458 68.213,38.917 70.694,38.214C73.138,37.521 75.158,36.743 76.714,35.937ZM40.437,72.118C40.156,70.305 39.77,68.47 39.314,66.704C38.859,64.937 38.334,63.25 37.775,61.729C37.218,60.214 36.629,58.874 36.041,57.794C35.457,56.721 34.875,55.91 34.328,55.449C33.785,54.991 33.329,54.921 32.969,55.181C32.613,55.441 32.35,56.028 32.19,56.888C32.032,57.742 31.974,58.867 32.026,60.212C32.079,61.55 32.239,63.107 32.517,64.836C32.793,66.561 33.163,68.298 33.592,69.966C34.023,71.635 34.516,73.238 35.04,74.695C35.566,76.156 36.127,77.471 36.691,78.557C37.259,79.649 37.832,80.51 38.379,81.051C38.928,81.596 39.4,81.765 39.783,81.601C40.168,81.436 40.463,80.933 40.652,80.136C40.843,79.334 40.931,78.235 40.9,76.885C40.869,75.533 40.718,73.926 40.437,72.118ZM38.393,94.565C38.127,92.917 37.769,91.232 37.348,89.601C36.928,87.97 36.449,86.398 35.94,84.97C35.432,83.546 34.896,82.27 34.364,81.227C33.835,80.19 33.309,79.384 32.818,78.894C32.331,78.408 31.924,78.277 31.606,78.456C31.29,78.634 31.06,79.116 30.924,79.855C30.789,80.591 30.746,81.584 30.805,82.787C30.862,83.983 31.018,85.392 31.28,86.973C31.542,88.549 31.885,90.149 32.284,91.698C32.683,93.246 33.136,94.745 33.616,96.117C34.098,97.492 34.609,98.743 35.122,99.788C35.636,100.838 36.153,101.683 36.643,102.236C37.138,102.798 37.559,103.01 37.899,102.918C38.239,102.821 38.496,102.414 38.657,101.73C38.821,101.042 38.887,100.077 38.847,98.872C38.808,97.658 38.659,96.209 38.393,94.565ZM51.88,126.6C51.442,124.903 50.933,123.242 50.386,121.708C49.841,120.181 49.259,118.786 48.674,117.615C48.092,116.45 47.508,115.51 46.955,114.882C46.405,114.257 45.938,114.001 45.564,114.069C45.192,114.135 44.912,114.522 44.733,115.185C44.555,115.845 44.476,116.779 44.507,117.948C44.537,119.109 44.675,120.507 44.932,122.099C45.187,123.689 45.537,125.328 45.951,126.936C46.365,128.544 46.844,130.124 47.359,131.591C47.876,133.063 48.43,134.425 48.991,135.592C49.555,136.765 50.129,137.742 50.681,138.437C51.236,139.134 51.718,139.479 52.113,139.5C52.511,139.521 52.821,139.218 53.029,138.618C53.239,138.014 53.346,137.114 53.336,135.951C53.327,134.781 53.199,133.347 52.941,131.687C52.682,130.027 52.317,128.297 51.88,126.597L51.88,126.6ZM24.219,59.885C23.946,58.244 23.593,56.594 23.186,55.017C22.78,53.44 22.324,51.94 21.846,50.6C21.369,49.263 20.872,48.088 20.383,47.156C19.897,46.226 19.42,45.54 18.981,45.169C18.545,44.802 18.189,44.782 17.917,45.06C17.646,45.335 17.459,45.904 17.359,46.714C17.26,47.52 17.248,48.566 17.328,49.803C17.408,51.035 17.579,52.459 17.847,54.032C18.115,55.598 18.454,57.169 18.839,58.668C19.224,60.168 19.656,61.601 20.109,62.893C20.563,64.188 21.039,65.343 21.511,66.286C21.985,67.23 22.456,67.962 22.896,68.397C23.34,68.836 23.711,68.936 24.002,68.739C24.295,68.541 24.508,68.04 24.631,67.278C24.755,66.512 24.788,65.486 24.722,64.242C24.656,62.987 24.491,61.521 24.219,59.885ZM35.505,112.68C35.252,111.16 34.916,109.598 34.524,108.076C34.133,106.554 33.688,105.075 33.217,103.722C32.748,102.373 32.254,101.154 31.765,100.143C31.278,99.137 30.797,98.341 30.348,97.832C29.903,97.326 29.534,97.152 29.245,97.269C28.959,97.384 28.754,97.788 28.635,98.435C28.517,99.08 28.485,99.966 28.545,101.059C28.605,102.146 28.756,103.438 29.005,104.898C29.253,106.355 29.576,107.845 29.949,109.295C30.321,110.745 30.743,112.158 31.189,113.46C31.636,114.765 32.109,115.961 32.581,116.97C33.055,117.985 33.53,118.813 33.978,119.376C34.43,119.943 34.813,120.189 35.118,120.147C35.426,120.103 35.654,119.766 35.795,119.169C35.937,118.567 35.989,117.705 35.944,116.612C35.901,115.502 35.757,114.172 35.505,112.662L35.505,112.68Z" style="fill:white;fill-rule:nonzero;"/>
                    </g>
                </g>
            </g>
            <g transform="matrix(1.81425,0,0,1.82311,1090.79,661.37)">
                <g transform="matrix(1,0,0,1,-88.838,-90.673)">
                    <path d="M41.552,48.668L4.191,25.58L97.034,4.463L166.75,14.882L41.552,48.668Z" style="fill:rgb(125,255,152);fill-rule:nonzero;"/>
                    <path d="M41.552,48.668L166.752,14.882L171.087,127.992L67.567,175.162L41.559,48.672L41.552,48.668Z" style="fill:rgb(214,48,157);fill-rule:nonzero;"/>
                    <path d="M67.564,175.16L26.967,117.6L4.191,25.58L41.552,48.668L67.564,175.16Z" style="fill:rgb(79,100,255);fill-rule:nonzero;"/>
                    <path d="M84.487,92.281C86.643,91.515 88.613,90.344 90.336,88.885C92.055,87.43 93.529,85.681 94.7,83.752C95.871,81.822 96.738,79.704 97.232,77.51C97.73,75.309 97.855,73.022 97.538,70.76C97.217,68.483 96.476,66.44 95.404,64.695C94.328,62.937 92.914,61.479 91.258,60.389C89.588,59.29 87.673,58.566 85.609,58.285C83.529,58.003 81.3,58.173 79.026,58.866C76.735,59.564 74.624,60.724 72.77,62.226C70.911,63.734 69.317,65.58 68.068,67.637C66.819,69.694 65.919,71.96 65.442,74.305C64.967,76.64 64.915,79.047 65.355,81.398C65.793,83.732 66.674,85.784 67.888,87.496C69.093,89.192 70.624,90.554 72.373,91.523C74.107,92.484 76.056,93.061 78.116,93.204C80.16,93.342 82.316,93.053 84.487,92.281ZM142.5,71.677C144.313,71.032 146.001,70.002 147.503,68.691C149,67.382 150.316,65.794 151.39,64.021C152.463,62.25 153.299,60.294 153.834,58.253C154.37,56.205 154.605,54.066 154.474,51.94C154.341,49.798 153.851,47.866 153.074,46.202C152.291,44.525 151.215,43.122 149.921,42.055C148.615,40.981 147.089,40.246 145.415,39.925C143.728,39.601 141.896,39.694 139.998,40.273C138.089,40.856 136.298,41.875 134.697,43.216C133.093,44.563 131.685,46.233 130.546,48.112C129.404,49.992 128.536,52.074 128.007,54.244C127.481,56.407 127.293,58.648 127.512,60.856C127.729,63.047 128.325,64.995 129.212,66.633C130.094,68.261 131.264,69.584 132.634,70.552C133.994,71.512 135.553,72.119 137.231,72.323C138.901,72.521 140.691,72.324 142.511,71.677L142.5,71.677ZM104.01,125.06C103.051,123.662 101.785,122.552 100.299,121.786C98.803,121.012 97.081,120.583 95.223,120.55C93.352,120.516 91.344,120.885 89.291,121.706C87.225,122.531 85.315,123.735 83.635,125.206C81.949,126.68 80.5,128.417 79.357,130.301C78.214,132.185 77.381,134.211 76.929,136.263C76.477,138.31 76.403,140.374 76.772,142.344C77.139,144.302 77.909,145.978 78.98,147.328C80.045,148.669 81.407,149.689 82.971,150.353C84.523,151.012 86.273,151.321 88.129,151.245C89.971,151.167 91.921,150.71 93.889,149.837C95.844,148.97 97.637,147.774 99.209,146.349C100.775,144.93 102.129,143.281 103.205,141.507C104.281,139.732 105.085,137.824 105.553,135.888C106.022,133.946 106.156,131.967 105.887,130.053C105.617,128.133 104.967,126.463 104.007,125.073L104.01,125.06ZM157.94,108.08C157.827,106.247 157.382,104.631 156.675,103.277C155.962,101.917 154.981,100.817 153.797,100.033C152.606,99.244 151.209,98.771 149.678,98.67C148.137,98.566 146.459,98.837 144.719,99.532C142.971,100.231 141.33,101.294 139.862,102.613C138.391,103.936 137.096,105.517 136.046,107.252C134.995,108.984 134.191,110.863 133.694,112.782C133.201,114.697 133.016,116.645 133.202,118.521C133.386,120.388 133.919,122.006 134.72,123.331C135.517,124.644 136.577,125.671 137.825,126.366C139.063,127.057 140.487,127.427 142.022,127.431C143.547,127.438 145.182,127.088 146.858,126.345C148.526,125.605 150.081,124.544 151.463,123.259C152.846,121.978 154.061,120.47 155.057,118.829C156.05,117.188 156.827,115.415 157.327,113.596C157.837,111.766 158.057,109.896 157.947,108.076L157.94,108.08ZM55.97,20.042C56.722,20.312 57.797,20.497 59.099,20.6C60.416,20.704 61.959,20.723 63.623,20.661C65.295,20.598 67.079,20.451 68.864,20.224C70.646,19.999 72.416,19.7 74.065,19.328C75.697,18.961 77.045,18.561 78.084,18.158C79.107,17.76 79.826,17.357 80.223,16.974C80.613,16.599 80.692,16.245 80.445,15.929C80.203,15.619 79.646,15.35 78.76,15.139C77.888,14.931 76.776,14.799 75.513,14.736C74.263,14.674 72.857,14.679 71.38,14.75C69.909,14.817 68.357,14.949 66.804,15.14C65.248,15.33 63.68,15.581 62.179,15.892C60.664,16.205 59.353,16.55 58.275,16.909C57.182,17.271 56.326,17.648 55.744,18.019C55.152,18.396 54.843,18.768 54.859,19.111C54.876,19.458 55.231,19.777 55.97,20.042ZM31.954,27.69C33.701,27.639 35.632,27.484 37.63,27.227C39.623,26.972 41.668,26.62 43.647,26.173C45.604,25.733 47.296,25.247 48.678,24.749C50.037,24.261 51.09,23.762 51.799,23.283C52.495,22.813 52.86,22.365 52.862,21.964C52.864,21.568 52.518,21.22 51.793,20.94C51.081,20.666 50.068,20.48 48.848,20.38C47.641,20.281 46.225,20.265 44.687,20.326C43.156,20.388 41.493,20.524 39.78,20.737C38.064,20.951 36.285,21.24 34.524,21.603C32.746,21.97 31.142,22.382 29.761,22.814C28.358,23.252 27.178,23.714 26.278,24.173C25.36,24.641 24.729,25.107 24.45,25.543C24.165,25.988 24.245,26.401 24.761,26.754C25.285,27.111 26.209,27.37 27.434,27.525C28.674,27.688 30.217,27.741 31.954,27.69ZM82.309,14.375C83.213,14.577 84.382,14.71 85.723,14.772C87.078,14.836 88.601,14.833 90.193,14.759C91.792,14.687 93.45,14.548 95.062,14.347C96.671,14.147 98.226,13.886 99.622,13.574C101.005,13.261 102.094,12.929 102.876,12.595C103.647,12.267 104.12,11.938 104.29,11.629C104.458,11.325 104.331,11.04 103.907,10.792C103.491,10.548 102.788,10.339 101.794,10.181C100.815,10.025 99.643,9.933 98.359,9.898C97.089,9.865 95.706,9.885 94.287,9.96C92.874,10.033 91.419,10.157 89.999,10.329C88.575,10.502 87.178,10.724 85.883,10.991C84.578,11.261 83.493,11.554 82.649,11.852C81.793,12.156 81.181,12.467 80.836,12.77C80.485,13.079 80.411,13.377 80.64,13.649C80.869,13.927 81.417,14.176 82.307,14.375L82.309,14.375ZM136.016,20.417C137.565,19.979 138.667,19.501 139.34,19.019C140.001,18.544 140.241,18.066 140.085,17.612C139.934,17.169 139.397,16.748 138.501,16.377C137.622,16.013 136.397,15.694 134.842,15.448C133.313,15.204 131.602,15.05 129.817,14.974C128.051,14.901 126.2,14.908 124.362,14.985C122.534,15.063 120.708,15.214 118.981,15.434C117.249,15.654 115.604,15.946 114.143,16.305C112.667,16.669 111.51,17.073 110.682,17.491C109.838,17.916 109.329,18.359 109.176,18.798C109.016,19.245 109.223,19.688 109.817,20.098C110.424,20.517 111.436,20.903 112.872,21.225C114.337,21.553 116.099,21.783 118.028,21.913C119.985,22.045 122.102,22.074 124.241,22.003C126.393,21.932 128.552,21.759 130.573,21.491C132.613,21.221 134.473,20.861 136.033,20.417L136.016,20.417ZM111.966,23.55C111.298,23.068 110.241,22.64 108.796,22.295C107.382,21.958 105.72,21.732 103.929,21.607C102.159,21.483 100.251,21.46 98.308,21.527C96.374,21.594 94.392,21.756 92.463,22.006C90.528,22.256 88.632,22.598 86.874,23.031C85.096,23.469 83.615,23.964 82.457,24.483C81.279,25.013 80.43,25.575 79.945,26.135C79.45,26.708 79.335,27.283 79.643,27.826C79.959,28.382 80.718,28.901 81.966,29.348C83.243,29.805 84.902,30.139 86.814,30.347C88.755,30.559 90.94,30.639 93.224,30.587C95.523,30.536 97.9,30.353 100.202,30.04C102.497,29.728 104.693,29.294 106.64,28.742C108.56,28.198 110.037,27.596 111.068,26.979C112.078,26.375 112.65,25.759 112.791,25.168C112.931,24.595 112.651,24.043 111.971,23.55L111.966,23.55ZM75.714,36.937C77.236,36.149 78.307,35.337 78.903,34.554C79.484,33.789 79.613,33.053 79.274,32.387C78.943,31.738 78.167,31.154 76.927,30.674C75.716,30.204 74.168,29.876 72.41,29.678C70.677,29.484 68.725,29.414 66.668,29.466C64.623,29.518 62.456,29.689 60.273,29.977C58.084,30.266 55.859,30.676 53.702,31.207C51.517,31.746 49.591,32.362 47.972,33.023C46.32,33.698 44.978,34.419 44.01,35.152C43.018,35.902 42.415,36.666 42.276,37.395C42.133,38.144 42.481,38.859 43.401,39.487C44.344,40.133 45.793,40.62 47.615,40.943C49.468,41.273 51.689,41.431 54.125,41.414C56.579,41.395 59.225,41.2 61.896,40.828C64.558,40.458 67.213,39.917 69.694,39.214C72.138,38.521 74.158,37.743 75.714,36.937ZM39.437,73.118C39.156,71.305 38.77,69.47 38.314,67.704C37.859,65.937 37.334,64.25 36.775,62.729C36.218,61.214 35.629,59.874 35.041,58.794C34.457,57.721 33.875,56.91 33.328,56.449C32.785,55.991 32.329,55.921 31.969,56.181C31.613,56.441 31.35,57.028 31.19,57.888C31.032,58.742 30.974,59.867 31.026,61.212C31.079,62.55 31.239,64.107 31.517,65.836C31.793,67.561 32.163,69.298 32.592,70.966C33.023,72.635 33.516,74.238 34.04,75.695C34.566,77.156 35.127,78.471 35.691,79.557C36.259,80.649 36.832,81.51 37.379,82.051C37.928,82.596 38.4,82.765 38.783,82.601C39.168,82.436 39.463,81.933 39.652,81.136C39.843,80.334 39.931,79.235 39.9,77.885C39.869,76.533 39.718,74.926 39.437,73.118ZM37.393,95.565C37.127,93.917 36.769,92.232 36.348,90.601C35.928,88.97 35.449,87.398 34.94,85.97C34.432,84.546 33.896,83.27 33.364,82.227C32.835,81.19 32.309,80.384 31.818,79.894C31.331,79.408 30.924,79.277 30.606,79.456C30.29,79.634 30.06,80.116 29.924,80.855C29.789,81.591 29.746,82.584 29.805,83.787C29.862,84.983 30.018,86.392 30.28,87.973C30.542,89.549 30.885,91.149 31.284,92.698C31.683,94.246 32.136,95.745 32.616,97.117C33.098,98.492 33.609,99.743 34.122,100.788C34.636,101.838 35.153,102.683 35.643,103.236C36.138,103.798 36.559,104.01 36.899,103.918C37.239,103.821 37.496,103.414 37.657,102.73C37.821,102.042 37.887,101.077 37.847,99.872C37.808,98.658 37.659,97.209 37.393,95.565ZM50.88,127.6C50.442,125.903 49.933,124.242 49.386,122.708C48.841,121.181 48.259,119.786 47.674,118.615C47.092,117.45 46.508,116.51 45.955,115.882C45.405,115.257 44.938,115.001 44.564,115.069C44.192,115.135 43.912,115.522 43.733,116.185C43.555,116.845 43.476,117.779 43.507,118.948C43.537,120.109 43.675,121.507 43.932,123.099C44.187,124.689 44.537,126.328 44.951,127.936C45.365,129.544 45.844,131.124 46.359,132.591C46.876,134.063 47.43,135.425 47.991,136.592C48.555,137.765 49.129,138.742 49.681,139.437C50.236,140.134 50.718,140.479 51.113,140.5C51.511,140.521 51.821,140.218 52.029,139.618C52.239,139.014 52.346,138.114 52.336,136.951C52.327,135.781 52.199,134.347 51.941,132.687C51.682,131.027 51.317,129.297 50.88,127.597L50.88,127.6ZM23.219,60.885C22.946,59.244 22.593,57.594 22.186,56.017C21.78,54.44 21.324,52.94 20.846,51.6C20.369,50.263 19.872,49.088 19.383,48.156C18.897,47.226 18.42,46.54 17.981,46.169C17.545,45.802 17.189,45.782 16.917,46.06C16.646,46.335 16.459,46.904 16.359,47.714C16.26,48.52 16.248,49.566 16.328,50.803C16.408,52.035 16.579,53.459 16.847,55.032C17.115,56.598 17.454,58.169 17.839,59.668C18.224,61.168 18.656,62.601 19.109,63.893C19.563,65.188 20.039,66.343 20.511,67.286C20.985,68.23 21.456,68.962 21.896,69.397C22.34,69.836 22.711,69.936 23.002,69.739C23.295,69.541 23.508,69.04 23.631,68.278C23.755,67.512 23.788,66.486 23.722,65.242C23.656,63.987 23.491,62.521 23.219,60.885ZM34.505,113.68C34.252,112.16 33.916,110.598 33.524,109.076C33.133,107.554 32.688,106.075 32.217,104.722C31.748,103.373 31.254,102.154 30.765,101.143C30.278,100.137 29.797,99.341 29.348,98.832C28.903,98.326 28.534,98.152 28.245,98.269C27.959,98.384 27.754,98.788 27.635,99.435C27.517,100.08 27.485,100.966 27.545,102.059C27.605,103.146 27.756,104.438 28.005,105.898C28.253,107.355 28.576,108.845 28.949,110.295C29.321,111.745 29.743,113.158 30.189,114.46C30.636,115.765 31.109,116.961 31.581,117.97C32.055,118.985 32.53,119.813 32.978,120.376C33.43,120.943 33.813,121.189 34.118,121.147C34.426,121.103 34.654,120.766 34.795,120.169C34.937,119.567 34.989,118.705 34.944,117.612C34.901,116.502 34.757,115.172 34.505,113.662L34.505,113.68Z" style="fill:rgb(0,17,150);fill-rule:nonzero;"/>
                    <path d="M85.487,91.281C87.643,90.515 89.613,89.344 91.336,87.885C93.055,86.43 94.529,84.681 95.7,82.752C96.871,80.822 97.738,78.704 98.232,76.51C98.73,74.309 98.855,72.022 98.538,69.76C98.217,67.483 97.476,65.44 96.404,63.695C95.328,61.937 93.914,60.479 92.258,59.389C90.588,58.29 88.673,57.566 86.609,57.285C84.529,57.003 82.3,57.173 80.026,57.866C77.735,58.564 75.624,59.724 73.77,61.226C71.911,62.734 70.317,64.58 69.068,66.637C67.819,68.694 66.919,70.96 66.442,73.305C65.967,75.64 65.915,78.047 66.355,80.398C66.793,82.732 67.674,84.784 68.888,86.496C70.093,88.192 71.624,89.554 73.373,90.523C75.107,91.484 77.056,92.061 79.116,92.204C81.16,92.342 83.316,92.053 85.487,91.281ZM143.5,70.677C145.313,70.032 147.001,69.002 148.503,67.691C150,66.382 151.316,64.794 152.39,63.021C153.463,61.25 154.299,59.294 154.834,57.253C155.37,55.205 155.605,53.066 155.474,50.94C155.341,48.798 154.851,46.866 154.074,45.202C153.291,43.525 152.215,42.122 150.921,41.055C149.615,39.981 148.089,39.246 146.415,38.925C144.728,38.601 142.896,38.694 140.998,39.273C139.089,39.856 137.298,40.875 135.697,42.216C134.093,43.563 132.685,45.233 131.546,47.112C130.404,48.992 129.536,51.074 129.007,53.244C128.481,55.407 128.293,57.648 128.512,59.856C128.729,62.047 129.325,63.995 130.212,65.633C131.094,67.261 132.264,68.584 133.634,69.552C134.994,70.512 136.553,71.119 138.231,71.323C139.901,71.521 141.691,71.324 143.511,70.677L143.5,70.677ZM105.01,124.06C104.051,122.662 102.785,121.552 101.299,120.786C99.803,120.012 98.081,119.583 96.223,119.55C94.352,119.516 92.344,119.885 90.291,120.706C88.225,121.531 86.315,122.735 84.635,124.206C82.949,125.68 81.5,127.417 80.357,129.301C79.214,131.185 78.381,133.211 77.929,135.263C77.477,137.31 77.403,139.374 77.772,141.344C78.139,143.302 78.909,144.978 79.98,146.328C81.045,147.669 82.407,148.689 83.971,149.353C85.523,150.012 87.273,150.321 89.129,150.245C90.971,150.167 92.921,149.71 94.889,148.837C96.844,147.97 98.637,146.774 100.209,145.349C101.775,143.93 103.129,142.281 104.205,140.507C105.281,138.732 106.085,136.824 106.553,134.888C107.022,132.946 107.156,130.967 106.887,129.053C106.617,127.133 105.967,125.463 105.007,124.073L105.01,124.06ZM158.94,107.08C158.827,105.247 158.382,103.631 157.675,102.277C156.962,100.917 155.981,99.817 154.797,99.033C153.606,98.244 152.209,97.771 150.678,97.67C149.137,97.566 147.459,97.837 145.719,98.532C143.971,99.231 142.33,100.294 140.862,101.613C139.391,102.936 138.096,104.517 137.046,106.252C135.995,107.984 135.191,109.863 134.694,111.782C134.201,113.697 134.016,115.645 134.202,117.521C134.386,119.388 134.919,121.006 135.72,122.331C136.517,123.644 137.577,124.671 138.825,125.366C140.063,126.057 141.487,126.427 143.022,126.431C144.547,126.438 146.182,126.088 147.858,125.345C149.526,124.605 151.081,123.544 152.463,122.259C153.846,120.978 155.061,119.47 156.057,117.829C157.05,116.188 157.827,114.415 158.327,112.596C158.837,110.766 159.057,108.896 158.947,107.076L158.94,107.08ZM56.97,19.042C57.722,19.312 58.797,19.497 60.099,19.6C61.416,19.704 62.959,19.723 64.623,19.661C66.295,19.598 68.079,19.451 69.864,19.224C71.646,18.999 73.416,18.7 75.065,18.328C76.697,17.961 78.045,17.561 79.084,17.158C80.107,16.76 80.826,16.357 81.223,15.974C81.613,15.599 81.692,15.245 81.445,14.929C81.203,14.619 80.646,14.35 79.76,14.139C78.888,13.931 77.776,13.799 76.513,13.736C75.263,13.674 73.857,13.679 72.38,13.75C70.909,13.817 69.357,13.949 67.804,14.14C66.248,14.33 64.68,14.581 63.179,14.892C61.664,15.205 60.353,15.55 59.275,15.909C58.182,16.271 57.326,16.648 56.744,17.019C56.152,17.396 55.843,17.768 55.859,18.111C55.876,18.458 56.231,18.777 56.97,19.042ZM32.954,26.69C34.701,26.639 36.632,26.484 38.63,26.227C40.623,25.972 42.668,25.62 44.647,25.173C46.604,24.733 48.296,24.247 49.678,23.749C51.037,23.261 52.09,22.762 52.799,22.283C53.495,21.813 53.86,21.365 53.862,20.964C53.864,20.568 53.518,20.22 52.793,19.94C52.081,19.666 51.068,19.48 49.848,19.38C48.641,19.281 47.225,19.265 45.687,19.326C44.156,19.388 42.493,19.524 40.78,19.737C39.064,19.951 37.285,20.24 35.524,20.603C33.746,20.97 32.142,21.382 30.761,21.814C29.358,22.252 28.178,22.714 27.278,23.173C26.36,23.641 25.729,24.107 25.45,24.543C25.165,24.988 25.245,25.401 25.761,25.754C26.285,26.111 27.209,26.37 28.434,26.525C29.674,26.688 31.217,26.741 32.954,26.69ZM83.309,13.375C84.213,13.577 85.382,13.71 86.723,13.772C88.078,13.836 89.601,13.833 91.193,13.759C92.792,13.687 94.45,13.548 96.062,13.347C97.671,13.147 99.226,12.886 100.622,12.574C102.005,12.261 103.094,11.929 103.876,11.595C104.647,11.267 105.12,10.938 105.29,10.629C105.458,10.325 105.331,10.04 104.907,9.792C104.491,9.548 103.788,9.339 102.794,9.181C101.815,9.025 100.643,8.933 99.359,8.898C98.089,8.865 96.706,8.885 95.287,8.96C93.874,9.033 92.419,9.157 90.999,9.329C89.575,9.502 88.178,9.724 86.883,9.991C85.578,10.261 84.493,10.554 83.649,10.852C82.793,11.156 82.181,11.467 81.836,11.77C81.485,12.079 81.411,12.377 81.64,12.649C81.869,12.927 82.417,13.176 83.307,13.375L83.309,13.375ZM137.016,19.417C138.565,18.979 139.667,18.501 140.34,18.019C141.001,17.544 141.241,17.066 141.086,16.612C140.934,16.169 140.397,15.748 139.501,15.377C138.622,15.013 137.397,14.694 135.842,14.448C134.313,14.204 132.602,14.05 130.817,13.974C129.051,13.901 127.2,13.908 125.362,13.985C123.534,14.063 121.708,14.214 119.981,14.434C118.249,14.654 116.604,14.946 115.143,15.305C113.667,15.669 112.51,16.073 111.682,16.491C110.838,16.916 110.329,17.359 110.176,17.798C110.016,18.245 110.223,18.688 110.817,19.098C111.424,19.517 112.436,19.903 113.872,20.225C115.337,20.553 117.099,20.783 119.028,20.913C120.985,21.045 123.102,21.074 125.241,21.003C127.393,20.932 129.552,20.759 131.573,20.491C133.613,20.221 135.473,19.861 137.033,19.417L137.016,19.417ZM112.966,22.55C112.298,22.068 111.241,21.64 109.796,21.295C108.382,20.958 106.72,20.732 104.929,20.607C103.159,20.483 101.251,20.46 99.308,20.527C97.374,20.594 95.392,20.756 93.463,21.006C91.528,21.256 89.632,21.598 87.874,22.031C86.096,22.469 84.615,22.964 83.457,23.483C82.279,24.013 81.43,24.575 80.945,25.135C80.45,25.708 80.335,26.283 80.643,26.826C80.959,27.382 81.718,27.901 82.966,28.348C84.243,28.805 85.902,29.139 87.814,29.347C89.755,29.559 91.94,29.639 94.224,29.587C96.523,29.536 98.9,29.353 101.202,29.04C103.497,28.728 105.693,28.294 107.64,27.742C109.56,27.198 111.037,26.596 112.068,25.979C113.078,25.375 113.65,24.759 113.791,24.168C113.931,23.595 113.651,23.043 112.971,22.55L112.966,22.55ZM76.714,35.937C78.236,35.149 79.307,34.337 79.903,33.554C80.484,32.789 80.613,32.053 80.274,31.387C79.943,30.738 79.167,30.154 77.927,29.674C76.716,29.204 75.168,28.876 73.41,28.678C71.677,28.484 69.725,28.414 67.668,28.466C65.623,28.518 63.456,28.689 61.273,28.977C59.084,29.266 56.859,29.676 54.702,30.207C52.517,30.746 50.591,31.362 48.972,32.023C47.32,32.698 45.978,33.419 45.01,34.152C44.018,34.902 43.415,35.666 43.276,36.395C43.133,37.144 43.481,37.859 44.401,38.487C45.344,39.133 46.793,39.62 48.615,39.943C50.468,40.273 52.689,40.431 55.125,40.414C57.579,40.395 60.225,40.2 62.896,39.828C65.558,39.458 68.213,38.917 70.694,38.214C73.138,37.521 75.158,36.743 76.714,35.937ZM40.437,72.118C40.156,70.305 39.77,68.47 39.314,66.704C38.859,64.937 38.334,63.25 37.775,61.729C37.218,60.214 36.629,58.874 36.041,57.794C35.457,56.721 34.875,55.91 34.328,55.449C33.785,54.991 33.329,54.921 32.969,55.181C32.613,55.441 32.35,56.028 32.19,56.888C32.032,57.742 31.974,58.867 32.026,60.212C32.079,61.55 32.239,63.107 32.517,64.836C32.793,66.561 33.163,68.298 33.592,69.966C34.023,71.635 34.516,73.238 35.04,74.695C35.566,76.156 36.127,77.471 36.691,78.557C37.259,79.649 37.832,80.51 38.379,81.051C38.928,81.596 39.4,81.765 39.783,81.601C40.168,81.436 40.463,80.933 40.652,80.136C40.843,79.334 40.931,78.235 40.9,76.885C40.869,75.533 40.718,73.926 40.437,72.118ZM38.393,94.565C38.127,92.917 37.769,91.232 37.348,89.601C36.928,87.97 36.449,86.398 35.94,84.97C35.432,83.546 34.896,82.27 34.364,81.227C33.835,80.19 33.309,79.384 32.818,78.894C32.331,78.408 31.924,78.277 31.606,78.456C31.29,78.634 31.06,79.116 30.924,79.855C30.789,80.591 30.746,81.584 30.805,82.787C30.862,83.983 31.018,85.392 31.28,86.973C31.542,88.549 31.885,90.149 32.284,91.698C32.683,93.246 33.136,94.745 33.616,96.117C34.098,97.492 34.609,98.743 35.122,99.788C35.636,100.838 36.153,101.683 36.643,102.236C37.138,102.798 37.559,103.01 37.899,102.918C38.239,102.821 38.496,102.414 38.657,101.73C38.821,101.042 38.887,100.077 38.847,98.872C38.808,97.658 38.659,96.209 38.393,94.565ZM51.88,126.6C51.442,124.903 50.933,123.242 50.386,121.708C49.841,120.181 49.259,118.786 48.674,117.615C48.092,116.45 47.508,115.51 46.955,114.882C46.405,114.257 45.938,114.001 45.564,114.069C45.192,114.135 44.912,114.522 44.733,115.185C44.555,115.845 44.476,116.779 44.507,117.948C44.537,119.109 44.675,120.507 44.932,122.099C45.187,123.689 45.537,125.328 45.951,126.936C46.365,128.544 46.844,130.124 47.359,131.591C47.876,133.063 48.43,134.425 48.991,135.592C49.555,136.765 50.129,137.742 50.681,138.437C51.236,139.134 51.718,139.479 52.113,139.5C52.511,139.521 52.821,139.218 53.029,138.618C53.239,138.014 53.346,137.114 53.336,135.951C53.327,134.781 53.199,133.347 52.941,131.687C52.682,130.027 52.317,128.297 51.88,126.597L51.88,126.6ZM24.219,59.885C23.946,58.244 23.593,56.594 23.186,55.017C22.78,53.44 22.324,51.94 21.846,50.6C21.369,49.263 20.872,48.088 20.383,47.156C19.897,46.226 19.42,45.54 18.981,45.169C18.545,44.802 18.189,44.782 17.917,45.06C17.646,45.335 17.459,45.904 17.359,46.714C17.26,47.52 17.248,48.566 17.328,49.803C17.408,51.035 17.579,52.459 17.847,54.032C18.115,55.598 18.454,57.169 18.839,58.668C19.224,60.168 19.656,61.601 20.109,62.893C20.563,64.188 21.039,65.343 21.511,66.286C21.985,67.23 22.456,67.962 22.896,68.397C23.34,68.836 23.711,68.936 24.002,68.739C24.295,68.541 24.508,68.04 24.631,67.278C24.755,66.512 24.788,65.486 24.722,64.242C24.656,62.987 24.491,61.521 24.219,59.885ZM35.505,112.68C35.252,111.16 34.916,109.598 34.524,108.076C34.133,106.554 33.688,105.075 33.217,103.722C32.748,102.373 32.254,101.154 31.765,100.143C31.278,99.137 30.797,98.341 30.348,97.832C29.903,97.326 29.534,97.152 29.245,97.269C28.959,97.384 28.754,97.788 28.635,98.435C28.517,99.08 28.485,99.966 28.545,101.059C28.605,102.146 28.756,103.438 29.005,104.898C29.253,106.355 29.576,107.845 29.949,109.295C30.321,110.745 30.743,112.158 31.189,113.46C31.636,114.765 32.109,115.961 32.581,116.97C33.055,117.985 33.53,118.813 33.978,119.376C34.43,119.943 34.813,120.189 35.118,120.147C35.426,120.103 35.654,119.766 35.795,119.169C35.937,118.567 35.989,117.705 35.944,116.612C35.901,115.502 35.757,114.172 35.505,112.662L35.505,112.68Z" style="fill:white;fill-rule:nonzero;"/>
                </g>
            </g>
            <g transform="matrix(1.97349,0,0,1.87553,2513.9,680.334)">
                <g transform="matrix(1,0,0,1,-88.838,-90.673)">
                    <g transform="matrix(-1,0,0,1,175.278,0)">
                        <path d="M41.552,48.668L4.191,25.58L97.034,4.463L166.75,14.882L41.552,48.668Z" style="fill:rgb(255,153,125);fill-rule:nonzero;"/>
                    </g>
                    <g transform="matrix(-1,0,0,1,175.278,0)">
                        <path d="M41.552,48.668L166.752,14.882L171.087,127.992L67.567,175.162L41.559,48.672L41.552,48.668Z" style="fill:rgb(0,192,223);fill-rule:nonzero;"/>
                    </g>
                    <g transform="matrix(-1,0,0,1,175.278,0)">
                        <path d="M67.564,175.16L26.967,117.6L4.191,25.58L41.552,48.668L67.564,175.16Z" style="fill:rgb(67,74,123);fill-rule:nonzero;"/>
                    </g>
                    <g transform="matrix(-1,0,0,1,175.278,0)">
                        <path d="M84.487,92.281C86.643,91.515 88.613,90.344 90.336,88.885C92.055,87.43 93.529,85.681 94.7,83.752C95.871,81.822 96.738,79.704 97.232,77.51C97.73,75.309 97.855,73.022 97.538,70.76C97.217,68.483 96.476,66.44 95.404,64.695C94.328,62.937 92.914,61.479 91.258,60.389C89.588,59.29 87.673,58.566 85.609,58.285C83.529,58.003 81.3,58.173 79.026,58.866C76.735,59.564 74.624,60.724 72.77,62.226C70.911,63.734 69.317,65.58 68.068,67.637C66.819,69.694 65.919,71.96 65.442,74.305C64.967,76.64 64.915,79.047 65.355,81.398C65.793,83.732 66.674,85.784 67.888,87.496C69.093,89.192 70.624,90.554 72.373,91.523C74.107,92.484 76.056,93.061 78.116,93.204C80.16,93.342 82.316,93.053 84.487,92.281ZM142.5,71.677C144.313,71.032 146.001,70.002 147.503,68.691C149,67.382 150.316,65.794 151.39,64.021C152.463,62.25 153.299,60.294 153.834,58.253C154.37,56.205 154.605,54.066 154.474,51.94C154.341,49.798 153.851,47.866 153.074,46.202C152.291,44.525 151.215,43.122 149.921,42.055C148.615,40.981 147.089,40.246 145.415,39.925C143.728,39.601 141.896,39.694 139.998,40.273C138.089,40.856 136.298,41.875 134.697,43.216C133.093,44.563 131.685,46.233 130.546,48.112C129.404,49.992 128.536,52.074 128.007,54.244C127.481,56.407 127.293,58.648 127.512,60.856C127.729,63.047 128.325,64.995 129.212,66.633C130.094,68.261 131.264,69.584 132.634,70.552C133.994,71.512 135.553,72.119 137.231,72.323C138.901,72.521 140.691,72.324 142.511,71.677L142.5,71.677ZM104.01,125.06C103.051,123.662 101.785,122.552 100.299,121.786C98.803,121.012 97.081,120.583 95.223,120.55C93.352,120.516 91.344,120.885 89.291,121.706C87.225,122.531 85.315,123.735 83.635,125.206C81.949,126.68 80.5,128.417 79.357,130.301C78.214,132.185 77.381,134.211 76.929,136.263C76.477,138.31 76.403,140.374 76.772,142.344C77.139,144.302 77.909,145.978 78.98,147.328C80.045,148.669 81.407,149.689 82.971,150.353C84.523,151.012 86.273,151.321 88.129,151.245C89.971,151.167 91.921,150.71 93.889,149.837C95.844,148.97 97.637,147.774 99.209,146.349C100.775,144.93 102.129,143.281 103.205,141.507C104.281,139.732 105.085,137.824 105.553,135.888C106.022,133.946 106.156,131.967 105.887,130.053C105.617,128.133 104.967,126.463 104.007,125.073L104.01,125.06ZM157.94,108.08C157.827,106.247 157.382,104.631 156.675,103.277C155.962,101.917 154.981,100.817 153.797,100.033C152.606,99.244 151.209,98.771 149.678,98.67C148.137,98.566 146.459,98.837 144.719,99.532C142.971,100.231 141.33,101.294 139.862,102.613C138.391,103.936 137.096,105.517 136.046,107.252C134.995,108.984 134.191,110.863 133.694,112.782C133.201,114.697 133.016,116.645 133.202,118.521C133.386,120.388 133.919,122.006 134.72,123.331C135.517,124.644 136.577,125.671 137.825,126.366C139.063,127.057 140.487,127.427 142.022,127.431C143.547,127.438 145.182,127.088 146.858,126.345C148.526,125.605 150.081,124.544 151.463,123.259C152.846,121.978 154.061,120.47 155.057,118.829C156.05,117.188 156.827,115.415 157.327,113.596C157.837,111.766 158.057,109.896 157.947,108.076L157.94,108.08ZM55.97,20.042C56.722,20.312 57.797,20.497 59.099,20.6C60.416,20.704 61.959,20.723 63.623,20.661C65.295,20.598 67.079,20.451 68.864,20.224C70.646,19.999 72.416,19.7 74.065,19.328C75.697,18.961 77.045,18.561 78.084,18.158C79.107,17.76 79.826,17.357 80.223,16.974C80.613,16.599 80.692,16.245 80.445,15.929C80.203,15.619 79.646,15.35 78.76,15.139C77.888,14.931 76.776,14.799 75.513,14.736C74.263,14.674 72.857,14.679 71.38,14.75C69.909,14.817 68.357,14.949 66.804,15.14C65.248,15.33 63.68,15.581 62.179,15.892C60.664,16.205 59.353,16.55 58.275,16.909C57.182,17.271 56.326,17.648 55.744,18.019C55.152,18.396 54.843,18.768 54.859,19.111C54.876,19.458 55.231,19.777 55.97,20.042ZM31.954,27.69C33.701,27.639 35.632,27.484 37.63,27.227C39.623,26.972 41.668,26.62 43.647,26.173C45.604,25.733 47.296,25.247 48.678,24.749C50.037,24.261 51.09,23.762 51.799,23.283C52.495,22.813 52.86,22.365 52.862,21.964C52.864,21.568 52.518,21.22 51.793,20.94C51.081,20.666 50.068,20.48 48.848,20.38C47.641,20.281 46.225,20.265 44.687,20.326C43.156,20.388 41.493,20.524 39.78,20.737C38.064,20.951 36.285,21.24 34.524,21.603C32.746,21.97 31.142,22.382 29.761,22.814C28.358,23.252 27.178,23.714 26.278,24.173C25.36,24.641 24.729,25.107 24.45,25.543C24.165,25.988 24.245,26.401 24.761,26.754C25.285,27.111 26.209,27.37 27.434,27.525C28.674,27.688 30.217,27.741 31.954,27.69ZM82.309,14.375C83.213,14.577 84.382,14.71 85.723,14.772C87.078,14.836 88.601,14.833 90.193,14.759C91.792,14.687 93.45,14.548 95.062,14.347C96.671,14.147 98.226,13.886 99.622,13.574C101.005,13.261 102.094,12.929 102.876,12.595C103.647,12.267 104.12,11.938 104.29,11.629C104.458,11.325 104.331,11.04 103.907,10.792C103.491,10.548 102.788,10.339 101.794,10.181C100.815,10.025 99.643,9.933 98.359,9.898C97.089,9.865 95.706,9.885 94.287,9.96C92.874,10.033 91.419,10.157 89.999,10.329C88.575,10.502 87.178,10.724 85.883,10.991C84.578,11.261 83.493,11.554 82.649,11.852C81.793,12.156 81.181,12.467 80.836,12.77C80.485,13.079 80.411,13.377 80.64,13.649C80.869,13.927 81.417,14.176 82.307,14.375L82.309,14.375ZM136.016,20.417C137.565,19.979 138.667,19.501 139.34,19.019C140.001,18.544 140.241,18.066 140.085,17.612C139.934,17.169 139.397,16.748 138.501,16.377C137.622,16.013 136.397,15.694 134.842,15.448C133.313,15.204 131.602,15.05 129.817,14.974C128.051,14.901 126.2,14.908 124.362,14.985C122.534,15.063 120.708,15.214 118.981,15.434C117.249,15.654 115.604,15.946 114.143,16.305C112.667,16.669 111.51,17.073 110.682,17.491C109.838,17.916 109.329,18.359 109.176,18.798C109.016,19.245 109.223,19.688 109.817,20.098C110.424,20.517 111.436,20.903 112.872,21.225C114.337,21.553 116.099,21.783 118.028,21.913C119.985,22.045 122.102,22.074 124.241,22.003C126.393,21.932 128.552,21.759 130.573,21.491C132.613,21.221 134.473,20.861 136.033,20.417L136.016,20.417ZM111.966,23.55C111.298,23.068 110.241,22.64 108.796,22.295C107.382,21.958 105.72,21.732 103.929,21.607C102.159,21.483 100.251,21.46 98.308,21.527C96.374,21.594 94.392,21.756 92.463,22.006C90.528,22.256 88.632,22.598 86.874,23.031C85.096,23.469 83.615,23.964 82.457,24.483C81.279,25.013 80.43,25.575 79.945,26.135C79.45,26.708 79.335,27.283 79.643,27.826C79.959,28.382 80.718,28.901 81.966,29.348C83.243,29.805 84.902,30.139 86.814,30.347C88.755,30.559 90.94,30.639 93.224,30.587C95.523,30.536 97.9,30.353 100.202,30.04C102.497,29.728 104.693,29.294 106.64,28.742C108.56,28.198 110.037,27.596 111.068,26.979C112.078,26.375 112.65,25.759 112.791,25.168C112.931,24.595 112.651,24.043 111.971,23.55L111.966,23.55ZM75.714,36.937C77.236,36.149 78.307,35.337 78.903,34.554C79.484,33.789 79.613,33.053 79.274,32.387C78.943,31.738 78.167,31.154 76.927,30.674C75.716,30.204 74.168,29.876 72.41,29.678C70.677,29.484 68.725,29.414 66.668,29.466C64.623,29.518 62.456,29.689 60.273,29.977C58.084,30.266 55.859,30.676 53.702,31.207C51.517,31.746 49.591,32.362 47.972,33.023C46.32,33.698 44.978,34.419 44.01,35.152C43.018,35.902 42.415,36.666 42.276,37.395C42.133,38.144 42.481,38.859 43.401,39.487C44.344,40.133 45.793,40.62 47.615,40.943C49.468,41.273 51.689,41.431 54.125,41.414C56.579,41.395 59.225,41.2 61.896,40.828C64.558,40.458 67.213,39.917 69.694,39.214C72.138,38.521 74.158,37.743 75.714,36.937ZM39.437,73.118C39.156,71.305 38.77,69.47 38.314,67.704C37.859,65.937 37.334,64.25 36.775,62.729C36.218,61.214 35.629,59.874 35.041,58.794C34.457,57.721 33.875,56.91 33.328,56.449C32.785,55.991 32.329,55.921 31.969,56.181C31.613,56.441 31.35,57.028 31.19,57.888C31.032,58.742 30.974,59.867 31.026,61.212C31.079,62.55 31.239,64.107 31.517,65.836C31.793,67.561 32.163,69.298 32.592,70.966C33.023,72.635 33.516,74.238 34.04,75.695C34.566,77.156 35.127,78.471 35.691,79.557C36.259,80.649 36.832,81.51 37.379,82.051C37.928,82.596 38.4,82.765 38.783,82.601C39.168,82.436 39.463,81.933 39.652,81.136C39.843,80.334 39.931,79.235 39.9,77.885C39.869,76.533 39.718,74.926 39.437,73.118ZM37.393,95.565C37.127,93.917 36.769,92.232 36.348,90.601C35.928,88.97 35.449,87.398 34.94,85.97C34.432,84.546 33.896,83.27 33.364,82.227C32.835,81.19 32.309,80.384 31.818,79.894C31.331,79.408 30.924,79.277 30.606,79.456C30.29,79.634 30.06,80.116 29.924,80.855C29.789,81.591 29.746,82.584 29.805,83.787C29.862,84.983 30.018,86.392 30.28,87.973C30.542,89.549 30.885,91.149 31.284,92.698C31.683,94.246 32.136,95.745 32.616,97.117C33.098,98.492 33.609,99.743 34.122,100.788C34.636,101.838 35.153,102.683 35.643,103.236C36.138,103.798 36.559,104.01 36.899,103.918C37.239,103.821 37.496,103.414 37.657,102.73C37.821,102.042 37.887,101.077 37.847,99.872C37.808,98.658 37.659,97.209 37.393,95.565ZM50.88,127.6C50.442,125.903 49.933,124.242 49.386,122.708C48.841,121.181 48.259,119.786 47.674,118.615C47.092,117.45 46.508,116.51 45.955,115.882C45.405,115.257 44.938,115.001 44.564,115.069C44.192,115.135 43.912,115.522 43.733,116.185C43.555,116.845 43.476,117.779 43.507,118.948C43.537,120.109 43.675,121.507 43.932,123.099C44.187,124.689 44.537,126.328 44.951,127.936C45.365,129.544 45.844,131.124 46.359,132.591C46.876,134.063 47.43,135.425 47.991,136.592C48.555,137.765 49.129,138.742 49.681,139.437C50.236,140.134 50.718,140.479 51.113,140.5C51.511,140.521 51.821,140.218 52.029,139.618C52.239,139.014 52.346,138.114 52.336,136.951C52.327,135.781 52.199,134.347 51.941,132.687C51.682,131.027 51.317,129.297 50.88,127.597L50.88,127.6ZM23.219,60.885C22.946,59.244 22.593,57.594 22.186,56.017C21.78,54.44 21.324,52.94 20.846,51.6C20.369,50.263 19.872,49.088 19.383,48.156C18.897,47.226 18.42,46.54 17.981,46.169C17.545,45.802 17.189,45.782 16.917,46.06C16.646,46.335 16.459,46.904 16.359,47.714C16.26,48.52 16.248,49.566 16.328,50.803C16.408,52.035 16.579,53.459 16.847,55.032C17.115,56.598 17.454,58.169 17.839,59.668C18.224,61.168 18.656,62.601 19.109,63.893C19.563,65.188 20.039,66.343 20.511,67.286C20.985,68.23 21.456,68.962 21.896,69.397C22.34,69.836 22.711,69.936 23.002,69.739C23.295,69.541 23.508,69.04 23.631,68.278C23.755,67.512 23.788,66.486 23.722,65.242C23.656,63.987 23.491,62.521 23.219,60.885ZM34.505,113.68C34.252,112.16 33.916,110.598 33.524,109.076C33.133,107.554 32.688,106.075 32.217,104.722C31.748,103.373 31.254,102.154 30.765,101.143C30.278,100.137 29.797,99.341 29.348,98.832C28.903,98.326 28.534,98.152 28.245,98.269C27.959,98.384 27.754,98.788 27.635,99.435C27.517,100.08 27.485,100.966 27.545,102.059C27.605,103.146 27.756,104.438 28.005,105.898C28.253,107.355 28.576,108.845 28.949,110.295C29.321,111.745 29.743,113.158 30.189,114.46C30.636,115.765 31.109,116.961 31.581,117.97C32.055,118.985 32.53,119.813 32.978,120.376C33.43,120.943 33.813,121.189 34.118,121.147C34.426,121.103 34.654,120.766 34.795,120.169C34.937,119.567 34.989,118.705 34.944,117.612C34.901,116.502 34.757,115.172 34.505,113.662L34.505,113.68Z" style="fill:rgb(0,17,150);fill-rule:nonzero;"/>
                    </g>
                    <g transform="matrix(-1,0,0,1,175.278,0)">
                        <path d="M85.487,91.281C87.643,90.515 89.613,89.344 91.336,87.885C93.055,86.43 94.529,84.681 95.7,82.752C96.871,80.822 97.738,78.704 98.232,76.51C98.73,74.309 98.855,72.022 98.538,69.76C98.217,67.483 97.476,65.44 96.404,63.695C95.328,61.937 93.914,60.479 92.258,59.389C90.588,58.29 88.673,57.566 86.609,57.285C84.529,57.003 82.3,57.173 80.026,57.866C77.735,58.564 75.624,59.724 73.77,61.226C71.911,62.734 70.317,64.58 69.068,66.637C67.819,68.694 66.919,70.96 66.442,73.305C65.967,75.64 65.915,78.047 66.355,80.398C66.793,82.732 67.674,84.784 68.888,86.496C70.093,88.192 71.624,89.554 73.373,90.523C75.107,91.484 77.056,92.061 79.116,92.204C81.16,92.342 83.316,92.053 85.487,91.281ZM143.5,70.677C145.313,70.032 147.001,69.002 148.503,67.691C150,66.382 151.316,64.794 152.39,63.021C153.463,61.25 154.299,59.294 154.834,57.253C155.37,55.205 155.605,53.066 155.474,50.94C155.341,48.798 154.851,46.866 154.074,45.202C153.291,43.525 152.215,42.122 150.921,41.055C149.615,39.981 148.089,39.246 146.415,38.925C144.728,38.601 142.896,38.694 140.998,39.273C139.089,39.856 137.298,40.875 135.697,42.216C134.093,43.563 132.685,45.233 131.546,47.112C130.404,48.992 129.536,51.074 129.007,53.244C128.481,55.407 128.293,57.648 128.512,59.856C128.729,62.047 129.325,63.995 130.212,65.633C131.094,67.261 132.264,68.584 133.634,69.552C134.994,70.512 136.553,71.119 138.231,71.323C139.901,71.521 141.691,71.324 143.511,70.677L143.5,70.677ZM105.01,124.06C104.051,122.662 102.785,121.552 101.299,120.786C99.803,120.012 98.081,119.583 96.223,119.55C94.352,119.516 92.344,119.885 90.291,120.706C88.225,121.531 86.315,122.735 84.635,124.206C82.949,125.68 81.5,127.417 80.357,129.301C79.214,131.185 78.381,133.211 77.929,135.263C77.477,137.31 77.403,139.374 77.772,141.344C78.139,143.302 78.909,144.978 79.98,146.328C81.045,147.669 82.407,148.689 83.971,149.353C85.523,150.012 87.273,150.321 89.129,150.245C90.971,150.167 92.921,149.71 94.889,148.837C96.844,147.97 98.637,146.774 100.209,145.349C101.775,143.93 103.129,142.281 104.205,140.507C105.281,138.732 106.085,136.824 106.553,134.888C107.022,132.946 107.156,130.967 106.887,129.053C106.617,127.133 105.967,125.463 105.007,124.073L105.01,124.06ZM158.94,107.08C158.827,105.247 158.382,103.631 157.675,102.277C156.962,100.917 155.981,99.817 154.797,99.033C153.606,98.244 152.209,97.771 150.678,97.67C149.137,97.566 147.459,97.837 145.719,98.532C143.971,99.231 142.33,100.294 140.862,101.613C139.391,102.936 138.096,104.517 137.046,106.252C135.995,107.984 135.191,109.863 134.694,111.782C134.201,113.697 134.016,115.645 134.202,117.521C134.386,119.388 134.919,121.006 135.72,122.331C136.517,123.644 137.577,124.671 138.825,125.366C140.063,126.057 141.487,126.427 143.022,126.431C144.547,126.438 146.182,126.088 147.858,125.345C149.526,124.605 151.081,123.544 152.463,122.259C153.846,120.978 155.061,119.47 156.057,117.829C157.05,116.188 157.827,114.415 158.327,112.596C158.837,110.766 159.057,108.896 158.947,107.076L158.94,107.08ZM56.97,19.042C57.722,19.312 58.797,19.497 60.099,19.6C61.416,19.704 62.959,19.723 64.623,19.661C66.295,19.598 68.079,19.451 69.864,19.224C71.646,18.999 73.416,18.7 75.065,18.328C76.697,17.961 78.045,17.561 79.084,17.158C80.107,16.76 80.826,16.357 81.223,15.974C81.613,15.599 81.692,15.245 81.445,14.929C81.203,14.619 80.646,14.35 79.76,14.139C78.888,13.931 77.776,13.799 76.513,13.736C75.263,13.674 73.857,13.679 72.38,13.75C70.909,13.817 69.357,13.949 67.804,14.14C66.248,14.33 64.68,14.581 63.179,14.892C61.664,15.205 60.353,15.55 59.275,15.909C58.182,16.271 57.326,16.648 56.744,17.019C56.152,17.396 55.843,17.768 55.859,18.111C55.876,18.458 56.231,18.777 56.97,19.042ZM32.954,26.69C34.701,26.639 36.632,26.484 38.63,26.227C40.623,25.972 42.668,25.62 44.647,25.173C46.604,24.733 48.296,24.247 49.678,23.749C51.037,23.261 52.09,22.762 52.799,22.283C53.495,21.813 53.86,21.365 53.862,20.964C53.864,20.568 53.518,20.22 52.793,19.94C52.081,19.666 51.068,19.48 49.848,19.38C48.641,19.281 47.225,19.265 45.687,19.326C44.156,19.388 42.493,19.524 40.78,19.737C39.064,19.951 37.285,20.24 35.524,20.603C33.746,20.97 32.142,21.382 30.761,21.814C29.358,22.252 28.178,22.714 27.278,23.173C26.36,23.641 25.729,24.107 25.45,24.543C25.165,24.988 25.245,25.401 25.761,25.754C26.285,26.111 27.209,26.37 28.434,26.525C29.674,26.688 31.217,26.741 32.954,26.69ZM83.309,13.375C84.213,13.577 85.382,13.71 86.723,13.772C88.078,13.836 89.601,13.833 91.193,13.759C92.792,13.687 94.45,13.548 96.062,13.347C97.671,13.147 99.226,12.886 100.622,12.574C102.005,12.261 103.094,11.929 103.876,11.595C104.647,11.267 105.12,10.938 105.29,10.629C105.458,10.325 105.331,10.04 104.907,9.792C104.491,9.548 103.788,9.339 102.794,9.181C101.815,9.025 100.643,8.933 99.359,8.898C98.089,8.865 96.706,8.885 95.287,8.96C93.874,9.033 92.419,9.157 90.999,9.329C89.575,9.502 88.178,9.724 86.883,9.991C85.578,10.261 84.493,10.554 83.649,10.852C82.793,11.156 82.181,11.467 81.836,11.77C81.485,12.079 81.411,12.377 81.64,12.649C81.869,12.927 82.417,13.176 83.307,13.375L83.309,13.375ZM137.016,19.417C138.565,18.979 139.667,18.501 140.34,18.019C141.001,17.544 141.241,17.066 141.086,16.612C140.934,16.169 140.397,15.748 139.501,15.377C138.622,15.013 137.397,14.694 135.842,14.448C134.313,14.204 132.602,14.05 130.817,13.974C129.051,13.901 127.2,13.908 125.362,13.985C123.534,14.063 121.708,14.214 119.981,14.434C118.249,14.654 116.604,14.946 115.143,15.305C113.667,15.669 112.51,16.073 111.682,16.491C110.838,16.916 110.329,17.359 110.176,17.798C110.016,18.245 110.223,18.688 110.817,19.098C111.424,19.517 112.436,19.903 113.872,20.225C115.337,20.553 117.099,20.783 119.028,20.913C120.985,21.045 123.102,21.074 125.241,21.003C127.393,20.932 129.552,20.759 131.573,20.491C133.613,20.221 135.473,19.861 137.033,19.417L137.016,19.417ZM112.966,22.55C112.298,22.068 111.241,21.64 109.796,21.295C108.382,20.958 106.72,20.732 104.929,20.607C103.159,20.483 101.251,20.46 99.308,20.527C97.374,20.594 95.392,20.756 93.463,21.006C91.528,21.256 89.632,21.598 87.874,22.031C86.096,22.469 84.615,22.964 83.457,23.483C82.279,24.013 81.43,24.575 80.945,25.135C80.45,25.708 80.335,26.283 80.643,26.826C80.959,27.382 81.718,27.901 82.966,28.348C84.243,28.805 85.902,29.139 87.814,29.347C89.755,29.559 91.94,29.639 94.224,29.587C96.523,29.536 98.9,29.353 101.202,29.04C103.497,28.728 105.693,28.294 107.64,27.742C109.56,27.198 111.037,26.596 112.068,25.979C113.078,25.375 113.65,24.759 113.791,24.168C113.931,23.595 113.651,23.043 112.971,22.55L112.966,22.55ZM76.714,35.937C78.236,35.149 79.307,34.337 79.903,33.554C80.484,32.789 80.613,32.053 80.274,31.387C79.943,30.738 79.167,30.154 77.927,29.674C76.716,29.204 75.168,28.876 73.41,28.678C71.677,28.484 69.725,28.414 67.668,28.466C65.623,28.518 63.456,28.689 61.273,28.977C59.084,29.266 56.859,29.676 54.702,30.207C52.517,30.746 50.591,31.362 48.972,32.023C47.32,32.698 45.978,33.419 45.01,34.152C44.018,34.902 43.415,35.666 43.276,36.395C43.133,37.144 43.481,37.859 44.401,38.487C45.344,39.133 46.793,39.62 48.615,39.943C50.468,40.273 52.689,40.431 55.125,40.414C57.579,40.395 60.225,40.2 62.896,39.828C65.558,39.458 68.213,38.917 70.694,38.214C73.138,37.521 75.158,36.743 76.714,35.937ZM40.437,72.118C40.156,70.305 39.77,68.47 39.314,66.704C38.859,64.937 38.334,63.25 37.775,61.729C37.218,60.214 36.629,58.874 36.041,57.794C35.457,56.721 34.875,55.91 34.328,55.449C33.785,54.991 33.329,54.921 32.969,55.181C32.613,55.441 32.35,56.028 32.19,56.888C32.032,57.742 31.974,58.867 32.026,60.212C32.079,61.55 32.239,63.107 32.517,64.836C32.793,66.561 33.163,68.298 33.592,69.966C34.023,71.635 34.516,73.238 35.04,74.695C35.566,76.156 36.127,77.471 36.691,78.557C37.259,79.649 37.832,80.51 38.379,81.051C38.928,81.596 39.4,81.765 39.783,81.601C40.168,81.436 40.463,80.933 40.652,80.136C40.843,79.334 40.931,78.235 40.9,76.885C40.869,75.533 40.718,73.926 40.437,72.118ZM38.393,94.565C38.127,92.917 37.769,91.232 37.348,89.601C36.928,87.97 36.449,86.398 35.94,84.97C35.432,83.546 34.896,82.27 34.364,81.227C33.835,80.19 33.309,79.384 32.818,78.894C32.331,78.408 31.924,78.277 31.606,78.456C31.29,78.634 31.06,79.116 30.924,79.855C30.789,80.591 30.746,81.584 30.805,82.787C30.862,83.983 31.018,85.392 31.28,86.973C31.542,88.549 31.885,90.149 32.284,91.698C32.683,93.246 33.136,94.745 33.616,96.117C34.098,97.492 34.609,98.743 35.122,99.788C35.636,100.838 36.153,101.683 36.643,102.236C37.138,102.798 37.559,103.01 37.899,102.918C38.239,102.821 38.496,102.414 38.657,101.73C38.821,101.042 38.887,100.077 38.847,98.872C38.808,97.658 38.659,96.209 38.393,94.565ZM51.88,126.6C51.442,124.903 50.933,123.242 50.386,121.708C49.841,120.181 49.259,118.786 48.674,117.615C48.092,116.45 47.508,115.51 46.955,114.882C46.405,114.257 45.938,114.001 45.564,114.069C45.192,114.135 44.912,114.522 44.733,115.185C44.555,115.845 44.476,116.779 44.507,117.948C44.537,119.109 44.675,120.507 44.932,122.099C45.187,123.689 45.537,125.328 45.951,126.936C46.365,128.544 46.844,130.124 47.359,131.591C47.876,133.063 48.43,134.425 48.991,135.592C49.555,136.765 50.129,137.742 50.681,138.437C51.236,139.134 51.718,139.479 52.113,139.5C52.511,139.521 52.821,139.218 53.029,138.618C53.239,138.014 53.346,137.114 53.336,135.951C53.327,134.781 53.199,133.347 52.941,131.687C52.682,130.027 52.317,128.297 51.88,126.597L51.88,126.6ZM24.219,59.885C23.946,58.244 23.593,56.594 23.186,55.017C22.78,53.44 22.324,51.94 21.846,50.6C21.369,49.263 20.872,48.088 20.383,47.156C19.897,46.226 19.42,45.54 18.981,45.169C18.545,44.802 18.189,44.782 17.917,45.06C17.646,45.335 17.459,45.904 17.359,46.714C17.26,47.52 17.248,48.566 17.328,49.803C17.408,51.035 17.579,52.459 17.847,54.032C18.115,55.598 18.454,57.169 18.839,58.668C19.224,60.168 19.656,61.601 20.109,62.893C20.563,64.188 21.039,65.343 21.511,66.286C21.985,67.23 22.456,67.962 22.896,68.397C23.34,68.836 23.711,68.936 24.002,68.739C24.295,68.541 24.508,68.04 24.631,67.278C24.755,66.512 24.788,65.486 24.722,64.242C24.656,62.987 24.491,61.521 24.219,59.885ZM35.505,112.68C35.252,111.16 34.916,109.598 34.524,108.076C34.133,106.554 33.688,105.075 33.217,103.722C32.748,102.373 32.254,101.154 31.765,100.143C31.278,99.137 30.797,98.341 30.348,97.832C29.903,97.326 29.534,97.152 29.245,97.269C28.959,97.384 28.754,97.788 28.635,98.435C28.517,99.08 28.485,99.966 28.545,101.059C28.605,102.146 28.756,103.438 29.005,104.898C29.253,106.355 29.576,107.845 29.949,109.295C30.321,110.745 30.743,112.158 31.189,113.46C31.636,114.765 32.109,115.961 32.581,116.97C33.055,117.985 33.53,118.813 33.978,119.376C34.43,119.943 34.813,120.189 35.118,120.147C35.426,120.103 35.654,119.766 35.795,119.169C35.937,118.567 35.989,117.705 35.944,116.612C35.901,115.502 35.757,114.172 35.505,112.662L35.505,112.68Z" style="fill:white;fill-rule:nonzero;"/>
                    </g>
                </g>
            </g>
            <g transform="matrix(1,0,0,1,355.953,-187.74)">
                <text x="519.685px" y="1180.63px" style="font-family:'ArialMT', 'Arial', sans-serif;font-size:100px;fill:rgb(235,235,235);">la matire</text>
            </g>
            <g transform="matrix(1,0,0,1,1115.43,331.945)">
                <text x="519.685px" y="1180.63px" style="font-family:'ArialMT', 'Arial', sans-serif;font-size:100px;fill:rgb(235,235,235);">l&apos;espace</text>
            </g>
            <g transform="matrix(1,0,0,1,1782.28,-188.505)">
                <text x="519.685px" y="1180.63px" style="font-family:'ArialMT', 'Arial', sans-serif;font-size:100px;fill:rgb(229,217,217);">le <tspan x="623.494px 673.494px 729.109px " y="1180.63px 1180.63px 1180.63px ">Tem</tspan>ps</text>
            </g>
            <g transform="matrix(1,0,0,1,141.732,22.8573)">
                <text x="1487px" y="703.712px" style="font-family:'ArialMT', 'Arial', sans-serif;font-size:125px;fill:rgb(229,217,217);">T=me</text>
            </g>
            <g transform="matrix(1,0,0,1,106.894,70.8661)">
                <text x="1842.52px" y="579.337px" style="font-family:'Arial-BoldMT', 'Arial', sans-serif;font-weight:700;font-size:83.333px;fill:rgb(235,235,235);">3</text>
            </g>
        </g>
    </g>
</svg>
