<?xml version="1.0" encoding="UTF-8" standalone="no"?><!DOCTYPE svg PUBLIC "-//W3C//DTD SVG 1.1//EN" "http://www.w3.org/Graphics/SVG/1.1/DTD/svg11.dtd"><svg width="100%" height="100%" viewBox="0 0 301 301" version="1.1" xmlns="http://www.w3.org/2000/svg" xmlns:xlink="http://www.w3.org/1999/xlink" xml:space="preserve" xmlns:serif="http://www.serif.com/" style="fill-rule:evenodd;clip-rule:evenodd;stroke-linejoin:round;stroke-miterlimit:2;"><g><g transform="matrix(0.267857,0,0,1.82692,-53.3214,-182.192)"><g transform="matrix(3.73333,0,0,0.547368,-546.667,45.2632)"><path d="M475,125l25,0l0,25l-25,0l0,-25Zm-25,25l25,0l0,25l-25,0l0,-25Zm-25,25l25,0l0,25l-25,0l0,-25Zm-25,25l25,0l0,25l-25,0l0,-25Zm-25,25l25,0l0,25l-25,0l0,-25Zm-25,25l25,0l0,25l-25,0l0,-25Zm-25,25l25,0l0,25l-25,0l0,-25Zm-25,25l25,0l0,25l-25,0l0,-25Zm-25,25l25,0l0,25l-25,0l0,-25Zm-25,25l25,0l0,25l-25,0l0,-25Zm-25,25l25,0l0,25l-25,0l0,-25Z" style="fill:#fecdff;"/></g><g transform="matrix(3.73333,0,0,0.547368,-546.667,45.2632)"><text x="208.996px" y="116.798px" style="font-family:'ArialMT', 'Arial', sans-serif;font-size:12px;">+</text><text x="234.72px" y="116.07px" style="font-family:'HelveticaNeue', 'Helvetica Neue';font-size:10px;fill:#0700ff;">0</text><text x="259.72px" y="116.07px" style="font-family:'HelveticaNeue', 'Helvetica Neue';font-size:10px;fill:#0700ff;">1</text><text x="284.72px" y="116.07px" style="font-family:'HelveticaNeue', 'Helvetica Neue';font-size:10px;fill:#0700ff;">2</text><text x="309.72px" y="116.07px" style="font-family:'HelveticaNeue', 'Helvetica Neue';font-size:10px;fill:#0700ff;">3</text><text x="334.72px" y="116.07px" style="font-family:'HelveticaNeue', 'Helvetica Neue';font-size:10px;fill:#0700ff;">4</text><text x="359.72px" y="116.07px" style="font-family:'HelveticaNeue', 'Helvetica Neue';font-size:10px;fill:#0700ff;">5</text><text x="384.72px" y="116.07px" style="font-family:'HelveticaNeue', 'Helvetica Neue';font-size:10px;fill:#0700ff;">6</text><text x="409.72px" y="116.07px" style="font-family:'HelveticaNeue', 'Helvetica Neue';font-size:10px;fill:#0700ff;">7</text><text x="434.72px" y="116.07px" style="font-family:'HelveticaNeue', 'Helvetica Neue';font-size:10px;fill:#0700ff;">8</text><text x="459.72px" y="116.07px" style="font-family:'HelveticaNeue', 'Helvetica Neue';font-size:10px;fill:#0700ff;">9</text><text x="481.94px" y="116.07px" style="font-family:'HelveticaNeue', 'Helvetica Neue';font-size:10px;fill:#0700ff;">10</text><text x="209.72px" y="141.07px" style="font-family:'HelveticaNeue', 'Helvetica Neue';font-size:10px;fill:#0700ff;">0</text><text x="234.72px" y="141.07px" style="font-family:'HelveticaNeue', 'Helvetica Neue';font-size:10px;">0</text><text x="259.72px" y="141.07px" style="font-family:'HelveticaNeue', 'Helvetica Neue';font-size:10px;">1</text><text x="284.72px" y="141.07px" style="font-family:'HelveticaNeue', 'Helvetica Neue';font-size:10px;">2</text><text x="309.72px" y="141.07px" style="font-family:'HelveticaNeue', 'Helvetica Neue';font-size:10px;">3</text><text x="334.72px" y="141.07px" style="font-family:'HelveticaNeue', 'Helvetica Neue';font-size:10px;">4</text><text x="359.72px" y="141.07px" style="font-family:'HelveticaNeue', 'Helvetica Neue';font-size:10px;">5</text><text x="384.72px" y="141.07px" style="font-family:'HelveticaNeue', 'Helvetica Neue';font-size:10px;">6</text><text x="409.72px" y="141.07px" style="font-family:'HelveticaNeue', 'Helvetica Neue';font-size:10px;">7</text><text x="434.72px" y="141.07px" style="font-family:'HelveticaNeue', 'Helvetica Neue';font-size:10px;">8</text><text x="459.72px" y="141.07px" style="font-family:'HelveticaNeue', 'Helvetica Neue';font-size:10px;">9</text><text x="481.94px" y="141.07px" style="font-family:'HelveticaNeue', 'Helvetica Neue';font-size:10px;">10</text><text x="209.72px" y="166.07px" style="font-family:'HelveticaNeue', 'Helvetica Neue';font-size:10px;fill:#0700ff;">1</text><text x="234.72px" y="166.07px" style="font-family:'HelveticaNeue', 'Helvetica Neue';font-size:10px;">1</text><text x="259.72px" y="166.07px" style="font-family:'HelveticaNeue', 'Helvetica Neue';font-size:10px;">2</text><text x="284.72px" y="166.07px" style="font-family:'HelveticaNeue', 'Helvetica Neue';font-size:10px;">3</text><text x="309.72px" y="166.07px" style="font-family:'HelveticaNeue', 'Helvetica Neue';font-size:10px;">4</text><text x="334.72px" y="166.07px" style="font-family:'HelveticaNeue', 'Helvetica Neue';font-size:10px;">5</text><text x="359.72px" y="166.07px" style="font-family:'HelveticaNeue', 'Helvetica Neue';font-size:10px;">6</text><text x="384.72px" y="166.07px" style="font-family:'HelveticaNeue', 'Helvetica Neue';font-size:10px;">7</text><text x="409.72px" y="166.07px" style="font-family:'HelveticaNeue', 'Helvetica Neue';font-size:10px;">8</text><text x="434.72px" y="166.07px" style="font-family:'HelveticaNeue', 'Helvetica Neue';font-size:10px;">9</text><text x="456.94px" y="166.07px" style="font-family:'HelveticaNeue', 'Helvetica Neue';font-size:10px;">10</text><text x="481.94px" y="166.07px" style="font-family:'HelveticaNeue', 'Helvetica Neue';font-size:10px;">11</text><text x="209.72px" y="191.07px" style="font-family:'HelveticaNeue', 'Helvetica Neue';font-size:10px;fill:#0700ff;">2</text><text x="234.72px" y="191.07px" style="font-family:'HelveticaNeue', 'Helvetica Neue';font-size:10px;">2</text><text x="259.72px" y="191.07px" style="font-family:'HelveticaNeue', 'Helvetica Neue';font-size:10px;">3</text><text x="284.72px" y="191.07px" style="font-family:'HelveticaNeue', 'Helvetica Neue';font-size:10px;">4</text><text x="309.72px" y="191.07px" style="font-family:'HelveticaNeue', 'Helvetica Neue';font-size:10px;">5</text><text x="334.72px" y="191.07px" style="font-family:'HelveticaNeue', 'Helvetica Neue';font-size:10px;">6</text><text x="359.72px" y="191.07px" style="font-family:'HelveticaNeue', 'Helvetica Neue';font-size:10px;">7</text><text x="384.72px" y="191.07px" style="font-family:'HelveticaNeue', 'Helvetica Neue';font-size:10px;">8</text><text x="409.72px" y="191.07px" style="font-family:'HelveticaNeue', 'Helvetica Neue';font-size:10px;">9</text><text x="431.94px" y="191.07px" style="font-family:'HelveticaNeue', 'Helvetica Neue';font-size:10px;">10</text><text x="456.94px" y="191.07px" style="font-family:'HelveticaNeue', 'Helvetica Neue';font-size:10px;">11</text><text x="481.94px" y="191.07px" style="font-family:'HelveticaNeue', 'Helvetica Neue';font-size:10px;">12</text><text x="209.72px" y="216.07px" style="font-family:'HelveticaNeue', 'Helvetica Neue';font-size:10px;fill:#0700ff;">3</text><text x="234.72px" y="216.07px" style="font-family:'HelveticaNeue', 'Helvetica Neue';font-size:10px;">3</text><text x="259.72px" y="216.07px" style="font-family:'HelveticaNeue', 'Helvetica Neue';font-size:10px;">4</text><text x="284.72px" y="216.07px" style="font-family:'HelveticaNeue', 'Helvetica Neue';font-size:10px;">5</text><text x="309.72px" y="216.07px" style="font-family:'HelveticaNeue', 'Helvetica Neue';font-size:10px;">6</text><text x="334.72px" y="216.07px" style="font-family:'HelveticaNeue', 'Helvetica Neue';font-size:10px;">7</text><text x="359.72px" y="216.07px" style="font-family:'HelveticaNeue', 'Helvetica Neue';font-size:10px;">8</text><text x="384.72px" y="216.07px" style="font-family:'HelveticaNeue', 'Helvetica Neue';font-size:10px;">9</text><text x="406.94px" y="216.07px" style="font-family:'HelveticaNeue', 'Helvetica Neue';font-size:10px;">10</text><text x="431.94px" y="216.07px" style="font-family:'HelveticaNeue', 'Helvetica Neue';font-size:10px;">11</text><text x="456.94px" y="216.07px" style="font-family:'HelveticaNeue', 'Helvetica Neue';font-size:10px;">12</text><text x="481.94px" y="216.07px" style="font-family:'HelveticaNeue', 'Helvetica Neue';font-size:10px;">13</text><text x="209.72px" y="241.07px" style="font-family:'HelveticaNeue', 'Helvetica Neue';font-size:10px;fill:#0700ff;">4</text><text x="234.72px" y="241.07px" style="font-family:'HelveticaNeue', 'Helvetica Neue';font-size:10px;">4</text><text x="259.72px" y="241.07px" style="font-family:'HelveticaNeue', 'Helvetica Neue';font-size:10px;">5</text><text x="284.72px" y="241.07px" style="font-family:'HelveticaNeue', 'Helvetica Neue';font-size:10px;">6</text><text x="309.72px" y="241.07px" style="font-family:'HelveticaNeue', 'Helvetica Neue';font-size:10px;">7</text><text x="334.72px" y="241.07px" style="font-family:'HelveticaNeue', 'Helvetica Neue';font-size:10px;">8</text><text x="359.72px" y="241.07px" style="font-family:'HelveticaNeue', 'Helvetica Neue';font-size:10px;">9</text><text x="381.94px" y="241.07px" style="font-family:'HelveticaNeue', 'Helvetica Neue';font-size:10px;">10</text><text x="406.94px" y="241.07px" style="font-family:'HelveticaNeue', 'Helvetica Neue';font-size:10px;">11</text><text x="431.94px" y="241.07px" style="font-family:'HelveticaNeue', 'Helvetica Neue';font-size:10px;">12</text><text x="456.94px" y="241.07px" style="font-family:'HelveticaNeue', 'Helvetica Neue';font-size:10px;">13</text><text x="481.94px" y="241.07px" style="font-family:'HelveticaNeue', 'Helvetica Neue';font-size:10px;">14</text><text x="209.72px" y="266.07px" style="font-family:'HelveticaNeue', 'Helvetica Neue';font-size:10px;fill:#0700ff;">5</text><text x="234.72px" y="266.07px" style="font-family:'HelveticaNeue', 'Helvetica Neue';font-size:10px;">5</text><text x="259.72px" y="266.07px" style="font-family:'HelveticaNeue', 'Helvetica Neue';font-size:10px;">6</text><text x="284.72px" y="266.07px" style="font-family:'HelveticaNeue', 'Helvetica Neue';font-size:10px;">7</text><text x="309.72px" y="266.07px" style="font-family:'HelveticaNeue', 'Helvetica Neue';font-size:10px;">8</text><text x="334.72px" y="266.07px" style="font-family:'HelveticaNeue', 'Helvetica Neue';font-size:10px;">9</text><text x="356.94px" y="266.07px" style="font-family:'HelveticaNeue', 'Helvetica Neue';font-size:10px;">10</text><text x="381.94px" y="266.07px" style="font-family:'HelveticaNeue', 'Helvetica Neue';font-size:10px;">11</text><text x="406.94px" y="266.07px" style="font-family:'HelveticaNeue', 'Helvetica Neue';font-size:10px;">12</text><text x="431.94px" y="266.07px" style="font-family:'HelveticaNeue', 'Helvetica Neue';font-size:10px;">13</text><text x="456.94px" y="266.07px" style="font-family:'HelveticaNeue', 'Helvetica Neue';font-size:10px;">14</text><text x="481.94px" y="266.07px" style="font-family:'HelveticaNeue', 'Helvetica Neue';font-size:10px;">15</text><text x="209.72px" y="291.07px" style="font-family:'HelveticaNeue', 'Helvetica Neue';font-size:10px;fill:#0700ff;">6</text><text x="234.72px" y="291.07px" style="font-family:'HelveticaNeue', 'Helvetica Neue';font-size:10px;">6</text><text x="259.72px" y="291.07px" style="font-family:'HelveticaNeue', 'Helvetica Neue';font-size:10px;">7</text><text x="284.72px" y="291.07px" style="font-family:'HelveticaNeue', 'Helvetica Neue';font-size:10px;">8</text><text x="309.72px" y="291.07px" style="font-family:'HelveticaNeue', 'Helvetica Neue';font-size:10px;">9</text><text x="331.94px" y="291.07px" style="font-family:'HelveticaNeue', 'Helvetica Neue';font-size:10px;">10</text><text x="356.94px" y="291.07px" style="font-family:'HelveticaNeue', 'Helvetica Neue';font-size:10px;">11</text><text x="381.94px" y="291.07px" style="font-family:'HelveticaNeue', 'Helvetica Neue';font-size:10px;">12</text><text x="406.94px" y="291.07px" style="font-family:'HelveticaNeue', 'Helvetica Neue';font-size:10px;">13</text><text x="431.94px" y="291.07px" style="font-family:'HelveticaNeue', 'Helvetica Neue';font-size:10px;">14</text><text x="456.94px" y="291.07px" style="font-family:'HelveticaNeue', 'Helvetica Neue';font-size:10px;">15</text><text x="481.94px" y="291.07px" style="font-family:'HelveticaNeue', 'Helvetica Neue';font-size:10px;">16</text><text x="209.72px" y="316.07px" style="font-family:'HelveticaNeue', 'Helvetica Neue';font-size:10px;fill:#0700ff;">7</text><text x="234.72px" y="316.07px" style="font-family:'HelveticaNeue', 'Helvetica Neue';font-size:10px;">7</text><text x="259.72px" y="316.07px" style="font-family:'HelveticaNeue', 'Helvetica Neue';font-size:10px;">8</text><text x="284.72px" y="316.07px" style="font-family:'HelveticaNeue', 'Helvetica Neue';font-size:10px;">9</text><text x="306.94px" y="316.07px" style="font-family:'HelveticaNeue', 'Helvetica Neue';font-size:10px;">10</text><text x="331.94px" y="316.07px" style="font-family:'HelveticaNeue', 'Helvetica Neue';font-size:10px;">11</text><text x="356.94px" y="316.07px" style="font-family:'HelveticaNeue', 'Helvetica Neue';font-size:10px;">12</text><text x="381.94px" y="316.07px" style="font-family:'HelveticaNeue', 'Helvetica Neue';font-size:10px;">13</text><text x="406.94px" y="316.07px" style="font-family:'HelveticaNeue', 'Helvetica Neue';font-size:10px;">14</text><text x="431.94px" y="316.07px" style="font-family:'HelveticaNeue', 'Helvetica Neue';font-size:10px;">15</text><text x="456.94px" y="316.07px" style="font-family:'HelveticaNeue', 'Helvetica Neue';font-size:10px;">16</text><text x="481.94px" y="316.07px" style="font-family:'HelveticaNeue', 'Helvetica Neue';font-size:10px;">17</text><text x="209.72px" y="341.07px" style="font-family:'HelveticaNeue', 'Helvetica Neue';font-size:10px;fill:#0700ff;">8</text><text x="234.72px" y="341.07px" style="font-family:'HelveticaNeue', 'Helvetica Neue';font-size:10px;">8</text><text x="259.72px" y="341.07px" style="font-family:'HelveticaNeue', 'Helvetica Neue';font-size:10px;">9</text><text x="281.94px" y="341.07px" style="font-family:'HelveticaNeue', 'Helvetica Neue';font-size:10px;">10</text><text x="306.94px" y="341.07px" style="font-family:'HelveticaNeue', 'Helvetica Neue';font-size:10px;">11</text><text x="331.94px" y="341.07px" style="font-family:'HelveticaNeue', 'Helvetica Neue';font-size:10px;">12</text><text x="356.94px" y="341.07px" style="font-family:'HelveticaNeue', 'Helvetica Neue';font-size:10px;">13</text><text x="381.94px" y="341.07px" style="font-family:'HelveticaNeue', 'Helvetica Neue';font-size:10px;">14</text><text x="406.94px" y="341.07px" style="font-family:'HelveticaNeue', 'Helvetica Neue';font-size:10px;">15</text><text x="431.94px" y="341.07px" style="font-family:'HelveticaNeue', 'Helvetica Neue';font-size:10px;">16</text><text x="456.94px" y="341.07px" style="font-family:'HelveticaNeue', 'Helvetica Neue';font-size:10px;">17</text><text x="481.94px" y="341.07px" style="font-family:'HelveticaNeue', 'Helvetica Neue';font-size:10px;">18</text><text x="209.72px" y="366.07px" style="font-family:'HelveticaNeue', 'Helvetica Neue';font-size:10px;fill:#0700ff;">9</text><text x="234.72px" y="366.07px" style="font-family:'HelveticaNeue', 'Helvetica Neue';font-size:10px;">9</text><text x="256.94px" y="366.07px" style="font-family:'HelveticaNeue', 'Helvetica Neue';font-size:10px;">10</text><text x="281.94px" y="366.07px" style="font-family:'HelveticaNeue', 'Helvetica Neue';font-size:10px;">11</text><text x="306.94px" y="366.07px" style="font-family:'HelveticaNeue', 'Helvetica Neue';font-size:10px;">12</text><text x="331.94px" y="366.07px" style="font-family:'HelveticaNeue', 'Helvetica Neue';font-size:10px;">13</text><text x="356.94px" y="366.07px" style="font-family:'HelveticaNeue', 'Helvetica Neue';font-size:10px;">14</text><text x="381.94px" y="366.07px" style="font-family:'HelveticaNeue', 'Helvetica Neue';font-size:10px;">15</text><text x="406.94px" y="366.07px" style="font-family:'HelveticaNeue', 'Helvetica Neue';font-size:10px;">16</text><text x="431.94px" y="366.07px" style="font-family:'HelveticaNeue', 'Helvetica Neue';font-size:10px;">17</text><text x="456.94px" y="366.07px" style="font-family:'HelveticaNeue', 'Helvetica Neue';font-size:10px;">18</text><text x="481.94px" y="366.07px" style="font-family:'HelveticaNeue', 'Helvetica Neue';font-size:10px;">19</text><text x="206.94px" y="391.07px" style="font-family:'HelveticaNeue', 'Helvetica Neue';font-size:10px;fill:#0700ff;">10</text><text x="231.94px" y="391.07px" style="font-family:'HelveticaNeue', 'Helvetica Neue';font-size:10px;">10</text><text x="256.94px" y="391.07px" style="font-family:'HelveticaNeue', 'Helvetica Neue';font-size:10px;">11</text><text x="281.94px" y="391.07px" style="font-family:'HelveticaNeue', 'Helvetica Neue';font-size:10px;">12</text><text x="306.94px" y="391.07px" style="font-family:'HelveticaNeue', 'Helvetica Neue';font-size:10px;">13</text><text x="331.94px" y="391.07px" style="font-family:'HelveticaNeue', 'Helvetica Neue';font-size:10px;">14</text><text x="356.94px" y="391.07px" style="font-family:'HelveticaNeue', 'Helvetica Neue';font-size:10px;">15</text><text x="381.94px" y="391.07px" style="font-family:'HelveticaNeue', 'Helvetica Neue';font-size:10px;">16</text><text x="406.94px" y="391.07px" style="font-family:'HelveticaNeue', 'Helvetica Neue';font-size:10px;">17</text><text x="431.94px" y="391.07px" style="font-family:'HelveticaNeue', 'Helvetica Neue';font-size:10px;">18</text><text x="456.94px" y="391.07px" style="font-family:'HelveticaNeue', 'Helvetica Neue';font-size:10px;">19</text><text x="481.94px" y="391.07px" style="font-family:'HelveticaNeue', 'Helvetica Neue';font-size:10px;">20</text><path d="M200,99.75l0,300.5m300,-300.5l0,300.5m-275,-300.25l0,300m25,-300l0,300m25,-300l0,300m25,-300l0,300m25,-300l0,300m25,-300l0,300m25,-300l0,300m25,-300l0,300m25,-300l0,300m25,-300l0,300m25,-300l0,300m-275,-300l300,0m-300,25l300,0m-300,25l300,0m-300,25l300,0m-300,25l300,0m-300,25l300,0m-300,25l300,0m-300,25l300,0m-300,25l300,0m-300,25l300,0m-300,25l300,0m-300,25l300,0m-300,25l300,0" style="fill:none;stroke:#000;stroke-width:0.5px;"/></g></g></g></svg>