<?xml version="1.0" encoding="UTF-8" standalone="no"?><!DOCTYPE svg PUBLIC "-//W3C//DTD SVG 1.1//EN" "http://www.w3.org/Graphics/SVG/1.1/DTD/svg11.dtd"><svg width="100%" height="100%" viewBox="0 0 346 472" version="1.1" xmlns="http://www.w3.org/2000/svg" xmlns:xlink="http://www.w3.org/1999/xlink" xml:space="preserve" xmlns:serif="http://www.serif.com/" style="fill-rule:evenodd;clip-rule:evenodd;stroke-linecap:round;stroke-linejoin:round;"><g><g><g><g id="g4392"><path id="rect4394" d="M207.738,135.075l8.741,-5.686l8.492,15.766l-8.741,5.686l-8.492,-15.766Z" style="fill:#a4a4a4;stroke:#484848;stroke-width:1.77px;"/><path id="path4396" d="M210.1,130.447l0.338,0.943l6.99,17.798l-1.468,1.069l-9.425,-18.286l2.772,-1.18l0.793,-0.344Z" style="fill:#6b6b6b;fill-opacity:0.63;fill-rule:nonzero;"/><path id="path4398" d="M227.627,150.765l-0.471,-0.871l-8.537,-15.781l-1.651,-0.573l7.379,19.388l2.547,-1.685l0.733,-0.478Z" style="fill:#fff;fill-opacity:0.63;fill-rule:nonzero;"/><path id="rect4400" d="M207.738,135.075l8.741,-5.686l8.492,15.766l-8.741,5.686l-8.492,-15.766Z" style="fill:none;stroke:#484848;stroke-width:1.77px;"/><path id="rect4402" d="M199.92,123.928l11.334,-7.374l9.116,16.925l-11.334,7.374l-9.116,-16.925Z" style="fill:#a4a4a4;stroke:#484848;stroke-width:1.53px;"/><path id="path4404" d="M219.44,133.246l-0.471,-0.871l-8.537,-15.78l-1.651,-0.573l7.379,19.388l2.547,-1.685l0.733,-0.479Z" style="fill:#fff;fill-opacity:0.63;fill-rule:nonzero;"/><path id="path4406" d="M203.526,120.768l0.338,0.943l6.989,17.797l-1.467,1.069l-9.425,-18.285l2.771,-1.18l0.794,-0.344Z" style="fill:#6b6b6b;fill-opacity:0.63;fill-rule:nonzero;"/><path id="rect4408" d="M199.92,123.928l11.334,-7.374l9.116,16.925l-11.334,7.374l-9.116,-16.925Z" style="fill:none;stroke:#484848;stroke-width:1.53px;"/><path id="path4410" d="M187.805,113.396c0,7.115 5.249,12.883 11.722,12.883c6.474,0 11.722,-5.768 11.722,-12.883c0,-7.115 -5.248,-12.882 -11.722,-12.882c-6.473,0 -11.722,5.767 -11.722,12.882Z" style="fill:#a4a4a4;fill-rule:nonzero;stroke:#484848;stroke-width:1.49px;"/><path id="path4412" d="M239.25,154.836c0.639,-0.576 1.574,-0.473 2.098,0.23l6.278,8.429c3.947,5.257 4.268,10.489 1.041,15.944l-9.015,-12.102c-0.262,-0.352 -0.627,-0.549 -1.006,-0.59c-0.38,-0.042 -0.772,0.072 -1.092,0.36l-3.648,3.282c-0.32,0.287 -0.499,0.688 -0.537,1.105c-0.038,0.418 0.065,0.849 0.327,1.201l8.959,12.028c-5.055,2.044 -10.118,0.519 -13.66,-4.466l-6.278,-8.429c-0.524,-0.704 -0.43,-1.731 0.209,-2.307l0.717,-8.493l8.161,-7.342l7.446,1.15Z" style="fill:#a4a4a4;fill-rule:nonzero;stroke:#484848;stroke-width:1.49px;"/><path id="path4414" d="M242.835,184.609c-9.526,0.063 -12.949,-7.532 -16.798,-14.508l0.527,-10.748l-3.07,0.434l-0.176,9.64l-0.482,1.446l7.762,11.085l4.518,2.941l4.912,0.771l2.807,-1.061Z" style="fill:#808080;fill-rule:nonzero;"/><path id="path4416" d="M239.25,154.836c0.639,-0.576 1.574,-0.473 2.098,0.23l6.278,8.429c3.947,5.257 4.268,10.489 1.041,15.944l-9.015,-12.102c-0.262,-0.352 -0.627,-0.549 -1.006,-0.59c-0.38,-0.042 -0.772,0.072 -1.092,0.36l-3.648,3.282c-0.32,0.287 -0.499,0.688 -0.537,1.105c-0.038,0.418 0.065,0.849 0.327,1.201l8.959,12.028c-5.055,2.044 -10.118,0.519 -13.66,-4.466l-6.278,-8.429c-0.524,-0.704 -0.43,-1.731 0.209,-2.307l0.717,-8.493l8.161,-7.342l7.446,1.15Z" style="fill:none;fill-rule:nonzero;stroke:#484848;stroke-width:1.49px;"/><path id="path4418" d="M248.448,176.415c4.015,-6.268 -3.732,-14.45 -8.157,-20.002l-8.64,-1.398c-0.082,1.54 0.098,1.568 -0.798,2.725c0.714,-0.009 6.701,0.904 7.166,1.109c5.338,2.355 12.073,10.996 10.429,17.566Z" style="fill:#fff;fill-opacity:0.63;fill-rule:nonzero;"/><path id="path4420" d="M215.869,151.877c-0.979,4.697 1.746,9.391 6.086,10.484c4.341,1.093 8.653,-1.829 9.632,-6.526c0.979,-4.697 -1.746,-9.391 -6.086,-10.484c-4.341,-1.093 -8.653,1.829 -9.632,6.526Z" style="fill:#a4a4a4;fill-rule:nonzero;stroke:#484848;stroke-width:1.45px;"/><path id="path4422" d="M230.406,154.925c-1.937,-4.348 -5.483,-6.692 -10.216,-7.559c5.502,-1.549 9.804,-0.77 10.216,7.559Z" style="fill:#fff;fill-opacity:0.63;fill-rule:nonzero;"/><path id="path4424" d="M209.05,117.265c-0.565,-9.497 -6.259,-13.303 -13.19,-14.384c7.014,-2.89 16.637,4.296 13.19,14.384Z" style="fill:#fff;fill-opacity:0.63;fill-rule:nonzero;"/></g><g id="g4374"><path id="rect4220" d="M125.672,135.075l-8.741,-5.686l-8.492,15.766l8.741,5.686l8.492,-15.766Z" style="fill:#a4a4a4;stroke:#484848;stroke-width:1.77px;"/><path id="path4298" d="M123.31,130.447l-0.338,0.943l-6.99,17.798l1.468,1.069l9.425,-18.286l-2.772,-1.18l-0.793,-0.344Z" style="fill:#6b6b6b;fill-opacity:0.63;fill-rule:nonzero;"/><path id="path4296" d="M105.783,150.765l0.471,-0.871l8.537,-15.781l1.651,-0.573l-7.379,19.388l-2.547,-1.685l-0.733,-0.478Z" style="fill:#fff;fill-opacity:0.63;fill-rule:nonzero;"/><path id="rect4300" d="M125.672,135.075l-8.741,-5.686l-8.492,15.766l8.741,5.686l8.492,-15.766Z" style="fill:none;stroke:#484848;stroke-width:1.77px;"/><path id="rect4222" d="M133.49,123.928l-11.334,-7.374l-9.116,16.925l11.334,7.374l9.116,-16.925Z" style="fill:#a4a4a4;stroke:#484848;stroke-width:1.53px;"/><path id="path4290" d="M113.97,133.246l0.471,-0.871l8.537,-15.78l1.651,-0.573l-7.379,19.388l-2.547,-1.685l-0.733,-0.479Z" style="fill:#fff;fill-opacity:0.63;fill-rule:nonzero;"/><path id="path4294" d="M129.884,120.768l-0.338,0.943l-6.989,17.797l1.467,1.069l9.425,-18.285l-2.771,-1.18l-0.794,-0.344Z" style="fill:#6b6b6b;fill-opacity:0.63;fill-rule:nonzero;"/><path id="rect4292" d="M133.49,123.928l-11.334,-7.374l-9.116,16.925l11.334,7.374l9.116,-16.925Z" style="fill:none;stroke:#484848;stroke-width:1.53px;"/><path id="path4217" d="M145.605,113.396c0,7.115 -5.249,12.883 -11.722,12.883c-6.474,0 -11.722,-5.768 -11.722,-12.883c0,-7.115 5.248,-12.882 11.722,-12.882c6.473,0 11.722,5.767 11.722,12.882Z" style="fill:#a4a4a4;fill-rule:nonzero;stroke:#484848;stroke-width:1.49px;"/><path id="path4230" d="M94.16,154.836c-0.639,-0.576 -1.574,-0.473 -2.098,0.23l-6.278,8.429c-3.947,5.257 -4.268,10.489 -1.041,15.944l9.015,-12.102c0.262,-0.352 0.627,-0.549 1.006,-0.59c0.38,-0.042 0.772,0.072 1.092,0.36l3.648,3.282c0.32,0.287 0.499,0.688 0.537,1.105c0.038,0.418 -0.065,0.849 -0.327,1.201l-8.96,12.028c5.056,2.044 10.119,0.519 13.661,-4.466l6.278,-8.429c0.524,-0.704 0.43,-1.731 -0.209,-2.307l-0.717,-8.493l-8.161,-7.342l-7.446,1.15Z" style="fill:#a4a4a4;fill-rule:nonzero;stroke:#484848;stroke-width:1.49px;"/><path id="path4304" d="M90.575,184.609c9.526,0.063 12.949,-7.532 16.798,-14.508l-0.527,-10.748l3.07,0.434l0.176,9.64l0.482,1.446l-7.762,11.085l-4.518,2.941l-4.912,0.771l-2.807,-1.061Z" style="fill:#808080;fill-rule:nonzero;"/><path id="path4306" d="M94.16,154.836c-0.639,-0.576 -1.574,-0.473 -2.098,0.23l-6.278,8.429c-3.947,5.257 -4.268,10.489 -1.041,15.944l9.015,-12.102c0.262,-0.352 0.627,-0.549 1.006,-0.59c0.38,-0.042 0.772,0.072 1.092,0.36l3.648,3.282c0.32,0.287 0.499,0.688 0.537,1.105c0.038,0.418 -0.065,0.849 -0.327,1.201l-8.96,12.028c5.056,2.044 10.119,0.519 13.661,-4.466l6.278,-8.429c0.524,-0.704 0.43,-1.731 -0.209,-2.307l-0.717,-8.493l-8.161,-7.342l-7.446,1.15Z" style="fill:none;fill-rule:nonzero;stroke:#484848;stroke-width:1.49px;"/><path id="path4302" d="M84.962,176.415c-4.015,-6.268 3.732,-14.45 8.157,-20.002l8.64,-1.398c0.082,1.54 -0.098,1.568 0.798,2.725c-0.714,-0.009 -6.701,0.904 -7.166,1.109c-5.338,2.355 -12.073,10.996 -10.429,17.566Z" style="fill:#fff;fill-opacity:0.63;fill-rule:nonzero;"/><path id="path4224" d="M117.541,151.877c0.979,4.697 -1.746,9.391 -6.086,10.484c-4.341,1.093 -8.653,-1.829 -9.632,-6.526c-0.979,-4.697 1.746,-9.391 6.086,-10.484c4.341,-1.093 8.653,1.829 9.632,6.526Z" style="fill:#a4a4a4;fill-rule:nonzero;stroke:#484848;stroke-width:1.45px;"/><path id="path4286" d="M103.004,154.925c1.937,-4.348 5.483,-6.692 10.216,-7.559c-5.502,-1.549 -9.804,-0.77 -10.216,7.559Z" style="fill:#fff;fill-opacity:0.63;fill-rule:nonzero;"/><path id="path4288" d="M124.36,117.265c0.565,-9.497 6.259,-13.303 13.19,-14.384c-7.014,-2.89 -16.637,4.296 -13.19,14.384Z" style="fill:#fff;fill-opacity:0.63;fill-rule:nonzero;"/></g><g id="g4344"><rect id="rect4346" x="171.946" y="196.952" width="25.802" height="9.816" style="fill:#a4a4a4;stroke:#484848;stroke-width:1.47px;"/><rect id="rect4348" x="171.946" y="187.697" width="25.802" height="9.816" style="fill:#a4a4a4;stroke:#484848;stroke-width:1.47px;"/><rect id="rect4350" x="171.946" y="178.443" width="25.802" height="9.816" style="fill:#a4a4a4;stroke:#484848;stroke-width:1.47px;"/><rect id="rect4352" x="172.194" y="168.9" width="25.802" height="9.816" style="fill:#a4a4a4;stroke:#484848;stroke-width:1.47px;"/><path id="path4354" d="M180.009,168.534c-1.622,3.093 -2.97,6.218 0,9.815c-1.866,2.846 -3.72,5.694 0.124,9.543c-3.59,3.688 -2.184,6.46 -0.248,9.134c-3.187,5.905 -0.36,6.755 0,9.68l-7.443,0.136l0.62,-2.045l-1.489,-2.454l0.745,-3.544l2.357,-2.045l-2.481,-2.045l-0.496,-2.999l2.604,-3.818l-1.736,-1.772l-0.62,-3.408l2.977,-4.499l-2.233,-1.909l-0.868,-2.862l1.612,-3.409l1.613,-1.499l4.341,0.409l0.621,-0.409Z" style="fill:#808080;fill-rule:nonzero;"/><path id="path4356" d="M190.03,168.63c1.621,3.093 2.97,6.218 0,9.816c1.865,2.846 3.719,5.693 -0.124,9.543c3.59,3.687 2.183,6.459 0.248,9.134c3.187,5.905 0.359,6.755 0,9.679l7.442,0.137l-0.62,-2.045l1.489,-2.454l-0.744,-3.545l-2.357,-2.045l2.481,-2.045l0.496,-2.999l-2.605,-3.817l1.736,-1.772l0.621,-3.409l-2.977,-4.499l2.232,-1.908l0.869,-2.863l-1.613,-3.408l-1.612,-1.5l-4.342,0.409l-0.62,-0.409Z" style="fill:#fff;fill-opacity:0.63;fill-rule:nonzero;"/><rect id="rect4358" x="171.946" y="197.434" width="25.802" height="9.334" style="fill:none;stroke:#484848;stroke-width:1.47px;"/><rect id="rect4360" x="171.946" y="188.276" width="25.802" height="9.237" style="fill:none;stroke:#484848;stroke-width:1.47px;"/><rect id="rect4362" x="171.946" y="178.829" width="25.802" height="9.43" style="fill:none;stroke:#484848;stroke-width:1.47px;"/><rect id="rect4364" x="172.194" y="168.9" width="25.802" height="9.816" style="fill:none;stroke:#484848;stroke-width:1.47px;"/><path id="path4366" d="M171.698,220.748c2.702,0.243 43.285,0.781 44.16,-0.273c0,-10.466 -10.313,-18.95 -23.034,-18.95c-7.234,0 -16.142,1.38 -20.365,3.762c-0.707,1.426 -0.761,10.946 -0.761,15.461Z" style="fill:#a4a4a4;fill-rule:nonzero;stroke:#484848;stroke-width:1.47px;"/><path id="path4368" d="M215.734,218.566c-22.347,-0.867 -43.849,2.875 -39.323,-14.723l-4.341,1.636l-0.372,15.541l43.912,-0.136l0.124,-2.318Z" style="fill:#808080;fill-rule:nonzero;"/><path id="path4370" d="M171.698,220.748c2.702,0.243 43.285,0.781 44.16,-0.273c0,-10.466 -10.313,-18.95 -23.034,-18.95c-7.234,0 -16.142,1.38 -20.365,3.762c-0.707,1.426 -0.761,10.946 -0.761,15.461Z" style="fill:none;fill-rule:nonzero;stroke:#484848;stroke-width:1.47px;"/><path id="path4372" d="M211.568,213.15c-4.969,-4.637 -9.99,-8.242 -22.094,-9.363c9.025,-1.672 18.21,1.075 22.094,9.363Z" style="fill:#fff;fill-opacity:0.63;fill-rule:nonzero;"/></g><rect id="rect4181" x="209.136" y="55.887" width="9.038" height="21.813" style="fill:#a4a4a4;stroke:#484848;stroke-width:1.47px;"/><rect id="rect4274" x="206.544" y="56.664" width="10.964" height="5.013" style="fill:#e3e3e3;"/><rect id="rect4276" x="206.511" y="71.919" width="10.964" height="5.013" style="fill-opacity:0.35;"/><rect id="rect3654" x="155.471" y="90.075" width="25.6" height="10.599" style="fill:#a4a4a4;stroke:#484848;stroke-width:1.47px;"/><rect id="rect4203" x="153.402" y="100.718" width="29.914" height="10.521" style="fill:#a4a4a4;stroke:#484848;stroke-width:1.47px;"/><rect id="rect3652" x="134.994" y="105.689" width="64.928" height="63.247" style="fill:#a4a4a4;stroke:#484848;stroke-width:1.47px;"/><rect id="rect4179" x="116.51" y="55.887" width="9.038" height="21.813" style="fill:#a4a4a4;stroke:#484848;stroke-width:1.47px;"/><rect id="rect4270" x="117.065" y="56.591" width="10.964" height="5.013" style="fill:#e3e3e3;"/><rect id="rect4272" x="117.24" y="72.015" width="10.964" height="5.013" style="fill-opacity:0.35;"/><rect id="rect4166" x="124.865" y="42.282" width="84.654" height="47.853" style="fill:#a4a4a4;stroke:#484848;stroke-width:1.47px;"/><path id="rect4187" d="M197.495,43.033l11.341,0l0,50.831l-11.341,0c3.276,-16.943 5.226,-33.887 0,-50.831Z" style="fill-opacity:0.33;fill-rule:nonzero;"/><path id="rect4168" d="M121.138,69.932l11.58,0l10.842,12.637l46.319,0l12.318,-12.637l11.58,0l0,26.052l-92.639,0l0,-26.052Z" style="fill:#a4a4a4;fill-rule:nonzero;stroke:#484848;stroke-width:1.47px;"/><path id="path4171" d="M162.035,58.77c0,5.991 -4.419,10.848 -9.871,10.848c-5.451,0 -9.87,-4.857 -9.87,-10.848c0,-5.991 4.419,-10.848 9.87,-10.848c5.452,0 9.871,4.857 9.871,10.848Z" style="fill:#fff;fill-rule:nonzero;stroke:#484848;stroke-width:0.92px;stroke-linecap:butt;stroke-linejoin:miter;"/><path id="path4173" d="M191.629,58.185c0,5.992 -4.419,10.848 -9.871,10.848c-5.451,0 -9.87,-4.856 -9.87,-10.848c0,-5.991 4.419,-10.847 9.87,-10.847c5.452,0 9.871,4.856 9.871,10.847Z" style="fill:#fff;fill-rule:nonzero;stroke:#484848;stroke-width:0.92px;stroke-linecap:butt;stroke-linejoin:miter;"/><path id="path4175" d="M155.523,61.52c0,3.773 -2.783,6.831 -6.215,6.831c-3.433,0 -6.216,-3.058 -6.216,-6.831c0,-3.773 2.783,-6.831 6.216,-6.831c3.432,0 6.215,3.058 6.215,6.831Z" style="fill-rule:nonzero;"/><path id="path4177" d="M185.117,61.131c0,3.772 -2.783,6.831 -6.216,6.831c-3.433,0 -6.216,-3.059 -6.216,-6.831c0,-3.773 2.783,-6.832 6.216,-6.832c3.433,0 6.216,3.059 6.216,6.832Z" style="fill-rule:nonzero;"/><path id="path4185" d="M126.257,68.157l0.709,-23.566l37.036,-0.584l-33.847,3.506l-3.898,20.644Z" style="fill:#e5e5e5;fill-rule:nonzero;"/><path id="rect4189" d="M202.456,70.689l10.633,-0.049l0,24.539l-17.012,0c1.474,-5.082 2.361,-10.486 -0.088,-17.724l6.467,-6.766Z" style="fill-opacity:0.33;fill-rule:nonzero;"/><path id="path4192" d="M122.548,75.922l0.067,18.679l30.968,0.031l-28.166,-2.93l-2.869,-15.78Z" style="fill:#e5e5e5;fill-rule:nonzero;"/><path id="rect4194" d="M164.179,18.572l3.226,0l4.465,23.721l-12.404,0l4.713,-23.721Z" style="fill:#a4a4a4;fill-rule:nonzero;stroke:#484848;stroke-width:1.47px;stroke-linecap:butt;stroke-linejoin:miter;"/><path id="path4197" d="M173.855,12.164c0,5.045 -3.499,9.134 -7.815,9.134c-4.316,0 -7.815,-4.089 -7.815,-9.134c0,-5.044 3.499,-9.134 7.815,-9.134c4.316,0 7.815,4.09 7.815,9.134Z" style="fill:#604aff;fill-rule:nonzero;stroke:#00054d;stroke-width:1.47px;stroke-linecap:butt;stroke-linejoin:miter;"/><path id="path4199" d="M160.336,8.569c3.537,-2.347 7.364,-2.114 11.405,0.021c-3.491,-4.543 -7.159,-6.49 -11.405,-0.021Z" style="fill:#fff;fill-opacity:0.63;fill-rule:nonzero;"/><path id="path4201" d="M159.168,14.706c5.116,3.837 9.779,4.331 13.727,-0.434c-1.004,6.398 -10.288,10.006 -13.727,0.434Z" style="fill-opacity:0.35;fill-rule:nonzero;"/><rect id="rect4205" x="153.126" y="152.038" width="28.574" height="3.834" style="fill:#484848;stroke:#484848;stroke-width:0.94px;"/><rect id="rect4207" x="153.476" y="159.364" width="28.574" height="3.834" style="fill:#484848;stroke:#484848;stroke-width:0.94px;"/><path id="path4209" d="M148.383,157.76c0,2.742 -2.023,4.966 -4.519,4.966c-2.496,0 -4.519,-2.224 -4.519,-4.966c0,-2.743 2.023,-4.966 4.519,-4.966c2.496,0 4.519,2.223 4.519,4.966Z" style="fill:#f00;fill-rule:nonzero;stroke:#484848;stroke-width:1.49px;"/><path id="path4211" d="M196.099,157.76c0,2.742 -2.023,4.966 -4.519,4.966c-2.495,0 -4.518,-2.224 -4.518,-4.966c0,-2.743 2.023,-4.966 4.518,-4.966c2.496,0 4.519,2.223 4.519,4.966Z" style="fill:#f00;fill-rule:nonzero;stroke:#484848;stroke-width:1.49px;"/><rect id="rect4213" x="138.643" y="110.286" width="57.365" height="38.56" style="fill:#dbfffc;stroke:#484848;stroke-width:1.47px;"/><path id="path4215" d="M138.993,132.65l6.667,0l4.912,-16.58l2.982,16.773l3.684,-7.326l5.614,16.388l3.333,-10.604l7.719,-0.193l3.157,-12.725l3.158,20.63l3.158,-13.496l1.754,6.941l10.175,0" style="fill:none;fill-rule:nonzero;stroke:#00a799;stroke-width:1.47px;"/><path id="path4280" d="M140.344,147.064l0.013,-31.814c-0.064,-2.102 1.464,-3.186 2.978,-3.257l49.221,-0.137l-47.286,3.146c-1.683,0.234 -2.391,1.234 -2.438,2.752l-2.576,23.815l0.088,5.495Z" style="fill:#fff;fill-opacity:0.95;fill-rule:nonzero;"/><rect id="rect4278" x="138.643" y="110.286" width="57.365" height="38.56" style="fill:none;stroke:#484848;stroke-width:1.47px;"/><path id="path4282" d="M140.427,156.427c2.133,-1.273 4.44,-1.147 6.877,0.012c-2.105,-2.465 -4.317,-3.522 -6.877,-0.012Z" style="fill:#fff;fill-opacity:0.63;fill-rule:nonzero;"/><path id="path4284" d="M188.185,156.393c2.133,-1.273 4.44,-1.147 6.877,0.012c-2.105,-2.465 -4.317,-3.522 -6.877,-0.012Z" style="fill:#fff;fill-opacity:0.63;fill-rule:nonzero;"/><g id="g4328"><rect id="rect4249" x="138.626" y="197.224" width="25.802" height="9.816" style="fill:#a4a4a4;stroke:#484848;stroke-width:1.47px;"/><rect id="rect4247" x="138.626" y="187.97" width="25.802" height="9.816" style="fill:#a4a4a4;stroke:#484848;stroke-width:1.47px;"/><rect id="rect4245" x="138.626" y="178.716" width="25.802" height="9.816" style="fill:#a4a4a4;stroke:#484848;stroke-width:1.47px;"/><rect id="rect4241" x="138.378" y="169.173" width="25.802" height="9.816" style="fill:#a4a4a4;stroke:#484848;stroke-width:1.47px;"/><path id="path4314" d="M156.365,168.806c1.621,3.093 2.969,6.218 0,9.816c1.865,2.846 3.719,5.694 -0.125,9.543c3.591,3.687 2.184,6.459 0.249,9.134c3.186,5.905 0.359,6.755 0,9.679l7.442,0.137l-0.62,-2.045l1.489,-2.454l-0.745,-3.545l-2.357,-2.045l2.481,-2.044l0.497,-3l-2.605,-3.817l1.736,-1.772l0.621,-3.408l-2.978,-4.499l2.233,-1.909l0.869,-2.863l-1.613,-3.408l-1.613,-1.5l-4.341,0.409l-0.62,-0.409Z" style="fill:#808080;fill-rule:nonzero;"/><path id="path4326" d="M146.343,168.903c-1.621,3.093 -2.969,6.218 0,9.815c-1.865,2.846 -3.719,5.694 0.124,9.544c-3.59,3.687 -2.183,6.459 -0.248,9.134c-3.187,5.904 -0.359,6.754 0,9.679l-7.442,0.136l0.62,-2.045l-1.489,-2.454l0.745,-3.544l2.356,-2.045l-2.48,-2.045l-0.497,-2.999l2.605,-3.817l-1.736,-1.773l-0.621,-3.408l2.978,-4.499l-2.233,-1.908l-0.869,-2.863l1.613,-3.409l1.613,-1.499l4.341,0.409l0.62,-0.409Z" style="fill:#fff;fill-opacity:0.63;fill-rule:nonzero;"/><rect id="rect4324" x="138.626" y="197.706" width="25.802" height="9.334" style="fill:none;stroke:#484848;stroke-width:1.47px;"/><rect id="rect4322" x="138.626" y="188.548" width="25.802" height="9.237" style="fill:none;stroke:#484848;stroke-width:1.47px;"/><rect id="rect4320" x="138.626" y="179.101" width="25.802" height="9.43" style="fill:none;stroke:#484848;stroke-width:1.47px;"/><rect id="rect4318" x="138.378" y="169.173" width="25.802" height="9.816" style="fill:none;stroke:#484848;stroke-width:1.47px;"/><path id="path4259" d="M164.676,221.02c-2.703,0.243 -43.286,0.781 -44.161,-0.272c0,-10.466 10.313,-18.95 23.034,-18.95c7.234,0 16.142,1.38 20.365,3.762c0.707,1.426 0.762,10.946 0.762,15.46Z" style="fill:#a4a4a4;fill-rule:nonzero;stroke:#484848;stroke-width:1.47px;"/><path id="path4308" d="M120.639,218.839c22.347,-0.867 43.849,2.874 39.323,-14.723l4.341,1.636l0.373,15.541l-43.913,-0.136l-0.124,-2.318Z" style="fill:#808080;fill-rule:nonzero;"/><path id="path4310" d="M164.676,221.02c-2.703,0.243 -43.286,0.781 -44.161,-0.272c0,-10.466 10.313,-18.95 23.034,-18.95c7.234,0 16.142,1.38 20.365,3.762c0.707,1.426 0.762,10.946 0.762,15.46Z" style="fill:none;fill-rule:nonzero;stroke:#484848;stroke-width:1.47px;"/><path id="path4312" d="M124.805,213.423c4.97,-4.638 9.99,-8.243 22.094,-9.364c-9.025,-1.671 -18.21,1.075 -22.094,9.364Z" style="fill:#fff;fill-opacity:0.63;fill-rule:nonzero;"/></g></g><g><g id="g43921" serif:id="g4392"><path id="rect43941" serif:id="rect4394" d="M207.738,336.022l8.741,5.686l8.492,-15.766l-8.741,-5.686l-8.492,15.766Z" style="fill:#a4a4a4;stroke:#484848;stroke-width:1.77px;"/><path id="path43961" serif:id="path4396" d="M210.1,340.65l0.338,-0.943l6.99,-17.798l-1.468,-1.069l-9.425,18.286l2.772,1.18l0.793,0.344Z" style="fill:#6b6b6b;fill-opacity:0.63;fill-rule:nonzero;"/><path id="path43981" serif:id="path4398" d="M227.627,320.332l-0.471,0.871l-8.537,15.781l-1.651,0.573l7.379,-19.388l2.547,1.685l0.733,0.478Z" style="fill:#fff;fill-opacity:0.63;fill-rule:nonzero;"/><path id="rect44001" serif:id="rect4400" d="M207.738,336.022l8.741,5.686l8.492,-15.766l-8.741,-5.686l-8.492,15.766Z" style="fill:none;stroke:#484848;stroke-width:1.77px;"/><path id="rect44021" serif:id="rect4402" d="M199.92,347.169l11.334,7.374l9.116,-16.925l-11.334,-7.374l-9.116,16.925Z" style="fill:#a4a4a4;stroke:#484848;stroke-width:1.53px;"/><path id="path44041" serif:id="path4404" d="M219.44,337.851l-0.471,0.871l-8.537,15.78l-1.651,0.573l7.379,-19.388l2.547,1.685l0.733,0.479Z" style="fill:#fff;fill-opacity:0.63;fill-rule:nonzero;"/><path id="path44061" serif:id="path4406" d="M203.526,350.329l0.338,-0.943l6.989,-17.797l-1.467,-1.069l-9.425,18.285l2.771,1.18l0.794,0.344Z" style="fill:#6b6b6b;fill-opacity:0.63;fill-rule:nonzero;"/><path id="rect44081" serif:id="rect4408" d="M199.92,347.169l11.334,7.374l9.116,-16.925l-11.334,-7.374l-9.116,16.925Z" style="fill:none;stroke:#484848;stroke-width:1.53px;"/><path id="path44101" serif:id="path4410" d="M187.805,357.701c0,-7.115 5.249,-12.883 11.722,-12.883c6.474,0 11.722,5.768 11.722,12.883c0,7.115 -5.248,12.882 -11.722,12.882c-6.473,0 -11.722,-5.767 -11.722,-12.882Z" style="fill:#a4a4a4;fill-rule:nonzero;stroke:#484848;stroke-width:1.49px;"/><path id="path44121" serif:id="path4412" d="M239.25,316.261c0.639,0.576 1.574,0.473 2.098,-0.23l6.278,-8.429c3.947,-5.257 4.268,-10.489 1.041,-15.944l-9.015,12.102c-0.262,0.352 -0.627,0.549 -1.006,0.59c-0.38,0.042 -0.772,-0.072 -1.092,-0.36l-3.648,-3.282c-0.32,-0.287 -0.499,-0.688 -0.537,-1.105c-0.038,-0.418 0.065,-0.849 0.327,-1.201l8.959,-12.028c-5.055,-2.044 -10.118,-0.519 -13.66,4.466l-6.278,8.429c-0.524,0.704 -0.43,1.731 0.209,2.307l0.717,8.493l8.161,7.342l7.446,-1.15Z" style="fill:#a4a4a4;fill-rule:nonzero;stroke:#484848;stroke-width:1.49px;"/><path id="path44141" serif:id="path4414" d="M242.835,286.488c-9.526,-0.063 -12.949,7.532 -16.798,14.508l0.527,10.748l-3.07,-0.434l-0.176,-9.64l-0.482,-1.446l7.762,-11.085l4.518,-2.941l4.912,-0.771l2.807,1.061Z" style="fill:#808080;fill-rule:nonzero;"/><path id="path44161" serif:id="path4416" d="M239.25,316.261c0.639,0.576 1.574,0.473 2.098,-0.23l6.278,-8.429c3.947,-5.257 4.268,-10.489 1.041,-15.944l-9.015,12.102c-0.262,0.352 -0.627,0.549 -1.006,0.59c-0.38,0.042 -0.772,-0.072 -1.092,-0.36l-3.648,-3.282c-0.32,-0.287 -0.499,-0.688 -0.537,-1.105c-0.038,-0.418 0.065,-0.849 0.327,-1.201l8.959,-12.028c-5.055,-2.044 -10.118,-0.519 -13.66,4.466l-6.278,8.429c-0.524,0.704 -0.43,1.731 0.209,2.307l0.717,8.493l8.161,7.342l7.446,-1.15Z" style="fill:none;fill-rule:nonzero;stroke:#484848;stroke-width:1.49px;"/><path id="path44181" serif:id="path4418" d="M248.448,294.682c4.015,6.268 -3.732,14.45 -8.157,20.002l-8.64,1.398c-0.082,-1.54 0.098,-1.568 -0.798,-2.725c0.714,0.009 6.701,-0.904 7.166,-1.109c5.338,-2.355 12.073,-10.996 10.429,-17.566Z" style="fill:#fff;fill-opacity:0.63;fill-rule:nonzero;"/><path id="path44201" serif:id="path4420" d="M215.869,319.22c-0.979,-4.697 1.746,-9.391 6.086,-10.484c4.341,-1.093 8.653,1.829 9.632,6.526c0.979,4.697 -1.746,9.391 -6.086,10.484c-4.341,1.093 -8.653,-1.829 -9.632,-6.526Z" style="fill:#a4a4a4;fill-rule:nonzero;stroke:#484848;stroke-width:1.45px;"/><path id="path44221" serif:id="path4422" d="M230.406,316.172c-1.937,4.348 -5.483,6.692 -10.216,7.559c5.502,1.549 9.804,0.77 10.216,-7.559Z" style="fill:#fff;fill-opacity:0.63;fill-rule:nonzero;"/><path id="path44241" serif:id="path4424" d="M209.05,353.832c-0.565,9.497 -6.259,13.303 -13.19,14.384c7.014,2.89 16.637,-4.296 13.19,-14.384Z" style="fill:#fff;fill-opacity:0.63;fill-rule:nonzero;"/></g><g id="g43741" serif:id="g4374"><path id="rect42201" serif:id="rect4220" d="M125.672,336.022l-8.741,5.686l-8.492,-15.766l8.741,-5.686l8.492,15.766Z" style="fill:#a4a4a4;stroke:#484848;stroke-width:1.77px;"/><path id="path42981" serif:id="path4298" d="M123.31,340.65l-0.338,-0.943l-6.99,-17.798l1.468,-1.069l9.425,18.286l-2.772,1.18l-0.793,0.344Z" style="fill:#6b6b6b;fill-opacity:0.63;fill-rule:nonzero;"/><path id="path42961" serif:id="path4296" d="M105.783,320.332l0.471,0.871l8.537,15.781l1.651,0.573l-7.379,-19.388l-2.547,1.685l-0.733,0.478Z" style="fill:#fff;fill-opacity:0.63;fill-rule:nonzero;"/><path id="rect43001" serif:id="rect4300" d="M125.672,336.022l-8.741,5.686l-8.492,-15.766l8.741,-5.686l8.492,15.766Z" style="fill:none;stroke:#484848;stroke-width:1.77px;"/><path id="rect42221" serif:id="rect4222" d="M133.49,347.169l-11.334,7.374l-9.116,-16.925l11.334,-7.374l9.116,16.925Z" style="fill:#a4a4a4;stroke:#484848;stroke-width:1.53px;"/><path id="path42901" serif:id="path4290" d="M113.97,337.851l0.471,0.871l8.537,15.78l1.651,0.573l-7.379,-19.388l-2.547,1.685l-0.733,0.479Z" style="fill:#fff;fill-opacity:0.63;fill-rule:nonzero;"/><path id="path42941" serif:id="path4294" d="M129.884,350.329l-0.338,-0.943l-6.989,-17.797l1.467,-1.069l9.425,18.285l-2.771,1.18l-0.794,0.344Z" style="fill:#6b6b6b;fill-opacity:0.63;fill-rule:nonzero;"/><path id="rect42921" serif:id="rect4292" d="M133.49,347.169l-11.334,7.374l-9.116,-16.925l11.334,-7.374l9.116,16.925Z" style="fill:none;stroke:#484848;stroke-width:1.53px;"/><path id="path42171" serif:id="path4217" d="M145.605,357.701c0,-7.115 -5.249,-12.883 -11.722,-12.883c-6.474,0 -11.722,5.768 -11.722,12.883c0,7.115 5.248,12.882 11.722,12.882c6.473,0 11.722,-5.767 11.722,-12.882Z" style="fill:#a4a4a4;fill-rule:nonzero;stroke:#484848;stroke-width:1.49px;"/><path id="path42301" serif:id="path4230" d="M94.16,316.261c-0.639,0.576 -1.574,0.473 -2.098,-0.23l-6.278,-8.429c-3.947,-5.257 -4.268,-10.489 -1.041,-15.944l9.015,12.102c0.262,0.352 0.627,0.549 1.006,0.59c0.38,0.042 0.772,-0.072 1.092,-0.36l3.648,-3.282c0.32,-0.287 0.499,-0.688 0.537,-1.105c0.038,-0.418 -0.065,-0.849 -0.327,-1.201l-8.96,-12.028c5.056,-2.044 10.119,-0.519 13.661,4.466l6.278,8.429c0.524,0.704 0.43,1.731 -0.209,2.307l-0.717,8.493l-8.161,7.342l-7.446,-1.15Z" style="fill:#a4a4a4;fill-rule:nonzero;stroke:#484848;stroke-width:1.49px;"/><path id="path43041" serif:id="path4304" d="M90.575,286.488c9.526,-0.063 12.949,7.532 16.798,14.508l-0.527,10.748l3.07,-0.434l0.176,-9.64l0.482,-1.446l-7.762,-11.085l-4.518,-2.941l-4.912,-0.771l-2.807,1.061Z" style="fill:#808080;fill-rule:nonzero;"/><path id="path43061" serif:id="path4306" d="M94.16,316.261c-0.639,0.576 -1.574,0.473 -2.098,-0.23l-6.278,-8.429c-3.947,-5.257 -4.268,-10.489 -1.041,-15.944l9.015,12.102c0.262,0.352 0.627,0.549 1.006,0.59c0.38,0.042 0.772,-0.072 1.092,-0.36l3.648,-3.282c0.32,-0.287 0.499,-0.688 0.537,-1.105c0.038,-0.418 -0.065,-0.849 -0.327,-1.201l-8.96,-12.028c5.056,-2.044 10.119,-0.519 13.661,4.466l6.278,8.429c0.524,0.704 0.43,1.731 -0.209,2.307l-0.717,8.493l-8.161,7.342l-7.446,-1.15Z" style="fill:none;fill-rule:nonzero;stroke:#484848;stroke-width:1.49px;"/><path id="path43021" serif:id="path4302" d="M84.962,294.682c-4.015,6.268 3.732,14.45 8.157,20.002l8.64,1.398c0.082,-1.54 -0.098,-1.568 0.798,-2.725c-0.714,0.009 -6.701,-0.904 -7.166,-1.109c-5.338,-2.355 -12.073,-10.996 -10.429,-17.566Z" style="fill:#fff;fill-opacity:0.63;fill-rule:nonzero;"/><path id="path42241" serif:id="path4224" d="M117.541,319.22c0.979,-4.697 -1.746,-9.391 -6.086,-10.484c-4.341,-1.093 -8.653,1.829 -9.632,6.526c-0.979,4.697 1.746,9.391 6.086,10.484c4.341,1.093 8.653,-1.829 9.632,-6.526Z" style="fill:#a4a4a4;fill-rule:nonzero;stroke:#484848;stroke-width:1.45px;"/><path id="path42861" serif:id="path4286" d="M103.004,316.172c1.937,4.348 5.483,6.692 10.216,7.559c-5.502,1.549 -9.804,0.77 -10.216,-7.559Z" style="fill:#fff;fill-opacity:0.63;fill-rule:nonzero;"/><path id="path42881" serif:id="path4288" d="M124.36,353.832c0.565,9.497 6.259,13.303 13.19,14.384c-7.014,2.89 -16.637,-4.296 -13.19,-14.384Z" style="fill:#fff;fill-opacity:0.63;fill-rule:nonzero;"/></g><g id="g43441" serif:id="g4344"><rect id="rect43461" serif:id="rect4346" x="171.946" y="264.329" width="25.802" height="9.816" style="fill:#a4a4a4;stroke:#484848;stroke-width:1.47px;"/><rect id="rect43481" serif:id="rect4348" x="171.946" y="273.584" width="25.802" height="9.816" style="fill:#a4a4a4;stroke:#484848;stroke-width:1.47px;"/><rect id="rect43501" serif:id="rect4350" x="171.946" y="282.838" width="25.802" height="9.816" style="fill:#a4a4a4;stroke:#484848;stroke-width:1.47px;"/><rect id="rect43521" serif:id="rect4352" x="172.194" y="292.381" width="25.802" height="9.816" style="fill:#a4a4a4;stroke:#484848;stroke-width:1.47px;"/><path id="path43541" serif:id="path4354" d="M180.009,302.563c-1.622,-3.093 -2.97,-6.218 0,-9.815c-1.866,-2.846 -3.72,-5.694 0.124,-9.543c-3.59,-3.688 -2.184,-6.46 -0.248,-9.134c-3.187,-5.905 -0.36,-6.755 0,-9.68l-7.443,-0.136l0.62,2.045l-1.489,2.454l0.745,3.544l2.357,2.045l-2.481,2.045l-0.496,2.999l2.604,3.818l-1.736,1.772l-0.62,3.408l2.977,4.499l-2.233,1.909l-0.868,2.862l1.612,3.409l1.613,1.499l4.341,-0.409l0.621,0.409Z" style="fill:#808080;fill-rule:nonzero;"/><path id="path43561" serif:id="path4356" d="M190.03,302.467c1.621,-3.093 2.97,-6.218 0,-9.816c1.865,-2.846 3.719,-5.693 -0.124,-9.543c3.59,-3.687 2.183,-6.459 0.248,-9.134c3.187,-5.905 0.359,-6.755 0,-9.679l7.442,-0.137l-0.62,2.045l1.489,2.454l-0.744,3.545l-2.357,2.045l2.481,2.045l0.496,2.999l-2.605,3.817l1.736,1.772l0.621,3.409l-2.977,4.499l2.232,1.908l0.869,2.863l-1.613,3.408l-1.612,1.5l-4.342,-0.409l-0.62,0.409Z" style="fill:#fff;fill-opacity:0.63;fill-rule:nonzero;"/><rect id="rect43581" serif:id="rect4358" x="171.946" y="264.329" width="25.802" height="9.334" style="fill:none;stroke:#484848;stroke-width:1.47px;"/><rect id="rect43601" serif:id="rect4360" x="171.946" y="273.584" width="25.802" height="9.237" style="fill:none;stroke:#484848;stroke-width:1.47px;"/><rect id="rect43621" serif:id="rect4362" x="171.946" y="282.838" width="25.802" height="9.43" style="fill:none;stroke:#484848;stroke-width:1.47px;"/><rect id="rect43641" serif:id="rect4364" x="172.194" y="292.381" width="25.802" height="9.816" style="fill:none;stroke:#484848;stroke-width:1.47px;"/><path id="path43661" serif:id="path4366" d="M171.698,250.349c2.702,-0.243 43.285,-0.781 44.16,0.273c0,10.466 -10.313,18.95 -23.034,18.95c-7.234,0 -16.142,-1.38 -20.365,-3.762c-0.707,-1.426 -0.761,-10.946 -0.761,-15.461Z" style="fill:#a4a4a4;fill-rule:nonzero;stroke:#484848;stroke-width:1.47px;"/><path id="path43681" serif:id="path4368" d="M215.734,252.531c-22.347,0.867 -43.849,-2.875 -39.323,14.723l-4.341,-1.636l-0.372,-15.541l43.912,0.136l0.124,2.318Z" style="fill:#808080;fill-rule:nonzero;"/><path id="path43701" serif:id="path4370" d="M171.698,250.349c2.702,-0.243 43.285,-0.781 44.16,0.273c0,10.466 -10.313,18.95 -23.034,18.95c-7.234,0 -16.142,-1.38 -20.365,-3.762c-0.707,-1.426 -0.761,-10.946 -0.761,-15.461Z" style="fill:none;fill-rule:nonzero;stroke:#484848;stroke-width:1.47px;"/><path id="path43721" serif:id="path4372" d="M211.568,257.947c-4.969,4.637 -9.99,8.242 -22.094,9.363c9.025,1.672 18.21,-1.075 22.094,-9.363Z" style="fill:#fff;fill-opacity:0.63;fill-rule:nonzero;"/></g><rect id="rect41811" serif:id="rect4181" x="209.136" y="393.397" width="9.038" height="21.813" style="fill:#a4a4a4;stroke:#484848;stroke-width:1.47px;"/><rect id="rect42741" serif:id="rect4274" x="206.544" y="409.42" width="10.964" height="5.013" style="fill:#e3e3e3;"/><rect id="rect42761" serif:id="rect4276" x="206.511" y="394.165" width="10.964" height="5.013" style="fill-opacity:0.35;"/><rect id="rect36541" serif:id="rect3654" x="155.471" y="370.423" width="25.6" height="10.599" style="fill:#a4a4a4;stroke:#484848;stroke-width:1.47px;"/><rect id="rect42031" serif:id="rect4203" x="153.402" y="359.858" width="29.914" height="10.521" style="fill:#a4a4a4;stroke:#484848;stroke-width:1.47px;"/><rect id="rect36521" serif:id="rect3652" x="134.994" y="302.161" width="64.928" height="63.247" style="fill:#a4a4a4;stroke:#484848;stroke-width:1.47px;"/><rect id="rect41791" serif:id="rect4179" x="116.51" y="393.397" width="9.038" height="21.813" style="fill:#a4a4a4;stroke:#484848;stroke-width:1.47px;"/><rect id="rect42701" serif:id="rect4270" x="117.065" y="409.493" width="10.964" height="5.013" style="fill:#e3e3e3;"/><rect id="rect42721" serif:id="rect4272" x="117.24" y="394.069" width="10.964" height="5.013" style="fill-opacity:0.35;"/><rect id="rect41661" serif:id="rect4166" x="124.865" y="380.962" width="84.654" height="47.853" style="fill:#a4a4a4;stroke:#484848;stroke-width:1.47px;"/><path id="rect41871" serif:id="rect4187" d="M197.495,428.064l11.341,0l0,-50.831l-11.341,0c3.276,16.943 5.226,33.887 0,50.831Z" style="fill-opacity:0.33;fill-rule:nonzero;"/><path id="rect41681" serif:id="rect4168" d="M121.138,401.165l11.58,0l10.842,-12.637l46.319,0l12.318,12.637l11.58,0l0,-26.052l-92.639,0l0,26.052Z" style="fill:#a4a4a4;fill-rule:nonzero;stroke:#484848;stroke-width:1.47px;"/><path id="path41711" serif:id="path4171" d="M162.035,412.327c0,-5.991 -4.419,-10.848 -9.871,-10.848c-5.451,0 -9.87,4.857 -9.87,10.848c0,5.991 4.419,10.848 9.87,10.848c5.452,0 9.871,-4.857 9.871,-10.848Z" style="fill:#fff;fill-rule:nonzero;stroke:#484848;stroke-width:0.92px;stroke-linecap:butt;stroke-linejoin:miter;"/><path id="path41731" serif:id="path4173" d="M191.629,412.912c0,-5.992 -4.419,-10.848 -9.871,-10.848c-5.451,0 -9.87,4.856 -9.87,10.848c0,5.991 4.419,10.847 9.87,10.847c5.452,0 9.871,-4.856 9.871,-10.847Z" style="fill:#fff;fill-rule:nonzero;stroke:#484848;stroke-width:0.92px;stroke-linecap:butt;stroke-linejoin:miter;"/><path id="path41751" serif:id="path4175" d="M155.523,409.577c0,-3.773 -2.783,-6.831 -6.215,-6.831c-3.433,0 -6.216,3.058 -6.216,6.831c0,3.773 2.783,6.831 6.216,6.831c3.432,0 6.215,-3.058 6.215,-6.831Z" style="fill-rule:nonzero;"/><path id="path41771" serif:id="path4177" d="M185.117,409.966c0,-3.772 -2.783,-6.831 -6.216,-6.831c-3.433,0 -6.216,3.059 -6.216,6.831c0,3.773 2.783,6.832 6.216,6.832c3.433,0 6.216,-3.059 6.216,-6.832Z" style="fill-rule:nonzero;"/><path id="path41851" serif:id="path4185" d="M126.257,402.94l0.709,23.566l37.036,0.584l-33.847,-3.506l-3.898,-20.644Z" style="fill:#e5e5e5;fill-rule:nonzero;"/><path id="rect41891" serif:id="rect4189" d="M202.456,400.408l10.633,0.049l0,-24.539l-17.012,0c1.474,5.082 2.361,10.486 -0.088,17.724l6.467,6.766Z" style="fill-opacity:0.33;fill-rule:nonzero;"/><path id="path41921" serif:id="path4192" d="M122.548,395.175l0.067,-18.679l30.968,-0.031l-28.166,2.93l-2.869,15.78Z" style="fill:#e5e5e5;fill-rule:nonzero;"/><path id="rect41941" serif:id="rect4194" d="M164.179,452.525l3.226,0l4.465,-23.721l-12.404,0l4.713,23.721Z" style="fill:#a4a4a4;fill-rule:nonzero;stroke:#484848;stroke-width:1.47px;stroke-linecap:butt;stroke-linejoin:miter;"/><path id="path41971" serif:id="path4197" d="M173.855,458.933c0,-5.045 -3.499,-9.134 -7.815,-9.134c-4.316,0 -7.815,4.089 -7.815,9.134c0,5.044 3.499,9.134 7.815,9.134c4.316,0 7.815,-4.09 7.815,-9.134Z" style="fill:#604aff;fill-rule:nonzero;stroke:#00054d;stroke-width:1.47px;stroke-linecap:butt;stroke-linejoin:miter;"/><path id="path41991" serif:id="path4199" d="M160.336,462.528c3.537,2.347 7.364,2.114 11.405,-0.021c-3.491,4.543 -7.159,6.49 -11.405,0.021Z" style="fill:#fff;fill-opacity:0.63;fill-rule:nonzero;"/><path id="path42011" serif:id="path4201" d="M159.168,456.391c5.116,-3.837 9.779,-4.331 13.727,0.434c-1.004,-6.398 -10.288,-10.006 -13.727,-0.434Z" style="fill-opacity:0.35;fill-rule:nonzero;"/><rect id="rect42051" serif:id="rect4205" x="153.126" y="315.225" width="28.574" height="3.834" style="fill:#484848;stroke:#484848;stroke-width:0.94px;"/><rect id="rect42071" serif:id="rect4207" x="153.476" y="307.899" width="28.574" height="3.834" style="fill:#484848;stroke:#484848;stroke-width:0.94px;"/><path id="path42091" serif:id="path4209" d="M148.383,313.337c0,-2.742 -2.023,-4.966 -4.519,-4.966c-2.496,0 -4.519,2.224 -4.519,4.966c0,2.743 2.023,4.966 4.519,4.966c2.496,0 4.519,-2.223 4.519,-4.966Z" style="fill:#f00;fill-rule:nonzero;stroke:#484848;stroke-width:1.49px;"/><path id="path42111" serif:id="path4211" d="M196.099,313.337c0,-2.742 -2.023,-4.966 -4.519,-4.966c-2.495,0 -4.518,2.224 -4.518,4.966c0,2.743 2.023,4.966 4.518,4.966c2.496,0 4.519,-2.223 4.519,-4.966Z" style="fill:#f00;fill-rule:nonzero;stroke:#484848;stroke-width:1.49px;"/><rect id="rect42131" serif:id="rect4213" x="138.643" y="322.251" width="57.365" height="38.56" style="fill:#dbfffc;stroke:#484848;stroke-width:1.47px;"/><path id="path42151" serif:id="path4215" d="M138.993,338.447l6.667,0l4.912,16.58l2.982,-16.773l3.684,7.326l5.614,-16.388l3.333,10.604l7.719,0.193l3.157,12.725l3.158,-20.63l3.158,13.496l1.754,-6.941l10.175,0" style="fill:none;fill-rule:nonzero;stroke:#00a799;stroke-width:1.47px;"/><path id="path42801" serif:id="path4280" d="M140.344,324.033l0.013,31.814c-0.064,2.102 1.464,3.186 2.978,3.257l49.221,0.137l-47.286,-3.146c-1.683,-0.234 -2.391,-1.234 -2.438,-2.752l-2.576,-23.815l0.088,-5.495Z" style="fill:#fff;fill-opacity:0.95;fill-rule:nonzero;"/><rect id="rect42781" serif:id="rect4278" x="138.643" y="322.251" width="57.365" height="38.56" style="fill:none;stroke:#484848;stroke-width:1.47px;"/><path id="path42821" serif:id="path4282" d="M140.427,314.67c2.133,1.273 4.44,1.147 6.877,-0.012c-2.105,2.465 -4.317,3.522 -6.877,0.012Z" style="fill:#fff;fill-opacity:0.63;fill-rule:nonzero;"/><path id="path42841" serif:id="path4284" d="M188.185,314.704c2.133,1.273 4.44,1.147 6.877,-0.012c-2.105,2.465 -4.317,3.522 -6.877,0.012Z" style="fill:#fff;fill-opacity:0.63;fill-rule:nonzero;"/><g id="g43281" serif:id="g4328"><rect id="rect42491" serif:id="rect4249" x="138.626" y="264.057" width="25.802" height="9.816" style="fill:#a4a4a4;stroke:#484848;stroke-width:1.47px;"/><rect id="rect42471" serif:id="rect4247" x="138.626" y="273.311" width="25.802" height="9.816" style="fill:#a4a4a4;stroke:#484848;stroke-width:1.47px;"/><rect id="rect42451" serif:id="rect4245" x="138.626" y="282.565" width="25.802" height="9.816" style="fill:#a4a4a4;stroke:#484848;stroke-width:1.47px;"/><rect id="rect42411" serif:id="rect4241" x="138.378" y="292.108" width="25.802" height="9.816" style="fill:#a4a4a4;stroke:#484848;stroke-width:1.47px;"/><path id="path43141" serif:id="path4314" d="M156.365,302.291c1.621,-3.093 2.969,-6.218 0,-9.816c1.865,-2.846 3.719,-5.694 -0.125,-9.543c3.591,-3.687 2.184,-6.459 0.249,-9.134c3.186,-5.905 0.359,-6.755 0,-9.679l7.442,-0.137l-0.62,2.045l1.489,2.454l-0.745,3.545l-2.357,2.045l2.481,2.044l0.497,3l-2.605,3.817l1.736,1.772l0.621,3.408l-2.978,4.499l2.233,1.909l0.869,2.863l-1.613,3.408l-1.613,1.5l-4.341,-0.409l-0.62,0.409Z" style="fill:#808080;fill-rule:nonzero;"/><path id="path43261" serif:id="path4326" d="M146.343,302.194c-1.621,-3.093 -2.969,-6.218 0,-9.815c-1.865,-2.846 -3.719,-5.694 0.124,-9.544c-3.59,-3.687 -2.183,-6.459 -0.248,-9.134c-3.187,-5.904 -0.359,-6.754 0,-9.679l-7.442,-0.136l0.62,2.045l-1.489,2.454l0.745,3.544l2.356,2.045l-2.48,2.045l-0.497,2.999l2.605,3.817l-1.736,1.773l-0.621,3.408l2.978,4.499l-2.233,1.908l-0.869,2.863l1.613,3.409l1.613,1.499l4.341,-0.409l0.62,0.409Z" style="fill:#fff;fill-opacity:0.63;fill-rule:nonzero;"/><rect id="rect43241" serif:id="rect4324" x="138.626" y="264.057" width="25.802" height="9.334" style="fill:none;stroke:#484848;stroke-width:1.47px;"/><rect id="rect43221" serif:id="rect4322" x="138.626" y="273.312" width="25.802" height="9.237" style="fill:none;stroke:#484848;stroke-width:1.47px;"/><rect id="rect43201" serif:id="rect4320" x="138.626" y="282.566" width="25.802" height="9.43" style="fill:none;stroke:#484848;stroke-width:1.47px;"/><rect id="rect43181" serif:id="rect4318" x="138.378" y="292.108" width="25.802" height="9.816" style="fill:none;stroke:#484848;stroke-width:1.47px;"/><path id="path42591" serif:id="path4259" d="M164.676,250.077c-2.703,-0.243 -43.286,-0.781 -44.161,0.272c0,10.466 10.313,18.95 23.034,18.95c7.234,0 16.142,-1.38 20.365,-3.762c0.707,-1.426 0.762,-10.946 0.762,-15.46Z" style="fill:#a4a4a4;fill-rule:nonzero;stroke:#484848;stroke-width:1.47px;"/><path id="path43081" serif:id="path4308" d="M120.639,252.258c22.347,0.867 43.849,-2.874 39.323,14.723l4.341,-1.636l0.373,-15.541l-43.913,0.136l-0.124,2.318Z" style="fill:#808080;fill-rule:nonzero;"/><path id="path43101" serif:id="path4310" d="M164.676,250.077c-2.703,-0.243 -43.286,-0.781 -44.161,0.272c0,10.466 10.313,18.95 23.034,18.95c7.234,0 16.142,-1.38 20.365,-3.762c0.707,-1.426 0.762,-10.946 0.762,-15.46Z" style="fill:none;fill-rule:nonzero;stroke:#484848;stroke-width:1.47px;"/><path id="path43121" serif:id="path4312" d="M124.805,257.674c4.97,4.638 9.99,8.243 22.094,9.364c-9.025,1.671 -18.21,-1.075 -22.094,-9.364Z" style="fill:#fff;fill-opacity:0.63;fill-rule:nonzero;"/></g></g><path d="M2.5,236.497l340.157,0" style="fill:none;stroke:#ef003a;stroke-width:5px;stroke-miterlimit:1.5;"/></g></g></svg>