<?xml version="1.0" encoding="UTF-8" standalone="no"?><!DOCTYPE svg PUBLIC "-//W3C//DTD SVG 1.1//EN" "http://www.w3.org/Graphics/SVG/1.1/DTD/svg11.dtd"><svg width="100%" height="100%" viewBox="0 0 588 315" version="1.1" xmlns="http://www.w3.org/2000/svg" xmlns:xlink="http://www.w3.org/1999/xlink" xml:space="preserve" xmlns:serif="http://www.serif.com/" style="fill-rule:evenodd;clip-rule:evenodd;stroke-linecap:round;stroke-linejoin:round;stroke-miterlimit:1.5;"><g><g><path d="M248.098,129.156l-46.223,-54.084l-51.57,65.044l-90.745,-0.181l-58.81,-67.246l39.358,94.13l-22.932,75.032l91.08,-46.774l93.383,46.774l-15.044,-101.717l31.832,18.432l29.671,-29.41Z" style="fill:#b3ffdf;stroke:#000;stroke-width:1.5px;"/><ellipse cx="201.639" cy="113.821" rx="5.449" ry="5.304" style="fill:#86a8ff;"/></g><g><path d="M339.722,129.156l46.223,-54.084l51.57,65.044l90.745,-0.181l58.81,-67.246l-39.358,94.13l22.932,75.032l-91.08,-46.774l-93.383,46.774l15.044,-101.717l-31.832,18.432l-29.671,-29.41Z" style="fill:#b3ffdf;stroke:#000;stroke-width:1.5px;"/><ellipse cx="386.181" cy="113.821" rx="5.449" ry="5.304" style="fill:#86a8ff;"/></g><path d="M290.204,1.75l0,311.04" style="fill:none;stroke:#ff0938;stroke-width:3.5px;"/></g></svg>