<?xml version="1.0" encoding="UTF-8" standalone="no"?><!DOCTYPE svg PUBLIC "-//W3C//DTD SVG 1.1//EN" "http://www.w3.org/Graphics/SVG/1.1/DTD/svg11.dtd"><svg width="100%" height="100%" viewBox="0 0 315 512" version="1.1" xmlns="http://www.w3.org/2000/svg" xmlns:xlink="http://www.w3.org/1999/xlink" xml:space="preserve" xmlns:serif="http://www.serif.com/" style="fill-rule:evenodd;clip-rule:evenodd;stroke-linecap:round;stroke-linejoin:round;"><g><g><path id="rect4394" d="M199.215,147.624l8.906,-6.218l8.653,17.243l-8.907,6.219l-8.652,-17.244Z" style="fill:#a4a4a4;stroke:#484848;stroke-width:1.87px;"/><path id="path4396" d="M201.621,142.563l0.345,1.031l7.122,19.466l-1.496,1.169l-9.603,-19.999l2.824,-1.291l0.808,-0.376Z" style="fill:#6b6b6b;fill-opacity:0.63;fill-rule:nonzero;"/><path id="path4398" d="M219.48,164.785l-0.48,-0.953l-8.698,-17.26l-1.683,-0.626l7.519,21.205l2.595,-1.843l0.747,-0.523Z" style="fill:#fff;fill-opacity:0.63;fill-rule:nonzero;"/><path id="rect4400" d="M199.215,147.624l8.906,-6.218l8.653,17.243l-8.907,6.219l-8.652,-17.244Z" style="fill:none;stroke:#484848;stroke-width:1.87px;"/><path id="rect4402" d="M191.249,135.433l11.548,-8.065l9.289,18.511l-11.549,8.065l-9.288,-18.511Z" style="fill:#a4a4a4;stroke:#484848;stroke-width:1.62px;"/><path id="path4404" d="M211.138,145.624l-0.48,-0.953l-8.698,-17.259l-1.683,-0.626l7.519,21.205l2.595,-1.843l0.747,-0.524Z" style="fill:#fff;fill-opacity:0.63;fill-rule:nonzero;"/><path id="path4406" d="M194.923,131.977l0.344,1.031l7.122,19.465l-1.495,1.169l-9.603,-19.999l2.823,-1.29l0.809,-0.376Z" style="fill:#6b6b6b;fill-opacity:0.63;fill-rule:nonzero;"/><path id="rect4408" d="M191.249,135.433l11.548,-8.065l9.289,18.511l-11.549,8.065l-9.288,-18.511Z" style="fill:none;stroke:#484848;stroke-width:1.62px;"/><path id="path4410" d="M178.905,123.914c0,7.781 5.348,14.09 11.943,14.09c6.597,0 11.944,-6.309 11.944,-14.09c0,-7.782 -5.347,-14.09 -11.944,-14.09c-6.595,0 -11.943,6.308 -11.943,14.09Z" style="fill:#a4a4a4;fill-rule:nonzero;stroke:#484848;stroke-width:1.57px;"/><path id="path4412" d="M231.323,169.238c0.651,-0.63 1.604,-0.518 2.138,0.251l6.396,9.219c4.022,5.75 4.349,11.472 1.061,17.439l-9.186,-13.237c-0.266,-0.385 -0.638,-0.6 -1.025,-0.645c-0.387,-0.046 -0.786,0.079 -1.112,0.394l-3.717,3.589c-0.326,0.314 -0.509,0.753 -0.547,1.209c-0.039,0.457 0.066,0.929 0.333,1.314l9.128,13.155c-5.15,2.235 -10.309,0.568 -13.918,-4.885l-6.397,-9.219c-0.534,-0.77 -0.438,-1.893 0.213,-2.523l0.731,-9.289l8.315,-8.03l7.587,1.258Z" style="fill:#a4a4a4;fill-rule:nonzero;stroke:#484848;stroke-width:1.57px;"/><path id="path4414" d="M234.976,201.801c-9.706,0.069 -13.194,-8.238 -17.116,-15.868l0.537,-11.755l-3.128,0.475l-0.18,10.543l-0.491,1.582l7.909,12.124l4.604,3.216l5.005,0.844l2.86,-1.161Z" style="fill:#808080;fill-rule:nonzero;"/><path id="path4416" d="M231.323,169.238c0.651,-0.63 1.604,-0.518 2.138,0.251l6.396,9.219c4.022,5.75 4.349,11.472 1.061,17.439l-9.186,-13.237c-0.266,-0.385 -0.638,-0.6 -1.025,-0.645c-0.387,-0.046 -0.786,0.079 -1.112,0.394l-3.717,3.589c-0.326,0.314 -0.509,0.753 -0.547,1.209c-0.039,0.457 0.066,0.929 0.333,1.314l9.128,13.155c-5.15,2.235 -10.309,0.568 -13.918,-4.885l-6.397,-9.219c-0.534,-0.77 -0.438,-1.893 0.213,-2.523l0.731,-9.289l8.315,-8.03l7.587,1.258Z" style="fill:none;fill-rule:nonzero;stroke:#484848;stroke-width:1.57px;"/><path id="path4418" d="M240.695,192.839c4.091,-6.855 -3.803,-15.804 -8.311,-21.877l-8.804,-1.529c-0.083,1.685 0.1,1.715 -0.813,2.981c0.728,-0.01 6.828,0.989 7.302,1.213c5.439,2.575 12.301,12.026 10.626,19.212Z" style="fill:#fff;fill-opacity:0.63;fill-rule:nonzero;"/><path id="path4420" d="M207.5,166.001c-0.998,5.138 1.779,10.271 6.201,11.467c4.423,1.195 8.816,-2.001 9.814,-7.138c0.997,-5.137 -1.779,-10.271 -6.201,-11.466c-4.423,-1.196 -8.817,2 -9.814,7.137Z" style="fill:#00c640;fill-rule:nonzero;stroke:#484848;stroke-width:1.53px;"/><path id="path4422" d="M222.312,169.335c-1.974,-4.756 -5.587,-7.319 -10.41,-8.268c5.606,-1.694 9.99,-0.842 10.41,8.268Z" style="fill:#fff;fill-opacity:0.63;fill-rule:nonzero;"/><path id="path4424" d="M200.552,128.145c-0.576,-10.387 -6.378,-14.55 -13.44,-15.732c7.147,-3.161 16.952,4.699 13.44,15.732Z" style="fill:#fff;fill-opacity:0.63;fill-rule:nonzero;"/><path id="rect4220" d="M115.596,147.624l-8.906,-6.218l-8.653,17.243l8.907,6.219l8.652,-17.244Z" style="fill:#a4a4a4;stroke:#484848;stroke-width:1.87px;"/><path id="path4298" d="M113.19,142.563l-0.345,1.031l-7.122,19.466l1.496,1.169l9.603,-19.999l-2.824,-1.291l-0.808,-0.376Z" style="fill:#6b6b6b;fill-opacity:0.63;fill-rule:nonzero;"/><path id="path4296" d="M95.331,164.785l0.48,-0.953l8.698,-17.26l1.683,-0.626l-7.519,21.205l-2.595,-1.843l-0.747,-0.523Z" style="fill:#fff;fill-opacity:0.63;fill-rule:nonzero;"/><path id="rect4300" d="M115.596,147.624l-8.906,-6.218l-8.653,17.243l8.907,6.219l8.652,-17.244Z" style="fill:none;stroke:#484848;stroke-width:1.87px;"/><path id="rect4222" d="M123.562,135.433l-11.548,-8.065l-9.289,18.511l11.549,8.065l9.288,-18.511Z" style="fill:#a4a4a4;stroke:#484848;stroke-width:1.62px;"/><path id="path4290" d="M103.673,145.624l0.48,-0.953l8.698,-17.259l1.683,-0.626l-7.519,21.205l-2.595,-1.843l-0.747,-0.524Z" style="fill:#fff;fill-opacity:0.63;fill-rule:nonzero;"/><path id="path4294" d="M119.888,131.977l-0.344,1.031l-7.122,19.465l1.495,1.169l9.603,-19.999l-2.823,-1.29l-0.809,-0.376Z" style="fill:#6b6b6b;fill-opacity:0.63;fill-rule:nonzero;"/><path id="rect4292" d="M123.562,135.433l-11.548,-8.065l-9.289,18.511l11.549,8.065l9.288,-18.511Z" style="fill:none;stroke:#484848;stroke-width:1.62px;"/><path id="path4217" d="M135.906,123.914c0,7.781 -5.348,14.09 -11.943,14.09c-6.597,0 -11.944,-6.309 -11.944,-14.09c0,-7.782 5.347,-14.09 11.944,-14.09c6.595,0 11.943,6.308 11.943,14.09Z" style="fill:#a4a4a4;fill-rule:nonzero;stroke:#484848;stroke-width:1.57px;"/><path id="path4230" d="M83.488,169.238c-0.651,-0.63 -1.604,-0.518 -2.138,0.251l-6.396,9.219c-4.022,5.75 -4.349,11.472 -1.061,17.439l9.186,-13.237c0.266,-0.385 0.638,-0.6 1.025,-0.645c0.387,-0.046 0.786,0.079 1.112,0.394l3.717,3.589c0.326,0.314 0.509,0.753 0.547,1.209c0.039,0.457 -0.066,0.929 -0.333,1.314l-9.129,13.155c5.151,2.235 10.31,0.568 13.919,-4.885l6.397,-9.219c0.534,-0.77 0.438,-1.893 -0.213,-2.523l-0.731,-9.289l-8.315,-8.03l-7.587,1.258Z" style="fill:#a4a4a4;fill-rule:nonzero;stroke:#484848;stroke-width:1.57px;"/><path id="path4304" d="M79.835,201.801c9.707,0.069 13.194,-8.238 17.116,-15.868l-0.537,-11.755l3.128,0.475l0.18,10.543l0.491,1.582l-7.909,12.124l-4.604,3.216l-5.005,0.844l-2.86,-1.161Z" style="fill:#808080;fill-rule:nonzero;"/><path id="path4306" d="M83.488,169.238c-0.651,-0.63 -1.604,-0.518 -2.138,0.251l-6.396,9.219c-4.022,5.75 -4.349,11.472 -1.061,17.439l9.186,-13.237c0.266,-0.385 0.638,-0.6 1.025,-0.645c0.387,-0.046 0.786,0.079 1.112,0.394l3.717,3.589c0.326,0.314 0.509,0.753 0.547,1.209c0.039,0.457 -0.066,0.929 -0.333,1.314l-9.129,13.155c5.151,2.235 10.31,0.568 13.919,-4.885l6.397,-9.219c0.534,-0.77 0.438,-1.893 -0.213,-2.523l-0.731,-9.289l-8.315,-8.03l-7.587,1.258Z" style="fill:none;fill-rule:nonzero;stroke:#484848;stroke-width:1.57px;"/><path id="path4302" d="M74.116,192.839c-4.091,-6.855 3.803,-15.804 8.311,-21.877l8.804,-1.529c0.083,1.685 -0.1,1.715 0.813,2.981c-0.728,-0.01 -6.828,0.989 -7.302,1.213c-5.439,2.575 -12.301,12.026 -10.626,19.212Z" style="fill:#fff;fill-opacity:0.63;fill-rule:nonzero;"/><path id="path4224" d="M107.311,166.001c0.998,5.138 -1.779,10.271 -6.201,11.467c-4.423,1.195 -8.816,-2.001 -9.814,-7.138c-0.997,-5.137 1.779,-10.271 6.201,-11.466c4.423,-1.196 8.817,2 9.814,7.137Z" style="fill:#00c640;fill-rule:nonzero;stroke:#484848;stroke-width:1.53px;"/><path id="path4286" d="M92.499,169.335c1.974,-4.756 5.587,-7.319 10.41,-8.268c-5.606,-1.694 -9.99,-0.842 -10.41,8.268Z" style="fill:#fff;fill-opacity:0.63;fill-rule:nonzero;"/><path id="path4288" d="M114.259,128.145c0.576,-10.387 6.378,-14.55 13.44,-15.732c-7.147,-3.161 -16.952,4.699 -13.44,15.732Z" style="fill:#fff;fill-opacity:0.63;fill-rule:nonzero;"/><rect id="rect4346" x="162.746" y="215.301" width="26.29" height="10.736" style="fill:#a4a4a4;stroke:#484848;stroke-width:1.55px;"/><rect id="rect4348" x="162.746" y="205.179" width="26.29" height="10.736" style="fill:#a4a4a4;stroke:#484848;stroke-width:1.55px;"/><rect id="rect4350" x="162.746" y="195.057" width="26.29" height="10.736" style="fill:#a4a4a4;stroke:#484848;stroke-width:1.55px;"/><rect id="rect4352" x="162.998" y="184.62" width="26.29" height="10.736" style="fill:#a4a4a4;stroke:#484848;stroke-width:1.55px;"/><path id="path4354" d="M170.961,184.22c-1.652,3.382 -3.026,6.8 0,10.734c-1.901,3.113 -3.79,6.228 0.127,10.438c-3.658,4.034 -2.226,7.065 -0.253,9.99c-3.247,6.458 -0.367,7.388 0,10.587l-7.584,0.149l0.632,-2.237l-1.517,-2.684l0.759,-3.876l2.401,-2.236l-2.528,-2.237l-0.505,-3.28l2.653,-4.176l-1.769,-1.938l-0.631,-3.728l3.033,-4.92l-2.275,-2.088l-0.885,-3.13l1.643,-3.729l1.643,-1.639l4.423,0.447l0.633,-0.447Z" style="fill:#808080;fill-rule:nonzero;"/><path id="path4356" d="M181.172,184.325c1.651,3.382 3.026,6.8 0,10.736c1.9,3.112 3.789,6.226 -0.127,10.437c3.658,4.033 2.225,7.064 0.253,9.99c3.247,6.459 0.366,7.388 0,10.586l7.583,0.15l-0.632,-2.237l1.517,-2.684l-0.758,-3.877l-2.401,-2.236l2.528,-2.237l0.505,-3.28l-2.654,-4.175l1.769,-1.938l0.632,-3.729l-3.033,-4.92l2.274,-2.087l0.886,-3.131l-1.644,-3.728l-1.642,-1.64l-4.425,0.447l-0.631,-0.447Z" style="fill:#fff;fill-opacity:0.63;fill-rule:nonzero;"/><rect id="rect4358" x="162.746" y="215.828" width="26.29" height="10.209" style="fill:none;stroke:#484848;stroke-width:1.55px;"/><rect id="rect4360" x="162.746" y="205.812" width="26.29" height="10.103" style="fill:none;stroke:#484848;stroke-width:1.55px;"/><rect id="rect4362" x="162.746" y="195.479" width="26.29" height="10.314" style="fill:none;stroke:#484848;stroke-width:1.55px;"/><rect id="rect4364" x="162.998" y="184.62" width="26.29" height="10.736" style="fill:none;stroke:#484848;stroke-width:1.55px;"/><path id="path4366" d="M162.493,241.327c2.753,0.266 44.104,0.855 44.995,-0.298c0,-11.447 -10.508,-20.726 -23.469,-20.726c-7.371,0 -16.448,1.509 -20.751,4.114c-0.72,1.56 -0.775,11.972 -0.775,16.91Z" style="fill:#ff04b5;fill-rule:nonzero;stroke:#484848;stroke-width:1.55px;"/><path id="path4368" d="M207.362,238.941c-22.77,-0.948 -44.678,3.144 -40.067,-16.103l-4.423,1.789l-0.379,16.998l44.743,-0.149l0.126,-2.535Z" style="fill:#808080;fill-rule:nonzero;"/><path id="path4370" d="M162.493,241.327c2.753,0.266 44.104,0.855 44.995,-0.298c0,-11.447 -10.508,-20.726 -23.469,-20.726c-7.371,0 -16.448,1.509 -20.751,4.114c-0.72,1.56 -0.775,11.972 -0.775,16.91Z" style="fill:none;fill-rule:nonzero;stroke:#484848;stroke-width:1.55px;"/><path id="path4372" d="M203.117,233.017c-5.063,-5.071 -10.179,-9.014 -22.512,-10.24c9.196,-1.829 18.555,1.175 22.512,10.24Z" style="fill:#fff;fill-opacity:0.63;fill-rule:nonzero;"/><rect id="rect4181" x="200.639" y="61.014" width="9.209" height="23.857" style="fill:#a4a4a4;stroke:#484848;stroke-width:1.55px;"/><rect id="rect4274" x="197.998" y="61.864" width="11.171" height="5.483" style="fill:#e3e3e3;"/><rect id="rect4276" x="197.965" y="78.549" width="11.171" height="5.483" style="fill-opacity:0.35;"/><rect id="rect3654" x="145.959" y="98.407" width="26.084" height="11.592" style="fill:#a4a4a4;stroke:#484848;stroke-width:1.55px;"/><rect id="rect4203" x="143.851" y="110.047" width="30.48" height="11.507" style="fill:#c85eff;stroke:#484848;stroke-width:1.55px;"/><rect id="rect3652" x="125.095" y="115.484" width="66.156" height="69.175" style="fill:#a4a4a4;stroke:#484848;stroke-width:1.55px;"/><rect id="rect4179" x="106.261" y="61.014" width="9.209" height="23.857" style="fill:#a4a4a4;stroke:#484848;stroke-width:1.55px;"/><rect id="rect4270" x="106.826" y="61.784" width="11.171" height="5.483" style="fill:#e3e3e3;"/><rect id="rect4272" x="107.005" y="78.654" width="11.171" height="5.483" style="fill-opacity:0.35;"/><rect id="rect4166" x="114.774" y="46.134" width="86.255" height="52.338" style="fill:#f2d100;stroke:#484848;stroke-width:1.55px;"/><path id="rect4187" d="M188.778,46.956l11.556,0l0,55.595l-11.556,0c3.338,-18.531 5.325,-37.063 0,-55.595Z" style="fill-opacity:0.33;fill-rule:nonzero;"/><path id="rect4168" d="M110.976,76.376l11.8,0l11.047,13.821l47.195,0l12.551,-13.821l11.799,0l0,28.494l-94.392,0l0,-28.494Z" style="fill:#ffe08a;fill-rule:nonzero;stroke:#484848;stroke-width:1.55px;"/><path id="path4171" d="M152.647,64.168c0,6.552 -4.502,11.864 -10.058,11.864c-5.554,0 -10.056,-5.312 -10.056,-11.864c0,-6.553 4.502,-11.865 10.056,-11.865c5.556,0 10.058,5.312 10.058,11.865Z" style="fill:#fff;fill-rule:nonzero;stroke:#484848;stroke-width:0.97px;stroke-linecap:butt;stroke-linejoin:miter;"/><path id="path4173" d="M182.801,63.528c0,6.553 -4.503,11.864 -10.058,11.864c-5.554,0 -10.056,-5.311 -10.056,-11.864c0,-6.553 4.502,-11.864 10.056,-11.864c5.555,0 10.058,5.311 10.058,11.864Z" style="fill:#fff;fill-rule:nonzero;stroke:#484848;stroke-width:0.97px;stroke-linecap:butt;stroke-linejoin:miter;"/><path id="path4175" d="M146.012,67.175c0,4.127 -2.836,7.472 -6.333,7.472c-3.498,0 -6.333,-3.345 -6.333,-7.472c0,-4.126 2.835,-7.471 6.333,-7.471c3.497,0 6.333,3.345 6.333,7.471Z" style="fill-rule:nonzero;"/><path id="path4177" d="M176.166,66.75c0,4.125 -2.836,7.471 -6.334,7.471c-3.498,0 -6.333,-3.346 -6.333,-7.471c0,-4.127 2.835,-7.472 6.333,-7.472c3.498,0 6.334,3.345 6.334,7.472Z" style="fill-rule:nonzero;"/><path id="path4185" d="M116.192,74.434l0.723,-25.774l37.736,-0.639l-34.487,3.834l-3.972,22.579Z" style="fill:#e5e5e5;fill-rule:nonzero;"/><path id="rect4189" d="M193.833,77.204l10.834,-0.054l0,26.839l-17.334,0c1.502,-5.558 2.406,-11.469 -0.09,-19.385l6.59,-7.4Z" style="fill-opacity:0.33;fill-rule:nonzero;"/><path id="path4192" d="M112.413,82.927l0.068,20.43l31.554,0.034l-28.699,-3.205l-2.923,-17.259Z" style="fill:#e5e5e5;fill-rule:nonzero;"/><path id="rect4194" d="M154.832,20.202l3.287,0l4.549,25.944l-12.638,0l4.802,-25.944Z" style="fill:#a4a4a4;fill-rule:nonzero;stroke:#484848;stroke-width:1.55px;stroke-linecap:butt;stroke-linejoin:miter;"/><path id="path4197" d="M164.691,13.193c0,5.518 -3.565,9.99 -7.963,9.99c-4.398,0 -7.963,-4.472 -7.963,-9.99c0,-5.516 3.565,-9.99 7.963,-9.99c4.398,0 7.963,4.474 7.963,9.99Z" style="fill:#604aff;fill-rule:nonzero;stroke:#00054d;stroke-width:1.55px;stroke-linecap:butt;stroke-linejoin:miter;"/><path id="path4199" d="M150.916,9.261c3.604,-2.567 7.503,-2.312 11.621,0.023c-3.557,-4.969 -7.295,-7.098 -11.621,-0.023Z" style="fill:#fff;fill-opacity:0.63;fill-rule:nonzero;"/><path id="path4201" d="M149.726,15.974c5.213,4.196 9.964,4.736 13.987,-0.475c-1.023,6.998 -10.483,10.944 -13.987,0.475Z" style="fill-opacity:0.35;fill-rule:nonzero;"/><rect id="rect4205" x="143.57" y="166.177" width="29.115" height="4.193" style="fill:#484848;stroke:#484848;stroke-width:0.99px;"/><rect id="rect4207" x="143.926" y="174.19" width="29.115" height="4.193" style="fill:#484848;stroke:#484848;stroke-width:0.99px;"/><path id="path4209" d="M138.737,172.436c0,2.999 -2.061,5.431 -4.605,5.431c-2.543,0 -4.604,-2.432 -4.604,-5.431c0,-3 2.061,-5.432 4.604,-5.432c2.544,0 4.605,2.432 4.605,5.432Z" style="fill:#f00;fill-rule:nonzero;stroke:#484848;stroke-width:1.57px;"/><path id="path4211" d="M187.356,172.436c0,2.999 -2.062,5.431 -4.605,5.431c-2.542,0 -4.603,-2.432 -4.603,-5.431c0,-3 2.061,-5.432 4.603,-5.432c2.543,0 4.605,2.432 4.605,5.432Z" style="fill:#f00;fill-rule:nonzero;stroke:#484848;stroke-width:1.57px;"/><rect id="rect4213" x="128.813" y="120.512" width="58.45" height="42.174" style="fill:#dbfffc;stroke:#484848;stroke-width:1.55px;"/><path id="path4215" d="M129.169,144.972l6.793,0l5.005,-18.134l3.039,18.345l3.753,-8.012l5.721,17.924l3.396,-11.598l7.865,-0.211l3.216,-13.918l3.218,22.564l3.218,-14.761l1.787,7.591l10.368,0" style="fill:none;fill-rule:nonzero;stroke:#00a799;stroke-width:1.55px;"/><path id="path4280" d="M130.546,160.737l0.013,-34.796c-0.065,-2.299 1.492,-3.484 3.034,-3.562l50.153,-0.15l-48.181,3.441c-1.715,0.256 -2.436,1.35 -2.484,3.01l-2.625,26.047l0.09,6.01Z" style="fill:#fff;fill-opacity:0.95;fill-rule:nonzero;"/><rect id="rect4278" x="128.813" y="120.512" width="58.45" height="42.174" style="fill:none;stroke:#484848;stroke-width:1.55px;"/><path id="path4282" d="M130.63,170.978c2.174,-1.393 4.524,-1.255 7.007,0.013c-2.144,-2.696 -4.398,-3.852 -7.007,-0.013Z" style="fill:#fff;fill-opacity:0.63;fill-rule:nonzero;"/><path id="path4284" d="M179.292,170.941c2.173,-1.393 4.524,-1.255 7.007,0.013c-2.145,-2.696 -4.399,-3.852 -7.007,-0.013Z" style="fill:#fff;fill-opacity:0.63;fill-rule:nonzero;"/><rect id="rect4249" x="128.795" y="215.599" width="26.29" height="10.736" style="fill:#a4a4a4;stroke:#484848;stroke-width:1.55px;"/><rect id="rect4247" x="128.795" y="205.477" width="26.29" height="10.736" style="fill:#a4a4a4;stroke:#484848;stroke-width:1.55px;"/><rect id="rect4245" x="128.795" y="195.356" width="26.29" height="10.736" style="fill:#a4a4a4;stroke:#484848;stroke-width:1.55px;"/><rect id="rect4241" x="128.543" y="184.918" width="26.29" height="10.736" style="fill:#a4a4a4;stroke:#484848;stroke-width:1.55px;"/><path id="path4314" d="M146.87,184.517c1.652,3.383 3.025,6.801 0,10.736c1.9,3.113 3.789,6.228 -0.127,10.437c3.658,4.033 2.225,7.065 0.253,9.991c3.247,6.458 0.366,7.388 0,10.586l7.583,0.15l-0.632,-2.237l1.517,-2.684l-0.759,-3.877l-2.401,-2.237l2.528,-2.236l0.506,-3.281l-2.654,-4.175l1.769,-1.938l0.632,-3.727l-3.034,-4.921l2.275,-2.088l0.886,-3.131l-1.644,-3.727l-1.643,-1.641l-4.423,0.447l-0.632,-0.447Z" style="fill:#808080;fill-rule:nonzero;"/><path id="path4326" d="M136.658,184.623c-1.651,3.383 -3.025,6.801 0,10.735c-1.9,3.113 -3.789,6.228 0.127,10.439c-3.658,4.032 -2.225,7.064 -0.253,9.99c-3.247,6.457 -0.366,7.387 0,10.586l-7.583,0.149l0.632,-2.237l-1.517,-2.684l0.759,-3.876l2.4,-2.237l-2.527,-2.237l-0.506,-3.28l2.654,-4.174l-1.768,-1.94l-0.633,-3.727l3.034,-4.921l-2.275,-2.087l-0.886,-3.131l1.644,-3.728l1.643,-1.64l4.424,0.447l0.631,-0.447Z" style="fill:#fff;fill-opacity:0.63;fill-rule:nonzero;"/><rect id="rect4324" x="128.795" y="216.126" width="26.29" height="10.209" style="fill:none;stroke:#484848;stroke-width:1.55px;"/><rect id="rect4322" x="128.795" y="206.109" width="26.29" height="10.103" style="fill:none;stroke:#484848;stroke-width:1.55px;"/><rect id="rect4320" x="128.795" y="195.777" width="26.29" height="10.314" style="fill:none;stroke:#484848;stroke-width:1.55px;"/><rect id="rect4318" x="128.543" y="184.918" width="26.29" height="10.736" style="fill:none;stroke:#484848;stroke-width:1.55px;"/><path id="path4259" d="M155.338,241.625c-2.754,0.266 -44.105,0.854 -44.996,-0.298c0,-11.447 10.508,-20.726 23.469,-20.726c7.371,0 16.448,1.51 20.751,4.115c0.72,1.56 0.776,11.972 0.776,16.909Z" style="fill:#ff04b5;fill-rule:nonzero;stroke:#484848;stroke-width:1.55px;"/><path id="path4308" d="M110.468,239.239c22.77,-0.948 44.679,3.144 40.067,-16.102l4.423,1.789l0.38,16.997l-44.744,-0.148l-0.126,-2.536Z" style="fill:#808080;fill-rule:nonzero;"/><path id="path4310" d="M155.338,241.625c-2.754,0.266 -44.105,0.854 -44.996,-0.298c0,-11.447 10.508,-20.726 23.469,-20.726c7.371,0 16.448,1.51 20.751,4.115c0.72,1.56 0.776,11.972 0.776,16.909Z" style="fill:none;fill-rule:nonzero;stroke:#484848;stroke-width:1.55px;"/><path id="path4312" d="M114.713,233.316c5.064,-5.073 10.179,-9.016 22.512,-10.242c-9.196,-1.827 -18.555,1.176 -22.512,10.242Z" style="fill:#fff;fill-opacity:0.63;fill-rule:nonzero;"/></g><g><path id="rect43941" serif:id="rect4394" d="M199.215,363.52l8.906,6.219l8.653,-17.243l-8.907,-6.219l-8.652,17.243Z" style="fill:#a4a4a4;stroke:#484848;stroke-width:1.87px;"/><path id="path43961" serif:id="path4396" d="M201.621,368.582l0.345,-1.031l7.122,-19.466l-1.496,-1.17l-9.603,20l2.824,1.291l0.808,0.376Z" style="fill:#6b6b6b;fill-opacity:0.63;fill-rule:nonzero;"/><path id="path43981" serif:id="path4398" d="M219.48,346.36l-0.48,0.953l-8.698,17.26l-1.683,0.626l7.519,-21.205l2.595,1.843l0.747,0.523Z" style="fill:#fff;fill-opacity:0.63;fill-rule:nonzero;"/><path id="rect44001" serif:id="rect4400" d="M199.215,363.52l8.906,6.219l8.653,-17.243l-8.907,-6.219l-8.652,17.243Z" style="fill:none;stroke:#484848;stroke-width:1.87px;"/><path id="rect44021" serif:id="rect4402" d="M191.249,375.712l11.548,8.065l9.289,-18.511l-11.549,-8.065l-9.288,18.511Z" style="fill:#a4a4a4;stroke:#484848;stroke-width:1.62px;"/><path id="path44041" serif:id="path4404" d="M211.138,365.521l-0.48,0.953l-8.698,17.259l-1.683,0.626l7.519,-21.205l2.595,1.843l0.747,0.524Z" style="fill:#fff;fill-opacity:0.63;fill-rule:nonzero;"/><path id="path44061" serif:id="path4406" d="M194.923,379.168l0.344,-1.031l7.122,-19.465l-1.495,-1.169l-9.603,19.999l2.823,1.29l0.809,0.376Z" style="fill:#6b6b6b;fill-opacity:0.63;fill-rule:nonzero;"/><path id="rect44081" serif:id="rect4408" d="M191.249,375.712l11.548,8.065l9.289,-18.511l-11.549,-8.065l-9.288,18.511Z" style="fill:none;stroke:#484848;stroke-width:1.62px;"/><path id="path44101" serif:id="path4410" d="M178.905,387.231c0,-7.781 5.348,-14.09 11.943,-14.09c6.597,0 11.944,6.309 11.944,14.09c0,7.782 -5.347,14.09 -11.944,14.09c-6.595,0 -11.943,-6.308 -11.943,-14.09Z" style="fill:#a4a4a4;fill-rule:nonzero;stroke:#484848;stroke-width:1.57px;"/><path id="path44121" serif:id="path4412" d="M231.323,341.907c0.651,0.63 1.604,0.518 2.138,-0.251l6.396,-9.219c4.022,-5.75 4.349,-11.472 1.061,-17.439l-9.186,13.237c-0.266,0.385 -0.638,0.6 -1.025,0.645c-0.387,0.046 -0.786,-0.079 -1.112,-0.394l-3.717,-3.589c-0.326,-0.314 -0.509,-0.753 -0.547,-1.209c-0.039,-0.457 0.066,-0.929 0.333,-1.314l9.128,-13.155c-5.15,-2.236 -10.309,-0.568 -13.918,4.885l-6.397,9.219c-0.534,0.77 -0.438,1.893 0.213,2.523l0.731,9.289l8.315,8.03l7.587,-1.258Z" style="fill:#a4a4a4;fill-rule:nonzero;stroke:#484848;stroke-width:1.57px;"/><path id="path44141" serif:id="path4414" d="M234.976,309.344c-9.706,-0.069 -13.194,8.238 -17.116,15.868l0.537,11.755l-3.128,-0.475l-0.18,-10.543l-0.491,-1.582l7.909,-12.124l4.604,-3.216l5.005,-0.844l2.86,1.161Z" style="fill:#808080;fill-rule:nonzero;"/><path id="path44161" serif:id="path4416" d="M231.323,341.907c0.651,0.63 1.604,0.518 2.138,-0.251l6.396,-9.219c4.022,-5.75 4.349,-11.472 1.061,-17.439l-9.186,13.237c-0.266,0.385 -0.638,0.6 -1.025,0.645c-0.387,0.046 -0.786,-0.079 -1.112,-0.394l-3.717,-3.589c-0.326,-0.314 -0.509,-0.753 -0.547,-1.209c-0.039,-0.457 0.066,-0.929 0.333,-1.314l9.128,-13.155c-5.15,-2.236 -10.309,-0.568 -13.918,4.885l-6.397,9.219c-0.534,0.77 -0.438,1.893 0.213,2.523l0.731,9.289l8.315,8.03l7.587,-1.258Z" style="fill:none;fill-rule:nonzero;stroke:#484848;stroke-width:1.57px;"/><path id="path44181" serif:id="path4418" d="M240.695,318.306c4.091,6.855 -3.803,15.804 -8.311,21.877l-8.804,1.529c-0.083,-1.685 0.1,-1.715 -0.813,-2.981c0.728,0.01 6.828,-0.989 7.302,-1.213c5.439,-2.576 12.301,-12.026 10.626,-19.212Z" style="fill:#fff;fill-opacity:0.63;fill-rule:nonzero;"/><path id="path44201" serif:id="path4420" d="M207.5,345.144c-0.998,-5.138 1.779,-10.272 6.201,-11.467c4.423,-1.195 8.816,2 9.814,7.138c0.997,5.137 -1.779,10.271 -6.201,11.466c-4.423,1.196 -8.817,-2 -9.814,-7.137Z" style="fill:#00c640;fill-rule:nonzero;stroke:#484848;stroke-width:1.53px;"/><path id="path44221" serif:id="path4422" d="M222.312,341.81c-1.974,4.756 -5.587,7.319 -10.41,8.267c5.606,1.695 9.99,0.843 10.41,-8.267Z" style="fill:#fff;fill-opacity:0.63;fill-rule:nonzero;"/><path id="path44241" serif:id="path4424" d="M200.552,383c-0.576,10.387 -6.378,14.55 -13.44,15.732c7.147,3.161 16.952,-4.699 13.44,-15.732Z" style="fill:#fff;fill-opacity:0.63;fill-rule:nonzero;"/><path id="rect42201" serif:id="rect4220" d="M115.596,363.52l-8.906,6.219l-8.653,-17.243l8.907,-6.219l8.652,17.243Z" style="fill:#a4a4a4;stroke:#484848;stroke-width:1.87px;"/><path id="path42981" serif:id="path4298" d="M113.19,368.582l-0.345,-1.031l-7.122,-19.466l1.496,-1.17l9.603,20l-2.824,1.291l-0.808,0.376Z" style="fill:#6b6b6b;fill-opacity:0.63;fill-rule:nonzero;"/><path id="path42961" serif:id="path4296" d="M95.331,346.36l0.48,0.953l8.698,17.26l1.683,0.626l-7.519,-21.205l-2.595,1.843l-0.747,0.523Z" style="fill:#fff;fill-opacity:0.63;fill-rule:nonzero;"/><path id="rect43001" serif:id="rect4300" d="M115.596,363.52l-8.906,6.219l-8.653,-17.243l8.907,-6.219l8.652,17.243Z" style="fill:none;stroke:#484848;stroke-width:1.87px;"/><path id="rect42221" serif:id="rect4222" d="M123.562,375.712l-11.548,8.065l-9.289,-18.511l11.549,-8.065l9.288,18.511Z" style="fill:#a4a4a4;stroke:#484848;stroke-width:1.62px;"/><path id="path42901" serif:id="path4290" d="M103.673,365.521l0.48,0.953l8.698,17.259l1.683,0.626l-7.519,-21.205l-2.595,1.843l-0.747,0.524Z" style="fill:#fff;fill-opacity:0.63;fill-rule:nonzero;"/><path id="path42941" serif:id="path4294" d="M119.888,379.168l-0.344,-1.031l-7.122,-19.465l1.495,-1.169l9.603,19.999l-2.823,1.29l-0.809,0.376Z" style="fill:#6b6b6b;fill-opacity:0.63;fill-rule:nonzero;"/><path id="rect42921" serif:id="rect4292" d="M123.562,375.712l-11.548,8.065l-9.289,-18.511l11.549,-8.065l9.288,18.511Z" style="fill:none;stroke:#484848;stroke-width:1.62px;"/><path id="path42171" serif:id="path4217" d="M135.906,387.231c0,-7.781 -5.348,-14.09 -11.943,-14.09c-6.597,0 -11.944,6.309 -11.944,14.09c0,7.782 5.347,14.09 11.944,14.09c6.595,0 11.943,-6.308 11.943,-14.09Z" style="fill:#a4a4a4;fill-rule:nonzero;stroke:#484848;stroke-width:1.57px;"/><path id="path42301" serif:id="path4230" d="M83.488,341.907c-0.651,0.63 -1.604,0.518 -2.138,-0.251l-6.396,-9.219c-4.022,-5.75 -4.349,-11.472 -1.061,-17.439l9.186,13.237c0.266,0.385 0.638,0.6 1.025,0.645c0.387,0.046 0.786,-0.079 1.112,-0.394l3.717,-3.589c0.326,-0.314 0.509,-0.753 0.547,-1.209c0.039,-0.457 -0.066,-0.929 -0.333,-1.314l-9.129,-13.155c5.151,-2.236 10.31,-0.568 13.919,4.885l6.397,9.219c0.534,0.77 0.438,1.893 -0.213,2.523l-0.731,9.289l-8.315,8.03l-7.587,-1.258Z" style="fill:#a4a4a4;fill-rule:nonzero;stroke:#484848;stroke-width:1.57px;"/><path id="path43041" serif:id="path4304" d="M79.835,309.344c9.707,-0.069 13.194,8.238 17.116,15.868l-0.537,11.755l3.128,-0.475l0.18,-10.543l0.491,-1.582l-7.909,-12.124l-4.604,-3.216l-5.005,-0.844l-2.86,1.161Z" style="fill:#808080;fill-rule:nonzero;"/><path id="path43061" serif:id="path4306" d="M83.488,341.907c-0.651,0.63 -1.604,0.518 -2.138,-0.251l-6.396,-9.219c-4.022,-5.75 -4.349,-11.472 -1.061,-17.439l9.186,13.237c0.266,0.385 0.638,0.6 1.025,0.645c0.387,0.046 0.786,-0.079 1.112,-0.394l3.717,-3.589c0.326,-0.314 0.509,-0.753 0.547,-1.209c0.039,-0.457 -0.066,-0.929 -0.333,-1.314l-9.129,-13.155c5.151,-2.236 10.31,-0.568 13.919,4.885l6.397,9.219c0.534,0.77 0.438,1.893 -0.213,2.523l-0.731,9.289l-8.315,8.03l-7.587,-1.258Z" style="fill:none;fill-rule:nonzero;stroke:#484848;stroke-width:1.57px;"/><path id="path43021" serif:id="path4302" d="M74.116,318.306c-4.091,6.855 3.803,15.804 8.311,21.877l8.804,1.529c0.083,-1.685 -0.1,-1.715 0.813,-2.981c-0.728,0.01 -6.828,-0.989 -7.302,-1.213c-5.439,-2.576 -12.301,-12.026 -10.626,-19.212Z" style="fill:#fff;fill-opacity:0.63;fill-rule:nonzero;"/><path id="path42241" serif:id="path4224" d="M107.311,345.144c0.998,-5.138 -1.779,-10.272 -6.201,-11.467c-4.423,-1.195 -8.816,2 -9.814,7.138c-0.997,5.137 1.779,10.271 6.201,11.466c4.423,1.196 8.817,-2 9.814,-7.137Z" style="fill:#00c640;fill-rule:nonzero;stroke:#484848;stroke-width:1.53px;"/><path id="path42861" serif:id="path4286" d="M92.499,341.81c1.974,4.756 5.587,7.319 10.41,8.267c-5.606,1.695 -9.99,0.843 -10.41,-8.267Z" style="fill:#fff;fill-opacity:0.63;fill-rule:nonzero;"/><path id="path42881" serif:id="path4288" d="M114.259,383c0.576,10.387 6.378,14.55 13.44,15.732c-7.147,3.161 -16.952,-4.699 -13.44,-15.732Z" style="fill:#fff;fill-opacity:0.63;fill-rule:nonzero;"/><rect id="rect43461" serif:id="rect4346" x="162.746" y="285.108" width="26.29" height="10.736" style="fill:#a4a4a4;stroke:#484848;stroke-width:1.55px;"/><rect id="rect43481" serif:id="rect4348" x="162.746" y="295.23" width="26.29" height="10.736" style="fill:#a4a4a4;stroke:#484848;stroke-width:1.55px;"/><rect id="rect43501" serif:id="rect4350" x="162.746" y="305.352" width="26.29" height="10.736" style="fill:#a4a4a4;stroke:#484848;stroke-width:1.55px;"/><rect id="rect43521" serif:id="rect4352" x="162.998" y="315.789" width="26.29" height="10.736" style="fill:#a4a4a4;stroke:#484848;stroke-width:1.55px;"/><path id="path43541" serif:id="path4354" d="M170.961,326.925c-1.652,-3.382 -3.026,-6.8 0,-10.735c-1.901,-3.112 -3.79,-6.227 0.127,-10.437c-3.658,-4.034 -2.226,-7.065 -0.253,-9.99c-3.247,-6.459 -0.367,-7.388 0,-10.587l-7.584,-0.149l0.632,2.237l-1.517,2.684l0.759,3.876l2.401,2.236l-2.528,2.237l-0.505,3.28l2.653,4.176l-1.769,1.938l-0.631,3.728l3.033,4.92l-2.275,2.088l-0.885,3.13l1.643,3.729l1.643,1.639l4.423,-0.447l0.633,0.447Z" style="fill:#808080;fill-rule:nonzero;"/><path id="path43561" serif:id="path4356" d="M181.172,326.82c1.651,-3.382 3.026,-6.8 0,-10.736c1.9,-3.112 3.789,-6.226 -0.127,-10.437c3.658,-4.033 2.225,-7.064 0.253,-9.99c3.247,-6.459 0.366,-7.388 0,-10.586l7.583,-0.15l-0.632,2.236l1.517,2.684l-0.758,3.878l-2.401,2.236l2.528,2.237l0.505,3.28l-2.654,4.175l1.769,1.938l0.632,3.729l-3.033,4.92l2.274,2.087l0.886,3.131l-1.644,3.728l-1.642,1.64l-4.425,-0.447l-0.631,0.447Z" style="fill:#fff;fill-opacity:0.63;fill-rule:nonzero;"/><rect id="rect43581" serif:id="rect4358" x="162.746" y="285.108" width="26.29" height="10.209" style="fill:none;stroke:#484848;stroke-width:1.55px;"/><rect id="rect43601" serif:id="rect4360" x="162.746" y="295.23" width="26.29" height="10.103" style="fill:none;stroke:#484848;stroke-width:1.55px;"/><rect id="rect43621" serif:id="rect4362" x="162.746" y="305.352" width="26.29" height="10.314" style="fill:none;stroke:#484848;stroke-width:1.55px;"/><rect id="rect43641" serif:id="rect4364" x="162.998" y="315.789" width="26.29" height="10.736" style="fill:none;stroke:#484848;stroke-width:1.55px;"/><path id="path43661" serif:id="path4366" d="M162.493,269.818c2.753,-0.266 44.104,-0.855 44.995,0.298c0,11.447 -10.508,20.726 -23.469,20.726c-7.371,0 -16.448,-1.509 -20.751,-4.114c-0.72,-1.56 -0.775,-11.972 -0.775,-16.91Z" style="fill:#ff04b5;fill-rule:nonzero;stroke:#484848;stroke-width:1.55px;"/><path id="path43681" serif:id="path4368" d="M207.362,272.204c-22.77,0.948 -44.678,-3.144 -40.067,16.103l-4.423,-1.789l-0.379,-16.998l44.743,0.149l0.126,2.535Z" style="fill:#808080;fill-rule:nonzero;"/><path id="path43701" serif:id="path4370" d="M162.493,269.818c2.753,-0.266 44.104,-0.855 44.995,0.298c0,11.447 -10.508,20.726 -23.469,20.726c-7.371,0 -16.448,-1.509 -20.751,-4.114c-0.72,-1.56 -0.775,-11.972 -0.775,-16.91Z" style="fill:none;fill-rule:nonzero;stroke:#484848;stroke-width:1.55px;"/><path id="path43721" serif:id="path4372" d="M203.117,278.128c-5.063,5.071 -10.179,9.014 -22.512,10.24c9.196,1.829 18.555,-1.176 22.512,-10.24Z" style="fill:#fff;fill-opacity:0.63;fill-rule:nonzero;"/><rect id="rect41811" serif:id="rect4181" x="200.639" y="426.273" width="9.209" height="23.857" style="fill:#a4a4a4;stroke:#484848;stroke-width:1.55px;"/><rect id="rect42741" serif:id="rect4274" x="197.998" y="443.798" width="11.171" height="5.483" style="fill:#e3e3e3;"/><rect id="rect42761" serif:id="rect4276" x="197.965" y="427.113" width="11.171" height="5.483" style="fill-opacity:0.35;"/><rect id="rect36541" serif:id="rect3654" x="145.959" y="401.146" width="26.084" height="11.592" style="fill:#a4a4a4;stroke:#484848;stroke-width:1.55px;"/><rect id="rect42031" serif:id="rect4203" x="143.851" y="389.591" width="30.48" height="11.507" style="fill:#c85eff;stroke:#484848;stroke-width:1.55px;"/><rect id="rect36521" serif:id="rect3652" x="125.095" y="326.486" width="66.156" height="69.175" style="fill:#a4a4a4;stroke:#484848;stroke-width:1.55px;"/><rect id="rect41791" serif:id="rect4179" x="106.261" y="426.273" width="9.209" height="23.857" style="fill:#a4a4a4;stroke:#484848;stroke-width:1.55px;"/><rect id="rect42701" serif:id="rect4270" x="106.826" y="443.878" width="11.171" height="5.483" style="fill:#e3e3e3;"/><rect id="rect42721" serif:id="rect4272" x="107.005" y="427.008" width="11.171" height="5.483" style="fill-opacity:0.35;"/><rect id="rect41661" serif:id="rect4166" x="114.774" y="412.673" width="86.255" height="52.338" style="fill:#f2d100;stroke:#484848;stroke-width:1.55px;"/><path id="rect41871" serif:id="rect4187" d="M188.778,464.189l11.556,0l0,-55.595l-11.556,0c3.338,18.531 5.325,37.063 0,55.595Z" style="fill-opacity:0.33;fill-rule:nonzero;"/><path id="rect41681" serif:id="rect4168" d="M110.976,434.769l11.8,0l11.047,-13.821l47.195,0l12.551,13.821l11.799,0l0,-28.494l-94.392,0l0,28.494Z" style="fill:#ffe08a;fill-rule:nonzero;stroke:#484848;stroke-width:1.55px;"/><path id="path41711" serif:id="path4171" d="M152.647,446.977c0,-6.552 -4.502,-11.864 -10.058,-11.864c-5.554,0 -10.056,5.312 -10.056,11.864c0,6.553 4.502,11.865 10.056,11.865c5.556,0 10.058,-5.312 10.058,-11.865Z" style="fill:#fff;fill-rule:nonzero;stroke:#484848;stroke-width:0.97px;stroke-linecap:butt;stroke-linejoin:miter;"/><path id="path41731" serif:id="path4173" d="M182.801,447.617c0,-6.553 -4.503,-11.865 -10.058,-11.865c-5.554,0 -10.056,5.312 -10.056,11.865c0,6.553 4.502,11.864 10.056,11.864c5.555,0 10.058,-5.311 10.058,-11.864Z" style="fill:#fff;fill-rule:nonzero;stroke:#484848;stroke-width:0.97px;stroke-linecap:butt;stroke-linejoin:miter;"/><path id="path41751" serif:id="path4175" d="M146.012,443.97c0,-4.127 -2.836,-7.472 -6.333,-7.472c-3.498,0 -6.333,3.345 -6.333,7.472c0,4.126 2.835,7.471 6.333,7.471c3.497,0 6.333,-3.345 6.333,-7.471Z" style="fill-rule:nonzero;"/><path id="path41771" serif:id="path4177" d="M176.166,444.395c0,-4.125 -2.836,-7.471 -6.334,-7.471c-3.498,0 -6.333,3.346 -6.333,7.471c0,4.127 2.835,7.472 6.333,7.472c3.498,0 6.334,-3.345 6.334,-7.472Z" style="fill-rule:nonzero;"/><path id="path41851" serif:id="path4185" d="M116.192,436.711l0.723,25.774l37.736,0.639l-34.487,-3.835l-3.972,-22.578Z" style="fill:#e5e5e5;fill-rule:nonzero;"/><path id="rect41891" serif:id="rect4189" d="M193.833,433.941l10.834,0.054l0,-26.839l-17.334,0c1.502,5.558 2.406,11.469 -0.09,19.385l6.59,7.4Z" style="fill-opacity:0.33;fill-rule:nonzero;"/><path id="path41921" serif:id="path4192" d="M112.413,428.218l0.068,-20.43l31.554,-0.034l-28.699,3.205l-2.923,17.259Z" style="fill:#e5e5e5;fill-rule:nonzero;"/><path id="rect41941" serif:id="rect4194" d="M154.832,490.943l3.287,0l4.549,-25.944l-12.638,0l4.802,25.944Z" style="fill:#a4a4a4;fill-rule:nonzero;stroke:#484848;stroke-width:1.55px;stroke-linecap:butt;stroke-linejoin:miter;"/><path id="path41971" serif:id="path4197" d="M164.691,497.952c0,-5.518 -3.565,-9.99 -7.963,-9.99c-4.398,0 -7.963,4.472 -7.963,9.99c0,5.516 3.565,9.99 7.963,9.99c4.398,0 7.963,-4.474 7.963,-9.99Z" style="fill:#604aff;fill-rule:nonzero;stroke:#00054d;stroke-width:1.55px;stroke-linecap:butt;stroke-linejoin:miter;"/><path id="path41991" serif:id="path4199" d="M150.916,501.884c3.604,2.567 7.503,2.312 11.621,-0.023c-3.557,4.968 -7.295,7.098 -11.621,0.023Z" style="fill:#fff;fill-opacity:0.63;fill-rule:nonzero;"/><path id="path42011" serif:id="path4201" d="M149.726,495.171c5.213,-4.196 9.964,-4.737 13.987,0.475c-1.023,-6.998 -10.483,-10.944 -13.987,-0.475Z" style="fill-opacity:0.35;fill-rule:nonzero;"/><rect id="rect42051" serif:id="rect4205" x="143.57" y="340.774" width="29.115" height="4.193" style="fill:#484848;stroke:#484848;stroke-width:0.99px;"/><rect id="rect42071" serif:id="rect4207" x="143.926" y="332.762" width="29.115" height="4.193" style="fill:#484848;stroke:#484848;stroke-width:0.99px;"/><path id="path42091" serif:id="path4209" d="M138.737,338.709c0,-2.999 -2.061,-5.431 -4.605,-5.431c-2.543,0 -4.604,2.432 -4.604,5.431c0,3 2.061,5.432 4.604,5.432c2.544,0 4.605,-2.432 4.605,-5.432Z" style="fill:#f00;fill-rule:nonzero;stroke:#484848;stroke-width:1.57px;"/><path id="path42111" serif:id="path4211" d="M187.356,338.709c0,-2.999 -2.062,-5.431 -4.605,-5.431c-2.542,0 -4.603,2.432 -4.603,5.431c0,3 2.061,5.432 4.603,5.432c2.543,0 4.605,-2.432 4.605,-5.432Z" style="fill:#f00;fill-rule:nonzero;stroke:#484848;stroke-width:1.57px;"/><rect id="rect42131" serif:id="rect4213" x="128.813" y="348.459" width="58.45" height="42.174" style="fill:#dbfffc;stroke:#484848;stroke-width:1.55px;"/><path id="path42151" serif:id="path4215" d="M129.169,366.173l6.793,0l5.005,18.134l3.039,-18.345l3.753,8.012l5.721,-17.924l3.396,11.598l7.865,0.211l3.216,13.918l3.218,-22.564l3.218,14.761l1.787,-7.591l10.368,0" style="fill:none;fill-rule:nonzero;stroke:#00a799;stroke-width:1.55px;"/><path id="path42801" serif:id="path4280" d="M130.546,350.408l0.013,34.796c-0.065,2.299 1.492,3.484 3.034,3.562l50.153,0.15l-48.181,-3.441c-1.715,-0.256 -2.436,-1.35 -2.484,-3.01l-2.625,-26.047l0.09,-6.01Z" style="fill:#fff;fill-opacity:0.95;fill-rule:nonzero;"/><rect id="rect42781" serif:id="rect4278" x="128.813" y="348.459" width="58.45" height="42.174" style="fill:none;stroke:#484848;stroke-width:1.55px;"/><path id="path42821" serif:id="path4282" d="M130.63,340.167c2.174,1.393 4.524,1.255 7.007,-0.013c-2.144,2.696 -4.398,3.852 -7.007,0.013Z" style="fill:#fff;fill-opacity:0.63;fill-rule:nonzero;"/><path id="path42841" serif:id="path4284" d="M179.292,340.204c2.173,1.393 4.524,1.255 7.007,-0.013c-2.145,2.696 -4.399,3.852 -7.007,0.013Z" style="fill:#fff;fill-opacity:0.63;fill-rule:nonzero;"/><rect id="rect42491" serif:id="rect4249" x="128.795" y="284.81" width="26.29" height="10.736" style="fill:#a4a4a4;stroke:#484848;stroke-width:1.55px;"/><rect id="rect42471" serif:id="rect4247" x="128.795" y="294.932" width="26.29" height="10.736" style="fill:#a4a4a4;stroke:#484848;stroke-width:1.55px;"/><rect id="rect42451" serif:id="rect4245" x="128.795" y="305.053" width="26.29" height="10.736" style="fill:#a4a4a4;stroke:#484848;stroke-width:1.55px;"/><rect id="rect42411" serif:id="rect4241" x="128.543" y="315.491" width="26.29" height="10.736" style="fill:#a4a4a4;stroke:#484848;stroke-width:1.55px;"/><path id="path43141" serif:id="path4314" d="M146.87,326.628c1.652,-3.383 3.025,-6.801 0,-10.736c1.9,-3.113 3.789,-6.228 -0.127,-10.438c3.658,-4.032 2.225,-7.064 0.253,-9.99c3.247,-6.458 0.366,-7.388 0,-10.586l7.583,-0.15l-0.632,2.237l1.517,2.684l-0.759,3.877l-2.401,2.237l2.528,2.236l0.506,3.281l-2.654,4.174l1.769,1.939l0.632,3.727l-3.034,4.921l2.275,2.088l0.886,3.131l-1.644,3.727l-1.643,1.641l-4.423,-0.447l-0.632,0.447Z" style="fill:#808080;fill-rule:nonzero;"/><path id="path43261" serif:id="path4326" d="M136.658,326.522c-1.651,-3.383 -3.025,-6.801 0,-10.735c-1.9,-3.113 -3.789,-6.228 0.127,-10.439c-3.658,-4.032 -2.225,-7.064 -0.253,-9.99c-3.247,-6.457 -0.366,-7.387 0,-10.586l-7.583,-0.149l0.632,2.237l-1.517,2.684l0.759,3.876l2.4,2.237l-2.527,2.237l-0.506,3.28l2.654,4.174l-1.768,1.94l-0.633,3.727l3.034,4.921l-2.275,2.086l-0.886,3.132l1.644,3.728l1.643,1.64l4.424,-0.447l0.631,0.447Z" style="fill:#fff;fill-opacity:0.63;fill-rule:nonzero;"/><rect id="rect43241" serif:id="rect4324" x="128.795" y="284.81" width="26.29" height="10.209" style="fill:none;stroke:#484848;stroke-width:1.55px;"/><rect id="rect43221" serif:id="rect4322" x="128.795" y="294.933" width="26.29" height="10.103" style="fill:none;stroke:#484848;stroke-width:1.55px;"/><rect id="rect43201" serif:id="rect4320" x="128.795" y="305.054" width="26.29" height="10.314" style="fill:none;stroke:#484848;stroke-width:1.55px;"/><rect id="rect43181" serif:id="rect4318" x="128.543" y="315.491" width="26.29" height="10.736" style="fill:none;stroke:#484848;stroke-width:1.55px;"/><path id="path42591" serif:id="path4259" d="M155.338,269.52c-2.754,-0.266 -44.105,-0.854 -44.996,0.298c0,11.446 10.508,20.726 23.469,20.726c7.371,0 16.448,-1.51 20.751,-4.115c0.72,-1.56 0.776,-11.972 0.776,-16.909Z" style="fill:#ff04b5;fill-rule:nonzero;stroke:#484848;stroke-width:1.55px;"/><path id="path43081" serif:id="path4308" d="M110.468,271.905c22.77,0.949 44.679,-3.143 40.067,16.103l4.423,-1.789l0.38,-16.998l-44.744,0.149l-0.126,2.535Z" style="fill:#808080;fill-rule:nonzero;"/><path id="path43101" serif:id="path4310" d="M155.338,269.52c-2.754,-0.266 -44.105,-0.854 -44.996,0.298c0,11.446 10.508,20.726 23.469,20.726c7.371,0 16.448,-1.51 20.751,-4.115c0.72,-1.56 0.776,-11.972 0.776,-16.909Z" style="fill:none;fill-rule:nonzero;stroke:#484848;stroke-width:1.55px;"/><path id="path43121" serif:id="path4312" d="M114.713,277.829c5.064,5.073 10.179,9.016 22.512,10.242c-9.196,1.827 -18.555,-1.176 -22.512,-10.242Z" style="fill:#fff;fill-opacity:0.63;fill-rule:nonzero;"/></g><path d="M1.5,255.887l311.811,0" style="fill:none;fill-rule:nonzero;stroke:#ef003a;stroke-width:3px;stroke-miterlimit:10;"/></g></svg>