<?xml version="1.0" encoding="UTF-8" standalone="no"?><!DOCTYPE svg PUBLIC "-//W3C//DTD SVG 1.1//EN" "http://www.w3.org/Graphics/SVG/1.1/DTD/svg11.dtd"><svg width="100%" height="100%" viewBox="0 0 579 527" version="1.1" xmlns="http://www.w3.org/2000/svg" xmlns:xlink="http://www.w3.org/1999/xlink" xml:space="preserve" xmlns:serif="http://www.serif.com/" style="fill-rule:evenodd;clip-rule:evenodd;stroke-linecap:round;stroke-linejoin:round;stroke-miterlimit:1.5;"><g><path d="M286.43,0.5l33.327,63.445l-66.655,0l33.328,-63.445Z" style="fill:#9dff97;stroke:#000;stroke-width:1px;"/><rect x="203.011" y="111.78" width="55.838" height="54.885" style="fill:#b0a7ff;stroke:#000;stroke-width:1px;"/><path d="M387.554,166.665l-84.179,0l21.045,-57.314l42.089,0l21.045,57.314Z" style="fill:#b0a7ff;stroke:#000;stroke-width:1px;"/><path d="M147.322,210.593l31.327,21.122l-11.966,34.176l-38.722,0l-11.966,-34.176l31.327,-21.122Z" style="fill:#ffeb86;stroke:#000;stroke-width:1px;"/><path d="M105.42,337.45l22.064,-27.706l-0.174,19.971l44.081,-0.377l0.47,20.413l-45.471,-0.257l0.148,16.293l-21.118,-28.337Z" style="fill:#2e99ff;stroke:#000;stroke-width:1px;"/><path d="M361.784,208.082l25.721,14.452l0,28.905l-25.721,14.452l-25.721,-14.452l0,-28.905l25.721,-14.452Z" style="fill:#ff7aea;stroke:#000;stroke-width:1px;"/><path d="M435.791,208.091l-6.754,32.991l-21.71,24.809l20.542,-9.93l8.186,-4.335l26.431,13.32l-19.116,-24.526l-7.579,-32.329Z" style="fill:#ff7aea;stroke:#000;stroke-width:1px;"/><path d="M61.754,305.395l22.464,8.844l9.304,21.352l-9.304,21.352l-22.464,8.844l-22.463,-8.844l-9.305,-21.352l9.305,-21.352l22.463,-8.844Z" style="fill:#2e99ff;stroke:#000;stroke-width:1px;"/><path d="M212.132,228.893l-0.224,36.998l66.776,-0.295l1.089,-54.165l-27.916,27.383l-39.725,-9.921Z" style="fill:#ffeb86;stroke:#000;stroke-width:1px;"/><path d="M418.537,309.162l20.204,6.83l10.751,17.293l-3.734,19.666l-16.471,12.836l-21.501,0l-16.471,-12.836l-3.733,-19.666l10.75,-17.293l20.205,-6.83Z" style="fill:#bac900;stroke:#000;stroke-width:1px;"/><path d="M472.191,365.49l72.373,0.297l0.199,-55.611l-14.205,27.56l-10.602,-25.382l-13.027,25.714l-11.32,-26.78l-11.103,26.18l-13.255,-26.701l0.94,54.723Z" style="fill:#bac900;stroke:#000;stroke-width:1px;"/><path d="M233.073,307.301l22.894,8.565l9.483,20.678l-9.483,20.678l-22.894,8.565l-22.893,-8.565l-9.483,-20.678l9.483,-20.678l22.893,-8.565Z" style="fill:#ff6001;stroke:#000;stroke-width:1px;"/><path d="M35.474,431.554l21.615,6.2l13.359,16.23l0,20.061l-13.359,16.23l-21.615,6.2l-21.615,-6.2l-13.359,-16.23l0,-20.061l13.359,-16.23l21.615,-6.2Z" style="fill:#ffca9e;stroke:#000;stroke-width:1px;"/><path d="M142.34,426.018l8.648,25.711l27.985,0l-22.64,15.89l8.648,25.711l-22.641,-15.891l-22.641,15.891l8.648,-25.711l-22.64,-15.89l27.985,0l8.648,-25.711Z" style="fill:#ffca9e;stroke:#000;stroke-width:1px;"/><path d="M409.295,426.002l23.883,0l0,22.658l23.883,0l0,22.659l-23.883,0l0,22.659l-23.883,0l0,-22.659l-23.883,0l0,-22.659l23.883,0l0,-22.658Z" style="fill:#a3fffb;fill-rule:nonzero;stroke:#000;stroke-width:1px;stroke-linecap:butt;stroke-linejoin:miter;stroke-miterlimit:4;"/><path d="M540.122,419.16l8.333,25.609l29.452,-6.475l-21.12,19.134l21.12,19.134l-29.452,-6.475l-8.333,25.609l-8.332,-25.609l-29.453,6.475l21.12,-19.134l-21.12,-19.134l29.453,6.475l8.332,-25.609Z" style="fill:#a3fffb;stroke:#000;stroke-width:1px;"/><g><path d="M236.748,442.045l19.674,-16.533l28.762,28.911l27.765,-0.192l30.075,-28.095l-14.03,40.817l14.854,29.522l-45.357,-25.139l-43.06,24.008l8.805,-43.825l-15.164,5.418l-12.324,-14.892Z" style="fill:#ff3681;stroke:#000;stroke-width:1px;"/><ellipse cx="252.458" cy="439.916" rx="3.541" ry="3.618" style="fill:#ff3681;stroke:#000;stroke-width:1.5px;"/></g><path d="M284.939,310.09l79.477,0l0,52.806l-19.869,0l0,-35.204l-39.739,0l0,35.204l-19.869,0l0,-52.806Z" style="fill:#ff6001;fill-rule:nonzero;stroke:#000;stroke-width:1px;stroke-linecap:butt;stroke-linejoin:miter;stroke-miterlimit:4;"/><text x="243.417px" y="84.711px" style="font-family:'ArialMT', 'Arial', sans-serif;font-size:12px;">3 côtés (triangle)</text><text x="224.277px" y="193.474px" style="font-family:'ArialMT', 'Arial', sans-serif;font-size:12px;">4 côtés (quadrilatère)</text><text x="144.485px" y="291.453px" style="font-family:'ArialMT', 'Arial', sans-serif;font-size:12px;">5 côtés (pentagone)</text><text x="53.598px" y="398.556px" style="font-family:'ArialMT', 'Arial', sans-serif;font-size:12px;">7 côtés (heptagone)</text><text x="235.61px" y="398.556px" style="font-family:'ArialMT', 'Arial', sans-serif;font-size:12px;">8 côtés (octogone)</text><text x="419.503px" y="398.556px" style="font-family:'ArialMT', 'Arial', sans-serif;font-size:12px;">9 côtés (nonagone)</text><text x="35.059px" y="524.253px" style="font-family:'ArialMT', 'Arial', sans-serif;font-size:12px;">10 côtés (décagone)</text><text x="230.253px" y="524.253px" style="font-family:'ArialMT', 'Arial', sans-serif;font-size:12px;">1<tspan x="236.036px 242.71px " y="524.253px 524.253px ">1 </tspan>côtés (hendécagone)</text><text x="430.179px" y="524.253px" style="font-family:'ArialMT', 'Arial', sans-serif;font-size:12px;">12 côtés (dodécagone)</text><text x="351.526px" y="291.453px" style="font-family:'ArialMT', 'Arial', sans-serif;font-size:12px;">6 côtés (hexagone)</text></g></svg>