<?xml version="1.0" encoding="UTF-8" standalone="no"?><!DOCTYPE svg PUBLIC "-//W3C//DTD SVG 1.1//EN" "http://www.w3.org/Graphics/SVG/1.1/DTD/svg11.dtd"><svg width="100%" height="100%" viewBox="0 0 574 127" version="1.1" xmlns="http://www.w3.org/2000/svg" xmlns:xlink="http://www.w3.org/1999/xlink" xml:space="preserve" xmlns:serif="http://www.serif.com/" style="fill-rule:evenodd;clip-rule:evenodd;stroke-linejoin:round;stroke-miterlimit:2;"><g><g><g transform="matrix(1.27511,0,0,1.27511,-792.833,-162.498)"><text x="644.127px" y="137.427px" style="font-family:'ArialMT', 'Arial', sans-serif;font-size:12px;fill:#ff3520;">km</text><text x="660.123px" y="133.431px" style="font-family:'ArialMT', 'Arial', sans-serif;font-size:6.996px;fill:#ff3520;">2</text><text x="707.987px" y="137.427px" style="font-family:'ArialMT', 'Arial', sans-serif;font-size:12px;">hm</text><text x="724.657px" y="133.431px" style="font-family:'ArialMT', 'Arial', sans-serif;font-size:6.996px;">2</text><text x="768.67px" y="137.538px" style="font-family:'ArialMT', 'Arial', sans-serif;font-size:12.156px;">dam</text><text x="792.316px" y="133.49px" style="font-family:'ArialMT', 'Arial', sans-serif;font-size:7.087px;">2</text><text x="839.626px" y="137.538px" style="font-family:'ArialMT', 'Arial', sans-serif;font-size:12.156px;fill:#ff3520;">m</text><text x="849.752px" y="133.49px" style="font-family:'ArialMT', 'Arial', sans-serif;font-size:7.087px;fill:#ff3520;">2</text><text x="900.443px" y="137.538px" style="font-family:'ArialMT', 'Arial', sans-serif;font-size:12.156px;">dm</text><text x="917.329px" y="133.49px" style="font-family:'ArialMT', 'Arial', sans-serif;font-size:7.087px;">2</text><text x="964.98px" y="137.538px" style="font-family:'ArialMT', 'Arial', sans-serif;font-size:12.156px;fill:#ff3520;">cm</text><text x="981.184px" y="133.49px" style="font-family:'ArialMT', 'Arial', sans-serif;font-size:7.087px;fill:#ff3520;">2</text><text x="1027.15px" y="137.538px" style="font-family:'ArialMT', 'Arial', sans-serif;font-size:12.156px;">mm</text><text x="1047.4px" y="133.49px" style="font-family:'ArialMT', 'Arial', sans-serif;font-size:7.087px;">2</text><text x="713.906px" y="152.308px" style="font-family:'ArialMT', 'Arial', sans-serif;font-size:7.842px;">ha</text><text x="780.283px" y="152.308px" style="font-family:'ArialMT', 'Arial', sans-serif;font-size:7.842px;">a</text><text x="842.519px" y="152.308px" style="font-family:'ArialMT', 'Arial', sans-serif;font-size:7.842px;">ca</text><text x="647.481px" y="172.479px" style="font-family:'ArialMT', 'Arial', sans-serif;font-size:18.822px;fill:#ff3a23;">••</text><text x="711.678px" y="172.479px" style="font-family:'ArialMT', 'Arial', sans-serif;font-size:18.822px;">••</text><text x="775.874px" y="172.479px" style="font-family:'ArialMT', 'Arial', sans-serif;font-size:18.822px;">••</text><text x="840.071px" y="172.479px" style="font-family:'ArialMT', 'Arial', sans-serif;font-size:18.822px;fill:#ff391c;">••</text><text x="904.267px" y="172.479px" style="font-family:'ArialMT', 'Arial', sans-serif;font-size:18.822px;">••</text><text x="968.463px" y="172.479px" style="font-family:'ArialMT', 'Arial', sans-serif;font-size:18.822px;">••</text><text x="1032.66px" y="172.479px" style="font-family:'ArialMT', 'Arial', sans-serif;font-size:18.822px;fill:#ff3524;">••</text><text x="843.323px" y="183.075px" style="font-family:'ArialMT', 'Arial', sans-serif;font-size:12px;">1</text><text x="904.183px" y="183.075px" style="font-family:'ArialMT', 'Arial', sans-serif;font-size:12px;">00</text><text x="968.379px" y="183.075px" style="font-family:'ArialMT', 'Arial', sans-serif;font-size:12px;">00</text><text x="1032.58px" y="183.075px" style="font-family:'ArialMT', 'Arial', sans-serif;font-size:12px;">00</text><text x="779.127px" y="196.383px" style="font-family:'ArialMT', 'Arial', sans-serif;font-size:12px;">1</text><text x="839.986px" y="196.383px" style="font-family:'ArialMT', 'Arial', sans-serif;font-size:12px;">00</text><text x="714.93px" y="209.691px" style="font-family:'ArialMT', 'Arial', sans-serif;font-size:12px;">1</text><text x="775.79px" y="209.691px" style="font-family:'ArialMT', 'Arial', sans-serif;font-size:12px;">00</text><text x="971.716px" y="209.691px" style="font-family:'ArialMT', 'Arial', sans-serif;font-size:12px;">1</text><text x="1032.58px" y="209.691px" style="font-family:'ArialMT', 'Arial', sans-serif;font-size:12px;">00</text><text x="698.255px" y="222.153px" style="font-family:'ArialMT', 'Arial', sans-serif;font-size:12px;">hectare</text><text x="773.792px" y="222.153px" style="font-family:'ArialMT', 'Arial', sans-serif;font-size:12px;">are</text><text x="826.981px" y="222.153px" style="font-family:'ArialMT', 'Arial', sans-serif;font-size:12px;">centiare</text><path d="M621.973,127.635l0,98.426m449.374,-98.426l0,98.426m-385.178,-98.23l0,98.034m64.196,-98.034l0,98.034m64.197,-98.034l0,98.034m64.196,-98.034l0,98.034m64.197,-98.034l0,98.034m64.196,-98.034l0,98.034m-385.178,-98.034l449.374,0m-449.374,17.859l449.374,0m-449.374,12.307l449.374,0m-449.374,15.482l449.374,0m-449.374,13.308l449.374,0m-449.374,13.308l449.374,0m-449.374,12.462l449.374,0m-449.374,13.308l449.374,0" style="fill:none;stroke:#000;stroke-width:0.39px;"/></g></g></g></svg>