<?xml version="1.0" encoding="UTF-8" standalone="no"?><!DOCTYPE svg PUBLIC "-//W3C//DTD SVG 1.1//EN" "http://www.w3.org/Graphics/SVG/1.1/DTD/svg11.dtd"><svg width="100%" height="100%" viewBox="0 0 246 60" version="1.1" xmlns="http://www.w3.org/2000/svg" xmlns:xlink="http://www.w3.org/1999/xlink" xml:space="preserve" xmlns:serif="http://www.serif.com/" style="fill-rule:evenodd;clip-rule:evenodd;stroke-linejoin:round;stroke-miterlimit:2;"><g><g><g><g><g transform="matrix(1,0,0,1,-541.871,-305.674)"><text x="543.121px" y="315.77px" style="font-family:'ArialMT', 'Arial', sans-serif;font-size:12px;">km</text><text x="559.117px" y="311.774px" style="font-family:'ArialMT', 'Arial', sans-serif;font-size:6.996px;">2</text><text x="571.62px" y="315.77px" style="font-family:'ArialMT', 'Arial', sans-serif;font-size:12px;">se lit: kilomètre carré</text><text x="543.121px" y="330.316px" style="font-family:'ArialMT', 'Arial', sans-serif;font-size:12px;">1m</text><text x="559.791px" y="326.32px" style="font-family:'ArialMT', 'Arial', sans-serif;font-size:6.996px;">2</text><text x="572.294px" y="330.316px" style="font-family:'ArialMT', 'Arial', sans-serif;font-size:12px;">se lit: un mètre carré</text><text x="543.121px" y="344.862px" style="font-family:'ArialMT', 'Arial', sans-serif;font-size:12px;">cm</text><text x="559.117px" y="340.866px" style="font-family:'ArialMT', 'Arial', sans-serif;font-size:6.996px;">2</text><text x="571.62px" y="344.862px" style="font-family:'ArialMT', 'Arial', sans-serif;font-size:12px;">se lit: centimètre carré</text><text x="543.121px" y="359.408px" style="font-family:'ArialMT', 'Arial', sans-serif;font-size:12px;">1 a  =   100 m</text><text x="616.832px" y="355.412px" style="font-family:'ArialMT', 'Arial', sans-serif;font-size:6.996px;">2</text><text x="633.222px" y="359.408px" style="font-family:'ArialMT', 'Arial', sans-serif;font-size:12px;">un are = cent mètres carrés</text><path d="M542.121,305.924l0,58.684m245.276,-58.684l0,58.684m-245.276,-58.434l245.276,0m-245.276,14.546l245.276,0m-245.276,14.546l245.276,0m-245.276,14.546l245.276,0m-245.276,14.546l245.276,0" style="fill:none;stroke:#000;stroke-width:0.5px;"/></g></g></g></g></g></svg>