<?xml version="1.0" encoding="UTF-8" standalone="no"?><!DOCTYPE svg PUBLIC "-//W3C//DTD SVG 1.1//EN" "http://www.w3.org/Graphics/SVG/1.1/DTD/svg11.dtd"><svg width="100%" height="100%" viewBox="0 0 710 365" version="1.1" xmlns="http://www.w3.org/2000/svg" xmlns:xlink="http://www.w3.org/1999/xlink" xml:space="preserve" xmlns:serif="http://www.serif.com/" style="fill-rule:evenodd;clip-rule:evenodd;stroke-linecap:round;stroke-linejoin:round;stroke-miterlimit:1.5;"><g><path d="M62.052,30.432l102.588,90.709l-164.14,0l61.552,-90.709Z" style="fill:none;stroke:#000;stroke-width:1px;"/><path d="M265.369,30.762l43.691,91.214l109.227,0l-152.918,-91.214Z" style="fill:none;stroke:#000;stroke-width:1px;"/><path d="M265.369,30.762l0,91.214l43.691,0" style="fill:none;stroke:#ec0055;stroke-width:1px;stroke-dasharray:3,3,3,3;"/><path d="M265.369,115.135l6.554,0l0,6.841" style="fill:none;stroke:#e70079;stroke-width:1px;"/><path d="M536.248,121.976l113.386,0l-56.693,-104.882l-56.693,104.882Z" style="fill:none;stroke:#000;stroke-width:1px;"/><path d="M592.941,17.094l0,104.882" style="fill:none;stroke:#000;stroke-width:1px;"/><path d="M592.941,114.462l8.504,0l0,7.514" style="fill:none;stroke:#e30060;stroke-width:1px;"/><text x="553.587px" y="8.682px" style="font-family:'ArialMT', 'Arial', sans-serif;font-size:12px;fill:#db005e;">triangle isocèle</text><path d="M28.846,207.015l0,141.732l113.386,0l-113.386,-141.732Z" style="fill:none;stroke:#000;stroke-width:1px;"/><path d="M255.618,207.015l0,141.732l141.732,0l-141.732,-141.732" style="fill:none;stroke:#000;stroke-width:1px;"/><path d="M255.618,340.243l8.504,0l0,8.504" style="fill:none;stroke:#f60074;stroke-width:1px;"/><path d="M505.067,348.747l154.241,0l-77.121,-128.534l-77.12,128.534Z" style="fill:none;stroke:#000;stroke-width:1px;"/><path d="M582.187,348.747l0,-128.534" style="fill:none;stroke:#eb0068;stroke-width:1px;"/><path d="M582.187,341.035l7.712,0l0,7.712" style="fill:none;stroke:#de0072;stroke-width:1px;"/><text x="530.579px" y="209.85px" style="font-family:'ArialMT', 'Arial', sans-serif;font-size:12px;fill:#db005e;">triangle équilatéral</text><path d="M28.846,340.243l8.504,0l0,8.504" style="fill:none;stroke:#f7006b;stroke-width:1px;"/><text x="47.739px" y="209.85px" style="font-family:'ArialMT', 'Arial', sans-serif;font-size:12px;fill:#db005e;">triangle rectangle</text><text x="276.804px" y="209.85px" style="font-family:'ArialMT', 'Arial', sans-serif;font-size:12px;fill:#db005e;">triangle rectangle isocèle</text><text x="134.475px" y="8.59px" style="font-family:'ArialMT', 'Arial', sans-serif;font-size:12px;fill:#db005e;">triangles quelconques</text><g transform="matrix(1,0,0,1,-123.687,-115.355)"><text x="289.134px" y="140.391px" style="font-family:'ArialMT', 'Arial', sans-serif;font-size:10px;fill:#0605ff;">propriétés</text><text x="289.134px" y="162.719px" style="font-family:'ArialMT', 'Arial', sans-serif;font-size:10px;">3 angles inégaux</text><text x="289.134px" y="185.046px" style="font-family:'ArialMT', 'Arial', sans-serif;font-size:10px;">3 côtés inégaux</text></g><g transform="matrix(1,0,0,1,-193.895,84.8379)"><text x="289.134px" y="140.391px" style="font-family:'ArialMT', 'Arial', sans-serif;font-size:10px;fill:#0605ff;">propriétés</text><text x="289.134px" y="162.719px" style="font-family:'ArialMT', 'Arial', sans-serif;font-size:10px;">1 angle droit</text><text x="289.134px" y="185.046px" style="font-family:'ArialMT', 'Arial', sans-serif;font-size:10px;">2 côtés perpendiculaires</text></g><g transform="matrix(1,0,0,1,82.1285,84.8379)"><text x="289.134px" y="140.391px" style="font-family:'ArialMT', 'Arial', sans-serif;font-size:10px;fill:#0605ff;">propriétés</text><text x="289.134px" y="162.719px" style="font-family:'ArialMT', 'Arial', sans-serif;font-size:10px;">1 angle droit</text><text x="289.134px" y="185.046px" style="font-family:'ArialMT', 'Arial', sans-serif;font-size:10px;">2 côtés égaux</text><text x="289.134px" y="207.373px" style="font-family:'ArialMT', 'Arial', sans-serif;font-size:10px;">1 demi-carré</text></g><g transform="matrix(1,0,0,1,334.988,84.8379)"><text x="289.134px" y="140.391px" style="font-family:'ArialMT', 'Arial', sans-serif;font-size:10px;fill:#0605ff;">propriétés</text><text x="289.134px" y="162.719px" style="font-family:'ArialMT', 'Arial', sans-serif;font-size:10px;">3 angles égaux 60°</text><text x="289.134px" y="185.046px" style="font-family:'ArialMT', 'Arial', sans-serif;font-size:10px;">3 côtés égaux</text></g><g transform="matrix(1,0,0,1,185.061,-115.355)"><text x="289.134px" y="140.391px" style="font-family:'ArialMT', 'Arial', sans-serif;font-size:10px;fill:#0605ff;">propriétés</text><text x="289.134px" y="162.719px" style="font-family:'ArialMT', 'Arial', sans-serif;font-size:10px;">2 côtés égaux</text><text x="289.134px" y="185.046px" style="font-family:'ArialMT', 'Arial', sans-serif;font-size:10px;">2 angles égaux</text></g><text x="606.314px" y="114.552px" style="font-family:'ArialMT', 'Arial', sans-serif;font-size:10px;">90°</text><text x="274.915px" y="114.552px" style="font-family:'ArialMT', 'Arial', sans-serif;font-size:10px;">90°</text><text x="40.428px" y="344.993px" style="font-family:'ArialMT', 'Arial', sans-serif;font-size:10px;">90°</text><text x="269.386px" y="344.993px" style="font-family:'ArialMT', 'Arial', sans-serif;font-size:10px;">90°</text><text x="595.807px" y="344.993px" style="font-family:'ArialMT', 'Arial', sans-serif;font-size:10px;">90°</text><text x="303.66px" y="93.629px" style="font-family:'ArialMT', 'Arial', sans-serif;font-size:10px;fill:#2c02ff;">A</text><text x="7.654px" y="72.446px" style="font-family:'ArialMT', 'Arial', sans-serif;font-size:10px;fill:#2c02ff;">A</text><text x="537.083px" y="93.629px" style="font-family:'ArialMT', 'Arial', sans-serif;font-size:10px;fill:#2c02ff;">A</text><text x="510.736px" y="308.275px" style="font-family:'ArialMT', 'Arial', sans-serif;font-size:10px;fill:#2c02ff;">A</text><text x="7.654px" y="308.275px" style="font-family:'ArialMT', 'Arial', sans-serif;font-size:10px;fill:#2c02ff;">A</text><text x="227.272px" y="308.275px" style="font-family:'ArialMT', 'Arial', sans-serif;font-size:10px;fill:#2c02ff;">A</text><text x="340.657px" y="136.257px" style="font-family:'ArialMT', 'Arial', sans-serif;font-size:10px;fill:#2c02ff;">B (base)</text><text x="220.159px" y="100.792px" style="font-family:'ArialMT', 'Arial', sans-serif;font-size:10px;fill:#f20064;">(hauteur)</text><text x="537.736px" y="304.539px" style="font-family:'ArialMT', 'Arial', sans-serif;font-size:10px;fill:#f20064;">(hauteur)</text><text x="576.801px" y="136.257px" style="font-family:'ArialMT', 'Arial', sans-serif;font-size:10px;fill:#2c02ff;">B (base)</text><text x="64.347px" y="136.257px" style="font-family:'ArialMT', 'Arial', sans-serif;font-size:10px;fill:#2c02ff;">B</text><text x="327.539px" y="364.087px" style="font-family:'ArialMT', 'Arial', sans-serif;font-size:10px;fill:#2c02ff;">B</text><text x="74.854px" y="364.087px" style="font-family:'ArialMT', 'Arial', sans-serif;font-size:10px;fill:#2c02ff;">B</text><text x="581.971px" y="364.087px" style="font-family:'ArialMT', 'Arial', sans-serif;font-size:10px;fill:#2c02ff;">B</text><text x="347.812px" y="72.446px" style="font-family:'ArialMT', 'Arial', sans-serif;font-size:10px;fill:#2c02ff;">C</text><text x="121.04px" y="72.446px" style="font-family:'ArialMT', 'Arial', sans-serif;font-size:10px;fill:#2c02ff;">C</text><text x="129.999px" y="320.401px" style="font-family:'ArialMT', 'Arial', sans-serif;font-size:10px;fill:#2c02ff;">C  (l&apos;hypoténuse)</text><text x="384.183px" y="320.401px" style="font-family:'ArialMT', 'Arial', sans-serif;font-size:10px;fill:#2c02ff;">C  (l&apos;hypoténuse)</text><text x="642.451px" y="93.629px" style="font-family:'ArialMT', 'Arial', sans-serif;font-size:10px;fill:#2c02ff;">C</text><text x="644.469px" y="308.275px" style="font-family:'ArialMT', 'Arial', sans-serif;font-size:10px;fill:#2c02ff;">C</text></g></svg>