<?xml version="1.0" encoding="UTF-8" standalone="no"?><!DOCTYPE svg PUBLIC "-//W3C//DTD SVG 1.1//EN" "http://www.w3.org/Graphics/SVG/1.1/DTD/svg11.dtd"><svg width="100%" height="100%" viewBox="0 0 425 425" version="1.1" xmlns="http://www.w3.org/2000/svg" xmlns:xlink="http://www.w3.org/1999/xlink" xml:space="preserve" xmlns:serif="http://www.serif.com/" style="fill-rule:evenodd;clip-rule:evenodd;stroke-miterlimit:10;"><g><rect x="143.382" y="143.382" width="137.955" height="137.955" style="fill:#fff;stroke:#000;stroke-width:2px;"/><path d="M143.382,143.382l68.978,-133.332" style="fill:none;stroke:#000;stroke-width:2px;"/><path d="M212.36,10.05l68.977,133.332" style="fill:none;stroke:#000;stroke-width:2px;"/><path d="M143.382,281.337l68.978,133.332" style="fill:none;stroke:#000;stroke-width:2px;"/><path d="M212.36,414.669l68.977,-133.332" style="fill:none;stroke:#000;stroke-width:2px;"/><path d="M281.337,143.382l133.332,68.978" style="fill:none;stroke:#000;stroke-width:2px;"/><path d="M414.669,212.36l-133.332,68.977" style="fill:none;stroke:#000;stroke-width:2px;"/><path d="M143.382,281.337l-133.332,-68.977" style="fill:none;stroke:#000;stroke-width:2px;"/><path d="M10.05,212.36l133.332,-68.978" style="fill:none;stroke:#000;stroke-width:2px;"/><path d="M106.119,124.968l35.85,19.382l-131.919,68.074l96.069,-87.456Z" style="fill:#dafdff;stroke:#000;stroke-width:2px;stroke-linecap:round;stroke-linejoin:round;stroke-miterlimit:1.5;"/><path d="M124.468,318.321l19.382,-35.85l68.075,131.919l-87.457,-96.069Z" style="fill:#dafdff;stroke:#000;stroke-width:2px;stroke-linecap:round;stroke-linejoin:round;stroke-miterlimit:1.5;"/><path d="M299.862,106.092l-19.382,35.85l-68.075,-131.919l87.457,96.069Z" style="fill:#dafdff;stroke:#000;stroke-width:2px;stroke-linecap:round;stroke-linejoin:round;stroke-miterlimit:1.5;"/><path d="M318.877,300.148l-35.856,-19.372l131.9,-68.112l-96.044,87.484Z" style="fill:#dafdff;stroke:#000;stroke-width:2px;stroke-linecap:round;stroke-linejoin:round;stroke-miterlimit:1.5;"/></g></svg>