<?xml version="1.0" encoding="UTF-8" standalone="no"?><!DOCTYPE svg PUBLIC "-//W3C//DTD SVG 1.1//EN" "http://www.w3.org/Graphics/SVG/1.1/DTD/svg11.dtd"><svg width="100%" height="100%" viewBox="0 0 770 430" version="1.1" xmlns="http://www.w3.org/2000/svg" xmlns:xlink="http://www.w3.org/1999/xlink" xml:space="preserve" xmlns:serif="http://www.serif.com/" style="fill-rule:evenodd;clip-rule:evenodd;stroke-linecap:round;stroke-linejoin:round;stroke-miterlimit:1.5;"><g><rect x="0.75" y="41.6" width="41.06" height="40.403" style="fill:#e8c9ff;stroke:#000;stroke-width:1.5px;"/><rect x="41.81" y="41.6" width="41.06" height="40.403" style="fill:#e8c9ff;stroke:#000;stroke-width:1.5px;"/><rect x="82.87" y="0.899" width="41.06" height="40.403" style="fill:#e8c9ff;stroke:#000;stroke-width:1.5px;"/><rect x="82.87" y="41.6" width="41.06" height="40.403" style="fill:#e8c9ff;stroke:#000;stroke-width:1.5px;"/><rect x="123.93" y="82.003" width="41.06" height="40.403" style="fill:#e8c9ff;stroke:#000;stroke-width:1.5px;"/><rect x="123.647" y="41.302" width="41.06" height="40.403" style="fill:#e8c9ff;stroke:#000;stroke-width:1.5px;"/><rect x="0.75" y="205.329" width="41.06" height="40.403" style="fill:#c7d2ff;stroke:#000;stroke-width:1.5px;"/><rect x="41.81" y="205.329" width="41.06" height="40.403" style="fill:#c7d2ff;stroke:#000;stroke-width:1.5px;"/><rect x="82.587" y="164.628" width="41.06" height="40.403" style="fill:#c7d2ff;stroke:#000;stroke-width:1.5px;"/><rect x="82.87" y="205.329" width="41.06" height="40.403" style="fill:#c7d2ff;stroke:#000;stroke-width:1.5px;"/><rect x="82.87" y="245.435" width="41.06" height="40.403" style="fill:#c7d2ff;stroke:#000;stroke-width:1.5px;"/><rect x="123.93" y="164.926" width="41.06" height="40.403" style="fill:#c7d2ff;stroke:#000;stroke-width:1.5px;"/><rect x="196.382" y="205.329" width="41.06" height="40.403" style="fill:#f7ffc2;stroke:#000;stroke-width:1.5px;"/><rect x="237.442" y="205.329" width="41.06" height="40.403" style="fill:#f7ffc2;stroke:#000;stroke-width:1.5px;"/><rect x="278.219" y="164.628" width="41.06" height="40.403" style="fill:#f7ffc2;stroke:#000;stroke-width:1.5px;"/><rect x="278.502" y="205.329" width="41.06" height="40.403" style="fill:#f7ffc2;stroke:#000;stroke-width:1.5px;"/><rect x="237.442" y="245.733" width="41.06" height="40.403" style="fill:#f7ffc2;stroke:#000;stroke-width:1.5px;"/><rect x="319.279" y="205.032" width="41.06" height="40.403" style="fill:#f7ffc2;stroke:#000;stroke-width:1.5px;"/><rect x="460.915" y="286.136" width="41.06" height="40.403" style="fill:#ffc693;stroke:#000;stroke-width:1.5px;"/><rect x="420.138" y="205.329" width="41.06" height="40.403" style="fill:#ffc693;stroke:#000;stroke-width:1.5px;"/><rect x="460.915" y="164.628" width="41.06" height="40.403" style="fill:#ffc693;stroke:#000;stroke-width:1.5px;"/><rect x="461.198" y="205.329" width="41.06" height="40.403" style="fill:#ffc693;stroke:#000;stroke-width:1.5px;"/><rect x="461.198" y="245.733" width="41.06" height="40.403" style="fill:#ffc693;stroke:#000;stroke-width:1.5px;"/><rect x="501.975" y="205.032" width="41.06" height="40.403" style="fill:#ffc693;stroke:#000;stroke-width:1.5px;"/><rect x="656.073" y="286.136" width="41.06" height="40.403" style="fill:#ff1bf6;stroke:#000;stroke-width:1.5px;"/><rect x="614.73" y="164.926" width="41.06" height="40.403" style="fill:#ff1bf6;stroke:#000;stroke-width:1.5px;"/><rect x="655.79" y="164.628" width="41.06" height="40.403" style="fill:#ff1bf6;stroke:#000;stroke-width:1.5px;"/><rect x="656.073" y="205.329" width="41.06" height="40.403" style="fill:#ff1bf6;stroke:#000;stroke-width:1.5px;"/><rect x="656.073" y="245.733" width="41.06" height="40.403" style="fill:#ff1bf6;stroke:#000;stroke-width:1.5px;"/><rect x="697.133" y="164.926" width="41.06" height="40.403" style="fill:#ff1bf6;stroke:#000;stroke-width:1.5px;"/><rect x="50.524" y="348.333" width="41.06" height="40.403" style="fill:#0bf9bf;stroke:#000;stroke-width:1.5px;"/><rect x="91.584" y="348.333" width="41.06" height="40.403" style="fill:#0bf9bf;stroke:#000;stroke-width:1.5px;"/><rect x="50.524" y="307.632" width="41.06" height="40.403" style="fill:#00ffb6;"/><rect x="50.524" y="307.632" width="41.06" height="40.403" style="fill:none;stroke:#000;stroke-width:1.5px;"/><rect x="132.644" y="348.333" width="41.06" height="40.403" style="fill:#0bf9bf;stroke:#000;stroke-width:1.5px;"/><rect x="173.704" y="388.737" width="41.06" height="40.403" style="fill:#0bf9bf;stroke:#000;stroke-width:1.5px;"/><rect x="173.421" y="348.036" width="41.06" height="40.403" style="fill:#0bf9bf;stroke:#000;stroke-width:1.5px;"/><rect x="360.339" y="388.439" width="41.06" height="40.403" style="fill:#ff9f9e;stroke:#000;stroke-width:1.5px;"/><rect x="319.279" y="348.333" width="41.06" height="40.403" style="fill:#ff9f9e;stroke:#000;stroke-width:1.5px;"/><rect x="278.219" y="307.632" width="41.06" height="40.403" style="fill:#ff9f9e;stroke:#000;stroke-width:1.5px;"/><rect x="360.339" y="348.333" width="41.06" height="40.403" style="fill:#ff9f9e;stroke:#000;stroke-width:1.5px;"/><rect x="319.279" y="307.93" width="41.06" height="40.403" style="fill:#ff9f9e;stroke:#000;stroke-width:1.5px;"/><rect x="401.399" y="388.439" width="41.06" height="40.403" style="fill:#ff9f9e;stroke:#000;stroke-width:1.5px;"/><rect x="587.235" y="388.142" width="41.06" height="40.403" style="fill:#ffca38;stroke:#000;stroke-width:1.5px;"/><rect x="546.175" y="388.439" width="41.06" height="40.403" style="fill:#ffca38;stroke:#000;stroke-width:1.5px;"/><rect x="669.638" y="347.738" width="41.06" height="40.403" style="fill:#ffca38;stroke:#000;stroke-width:1.5px;"/><rect x="587.518" y="348.036" width="41.06" height="40.403" style="fill:#ffca38;stroke:#000;stroke-width:1.5px;"/><rect x="505.115" y="388.439" width="41.06" height="40.403" style="fill:#ffca38;stroke:#000;stroke-width:1.5px;"/><rect x="628.295" y="347.738" width="41.06" height="40.403" style="fill:#ffca38;stroke:#000;stroke-width:1.5px;"/><rect x="196.382" y="41.451" width="41.06" height="40.403" style="fill:#fff2df;stroke:#000;stroke-width:1.5px;"/><rect x="237.442" y="41.451" width="41.06" height="40.403" style="fill:#fff2df;stroke:#000;stroke-width:1.5px;"/><rect x="237.442" y="0.899" width="41.06" height="40.403" style="fill:#fff2df;stroke:#000;stroke-width:1.5px;"/><rect x="278.502" y="41.451" width="41.06" height="40.403" style="fill:#fff2df;stroke:#000;stroke-width:1.5px;"/><rect x="319.562" y="81.854" width="41.06" height="40.403" style="fill:#fff2df;stroke:#000;stroke-width:1.5px;"/><rect x="319.279" y="41.153" width="41.06" height="40.403" style="fill:#fff2df;stroke:#000;stroke-width:1.5px;"/><rect x="391.753" y="41.451" width="41.06" height="40.403" style="fill:#ffc8ec;stroke:#000;stroke-width:1.5px;"/><rect x="432.813" y="41.451" width="41.06" height="40.403" style="fill:#ffc8ec;stroke:#000;stroke-width:1.5px;"/><rect x="391.753" y="1.048" width="41.06" height="40.403" style="fill:#ffc8ec;stroke:#000;stroke-width:1.5px;"/><rect x="473.873" y="41.451" width="41.06" height="40.403" style="fill:#ffc8ec;stroke:#000;stroke-width:1.5px;"/><rect x="473.873" y="81.557" width="41.06" height="40.403" style="fill:#ffc8ec;stroke:#000;stroke-width:1.5px;"/><rect x="514.933" y="81.706" width="41.06" height="40.403" style="fill:#ffc8ec;stroke:#000;stroke-width:1.5px;"/><rect x="604.913" y="41.451" width="41.06" height="40.403" style="fill:#a1f8ff;stroke:#000;stroke-width:1.5px;"/><rect x="645.973" y="41.451" width="41.06" height="40.403" style="fill:#a1f8ff;stroke:#000;stroke-width:1.5px;"/><rect x="645.973" y="0.75" width="41.06" height="40.403" style="fill:#a1f8ff;stroke:#000;stroke-width:1.5px;"/><rect x="687.033" y="41.451" width="41.06" height="40.403" style="fill:#a1f8ff;stroke:#000;stroke-width:1.5px;"/><rect x="687.033" y="81.854" width="41.06" height="40.403" style="fill:#a1f8ff;stroke:#000;stroke-width:1.5px;"/><rect x="728.093" y="81.854" width="41.06" height="40.403" style="fill:#a1f8ff;stroke:#000;stroke-width:1.5px;"/></g></svg>