<?xml version="1.0" encoding="UTF-8" standalone="no"?><!DOCTYPE svg PUBLIC "-//W3C//DTD SVG 1.1//EN" "http://www.w3.org/Graphics/SVG/1.1/DTD/svg11.dtd"><svg width="100%" height="100%" viewBox="0 0 491 328" version="1.1" xmlns="http://www.w3.org/2000/svg" xmlns:xlink="http://www.w3.org/1999/xlink" xml:space="preserve" xmlns:serif="http://www.serif.com/" style="fill-rule:evenodd;clip-rule:evenodd;stroke-linejoin:round;stroke-miterlimit:2;"><g><g><g><g transform="matrix(1,0,0,1,-199.725,-99.45)"><text x="201px" y="109.596px" style="font-family:'ArialMT', 'Arial', sans-serif;font-size:12px;fill:#ff3fed;">0</text><text x="244.617px" y="109.596px" style="font-family:'ArialMT', 'Arial', sans-serif;font-size:12px;">zéro</text><text x="201px" y="122.929px" style="font-family:'ArialMT', 'Arial', sans-serif;font-size:12px;fill:#ff3fed;">1</text><text x="244.617px" y="122.929px" style="font-family:'ArialMT', 'Arial', sans-serif;font-size:12px;">un</text><text x="201px" y="136.262px" style="font-family:'ArialMT', 'Arial', sans-serif;font-size:12px;fill:#ff3fed;">2</text><text x="244.617px" y="136.262px" style="font-family:'ArialMT', 'Arial', sans-serif;font-size:12px;">deux</text><text x="201px" y="149.596px" style="font-family:'ArialMT', 'Arial', sans-serif;font-size:12px;fill:#ff3fed;">3</text><text x="244.617px" y="149.596px" style="font-family:'ArialMT', 'Arial', sans-serif;font-size:12px;">trois</text><text x="201px" y="162.929px" style="font-family:'ArialMT', 'Arial', sans-serif;font-size:12px;fill:#ff3fed;">4</text><text x="244.617px" y="162.929px" style="font-family:'ArialMT', 'Arial', sans-serif;font-size:12px;">quatre</text><text x="201px" y="176.262px" style="font-family:'ArialMT', 'Arial', sans-serif;font-size:12px;fill:#ff3fed;">5</text><text x="244.617px" y="176.262px" style="font-family:'ArialMT', 'Arial', sans-serif;font-size:12px;">cinq</text><text x="201px" y="189.596px" style="font-family:'ArialMT', 'Arial', sans-serif;font-size:12px;fill:#ff3fed;">6</text><text x="244.617px" y="189.596px" style="font-family:'ArialMT', 'Arial', sans-serif;font-size:12px;">six</text><text x="201px" y="202.929px" style="font-family:'ArialMT', 'Arial', sans-serif;font-size:12px;fill:#ff3fed;">7</text><text x="244.617px" y="202.929px" style="font-family:'ArialMT', 'Arial', sans-serif;font-size:12px;">sept</text><text x="201px" y="216.262px" style="font-family:'ArialMT', 'Arial', sans-serif;font-size:12px;fill:#ff3fed;">8</text><text x="244.617px" y="216.262px" style="font-family:'ArialMT', 'Arial', sans-serif;font-size:12px;">huit</text><text x="201px" y="229.596px" style="font-family:'ArialMT', 'Arial', sans-serif;font-size:12px;fill:#ff3fed;">9</text><text x="244.617px" y="229.596px" style="font-family:'ArialMT', 'Arial', sans-serif;font-size:12px;">neuf</text><text x="201px" y="242.929px" style="font-family:'ArialMT', 'Arial', sans-serif;font-size:12px;fill:#ff3fed;">10</text><text x="244.617px" y="242.929px" style="font-family:'ArialMT', 'Arial', sans-serif;font-size:12px;">dix</text><text x="201px" y="256.262px" style="font-family:'ArialMT', 'Arial', sans-serif;font-size:12px;fill:#ff3fed;">1<tspan x="206.783px " y="256.262px ">1</tspan></text><text x="244.617px" y="256.262px" style="font-family:'ArialMT', 'Arial', sans-serif;font-size:12px;">onze</text><text x="201px" y="269.596px" style="font-family:'ArialMT', 'Arial', sans-serif;font-size:12px;fill:#ff3fed;">12</text><text x="244.617px" y="269.596px" style="font-family:'ArialMT', 'Arial', sans-serif;font-size:12px;">douze</text><text x="201px" y="282.929px" style="font-family:'ArialMT', 'Arial', sans-serif;font-size:12px;fill:#ff3fed;">13</text><text x="244.617px" y="282.929px" style="font-family:'ArialMT', 'Arial', sans-serif;font-size:12px;">treize</text><text x="201px" y="296.262px" style="font-family:'ArialMT', 'Arial', sans-serif;font-size:12px;fill:#ff3fed;">14</text><text x="244.617px" y="296.262px" style="font-family:'ArialMT', 'Arial', sans-serif;font-size:12px;">quatorze</text><text x="201px" y="309.596px" style="font-family:'ArialMT', 'Arial', sans-serif;font-size:12px;fill:#ff3fed;">15</text><text x="244.617px" y="309.596px" style="font-family:'ArialMT', 'Arial', sans-serif;font-size:12px;">quinze</text><text x="201px" y="322.929px" style="font-family:'ArialMT', 'Arial', sans-serif;font-size:12px;fill:#ff3fed;">16</text><text x="244.617px" y="322.929px" style="font-family:'ArialMT', 'Arial', sans-serif;font-size:12px;">seize</text><path d="M200,99.725l0,227.217m110,-227.217l0,227.217m-66.383,-226.942l0,226.667m-43.617,-226.667l110,0m-110,13.333l110,0m-110,13.334l110,0m-110,13.333l110,0m-110,13.333l110,0m-110,13.334l110,0m-110,13.333l110,0m-110,13.333l110,0m-110,13.334l110,0m-110,13.333l110,0m-110,13.333l110,0m-110,13.334l110,0m-110,13.333l110,0m-110,13.333l110,0m-110,13.334l110,0m-110,13.333l110,0m-110,13.333l110,0m-110,13.334l110,0" style="fill:none;stroke:#000;stroke-width:0.55px;"/></g><g transform="matrix(1,0,0,1,-182.725,-99.45)"><text x="323.596px" y="211.798px" style="font-family:'ArialMT', 'Arial', sans-serif;font-size:12px;">17</text><text x="350.761px" y="211.798px" style="font-family:'ArialMT', 'Arial', sans-serif;font-size:12px;">dix-sept</text><text x="323.596px" y="226.798px" style="font-family:'ArialMT', 'Arial', sans-serif;font-size:12px;">18</text><text x="352.428px" y="226.798px" style="font-family:'ArialMT', 'Arial', sans-serif;font-size:12px;">dix-huit</text><text x="323.596px" y="241.798px" style="font-family:'ArialMT', 'Arial', sans-serif;font-size:12px;">19</text><text x="350.424px" y="241.798px" style="font-family:'ArialMT', 'Arial', sans-serif;font-size:12px;">dix-neuf</text><path d="M320,199.75l0,45.5m83,-45.5l0,45.5m-62.461,-45.25l0,45m-20.539,-45l83,0m-83,15l83,0m-83,15l83,0m-83,15l83,0" style="fill:none;stroke:#000;stroke-width:0.5px;"/></g><g transform="matrix(1,0,0,1,-158.11,-99.45)"><text x="417.338px" y="111.173px" style="font-family:'ArialMT', 'Arial', sans-serif;font-size:12px;fill:#0433ff;">Les dizaines</text><text x="444.018px" y="138.673px" style="font-family:'ArialMT', 'Arial', sans-serif;font-size:12px;">10</text><text x="499.385px" y="137.096px" style="font-family:'ArialMT', 'Arial', sans-serif;font-size:12px;">dix</text><text x="444.018px" y="152.423px" style="font-family:'ArialMT', 'Arial', sans-serif;font-size:12px;">20</text><text x="499.385px" y="150.846px" style="font-family:'ArialMT', 'Arial', sans-serif;font-size:12px;">vingt</text><text x="444.018px" y="166.173px" style="font-family:'ArialMT', 'Arial', sans-serif;font-size:12px;">30</text><text x="499.385px" y="164.596px" style="font-family:'ArialMT', 'Arial', sans-serif;font-size:12px;">trente</text><text x="444.018px" y="179.923px" style="font-family:'ArialMT', 'Arial', sans-serif;font-size:12px;">40</text><text x="499.385px" y="178.346px" style="font-family:'ArialMT', 'Arial', sans-serif;font-size:12px;">quarante</text><text x="444.018px" y="193.673px" style="font-family:'ArialMT', 'Arial', sans-serif;font-size:12px;">50</text><text x="499.385px" y="192.096px" style="font-family:'ArialMT', 'Arial', sans-serif;font-size:12px;">cinquante</text><text x="444.018px" y="207.423px" style="font-family:'ArialMT', 'Arial', sans-serif;font-size:12px;">60</text><text x="499.385px" y="205.846px" style="font-family:'ArialMT', 'Arial', sans-serif;font-size:12px;">soixante</text><text x="444.018px" y="221.173px" style="font-family:'ArialMT', 'Arial', sans-serif;font-size:12px;">70</text><text x="499.385px" y="219.596px" style="font-family:'ArialMT', 'Arial', sans-serif;font-size:12px;">soixante-dix (60 + 10)</text><text x="444.018px" y="234.923px" style="font-family:'ArialMT', 'Arial', sans-serif;font-size:12px;">80</text><text x="499.385px" y="233.346px" style="font-family:'ArialMT', 'Arial', sans-serif;font-size:12px;">quatre-vingt</text><text x="562.755px" y="233.346px" style="font-family:'ArialMT', 'Arial', sans-serif;font-size:12px;fill:#ff2600;">s</text><text x="572.089px" y="233.346px" style="font-family:'ArialMT', 'Arial', sans-serif;font-size:12px;">(4 x 20)</text><text x="444.018px" y="248.673px" style="font-family:'ArialMT', 'Arial', sans-serif;font-size:12px;">90</text><text x="499.385px" y="247.096px" style="font-family:'ArialMT', 'Arial', sans-serif;font-size:12px;">quatre-vingt-dix (80 + 10)</text><text x="403.999px" y="276.173px" style="font-family:'ArialMT', 'Arial', sans-serif;font-size:12px;">100</text><text x="499.385px" y="274.596px" style="font-family:'ArialMT', 'Arial', sans-serif;font-size:12px;">cent                       10</text><text x="612.096px" y="270.6px" style="font-family:'ArialMT', 'Arial', sans-serif;font-size:6.996px;">2</text><text x="403.999px" y="289.923px" style="font-family:'ArialMT', 'Arial', sans-serif;font-size:12px;">1000</text><text x="499.385px" y="288.346px" style="font-family:'ArialMT', 'Arial', sans-serif;font-size:12px;">mille</text><text x="527.387px" y="288.346px" style="font-family:'ArialMT', 'Arial', sans-serif;font-size:12px;fill:#ff2600;">(invariable)</text><text x="600.079px" y="288.346px" style="font-family:'ArialMT', 'Arial', sans-serif;font-size:12px;">10</text><text x="613.426px" y="284.35px" style="font-family:'ArialMT', 'Arial', sans-serif;font-size:6.996px;">3</text><text x="403.999px" y="303.673px" style="font-family:'ArialMT', 'Arial', sans-serif;font-size:12px;">1 000 000</text><text x="499.385px" y="302.096px" style="font-family:'ArialMT', 'Arial', sans-serif;font-size:12px;">million                    10</text><text x="613.421px" y="298.1px" style="font-family:'ArialMT', 'Arial', sans-serif;font-size:6.996px;">6</text><text x="403.999px" y="317.423px" style="font-family:'ArialMT', 'Arial', sans-serif;font-size:12px;">1 000 000 000</text><text x="499.385px" y="315.846px" style="font-family:'ArialMT', 'Arial', sans-serif;font-size:12px;">milliard                   10</text><text x="614.083px" y="311.85px" style="font-family:'ArialMT', 'Arial', sans-serif;font-size:6.996px;">9</text><path d="M402.999,99.75l0,220.5m245.386,-220.5l0,220.5m-150,-220.25l0,220m-95.386,-220l245.386,0m-245.386,13.75l245.386,0m-245.386,13.75l245.386,0m-245.386,13.75l245.386,0m-245.386,13.75l245.386,0m-245.386,13.75l245.386,0m-245.386,13.75l245.386,0m-245.386,13.75l245.386,0m-245.386,13.75l245.386,0m-245.386,13.75l245.386,0m-245.386,13.75l245.386,0m-245.386,13.75l245.386,0m-245.386,13.75l245.386,0m-245.386,13.75l245.386,0m-245.386,13.75l245.386,0m-245.386,13.75l245.386,0m-245.386,13.75l245.386,0" style="fill:none;stroke:#000;stroke-width:0.5px;"/></g><g transform="matrix(1,0,0,1,-269.725,-106.831)"><text x="330px" y="358.596px" style="font-family:'ArialMT', 'Arial', sans-serif;font-size:12px;fill:#0433ff;">remarque1</text><text x="388.031px" y="358.596px" style="font-family:'ArialMT', 'Arial', sans-serif;font-size:12px;fill:#0433ff;">:</text><text x="404.701px" y="358.596px" style="font-family:'ArialMT', 'Arial', sans-serif;font-size:12px;">vingt et cent s’accordent quand ils terminent un nombre.</text><rect x="330" y="359.867" width="58.031" height="0.879" style="fill:#0433ff;"/><text x="330px" y="382.988px" style="font-family:'ArialMT', 'Arial', sans-serif;font-size:12px;">exemples       80 = quatre-vingts  <tspan x="510px 546px " y="382.988px 382.988px "> m</tspan>ais 81 = quatre-vingt-un</text><text x="405.334px" y="407.381px" style="font-family:'ArialMT', 'Arial', sans-serif;font-size:12px;">200 = deux-cents  <tspan x="510px 546px " y="407.381px 407.381px "> m</tspan>ais 203 = deux-cent-trois</text><text x="330px" y="431.773px" style="font-family:'ArialMT', 'Arial', sans-serif;font-size:12px;fill:#0433ff;">remarque2</text><text x="388.031px" y="431.773px" style="font-family:'ArialMT', 'Arial', sans-serif;font-size:12px;">:</text><text x="401.367px" y="431.773px" style="font-family:'ArialMT', 'Arial', sans-serif;font-size:12px;">26 mots sufﬁsent pour écrire les nombres de zéro au milliard</text><rect x="330" y="433.045" width="58.031" height="0.879" style="fill:#0433ff;"/><rect x="388.031" y="433.045" width="3.334" height="0.879"/></g></g></g></g></svg>