<?xml version="1.0" encoding="UTF-8" standalone="no"?><!DOCTYPE svg PUBLIC "-//W3C//DTD SVG 1.1//EN" "http://www.w3.org/Graphics/SVG/1.1/DTD/svg11.dtd"><svg width="100%" height="100%" viewBox="0 0 342 477" version="1.1" xmlns="http://www.w3.org/2000/svg" xmlns:xlink="http://www.w3.org/1999/xlink" xml:space="preserve" xmlns:serif="http://www.serif.com/" style="fill-rule:evenodd;clip-rule:evenodd;stroke-linecap:round;stroke-linejoin:round;stroke-miterlimit:1.5;"><g><rect x="114.383" y="22.58" width="113.386" height="113.386" style="fill:#fff;stroke:#000;stroke-width:1px;"/><rect x="114.383" y="135.966" width="113.386" height="113.386" style="fill:#fff;stroke:#000;stroke-width:1px;"/><rect x="0.5" y="136.173" width="113.386" height="113.386" style="fill:#fff;stroke:#000;stroke-width:1px;"/><rect x="114.383" y="249.352" width="113.386" height="113.386" style="fill:#fff;stroke:#000;stroke-width:1px;"/><rect x="114.383" y="362.737" width="113.386" height="113.386" style="fill:#fff;stroke:#000;stroke-width:1px;"/><rect x="227.769" y="135.966" width="113.386" height="113.386" style="fill:#fff;stroke:#000;stroke-width:1px;"/><path d="M227.52,22.58l-113.386,0l28.347,-22.08l56.693,0l28.346,22.08Z" style="fill:#dafdff;stroke:#000;stroke-width:1px;"/><path d="M341.154,135.966l-113.385,0l28.346,-22.08l56.693,0l28.346,22.08Z" style="fill:#dafdff;stroke:#000;stroke-width:1px;"/><path d="M227.769,249.352l0,113.385l22.08,-28.346l0,-56.693l-22.08,-28.346Z" style="fill:#dafdff;stroke:#000;stroke-width:1px;"/><path d="M113.886,249.352l0,113.385l-22.08,-28.346l0,-56.693l22.08,-28.346Z" style="fill:#dafdff;stroke:#000;stroke-width:1px;"/><path d="M113.886,362.737l0,113.386l-22.08,-28.346l0,-56.693l22.08,-28.347Z" style="fill:#dafdff;stroke:#000;stroke-width:1px;"/><path d="M227.769,362.737l0,113.386l22.08,-28.346l0,-56.693l-22.08,-28.347Z" style="fill:#dafdff;stroke:#000;stroke-width:1px;"/><path d="M113.886,135.966l-113.386,0l28.346,-22.08l56.693,0l28.347,22.08Z" style="fill:#dafdff;stroke:#000;stroke-width:1px;"/><circle cx="170.737" cy="82.7" r="14.28" style="fill:#dafdff;stroke:#000;stroke-width:1px;"/><circle cx="26.141" cy="168.706" r="14.28" style="fill:#dafdff;stroke:#000;stroke-width:1px;"/><circle cx="141.746" cy="168.706" r="14.28" style="fill:#dafdff;stroke:#000;stroke-width:1px;"/><circle cx="255.772" cy="168.706" r="14.28" style="fill:#dafdff;stroke:#000;stroke-width:1px;"/><circle cx="257.607" cy="226.592" r="14.28" style="fill:#dafdff;stroke:#000;stroke-width:1px;"/><circle cx="312.595" cy="226.592" r="14.28" style="fill:#dafdff;stroke:#000;stroke-width:1px;"/><circle cx="313.432" cy="168.706" r="14.28" style="fill:#dafdff;stroke:#000;stroke-width:1px;"/><circle cx="170.737" cy="198.317" r="14.28" style="fill:#dafdff;stroke:#000;stroke-width:1px;"/><circle cx="200.517" cy="226.592" r="14.28" style="fill:#dafdff;stroke:#000;stroke-width:1px;"/><circle cx="142.98" cy="282.514" r="14.28" style="fill:#dafdff;stroke:#000;stroke-width:1px;"/><circle cx="143.644" cy="338.621" r="14.28" style="fill:#dafdff;stroke:#000;stroke-width:1px;"/><circle cx="134.255" cy="394.425" r="14.28" style="fill:#dafdff;stroke:#000;stroke-width:1px;"/><circle cx="134.349" cy="440.745" r="14.28" style="fill:#dafdff;stroke:#000;stroke-width:1px;"/><circle cx="198.165" cy="338.621" r="14.28" style="fill:#dafdff;stroke:#000;stroke-width:1px;"/><circle cx="170.737" cy="394.425" r="14.28" style="fill:#dafdff;stroke:#000;stroke-width:1px;"/><circle cx="170.737" cy="440.745" r="14.28" style="fill:#dafdff;stroke:#000;stroke-width:1px;"/><circle cx="207.708" cy="394.425" r="14.28" style="fill:#dafdff;stroke:#000;stroke-width:1px;"/><circle cx="207.802" cy="440.745" r="14.28" style="fill:#dafdff;stroke:#000;stroke-width:1px;"/><circle cx="170.737" cy="310.918" r="14.28" style="fill:#dafdff;stroke:#000;stroke-width:1px;"/><circle cx="198.955" cy="282.514" r="14.28" style="fill:#dafdff;stroke:#000;stroke-width:1px;"/><circle cx="85.119" cy="226.592" r="14.28" style="fill:#dafdff;stroke:#000;stroke-width:1px;"/></g></svg>