<?xml version="1.0" encoding="UTF-8" standalone="no"?><!DOCTYPE svg PUBLIC "-//W3C//DTD SVG 1.1//EN" "http://www.w3.org/Graphics/SVG/1.1/DTD/svg11.dtd"><svg width="100%" height="100%" viewBox="0 0 418 354" version="1.1" xmlns="http://www.w3.org/2000/svg" xmlns:xlink="http://www.w3.org/1999/xlink" xml:space="preserve" xmlns:serif="http://www.serif.com/" style="fill-rule:evenodd;clip-rule:evenodd;stroke-miterlimit:10;"><g><path d="M10.955,49.621l91.266,-1.303" style="fill:none;stroke:#000;stroke-width:1px;"/><path d="M102.221,48.318l52.642,-43.293" style="fill:none;stroke:#000;stroke-width:1px;"/><path d="M154.863,5.025l-143.908,43.945" style="fill:none;stroke:#000;stroke-width:1px;"/><path d="M10.955,160.6l91.266,-1.302" style="fill:none;stroke:#000;stroke-width:1px;"/><path d="M102.221,159.298l52.642,-43.294" style="fill:none;stroke:#000;stroke-width:1px;"/><path d="M154.863,116.004l-143.908,43.945" style="fill:none;stroke:#000;stroke-width:1px;stroke-dasharray:4,2,0,0,0,0;"/><path d="M154.863,5.025l0,110.979" style="fill:none;stroke:#000;stroke-width:1px;"/><path d="M10.955,49.621l0,110.979" style="fill:none;stroke:#000;stroke-width:1px;"/><path d="M102.227,48.567l0.268,110.98" style="fill:none;stroke:#000;stroke-width:1px;"/><path d="M5.025,244.537l77.425,-0.662" style="fill:none;stroke:#000;stroke-width:1px;"/><path d="M5.025,243.875l18.181,-41.106" style="fill:none;stroke:#000;stroke-width:1px;"/><path d="M23.206,202.769l131.657,0" style="fill:none;stroke:#000;stroke-width:1px;"/><path d="M154.863,202.769l-72.413,41.106" style="fill:none;stroke:#000;stroke-width:1px;"/><path d="M5.025,348.544l77.425,-0.662" style="fill:none;stroke:#000;stroke-width:1px;"/><path d="M5.025,347.882l18.181,-41.107" style="fill:none;stroke:#000;stroke-width:1px;stroke-dasharray:4,2,0,0,0,0;"/><path d="M23.206,306.775l131.657,0" style="fill:none;stroke:#000;stroke-width:1px;stroke-dasharray:4,2,0,0,0,0;"/><path d="M154.863,306.775l-72.413,41.107" style="fill:none;stroke:#000;stroke-width:1px;"/><path d="M154.863,202.769l0,105.141" style="fill:none;stroke:#000;stroke-width:1px;"/><path d="M5.025,244.537l0,104.007" style="fill:none;stroke:#000;stroke-width:1px;"/><path d="M25.047,202.769l-0.573,104.006" style="fill:none;stroke:#000;stroke-width:1px;stroke-dasharray:4,2,0,0,0,0;"/><path d="M81.54,244.537l0,104.167" style="fill:none;stroke:#000;stroke-width:1px;"/><path d="M363.375,147.873l-84.939,12.727l-53.821,-65.06l31.118,-77.788l84.938,-12.727l53.821,65.06l-31.117,77.788Z" style="fill:#fff;fill-rule:nonzero;stroke:#000;stroke-width:1px;"/><path d="M257.323,17.514l22.724,143.086" style="fill:none;stroke:#000;stroke-width:1px;"/><path d="M257.323,17.514l137.169,51.928" style="fill:none;stroke:#000;stroke-width:1px;"/><path d="M394.492,69.442l-114.445,91.158" style="fill:none;stroke:#000;stroke-width:1px;"/><path d="M224.615,95.936l140.486,51.055" style="fill:none;stroke:#000;stroke-width:1px;stroke-dasharray:4,2,0,0,0,0;"/><path d="M224.615,95.936l116.04,-90.911" style="fill:none;stroke:#000;stroke-width:1px;stroke-dasharray:4,2,0,0,0,0;"/><path d="M340.655,5.025l24.446,141.966" style="fill:none;stroke:#000;stroke-width:1px;stroke-dasharray:4,2,0,0,0,0;"/><path d="M252.612,253.813l-34.215,88.4" style="fill:none;stroke:#000;stroke-width:1px;"/><path d="M218.397,342.213l84.544,-5.89" style="fill:none;stroke:#000;stroke-width:1px;"/><path d="M302.941,336.323l-50.329,-82.51" style="fill:none;stroke:#000;stroke-width:1px;"/><path d="M362.366,191.41l-34.215,88.4" style="fill:none;stroke:#000;stroke-width:1px;stroke-dasharray:4,2,0,0,0,0;"/><path d="M328.151,279.81l84.544,-5.89" style="fill:none;stroke:#000;stroke-width:1px;"/><path d="M412.695,273.92l-50.329,-82.51" style="fill:none;stroke:#000;stroke-width:1px;"/><path d="M251.817,253.813l110.549,-62.403" style="fill:none;stroke:#000;stroke-width:1px;"/><path d="M302.941,336.12l109.754,-62.2" style="fill:none;stroke:#000;stroke-width:1px;"/><path d="M218.397,342.213l109.754,-62.403" style="fill:none;stroke:#000;stroke-width:1px;stroke-dasharray:4,2,0,0,0,0;"/></g></svg>