<?xml version="1.0" encoding="UTF-8" standalone="no"?><!DOCTYPE svg PUBLIC "-//W3C//DTD SVG 1.1//EN" "http://www.w3.org/Graphics/SVG/1.1/DTD/svg11.dtd"><svg width="100%" height="100%" viewBox="0 0 588 339" version="1.1" xmlns="http://www.w3.org/2000/svg" xmlns:xlink="http://www.w3.org/1999/xlink" xml:space="preserve" xmlns:serif="http://www.serif.com/" style="fill-rule:evenodd;clip-rule:evenodd;stroke-linecap:round;stroke-linejoin:round;stroke-miterlimit:1.5;"><g><circle cx="113.886" cy="136.426" r="113.386" style="fill:#fff;stroke:#000;stroke-width:1px;"/><path d="M0.5,136.426l226.772,0" style="fill:none;stroke:#000;stroke-width:1px;"/><path d="M113.886,136.426l100.256,52.963" style="fill:none;stroke:#000;stroke-width:1px;"/><text x="15.14px" y="130.862px" style="font-family:'ArialMT', 'Arial', sans-serif;font-size:12px;">diamètre D</text><text x="298.253px" y="28.503px" style="font-family:'ArialMT', 'Arial', sans-serif;font-size:12px;">un demi-cercle</text><g transform="matrix(0.935042,-0.354536,0.354536,0.935042,37.9896,76.7126)"><text x="370.422px" y="146.079px" style="font-family:'ArialMT', 'Arial', sans-serif;font-size:12px;fill:#ff55f2;">une tangente</text></g><text x="295.133px" y="107.542px" style="font-family:'ArialMT', 'Arial', sans-serif;font-size:12px;">un quart de cercle</text><text x="299.285px" y="188.97px" style="font-family:'ArialMT', 'Arial', sans-serif;font-size:12px;">un arc de cercle</text><g transform="matrix(0.880967,0.473178,-0.473178,0.880967,-33.391,-74.4845)"><text x="273.429px" y="107.786px" style="font-family:'ArialMT', 'Arial', sans-serif;font-size:12px;fill:#0700d4;">rayon R</text></g><text x="96.193px" y="164.663px" style="font-family:'ArialMT', 'Arial', sans-serif;font-size:12px;fill:#00b132;">centre</text><circle cx="114.366" cy="136.426" r="5.76" style="fill:#00df1f;stroke:#000;stroke-width:1px;"/><path d="M114.366,219.6l0,-49.853" style="fill:none;"/><path d="M114.366,219.6l0,-49.853" style="fill:none;"/><path d="M110.616,177.247l3.75,-7.5l3.75,7.5l-7.5,0Z" style="fill:#00b814;"/><path d="M114.366,219.6l0,-43.853" style="fill:none;stroke:#00b814;stroke-width:2.5px;"/><g transform="matrix(0.998068,0.0621366,-0.0621366,0.998068,0.24905,-8.00851)"><text x="128.832px" y="16.579px" style="font-family:'Helvetica';font-size:25px;fill:#ff0d51;">c</text></g><g transform="matrix(0.988316,0.152416,-0.152416,0.988316,1.50583,-19.6442)"><text x="142.798px" y="15.538px" style="font-family:'Helvetica';font-size:25px;fill:#ff0d51;">i</text></g><g transform="matrix(0.975171,0.221454,-0.221454,0.975171,3.20011,-28.5422)"><text x="149.396px" y="14.084px" style="font-family:'Helvetica';font-size:25px;fill:#ff0d51;">r</text></g><g transform="matrix(0.946387,0.323036,-0.323036,0.946387,6.90996,-41.6346)"><text x="159.049px" y="10.854px" style="font-family:'Helvetica';font-size:25px;fill:#ff0d51;">c</text></g><g transform="matrix(0.895036,0.445994,-0.445994,0.895036,13.5283,-57.4821)"><text x="172.631px" y="5.039px" style="font-family:'Helvetica';font-size:25px;fill:#ff0d51;">o</text></g><g transform="matrix(0.824604,0.56571,-0.56571,0.824604,22.606,-72.9119)"><text x="186.698px" y="-2.997px" style="font-family:'Helvetica';font-size:25px;fill:#ff0d51;">n</text></g><g transform="matrix(0.761916,0.647676,-0.647676,0.761916,30.6856,-83.4761)"><text x="199.93px" y="-10.193px" style="font-family:'Helvetica';font-size:25px;fill:#ff0d51;">f</text></g><g transform="matrix(0.691608,0.722273,-0.722273,0.691608,39.7473,-93.0906)"><text x="205.424px" y="-18.301px" style="font-family:'Helvetica';font-size:25px;fill:#ff0d51;">é</text></g><g transform="matrix(0.609038,0.793141,-0.793141,0.609038,50.3894,-102.224)"><text x="216.822px" y="-27.868px" style="font-family:'Helvetica';font-size:25px;fill:#ff0d51;">r</text></g><g transform="matrix(0.519397,0.854533,-0.854533,0.519397,61.9427,-110.137)"><text x="221.558px" y="-38.299px" style="font-family:'Helvetica';font-size:25px;fill:#ff0d51;">e</text></g><g transform="matrix(0.398674,0.917093,-0.917093,0.398674,77.5022,-118.2)"><text x="229.304px" y="-52.404px" style="font-family:'Helvetica';font-size:25px;fill:#ff0d51;">n</text></g><g transform="matrix(0.277197,0.960813,-0.960813,0.277197,93.1588,-123.835)"><text x="235.524px" y="-66.652px" style="font-family:'Helvetica';font-size:25px;fill:#ff0d51;">c</text></g><g transform="matrix(0.151658,0.988433,-0.988433,0.151658,109.339,-127.395)"><text x="238.505px" y="-81.429px" style="font-family:'Helvetica';font-size:25px;fill:#ff0d51;">e</text></g><path d="M317.598,240.027c0,-24.595 19.938,-44.533 44.532,-44.533" style="fill:none;fill-rule:nonzero;stroke:#000;stroke-width:1.5px;stroke-linecap:butt;stroke-linejoin:miter;stroke-miterlimit:4;"/><circle cx="507.62" cy="132.374" r="63.12" style="fill:#fff;stroke:#210800;stroke-width:1.5px;"/><path d="M426.591,94.821l120.149,-44.413" style="fill:none;"/><path d="M426.591,94.821l120.149,-44.413" style="fill:none;stroke:#ff39fa;stroke-width:1.5px;"/><path d="M472.82,80.4l95.04,32.706" style="fill:none;stroke:#de2200;stroke-width:1.5px;"/><text x="482.9px" y="114.622px" style="font-family:'ArialMT', 'Arial', sans-serif;font-size:12px;fill:#de2200;">une corde</text><path d="M444.5,194.534l142.56,-57.254" style="fill:none;stroke:#0c2eff;stroke-width:1.5px;"/><g transform="matrix(0.935773,-0.352603,0.352603,0.935773,-31.5958,-48.4791)"><text x="395.928px" y="390.286px" style="font-family:'ArialMT', 'Arial', sans-serif;font-size:12px;fill:#0c2eff;">une sécante</text></g><g transform="matrix(0.24,0,0,0.24,-91.18,-64.2095)"><text x="633px" y="1537.82px" style="font-family:'ArialMT', 'Arial', sans-serif;font-size:50px;fill:#8d5700;">propriétés</text><rect x="633" y="1543.11" width="222.339" height="3.662" style="fill:#8d5700;"/></g><g transform="matrix(0.24,0,0,0.24,-196.54,-99.2495)"><text x="1538px" y="1567.82px" style="font-family:'ArialMT', 'Arial', sans-serif;font-size:50px;fill:#5e44ff;">Le rayon (R)</text><text x="1829.77px" y="1567.82px" style="font-family:'ArialMT', 'Arial', sans-serif;font-size:50px;fill:#030019;">est un demi-diamètre</text><text x="1538px" y="1824.36px" style="font-family:'ArialMT', 'Arial', sans-serif;font-size:50px;fill:#ff355d;">circonférence</text><text x="1852.04px" y="1824.36px" style="font-family:'ArialMT', 'Arial', sans-serif;font-size:50px;fill:#030019;">=</text><text x="1895.13px" y="1824.36px" style="font-family:'Arial-ItalicMT', 'Arial', sans-serif;font-style:italic;font-size:200px;fill:#0002d8;">π</text><text x="2043.01px" y="1824.36px" style="font-family:'ArialMT', 'Arial', sans-serif;font-size:50px;fill:#030019;">x    D</text></g><text x="130.58px" y="320.005px" style="font-family:'ArialMT', 'Arial', sans-serif;font-size:72px;fill:#0090de;">{</text><g transform="matrix(0.237369,0,0,0.237369,-211.888,-111.036)"><text x="2644.27px" y="1633.16px" style="font-family:'Arial-ItalicMT', 'Arial', sans-serif;font-style:italic;font-size:200px;fill:#0002d8;">π</text><text x="2806.03px" y="1633.16px" style="font-family:'ArialMT', 'Arial', sans-serif;font-size:50px;fill:#060030;">(pi)  =  3,14</text><text x="2572px" y="1889.71px" style="font-family:'ArialMT', 'Arial', sans-serif;font-size:50px;fill:#060030;"><tspan x="2572px " y="1889.71px ">a</tspan>ire =</text><text x="2726.25px" y="1889.71px" style="font-family:'Arial-ItalicMT', 'Arial', sans-serif;font-style:italic;font-size:200px;fill:#0002d8;">π</text><text x="2901.91px" y="1889.71px" style="font-family:'ArialMT', 'Arial', sans-serif;font-size:50px;fill:#060030;">x     R</text></g><text x="508.543px" y="328.527px" style="font-family:'ArialMT', 'Arial', sans-serif;font-size:9px;fill:#0002d8;">2</text><path d="M389.831,33.589c0.071,27.976 -22.55,50.712 -50.525,50.783c-27.976,0.071 -50.712,-22.55 -50.783,-50.525l101.308,-0.258Z" style="fill:#fff;stroke:#0a0022;stroke-width:1.5px;"/><g><path d="M365.083,122.094l-9.375,0c-26.133,0 -47.318,21.184 -47.318,47.317l0,0.001l56.693,0l0,-47.318Z" style="fill:#fff;stroke:#0a0022;stroke-width:1.5px;"/></g></g></svg>