<?xml version="1.0" encoding="UTF-8" standalone="no"?><!DOCTYPE svg PUBLIC "-//W3C//DTD SVG 1.1//EN" "http://www.w3.org/Graphics/SVG/1.1/DTD/svg11.dtd"><svg width="100%" height="100%" viewBox="0 0 952 466" version="1.1" xmlns="http://www.w3.org/2000/svg" xmlns:xlink="http://www.w3.org/1999/xlink" xml:space="preserve" xmlns:serif="http://www.serif.com/" style="fill-rule:evenodd;clip-rule:evenodd;stroke-linecap:round;stroke-linejoin:round;stroke-miterlimit:1.5;"><g><g transform="matrix(1,0,0,1,-371.407,-56.6929)"><text x="935.433px" y="293.541px" style="font-family:'Helvetica-Bold', 'Helvetica';font-weight:700;font-size:14px;fill:#0433ff;">Louis I</text><text x="935.433px" y="321.541px" style="font-family:'Helvetica-Bold', 'Helvetica';font-weight:700;font-size:14px;fill:#0433ff;">Louis II</text><text x="935.433px" y="349.541px" style="font-family:'Helvetica-Bold', 'Helvetica';font-weight:700;font-size:14px;fill:#0433ff;">Louis III</text><text x="935.433px" y="377.541px" style="font-family:'Helvetica-Bold', 'Helvetica';font-weight:700;font-size:14px;fill:#0433ff;">Louis IV</text><text x="935.433px" y="405.541px" style="font-family:'Helvetica-Bold', 'Helvetica';font-weight:700;font-size:14px;fill:#0433ff;">Louis V</text><text x="935.433px" y="433.541px" style="font-family:'Helvetica-Bold', 'Helvetica';font-weight:700;font-size:14px;fill:#0433ff;">Louis VI</text><text x="935.433px" y="461.541px" style="font-family:'Helvetica-Bold', 'Helvetica';font-weight:700;font-size:14px;fill:#0433ff;">Louis VII</text><text x="935.433px" y="489.541px" style="font-family:'Helvetica-Bold', 'Helvetica';font-weight:700;font-size:14px;fill:#0433ff;">Louis VIII</text><text x="935.433px" y="517.541px" style="font-family:'Helvetica-Bold', 'Helvetica';font-weight:700;font-size:14px;fill:#0433ff;">Louis IX &quot; SAINT-LOUIS &quot;</text></g><g transform="matrix(1,0,0,1,-172.982,-56.6929)"><text x="935.433px" y="293.541px" style="font-family:'Helvetica-Bold', 'Helvetica';font-weight:700;font-size:14px;fill:#0433ff;">Louis X</text><text x="935.433px" y="321.541px" style="font-family:'Helvetica-Bold', 'Helvetica';font-weight:700;font-size:14px;fill:#0433ff;">Louis XI</text><text x="935.433px" y="349.541px" style="font-family:'Helvetica-Bold', 'Helvetica';font-weight:700;font-size:14px;fill:#0433ff;">Louis XII</text><text x="935.433px" y="377.541px" style="font-family:'Helvetica-Bold', 'Helvetica';font-weight:700;font-size:14px;fill:#0433ff;">Louis XIII</text><text x="935.433px" y="405.541px" style="font-family:'Helvetica-Bold', 'Helvetica';font-weight:700;font-size:14px;fill:#0433ff;">Louis XIV &quot; LE ROI SOLEIL &quot;</text><text x="935.433px" y="433.541px" style="font-family:'Helvetica-Bold', 'Helvetica';font-weight:700;font-size:14px;fill:#0433ff;">Louis XV</text><text x="935.433px" y="461.541px" style="font-family:'Helvetica-Bold', 'Helvetica';font-weight:700;font-size:14px;fill:#0433ff;">Louis XVI</text><text x="935.433px" y="489.541px" style="font-family:'Helvetica-Bold', 'Helvetica';font-weight:700;font-size:14px;fill:#0433ff;">Louis XVII</text><text x="935.433px" y="517.541px" style="font-family:'Helvetica-Bold', 'Helvetica';font-weight:700;font-size:14px;fill:#0433ff;">Louis XVIII</text></g><text x="612.727px" y="198.425px" style="font-family:'Times-Bold', 'Times';font-weight:700;font-size:18px;fill:#ff40ff;">Les rois de France</text><text x="0.75px" y="227.772px" style="font-family:'Times-Bold', 'Times';font-weight:700;font-size:18px;fill:#ff40ff;">L&apos;heure: montres, réveils, pendules...</text><text x="454.293px" y="86.039px" style="font-family:'Times-Bold', 'Times';font-weight:700;font-size:18px;fill:#ff40ff;">Les chapitres, les sommaires...</text><g><path d="M412.859,196.345c0,5.146 -4.102,9.357 -9.116,9.357c-5.013,0 -9.115,-4.211 -9.115,-9.357c0,-5.146 4.102,-9.356 9.115,-9.356c5.014,0 9.116,4.21 9.116,9.356Zm-68.364,9.357c0,5.146 -4.101,9.357 -9.115,9.357c-5.013,0 -9.115,-4.211 -9.115,-9.357c0,-5.146 4.102,-9.357 9.115,-9.357c5.014,0 9.115,4.211 9.115,9.357Zm136.727,0c0,5.146 -4.102,9.357 -9.115,9.357c-5.014,0 -9.115,-4.211 -9.115,-9.357c0,-5.146 4.101,-9.357 9.115,-9.357c5.013,0 9.115,4.211 9.115,9.357Z" style="fill:#ffe079;fill-rule:nonzero;"/><path d="M481.222,317.98l0,9.357c0,5.146 -4.102,9.356 -9.115,9.356l-9.115,18.713c-9.116,9.357 -32.815,14.035 -32.815,14.035c-2.279,-9.824 -8.659,-23.391 -25.978,-23.391c-17.319,0 -24.155,13.567 -25.978,23.391c0,0 -23.244,-4.678 -32.814,-13.567l0,-0.468l-9.571,-18.713c-5.014,0 -9.116,-4.21 -9.116,-9.356l0,-9.357c0,-5.614 3.647,-9.357 9.116,-9.357l0,-28.069l136.726,0l0,28.069c5.014,0 8.66,3.743 8.66,9.357" style="fill:#ffd0a1;fill-rule:nonzero;"/><path d="M472.107,215.059l0,65.495l-136.727,0l0,-65.495l41.018,28.069l27.345,-37.426l27.346,37.426l41.018,-28.069Z" style="fill:#ecf4f7;fill-rule:nonzero;"/><path d="M426.987,458.328l-46.487,0c9.571,-14.035 23.243,-18.713 23.243,-18.713c0,0 13.673,4.678 23.244,18.713" style="fill:#eed2ff;fill-rule:nonzero;"/><path d="M458.434,411.545c22.788,0 41.018,4.678 50.134,9.357c-36.461,32.748 -81.581,37.426 -81.581,37.426c-9.571,-14.034 -23.244,-18.713 -23.244,-18.713c0,0 -13.672,4.679 -23.243,18.713c0,0 -45.12,-4.678 -81.581,-37.426c9.116,-4.678 27.346,-9.357 50.134,-9.357l4.557,0c9.115,7.018 15.952,18.713 50.133,18.713c34.182,0 43.298,-11.695 51.501,-18.713l3.19,0Z" style="fill:#c49ae9;fill-rule:nonzero;"/><path d="M535.913,458.328l-108.926,0c0,0 45.12,-4.678 81.581,-37.426c6.836,6.081 11.393,11.695 11.393,11.695c0,0 11.85,12.632 15.952,25.731Zm-155.413,0l-108.925,0c4.101,-13.099 15.951,-25.73 15.951,-25.73c0,0 4.558,-5.614 11.394,-11.696c36.46,32.748 81.58,37.426 81.58,37.426Z" style="fill:#7ee1e6;fill-rule:nonzero;"/><path d="M377.765,369.441c2.279,-9.824 8.66,-23.391 25.978,-23.391c17.775,0 24.156,13.567 25.979,23.391c0,0 23.699,-4.678 32.814,-14.035c-2.734,28.07 -11.85,46.315 -25.978,56.139c-9.115,6.55 -20.509,9.357 -33.27,9.357c-11.85,0 -22.788,-3.275 -31.447,-9.824c-14.585,-10.76 -24.611,-29.473 -27.346,-55.672c9.571,9.356 32.815,14.035 33.27,14.035Z" style="fill:#ecf4f7;fill-rule:nonzero;"/></g><path d="M271.575,460.667l-0.912,0c-0.912,-0.468 -1.367,-1.871 -1.367,-2.807c4.557,-13.567 15.951,-26.198 16.407,-26.666c0.911,-0.936 2.279,-0.936 3.19,0c0.912,0.936 1.367,1.871 0.455,3.275l-15.951,25.73c-0.455,0 -0.911,0.468 -1.822,0.468Zm264.338,0c-0.912,0 -1.367,-0.468 -1.823,-0.936l-15.952,-25.73c-0.455,-0.936 -0.455,-2.339 0.456,-3.275c0.912,-0.935 2.279,-0.467 3.19,0c0.456,0.468 12.306,13.099 16.407,26.666c0.456,0.936 0,2.34 -1.367,2.807c-0.455,0.468 -0.455,0.468 -0.911,0.468Zm-108.926,0c-0.912,0 -1.367,-0.468 -1.823,-0.936c-7.748,-11.228 -18.23,-16.374 -21.421,-17.777c-2.734,1.403 -13.672,6.081 -21.42,17.777c-0.456,0.936 -1.368,0.936 -2.279,0.936c-1.823,0 -46.487,-5.146 -82.948,-37.894c-0.456,-0.467 -0.912,-1.403 -0.912,-1.871c0,-0.936 0.456,-1.403 1.368,-1.871c9.115,-4.678 27.345,-9.824 51.044,-9.824c1.367,0 2.279,0.935 2.279,2.339c0,1.403 -0.912,2.339 -2.279,2.339c-20.509,0 -36.916,3.743 -46.031,7.485c31.447,26.666 68.819,33.216 76.567,34.151c9.57,-13.567 22.788,-18.245 23.699,-18.245l1.367,0c0.456,0 13.673,4.678 23.699,18.245c7.292,-0.935 44.664,-7.485 76.567,-34.151c-9.115,-3.743 -25.522,-7.485 -46.031,-7.485c-1.368,0 -2.279,-0.936 -2.279,-2.339c0,-1.404 0.911,-2.339 2.279,-2.339c23.699,0 41.929,5.146 51.044,9.824c0.456,0.468 1.367,0.936 1.367,1.871c0,0.935 0,1.404 -0.911,1.871c-36.459,32.748 -81.123,37.894 -82.946,37.894Zm-23.244,-37.426c-33.726,0 -56.513,-24.795 -61.071,-66.431c-0.456,-0.468 -0.456,-0.936 -0.456,-1.404l-8.203,-16.374c-5.469,-0.936 -10.027,-5.614 -10.027,-11.695l0,-9.357c0,-6.081 3.647,-10.292 9.116,-11.695l0,-7.018c0,-1.403 0.911,-2.339 2.279,-2.339c1.367,0 2.279,0.936 2.279,2.339l0,9.357c0,1.403 -0.912,2.339 -2.279,2.339c-4.102,0 -6.837,2.807 -6.837,7.018l0,9.356c0,3.743 3.19,7.018 6.837,7.018c0.911,0 1.822,0.467 1.822,1.403l9.571,18.713c7.292,7.017 23.699,10.76 29.169,12.164c2.734,-10.292 10.026,-22.924 27.8,-22.924c17.775,0 25.067,12.632 27.801,22.924c5.47,-1.404 21.877,-5.614 29.169,-12.632l9.115,-18.712c0.456,-0.936 1.367,-1.404 1.823,-1.404c3.646,0 6.836,-3.275 6.836,-7.017l0,-9.357c0,-4.21 -2.734,-7.017 -6.836,-7.017c-1.367,0 -2.279,-0.936 -2.279,-2.34l0,-9.356c0,-1.404 0.912,-2.34 2.279,-2.34c1.367,0 2.279,0.936 2.279,2.34l0,7.017c5.469,0.936 9.115,5.146 9.115,11.695l0,9.357c0,6.082 -4.557,10.76 -10.026,11.696l-8.204,16.841l0,0.468c-5.469,55.671 -36.005,67.367 -61.072,67.367Zm-56.058,-62.221c5.47,36.023 25.979,57.543 56.058,57.543c32.359,0 51.045,-19.649 56.059,-57.543c-8.66,5.614 -22.332,9.357 -27.346,10.292c0.912,4.211 0.912,7.485 0.912,7.485c0,1.404 -0.912,2.34 -2.279,2.34c-1.367,0 -2.279,-0.936 -2.279,-2.34c0,-0.467 0,-4.21 -0.912,-8.421l0,-0.467c-2.279,-8.889 -7.748,-21.52 -24.155,-21.52c-16.407,0 -21.876,12.631 -24.155,21.52l0,0.467c-0.912,4.678 -0.912,8.421 -0.912,8.421c0,1.404 -0.912,2.34 -2.279,2.34c-1.367,0 -2.279,-0.936 -2.279,-2.34c0,0 0,-3.274 0.912,-7.485c-5.468,-1.403 -18.229,-4.678 -27.345,-10.292Zm60.616,6.082l-9.115,0c-1.367,0 -2.279,-0.936 -2.279,-2.34c0,-1.403 0.912,-2.339 2.279,-2.339l9.115,0c1.368,0 2.279,0.936 2.279,2.339c0,1.404 -0.911,2.34 -2.279,2.34Zm22.788,-51.461c-1.367,0 -2.279,-0.936 -2.279,-2.34l0,-2.339l-6.836,0c-1.368,0 -2.279,-0.936 -2.279,-2.339c0,-1.404 0.911,-2.339 2.279,-2.339l18.23,0c1.367,0 2.279,0.935 2.279,2.339c0,1.403 -0.912,2.339 -2.279,2.339l-6.836,0l0,2.339c0,1.404 -0.912,2.34 -2.279,2.34Zm-54.691,0c-1.367,0 -2.279,-0.936 -2.279,-2.34l0,-2.339l-6.836,0c-1.367,0 -2.279,-0.936 -2.279,-2.339c0,-1.404 0.912,-2.339 2.279,-2.339l18.23,0c1.368,0 2.279,0.935 2.279,2.339c0,1.403 -0.911,2.339 -2.279,2.339l-6.836,0l0,2.339c0,1.404 -0.912,2.34 -2.279,2.34Zm95.709,-32.748l-136.727,0c-1.367,0 -2.279,-0.936 -2.279,-2.339l0,-63.624c-5.013,-0.936 -9.115,-5.614 -9.115,-11.228c0,-6.55 5.014,-11.696 11.394,-11.696c6.381,0 11.394,5.147 11.394,11.696c0,4.21 -2.279,8.421 -5.925,10.292l35.094,23.859l23.699,-32.748c-4.102,-1.871 -7.292,-6.081 -7.292,-10.76c0,-6.55 5.013,-11.695 11.393,-11.695c6.381,0 11.394,5.146 11.394,11.695c0,5.146 -3.19,9.357 -7.292,10.76l23.699,32.748l35.094,-23.859c-3.646,-1.871 -5.925,-6.082 -5.925,-10.292c0,-6.55 5.014,-11.696 11.394,-11.696c6.381,0 11.394,5.147 11.394,11.696c0,5.614 -4.102,10.292 -9.116,11.228l0,63.624c0.001,1.403 -0.911,2.339 -2.278,2.339Zm-134.448,-4.678l132.169,0l0,-58.946l-37.371,25.73c-0.912,0.468 -2.279,0.468 -3.19,-0.467l-25.523,-35.087l-25.523,35.087c-0.911,0.935 -2.278,1.403 -3.19,0.467l-37.372,-25.73l0,58.946Zm-2.279,-79.53c-3.646,0 -6.836,3.274 -6.836,7.017c0,3.743 3.19,7.017 6.836,7.017c3.646,0 6.836,-3.274 6.836,-7.017c0,-3.743 -3.19,-7.017 -6.836,-7.017Zm136.727,14.034c3.646,0 6.836,-3.274 6.836,-7.017c0,-3.743 -3.19,-7.017 -6.836,-7.017c-3.646,0 -6.836,3.274 -6.836,7.017c0,3.743 3.19,7.017 6.836,7.017Zm-68.364,-23.391c-3.646,0 -6.836,3.274 -6.836,7.017c0,3.743 3.19,7.018 6.836,7.018c3.647,0 6.837,-3.275 6.837,-7.018c0,-3.743 -3.19,-7.017 -6.837,-7.017Z" style="fill:#51565f;fill-rule:nonzero;"/><g><path d="M0.75,102.292l0,-52.522l356.672,0l0,-48.77l75.031,75.031l-75.031,75.031l0,-48.77l-356.672,0Z" style="fill:#c8ff56;stroke:#000;stroke-width:1.5px;"/><g><rect x="11.459" y="64.314" width="74.539" height="24.996" style="fill:#fff;stroke:#000;stroke-width:1.5px;"/><text x="19.184px" y="81.32px" style="font-family:'ArialMT', 'Arial', sans-serif;font-size:16px;">I° siècle</text><rect x="92.797" y="64.009" width="74.539" height="24.996" style="fill:#fff;stroke:#000;stroke-width:1.5px;"/><text x="98.522px" y="81.014px" style="font-family:'ArialMT', 'Arial', sans-serif;font-size:16px;">II° siècle</text><rect x="174.1" y="64.314" width="74.539" height="24.996" style="fill:#fff;stroke:#000;stroke-width:1.5px;"/><text x="177.824px" y="81.32px" style="font-family:'ArialMT', 'Arial', sans-serif;font-size:16px;">III° siècle</text><rect x="253.236" y="64.314" width="72.445" height="24.996" style="fill:#fff;stroke:#000;stroke-width:1.5px;"/><text x="254.961px" y="81.32px" style="font-family:'ArialMT', 'Arial', sans-serif;font-size:16px;">IV° siècle</text><text x="7.599px" y="125.419px" style="font-family:'ArialMT', 'Arial', sans-serif;font-size:16px;">0</text><text x="79.288px" y="125.419px" style="font-family:'ArialMT', 'Arial', sans-serif;font-size:16px;">100</text><text x="154.153px" y="125.419px" style="font-family:'ArialMT', 'Arial', sans-serif;font-size:16px;">200</text><text x="233.525px" y="125.419px" style="font-family:'ArialMT', 'Arial', sans-serif;font-size:16px;">300</text><text x="307.993px" y="125.419px" style="font-family:'ArialMT', 'Arial', sans-serif;font-size:16px;">400</text><text x="42.217px" y="22.317px" style="font-family:'Arial-BoldMT', 'Arial', sans-serif;font-weight:700;font-size:18px;fill:#ff40ff;">Les frises chronologiques</text></g></g><g id="text6569"></g><g id="g3064"><g><path id="path4415" d="M250.979,433.765c0,14.148 -48.399,25.616 -108.103,25.616c-59.703,0 -108.102,-11.468 -108.102,-25.616c0,-14.147 48.399,-25.616 108.102,-25.616c59.704,0 108.103,11.469 108.103,25.616Z" style="fill:url(#_Radial1);"/><path id="path4419" d="M231.337,346.093c0,48.835 -39.589,88.424 -88.424,88.424c-48.835,0 -88.423,-39.589 -88.423,-88.424c0,-48.835 39.588,-88.424 88.423,-88.424c48.835,0 88.424,39.589 88.424,88.424Z" style="fill:url(#_Radial2);"/><path id="path4417" d="M142.913,243.965c-56.264,0 -102.127,45.863 -102.127,102.128c0,56.265 45.863,102.128 102.127,102.128c56.265,0 102.128,-45.863 102.128,-102.128c0,-56.265 -45.863,-102.128 -102.128,-102.128Zm0,14.703c48.4,0 87.623,39.025 87.623,87.425c0,48.4 -39.223,87.623 -87.623,87.623c-48.399,0 -87.623,-39.223 -87.623,-87.623c0,-48.4 39.224,-87.425 87.623,-87.425Z" style="fill:url(#_Radial3);"/><path id="path3632" d="M141.342,268.491l5.504,83.182l-11.007,0l5.503,-83.182Z" style="fill:#593d00;"/><path id="rect3163" d="M182.776,345.777c-12.424,3.361 -25.22,6.482 -43.494,6.066l-0.036,-11.356l43.53,5.29Z" style="fill:#593d00;"/><path id="text2401" d="M132.326,279.784l1.621,0.264l0,0.517l-4.277,0l0,-0.517l1.445,-0.264l4.453,-5.917l-3.798,-5.625l-1.475,-0.254l0,-0.517l5.4,0l0,0.517l-1.66,0.254l2.715,4.043l3.036,-4.043l-1.621,-0.254l0,-0.517l4.287,0l0,0.517l-1.445,0.254l-3.681,4.902l4.501,6.64l1.484,0.264l0,0.517l-5.399,0l0,-0.517l1.66,-0.264l-3.438,-5.077l-3.808,5.077m15.321,0l1.679,0.264l0,0.517l-5.233,0l0,-0.517l1.679,-0.264l0,-11.542l-1.679,-0.254l0,-0.517l5.233,0l0,0.517l-1.679,0.254l0,11.542m6.523,0l1.679,0.264l0,0.517l-5.234,0l0,-0.517l1.68,-0.264l0,-11.542l-1.68,-0.254l0,-0.517l5.234,0l0,0.517l-1.679,0.254l0,11.542m22.754,9.348l1.322,1.068l-0.258,0.448l-4.533,-2.617l0.259,-0.448l1.586,0.611l5.771,-9.996l-1.328,-1.059l0.259,-0.448l4.533,2.617l-0.259,0.448l-1.581,-0.62l-5.771,9.996m22.369,21.859l0.612,1.586l-0.448,0.259l-2.617,-4.533l0.448,-0.258l1.068,1.322l9.996,-5.771l-0.62,-1.581l0.448,-0.259l2.617,4.533l-0.448,0.259l-1.06,-1.328l-9.996,5.771m3.262,5.649l0.611,1.586l-0.448,0.259l-2.617,-4.533l0.448,-0.259l1.068,1.323l9.996,-5.771l-0.62,-1.581l0.448,-0.259l2.617,4.533l-0.448,0.258l-1.06,-1.327l-9.995,5.771m6.749,23.986l-0.264,1.68l-0.517,0l0,-5.234l0.517,0l0.264,1.679l11.542,0l0.254,-1.679l0.517,0l0,5.234l-0.517,0l-0.254,-1.68l-11.542,0m0,6.523l-0.264,1.679l-0.517,0l0,-5.234l0.517,0l0.264,1.68l11.542,0l0.254,-1.68l0.517,0l0,5.234l-0.517,0l-0.254,-1.679l-11.542,0m0,6.523l-0.264,1.679l-0.517,0l0,-5.234l0.517,0l0.264,1.68l11.542,0l0.254,-1.68l0.517,0l0,5.234l-0.517,0l-0.254,-1.679l-11.542,0m-5.796,20.399l-1.068,1.323l-0.448,-0.259l2.617,-4.533l0.448,0.259l-0.612,1.586l9.996,5.771l1.06,-1.327l0.448,0.258l-2.617,4.533l-0.448,-0.259l0.619,-1.581l-9.995,-5.771m2.432,20.414l-0.448,-0.259l0.497,-1.37l-8.302,-10.871l0.249,-0.431l13.595,1.704l0.957,-1.15l0.448,0.259l-2.646,4.583l-0.448,-0.258l0.659,-1.649l-10.329,-1.386l6.369,8.244l1.079,-1.362l0.449,0.259l-2.129,3.687m-29.333,23.148l-0.259,-0.448l1.116,-0.937l-1.754,-13.566l0.431,-0.249l10.921,8.273l1.404,-0.517l0.259,0.448l-4.583,2.646l-0.259,-0.448l1.395,-1.099l-8.252,-6.364l1.394,10.324l1.615,-0.639l0.259,0.448l-3.687,2.128m-37.195,7.754l0,-0.518l1.435,-0.254l5.264,-12.625l0.498,0l5.321,12.625l1.475,0.254l0,0.518l-5.293,0l0,-0.518l1.758,-0.254l-3.964,-9.637l-3.955,9.637l1.718,0.254l0,0.518l-4.257,0m-4.238,-12.314l-1.679,-0.263l0,-0.518l5.234,0l0,0.518l-1.68,0.263l0,11.542l1.68,0.254l0,0.518l-5.234,0l0,-0.518l1.679,-0.254l0,-11.542m-32.134,1.589l0.259,-0.448l1.37,0.498l10.871,-8.303l0.431,0.249l-1.704,13.595l1.15,0.957l-0.258,0.448l-4.584,-2.646l0.259,-0.448l1.649,0.659l1.386,-10.329l-8.244,6.369l1.361,1.079l-0.259,0.449l-3.687,-2.129m2.487,-12.783l-1.323,-1.068l0.259,-0.448l4.533,2.617l-0.259,0.448l-1.586,-0.611l-5.771,9.995l1.327,1.06l-0.259,0.448l-4.532,-2.617l0.259,-0.448l1.581,0.62l5.771,-9.996m-5.649,-3.261l-1.323,-1.068l0.259,-0.448l4.533,2.617l-0.259,0.448l-1.586,-0.612l-5.771,9.996l1.327,1.06l-0.258,0.448l-4.533,-2.617l0.259,-0.448l1.581,0.619l5.771,-9.995m-24.032,-10.263l0.448,-0.259l0.938,1.116l13.566,-1.754l0.249,0.431l-8.273,10.922l0.517,1.403l-0.448,0.259l-2.647,-4.583l0.449,-0.259l1.098,1.395l6.365,-8.252l-10.324,1.394l0.639,1.615l-0.448,0.259l-2.129,-3.687m8.545,-9.827l-0.611,-1.586l0.448,-0.259l2.617,4.533l-0.449,0.259l-1.068,-1.323l-9.995,5.771l0.62,1.581l-0.448,0.259l-2.617,-4.533l0.448,-0.258l1.059,1.327l9.996,-5.771m-3.261,-5.649l-0.612,-1.586l0.448,-0.259l2.617,4.533l-0.448,0.259l-1.068,-1.323l-9.996,5.771l0.62,1.581l-0.448,0.259l-2.617,-4.533l0.448,-0.258l1.06,1.327l9.996,-5.771m-3.262,-5.649l-0.611,-1.586l0.448,-0.259l2.617,4.533l-0.448,0.259l-1.068,-1.323l-9.996,5.771l0.62,1.581l-0.448,0.259l-2.617,-4.533l0.448,-0.258l1.06,1.327l9.995,-5.771m-1.855,-14.663l0.264,-1.679l0.517,0l0,5.234l-0.517,0l-0.264,-1.68l-11.542,0l-0.254,1.68l-0.517,0l0,-5.234l0.517,0l0.254,1.679l11.542,0m0,-5.341l0.264,-1.621l0.517,0l0,4.277l-0.517,0l-0.264,-1.445l-5.917,-4.453l-5.625,3.799l-0.254,1.474l-0.517,0l0,-5.4l0.517,0l0.254,1.66l4.043,-2.714l-4.043,-3.037l-0.254,1.621l-0.517,0l0,-4.287l0.517,0l0.254,1.445l4.902,3.681l6.64,-4.501l0.264,-1.484l0.517,0l0,5.4l-0.517,0l-0.264,-1.66l-5.078,3.437l5.078,3.808m6.775,-30.956l1.038,-1.272l0.449,0.259l-2.139,3.704l-0.448,-0.259l0.494,-1.384l-2.898,-6.814l-6.77,0.477l-0.957,1.15l-0.449,-0.259l2.7,-4.676l0.449,0.258l-0.611,1.565l4.859,-0.33l-1.983,-4.651l-1.03,1.277l-0.448,-0.259l2.143,-3.712l0.448,0.259l-0.503,1.378l2.405,5.639l8.001,-0.578l0.971,-1.154l0.448,0.259l-2.7,4.676l-0.448,-0.258l0.601,-1.57l-6.116,0.438l2.494,5.837m20.239,-24.495l1.536,-0.582l0.259,0.448l-3.704,2.139l-0.259,-0.448l1.12,-0.951l0.897,-7.351l-6.102,-2.972l-1.403,0.517l-0.259,-0.448l4.676,-2.7l0.259,0.448l-1.311,1.05l4.372,2.144l0.609,-5.02l-1.531,0.591l-0.258,-0.448l3.712,-2.144l0.259,0.449l-1.125,0.942l-0.737,6.086l7.219,3.5l1.417,-0.514l0.258,0.448l-4.676,2.7l-0.259,-0.448l1.306,-1.059l-5.515,-2.678l-0.76,6.301m13.269,-7.66l1.586,-0.612l0.259,0.448l-4.533,2.617l-0.259,-0.448l1.323,-1.068l-5.771,-9.995l-1.581,0.619l-0.259,-0.448l4.532,-2.617l0.259,0.449l-1.327,1.059l5.771,9.996" style="fill:#593d00;fill-rule:nonzero;"/><path id="path1884" d="M142.128,395.449c-0.831,3.923 5.999,3.186 13.544,5.779c1.202,0.336 1.953,0.25 2.602,-0.025c1.328,-0.654 2.486,-2.305 2.056,-3.772c-0.473,-1.191 0.895,-1.063 0.914,-2.471c-0.075,-0.364 -0.034,-0.553 -0.653,-0.855c-0.669,-0.326 -2.587,0.111 -3.009,-0.083c-0.462,-0.365 1.573,-0.096 3.084,-0.376c0.909,-0.408 1.58,-1.114 0.823,-1.927c-0.554,-0.594 -0.353,-1.079 -0.108,-1.504c0.141,-0.612 0.721,-0.544 2.07,-0.597c1.891,-0.079 3.135,-0.788 3.043,-1.929c-0.597,-3.212 -2.328,-6.45 -2.694,-7.863c-0.485,-1.611 -1.312,-2.884 -1.301,-3.356c-0.038,-0.929 0.669,-1.093 0.751,-1.911c0.155,-0.579 0.096,-1.266 -0.036,-2.001c-0.263,-1.833 -1.191,-3.406 -1.757,-5.277c-0.89,-2.805 -6.208,-7.076 -6.899,-7.397c-2.138,-1.568 -29.336,-7.595 -28.324,15.061c0.028,1.041 0.508,2.17 0.817,2.533c0.014,0.955 0.206,1.849 0.765,1.931c0.741,1.948 0.089,4.116 1.3,4.704c-0.035,1.078 0.174,2.016 0.9,2.659c-0.008,1.627 0.187,2.196 0.45,2.413c0.061,0.577 -0.182,1.241 0.859,1.964c0.034,1.198 0.704,4.392 -2.695,10.469c2.461,2.372 5.986,6.202 10.82,6.064c5.994,-0.163 7.718,3.444 10.762,5.012c0.147,-1.415 -1.083,-4.808 -0.479,-5.388c0.998,-3.411 1.848,-5.817 2.638,-6.863" style="fill:#f7c5b4;fill-opacity:0.4;fill-rule:nonzero;stroke:#000;stroke-width:0.5px;stroke-miterlimit:4;"/><path id="path6663" d="M154.355,377.463c2.449,-1.252 5.221,-2.799 7.421,-1.809l-0.237,-1.063c-0.685,-0.508 -2.671,-0.263 -3.97,0.372c-1.244,0.663 -2.273,1.507 -3.214,2.5Z" style="fill:none;stroke:#000;stroke-width:0.5px;stroke-linecap:butt;stroke-linejoin:miter;stroke-miterlimit:4;"/><path id="path6665" d="M160.523,377.097c0.545,-0.771 -1.943,0.027 -3.502,1.725l3.293,0.941" style="fill:none;stroke:#000;stroke-width:0.5px;stroke-linecap:butt;stroke-linejoin:miter;stroke-miterlimit:4;"/><path id="path6667" d="M159.929,377.507c-0.531,0.099 -1.17,0.524 -1.862,1.106l1.568,0.418c0.3,-0.299 0.399,-0.955 0.294,-1.524Z" style="fill:none;stroke:#000;stroke-width:0.5px;stroke-linecap:butt;stroke-linejoin:miter;stroke-miterlimit:4;"/><path id="path6669" d="M151.951,396.386c0.489,-2.128 0.76,-4.437 2.038,-5.907" style="fill:none;stroke:#000;stroke-width:0.5px;stroke-linecap:butt;stroke-linejoin:miter;stroke-miterlimit:4;"/><path id="path6671" d="M152.683,385.095c-1.373,0.341 -2.771,3.136 -2.771,3.136" style="fill:none;stroke:#000;stroke-width:0.5px;stroke-linecap:butt;stroke-linejoin:miter;stroke-miterlimit:4;"/><path id="path6673" d="M158.115,386.592c-0.729,0.87 -0.493,2.523 0.157,2.549c1.097,0.161 1.9,-0.994 3.618,-0.567c0.509,0.173 0.962,0.345 0.941,0.517" style="fill:none;stroke:#000;stroke-width:0.5px;stroke-linecap:butt;stroke-linejoin:miter;stroke-miterlimit:4;"/><path id="path17799" d="M147.272,379.502c-3.255,-2.75 -0.746,-4.54 2.413,-6.222l-0.489,-6.429l10.004,-6.023c0,0 -4.814,-4.25 -7.682,-4.399c-1.018,-0.053 -4.174,0.235 -5.182,0.385c-1.722,0.255 -3.488,-0.479 -5.22,-0.295c-1.24,0.131 -3.209,0.638 -4.425,0.91c-2.05,0.46 -4.202,-0.061 -5.925,1.142c-0.948,0.662 -1.385,2.637 -2.168,3.488c-0.914,0.996 -2.832,1.019 -3.373,2.258c-0.555,1.273 0.478,2.694 -0.026,3.988c-0.352,0.908 -1.354,1.436 -1.615,2.373c-0.526,1.885 0.992,3.471 1.089,5.425c0.039,0.778 0.216,2.21 0.231,2.989c0.049,2.435 2.296,5.227 2.873,7.593c0.25,1.023 -0.161,2.603 0.411,3.488c0.584,0.905 2.06,1.496 3.078,1.847c0.938,0.324 2.513,1.036 3.283,0.411c0.576,-0.468 -0.34,-1.961 0.206,-2.463c0.589,-0.542 2.667,0 2.667,0l-0.205,-2.052c0,0 -3.785,-3.666 -3.899,-5.746c-0.065,-1.182 1,-2.661 1.847,-3.489c0.886,-0.865 3.694,-1.846 3.694,-1.846l2.462,0.615l3.81,4.579c0.99,-0.219 2.497,0.721 2.141,-2.527Z" style="fill:#fcef3c;fill-opacity:0.4;fill-rule:nonzero;stroke:#000;stroke-width:0.53px;stroke-linecap:butt;stroke-miterlimit:4;"/><path id="path6691" d="M142.838,386.766c-0.147,1.426 -1.144,1.894 -2.207,2.289c-1.145,-0.307 -1.636,-1.114 -1.963,-1.984c-0.272,-0.6 -2.111,-1.819 -2.943,-2.594c-0.891,-1.666 -0.541,-1.78 -0.572,-2.371" style="fill:none;stroke:#000;stroke-width:0.5px;stroke-linecap:butt;stroke-linejoin:miter;stroke-miterlimit:4;"/><path id="path6693" d="M142.348,381.615c-0.068,-0.799 -0.38,-1.548 -0.736,-2.289" style="fill:none;stroke:#000;stroke-width:0.5px;stroke-linecap:butt;stroke-linejoin:miter;stroke-miterlimit:4;"/><path id="path6695" d="M141.121,382.187c-0.193,-1.034 -1.53,-2.54 -2.126,-2.861c-1.486,-0.788 -2.211,-0.091 -2.534,1.39" style="fill:none;stroke:#000;stroke-width:0.5px;stroke-linecap:butt;stroke-linejoin:miter;stroke-miterlimit:4;"/><path id="path6697" d="M139.846,384.352c0.468,-0.423 0.974,-1.275 1.39,-1.128c0.54,0.849 0.852,1.687 0.294,2.479" style="fill:none;stroke:#000;stroke-width:0.5px;stroke-linecap:butt;stroke-linejoin:miter;stroke-miterlimit:4;"/><path id="path6699" d="M136.134,381.942c0.143,2.067 1.731,2.793 2.616,4.17" style="fill:none;stroke:#000;stroke-width:0.5px;stroke-linecap:butt;stroke-linejoin:miter;stroke-miterlimit:4;"/><path id="path6701" d="M130.445,380.608l0.789,-5.097l2.364,0.63l-0.147,1.704l-3.006,2.763Z" style="fill:#5ab532;fill-opacity:0.4;stroke:#000;stroke-width:0.5px;stroke-linecap:butt;stroke-linejoin:miter;stroke-miterlimit:4;"/><path id="path6703" d="M134.271,377.318c-0.357,-0.43 0.22,-4.014 0.22,-4.014l1.156,-0.368l0.368,-2.574l1.838,2.249l-0.273,2.029l-3.309,2.678Z" style="fill:#5ab532;fill-opacity:0.4;stroke:#000;stroke-width:0.5px;stroke-linecap:butt;stroke-linejoin:miter;stroke-miterlimit:4;"/><path id="path6705" d="M138.454,374.123l0.293,-4.444l0.578,-0.316l1.156,-2.101l1.744,1.441l-0.138,2.574l-3.633,2.846Z" style="fill:#5ab532;fill-opacity:0.4;stroke:#000;stroke-width:0.5px;stroke-linecap:butt;stroke-linejoin:miter;stroke-miterlimit:4;"/><path id="path6707" d="M142.951,370.519c0,-0.21 1.156,-5.044 1.156,-5.044l0.84,-0.263l0.105,-1.996l1.997,1.471l-0.116,1.767l0.494,0.672l-4.476,3.393Z" style="fill:#5ab532;fill-opacity:0.4;stroke:#000;stroke-width:0.5px;stroke-linecap:butt;stroke-linejoin:miter;stroke-miterlimit:4;"/><path id="path6709" d="M148.257,366.736l-0.105,-3.363l1.051,-0.157l-0.052,-1.576l1.839,0.157l0.945,1.051l-0.157,1.681l-3.521,2.207Z" style="fill:#5ab532;fill-opacity:0.4;stroke:#000;stroke-width:0.5px;stroke-linecap:butt;stroke-linejoin:miter;stroke-miterlimit:4;"/><path id="path6711" d="M152.461,363.794c0.052,-0.21 0.158,-2.995 0.158,-2.995l1.208,-0.21l0.42,-2.155l1.734,0.946l-0.262,2.312l-3.258,2.102Z" style="fill:#5ab532;fill-opacity:0.4;stroke:#000;stroke-width:0.5px;stroke-linecap:butt;stroke-linejoin:miter;stroke-miterlimit:4;"/><path id="path6713" d="M156.402,361.219l1.944,-3.363l1.681,-0.367l0.631,-1.104l1.208,2.575l-1.156,2.207l-4.308,0.052Z" style="fill:#5ab532;fill-opacity:0.4;stroke:#000;stroke-width:0.5px;stroke-linecap:butt;stroke-linejoin:miter;stroke-miterlimit:4;"/><path id="path6717" d="M149.665,366.452l3.111,0.494l2.68,-1.103l0.788,-1.629l-3.206,-0.011l-3.373,2.249Z" style="fill:#5ab532;fill-opacity:0.4;stroke:#000;stroke-width:0.5px;stroke-linecap:butt;stroke-linejoin:miter;stroke-miterlimit:4;"/><path id="path6719" d="M153.512,363.531l5.622,0.473l0.63,-1.997l-3.257,-0.315l-2.995,1.839Z" style="fill:#5ab532;fill-opacity:0.4;stroke:#000;stroke-width:0.5px;stroke-linecap:butt;stroke-linejoin:miter;stroke-miterlimit:4;"/><path id="path6721" d="M144.474,369.994l4.402,-3.047l2.324,0.525l0.263,1.944l-1.261,0.263l-0.578,1.418l-5.15,-1.103Z" style="fill:#5ab532;fill-opacity:0.4;stroke:#000;stroke-width:0.5px;stroke-linecap:butt;stroke-linejoin:miter;stroke-miterlimit:4;"/><path id="path6723" d="M139.746,373.882l1.996,0.21l0.473,-0.946l3.1,0.368l0.315,-1.576l1.156,-0.683l-2.732,-0.893l-4.308,3.52Z" style="fill:#5ab532;fill-opacity:0.4;stroke:#000;stroke-width:0.5px;stroke-linecap:butt;stroke-linejoin:miter;stroke-miterlimit:4;"/><path id="path6725" d="M135.122,377.297l3.73,-2.837l2.417,0.053l0.21,1.471l-1.891,0.683l0.63,1.471l-1.839,-0.315l-0.63,0.84l-2.627,-1.366Z" style="fill:#5ab532;fill-opacity:0.4;stroke:#000;stroke-width:0.5px;stroke-linecap:butt;stroke-linejoin:miter;stroke-miterlimit:4;"/><path id="path6729" d="M129.237,382.079l-0.368,2.679l1.576,2.575l-1.208,1.524l-1.839,-1.156c0,0 -2.364,2.89 -2.89,2.837c-0.525,-0.052 -0.525,-1.629 -0.525,-1.629l0.945,-3.362l-3.625,1.313l-0.21,-0.946l3.888,-2.627l-0.683,-2.207l0.946,-0.367l2.206,2.206l1.787,-0.84Z" style="fill:#5ab532;fill-opacity:0.4;stroke:#000;stroke-width:0.5px;stroke-linecap:butt;stroke-linejoin:miter;stroke-miterlimit:4;"/><path id="path6715" d="M126.978,383.865c0,0 -0.421,-4.413 -0.158,-4.466c0.263,-0.053 1.734,-0.841 1.734,-0.841l0.841,-1.891l0.578,4.571l-2.995,2.627Z" style="fill:#5ab532;fill-opacity:0.4;stroke:#000;stroke-width:0.5px;stroke-linecap:butt;stroke-linejoin:miter;stroke-miterlimit:4;"/><path id="path6731" d="M130.813,381.238l4.939,0.21l-0.21,-1.208l1.576,-1.104l-2.417,-1.471l-3.888,3.573Z" style="fill:#5ab532;fill-opacity:0.4;stroke:#000;stroke-width:0.5px;stroke-linecap:butt;stroke-linejoin:miter;stroke-miterlimit:4;"/><path id="path6733" d="M127.556,383.865l2.469,-2.207l4.624,0.105l0.368,2.522l-2.365,0.316l-0.683,2.469l-1.734,-0.683l-2.679,-2.522Z" style="fill:#5ab532;fill-opacity:0.4;stroke:#000;stroke-width:0.5px;stroke-linecap:butt;stroke-linejoin:miter;stroke-miterlimit:4;"/></g></g><g><path id="path2416" d="M911.691,91.831l21.32,47.307l-92.618,12.57c0,0 0.231,2.769 -5.536,1.961c-5.766,-0.807 -10.148,-4.843 -10.264,-9.457l-99.413,18.453l-17.761,-104.488l5.076,0l0.346,1.154l-2.422,0l17.414,99.989l97.567,-17.299l0.347,2.768l5.881,-0.346c0,0 0.462,6.689 7.727,6.689l1.384,-2.191l89.84,-12.11l-19.883,-44.361l0.995,-0.639Z" style="fill:#520;stroke:#000;stroke-width:0.45px;stroke-linecap:butt;stroke-linejoin:miter;stroke-miterlimit:4;"/><path id="path2400" d="M712.964,59.102l-2.12,0.327l17.124,99.653l96.785,-17.317c0,0 -26,-13.672 -91.891,15.197l-19.898,-97.86Z" style="fill:#a40;stroke:#000;stroke-width:0.45px;stroke-linecap:butt;stroke-linejoin:miter;stroke-miterlimit:4;"/><path id="path2402" d="M712.964,56.884l-0.327,-7.339l1.306,-0.652l0,-6.198l2.445,-5.057l1.306,-0.652l0,-3.099l2.609,-2.283l21.529,96.391l-3.099,4.892l-0.163,2.284l-1.468,1.958l-2.609,2.609l-1.876,16.881l-19.653,-99.735Z" style="fill:#c8b7b7;stroke:#000;stroke-width:0.45px;stroke-linecap:butt;stroke-linejoin:miter;stroke-miterlimit:4;"/><path id="path2388" d="M732.617,156.7l1.713,-17.125l4.24,-4.077l0,-2.773l3.262,-4.73c0,0 83.18,-2.773 88.889,12.069l-5.709,1.468c0,0 -26.34,-13.537 -92.395,15.168Z" style="fill:#c8b7b7;stroke:#000;stroke-width:0.45px;stroke-linecap:butt;stroke-linejoin:miter;stroke-miterlimit:4;"/><path id="path2394" d="M731.72,31.604l-11.254,0l21.366,96.228c0,0 79.266,-3.099 88.726,11.906c0,0 -2.12,-16.473 -80.897,-24.791l-17.941,-83.343Z" style="fill:url(#_Linear4);stroke:#000;stroke-width:0.45px;stroke-linecap:butt;stroke-linejoin:miter;stroke-miterlimit:4;"/><path id="path2398" d="M728.295,14.804l21.366,99.816c0,0 74.536,7.993 81.386,25.118l-29.521,-95.25c0,0 -1.142,-15.331 -73.231,-29.684Z" style="fill:#dddfc0;stroke:#000;stroke-width:0.45px;stroke-linecap:butt;stroke-linejoin:miter;stroke-miterlimit:4;"/><path id="path2411" d="M825.747,144.426l-0.327,-2.691l5.586,-1.468c0,0 3.059,8.318 9.745,8.807l-1.223,1.917c0,0 -7.013,0.081 -7.91,-6.769l-5.871,0.204Z" style="fill:#a40;stroke:#000;stroke-width:0.45px;stroke-linecap:butt;stroke-linejoin:miter;stroke-miterlimit:4;"/><path id="path2415" d="M831.373,140.978c0,0 3.017,8.318 9.134,7.991l89.867,-12.232l-3.915,-8.644l-4.403,0.082l0,-1.468c0,0 -75.896,4.013 -90.683,14.271Z" style="fill:#c8b7b7;stroke:#000;stroke-width:0.45px;stroke-linecap:butt;stroke-linejoin:miter;stroke-miterlimit:4;"/><path id="path2404" d="M926.428,127.951l-15.684,-35.29l-79.461,47.4l0.345,0.807c0,0 7.088,-8.87 90.417,-14.186l0.115,1.384l4.268,-0.115Z" style="fill:#dddfc0;stroke:#000;stroke-width:0.45px;stroke-linecap:butt;stroke-linejoin:miter;stroke-miterlimit:4;"/><path id="path2403" d="M801.852,44.163l75.189,-43.222l38.165,88.726l-83.996,50.397l-29.358,-95.901Z" style="fill:#dddfc0;stroke:#000;stroke-width:0.45px;stroke-linecap:butt;stroke-linejoin:miter;stroke-miterlimit:4;"/><g><g transform="matrix(0.903911,-0.427721,0.427721,0.903911,47.9908,361.168)"><text x="827.828px" y="73.774px" style="font-family:'ArialMT', 'Arial', sans-serif;font-size:17.196px;">chapitre</text></g><g transform="matrix(0.903911,-0.427721,0.427721,0.903911,41.9182,376.54)"><text x="859.003px" y="94.975px" style="font-family:'ArialMT', 'Arial', sans-serif;font-size:17.196px;">IX</text></g></g><g><clipPath id="_clip5"><path d="M747.293,49.727l54.513,-4.466l4.466,54.513l-54.513,4.466l-4.466,-54.513Z"/></clipPath><g clip-path="url(#_clip5)"><path d="M774.55,47.494c15.044,-1.232 28.257,9.98 29.489,25.024c1.234,15.044 -9.979,28.257 -25.023,29.489c-15.044,1.233 -28.258,-9.979 -29.49,-25.023c-1.233,-15.044 9.98,-28.258 25.024,-29.49Z" style="fill:#88c5cc;"/><g><path d="M798.561,95.262c-2.752,-9.636 -17.269,-7.161 -20.682,-6.881c-3.412,0.28 -18.14,0.2 -19.287,10.155c-1.147,9.955 8.882,12.563 8.882,12.563l24.37,-1.996c0,0 9.47,-4.206 6.717,-13.841Z" style="fill:#cc584c;fill-rule:nonzero;"/><path d="M788.392,96.094c-1.768,-9.715 -8.625,-6.153 -10.315,-6.015c-1.689,0.139 -9.227,-2.245 -9.276,7.621l1.187,14.48l19.591,-1.605l-1.187,-14.481Z" style="fill:#406a80;fill-rule:nonzero;"/><path d="M777.705,86.251c3.291,-0.269 6.048,0.561 6.154,1.855c0.105,1.292 -2.48,2.561 -5.771,2.83c-3.29,0.27 -6.048,-0.56 -6.153,-1.854c-0.107,-1.292 2.478,-2.561 5.77,-2.831Z" style="fill:#f5f5f5;"/><path d="M783.082,86.909l0.003,0l-1.829,-4.414l-3.857,0.031l-3.81,0.597l-1.086,4.653l0.003,0c-0.017,0.064 -0.025,0.128 -0.02,0.192c0.076,0.94 2.523,1.505 5.462,1.264c2.941,-0.241 5.262,-1.198 5.185,-2.136c-0.005,-0.064 -0.023,-0.127 -0.051,-0.187Z" style="fill:#e6cbc3;fill-rule:nonzero;"/><path d="M783.082,86.909l0.003,0l-1.829,-4.414l-3.857,0.031l-0.74,0.115l3.106,-0.025l1.829,4.416l-0.001,0c0.025,0.06 0.044,0.123 0.05,0.186c0.07,0.858 -1.865,1.729 -4.442,2.057c0.246,-0.01 0.494,-0.022 0.747,-0.043c2.941,-0.241 5.262,-1.198 5.185,-2.136c-0.005,-0.064 -0.023,-0.127 -0.051,-0.187Z" style="fill:#d9bfb8;fill-rule:nonzero;"/><path d="M787.018,63.622l-0.565,-1.669c-0.283,-3.455 -2.765,-8.777 -11.38,-8.071c-8.615,0.706 -10.197,6.36 -9.915,9.817l-0.286,1.738c0,0 -1.693,0.265 -1.599,1.417l0.387,4.714c0.094,1.151 0.598,2.065 1.875,1.96c0.472,5.759 6.132,11.932 12.085,11.444c5.953,-0.487 10.533,-7.5 10.061,-13.258c1.278,-0.104 1.626,-1.088 1.532,-2.24l-0.386,-4.714c-0.094,-1.151 -1.809,-1.138 -1.809,-1.138Z" style="fill:#ffe1d9;fill-rule:nonzero;"/><path d="M787.681,71.714c-0.921,-0.782 -1.374,-6.318 -0.663,-8.092c-0.243,-2.981 -0.732,-8.944 -4.991,-8.595c1.125,1.174 2.957,4.688 3.253,8.309c0.133,1.614 0.285,2.085 0.615,2.522c0.331,0.437 0.516,1.066 0.601,2.094c0.209,2.556 -1.49,7.305 -4.819,8.97c-0.099,-1.206 -1.892,-2.846 -4.929,-2.598c-3.037,0.25 -4.539,2.16 -4.441,3.366c-3.556,-1.102 -6.005,-5.51 -6.214,-8.066c-0.085,-1.03 -0.004,-1.679 0.252,-2.164c0.254,-0.486 0.328,-0.975 0.196,-2.588c-0.297,-3.621 0.937,-7.387 1.857,-8.729c-4.258,0.349 -3.77,6.313 -3.526,9.294c0.991,1.633 1.444,7.17 0.663,8.091c-0.572,3.478 1.41,6.745 1.089,8.058c1.703,-0.14 4.677,4.761 11.135,5.09c6.32,-1.376 8.456,-6.695 10.159,-6.835c-0.53,-1.243 0.894,-4.789 -0.237,-8.127Zm-10.654,6.018c1.646,-0.136 3.025,0.289 3.079,0.948c0.053,0.658 -1.238,1.302 -2.884,1.437c-1.647,0.135 -3.025,-0.29 -3.079,-0.948c-0.054,-0.659 1.237,-1.302 2.884,-1.437Z" style="fill:#66401e;fill-rule:nonzero;"/><path d="M766.011,63.629c0.146,-3.443 5.927,-0.916 6.039,-4.783c2.053,4.119 11.82,-2.254 13.516,2.751c0.286,-1.738 -1.306,-5.466 -1.306,-5.466l-17.461,1.43l-0.788,6.068Z" style="fill:#66401e;fill-rule:nonzero;"/><path d="M781.391,52.506l-2.338,-2.38l-1.92,2.729l-2.443,-3.658l-1.816,4.007l-2.338,-2.38l-1.921,2.73l-2.66,-1.068l0.88,5.501c0,0 4.328,0.502 8.587,0.154c4.259,-0.349 8.448,-1.549 8.448,-1.549l-0.027,-5.572l-2.452,1.486Z" style="fill:#ffd464;fill-rule:nonzero;"/><path d="M775.073,53.882c0.941,-0.077 1.766,0.624 1.844,1.564c0.076,0.941 -0.624,1.766 -1.565,1.843c-0.94,0.078 -1.765,-0.624 -1.843,-1.564c-0.077,-0.94 0.624,-1.765 1.564,-1.843Z" style="fill:#cc584c;"/><g><path d="M769.784,54.744c0.705,-0.057 1.325,0.468 1.383,1.173c0.058,0.705 -0.468,1.324 -1.173,1.382c-0.705,0.058 -1.325,-0.468 -1.383,-1.173c-0.058,-0.705 0.468,-1.324 1.173,-1.382Z" style="fill:#cc584c;"/><path d="M780.432,53.872c0.705,-0.057 1.324,0.467 1.382,1.173c0.057,0.705 -0.468,1.324 -1.173,1.382c-0.705,0.058 -1.324,-0.468 -1.382,-1.173c-0.058,-0.705 0.468,-1.324 1.173,-1.382Z" style="fill:#cc584c;"/></g></g><g><g><path d="M771.757,65.73c0.939,-0.077 1.75,0.432 1.808,1.137c0.057,0.707 -0.659,1.342 -1.6,1.418c-0.939,0.077 -1.75,-0.432 -1.808,-1.137c-0.057,-0.706 0.659,-1.341 1.6,-1.418Z" style="fill:#f5f5f5;"/><path d="M771.791,66.156c0.47,-0.039 0.883,0.312 0.921,0.781c0.039,0.471 -0.312,0.884 -0.781,0.923c-0.47,0.038 -0.883,-0.312 -0.922,-0.782c-0.039,-0.471 0.311,-0.884 0.782,-0.922Z" style="fill:#2179a6;"/></g><g><path d="M780.273,65.032c0.941,-0.077 1.752,0.433 1.81,1.138c0.057,0.705 -0.66,1.341 -1.6,1.417c-0.94,0.078 -1.75,-0.432 -1.808,-1.137c-0.057,-0.705 0.659,-1.341 1.598,-1.418Z" style="fill:#f5f5f5;"/><path d="M780.309,65.459c0.47,-0.04 0.883,0.31 0.921,0.781c0.04,0.47 -0.312,0.883 -0.782,0.921c-0.469,0.039 -0.882,-0.311 -0.921,-0.781c-0.038,-0.471 0.312,-0.883 0.782,-0.921Z" style="fill:#2179a6;"/></g></g></g></g></g></g><defs><radialGradient id="_Radial1" cx="0" cy="0" r="1" gradientUnits="userSpaceOnUse" gradientTransform="matrix(108.102,0,0,25.6159,142.876,433.765)"><stop offset="0" style="stop-color:#000;stop-opacity:1"/><stop offset="1" style="stop-color:#000;stop-opacity:0"/></radialGradient><radialGradient id="_Radial2" cx="0" cy="0" r="1" gradientUnits="userSpaceOnUse" gradientTransform="matrix(117.435,-7.57559,6.77642,105.048,142.913,346.093)"><stop offset="0" style="stop-color:#8c6724;stop-opacity:1"/><stop offset="1" style="stop-color:#cfb87c;stop-opacity:1"/></radialGradient><radialGradient id="_Radial3" cx="0" cy="0" r="1" gradientUnits="userSpaceOnUse" gradientTransform="matrix(102.128,0,0,102.128,142.913,346.093)"><stop offset="0" style="stop-color:#efbe2e;stop-opacity:1"/><stop offset="0.84" style="stop-color:#b67415;stop-opacity:1"/><stop offset="0.94" style="stop-color:#e7c040;stop-opacity:1"/><stop offset="1" style="stop-color:#af781f;stop-opacity:1"/></radialGradient><linearGradient id="_Linear4" x1="0" y1="0" x2="1" y2="0" gradientUnits="userSpaceOnUse" gradientTransform="matrix(139.611,56.602,-56.602,139.611,720.238,85.6711)"><stop offset="0" style="stop-color:#ac9393;stop-opacity:1"/><stop offset="1" style="stop-color:#fff;stop-opacity:1"/><stop offset="1" style="stop-color:#ac9393;stop-opacity:0"/></linearGradient></defs></svg>