<?xml version="1.0" encoding="UTF-8" standalone="no"?><!DOCTYPE svg PUBLIC "-//W3C//DTD SVG 1.1//EN" "http://www.w3.org/Graphics/SVG/1.1/DTD/svg11.dtd"><svg width="100%" height="100%" viewBox="0 0 493 419" version="1.1" xmlns="http://www.w3.org/2000/svg" xmlns:xlink="http://www.w3.org/1999/xlink" xml:space="preserve" xmlns:serif="http://www.serif.com/" style="fill-rule:evenodd;clip-rule:evenodd;stroke-linecap:round;stroke-linejoin:round;stroke-miterlimit:1.5;"><g><g><g><g><g><path d="M217.394,1.468l68.698,138.66l-136.227,0.573l67.529,-139.233Z" style="fill:#fff;stroke:#000;stroke-width:2.5px;"/><path d="M218.633,279.174l67.529,-139.233l-136.228,0.573l68.699,138.66Z" style="fill:#fff;stroke:#000;stroke-width:2.5px;"/></g><g><path d="M286.158,139.088l68.699,138.66l-136.228,0.574l67.529,-139.234Z" style="fill:#fff;stroke:#000;stroke-width:2.5px;"/><path d="M287.398,416.795l67.529,-139.234l-136.228,0.574l68.699,138.66Z" style="fill:#fff;stroke:#000;stroke-width:2.5px;"/></g><g><path d="M82.402,278.895l67.529,-139.233l-136.228,0.573l68.699,138.66Z" style="fill:#fff;stroke:#000;stroke-width:2.5px;"/><path d="M149.931,139.662l68.698,138.66l-136.227,0.573l67.529,-139.233Z" style="fill:#fff;stroke:#000;stroke-width:2.5px;"/></g><g><path d="M354.892,277.748l67.529,-139.233l-136.227,0.573l68.698,138.66Z" style="fill:#fff;stroke:#000;stroke-width:2.5px;"/><path d="M422.491,138.514l68.699,138.66l-136.227,0.574l67.528,-139.234Z" style="fill:#fff;stroke:#000;stroke-width:2.5px;"/></g></g><path d="M286.194,139.088l24.301,-23.561l83.518,-0.717l28.408,23.705" style="fill:none;stroke:#000;stroke-width:2.5px;"/><path d="M354.963,277.748l24.499,23.355l83.521,0.015l28.207,-23.944" style="fill:none;stroke:#000;stroke-width:2.5px;"/><path d="M218.496,280.242l-11.577,31.313l47.634,94.724l32.223,10.425" style="fill:none;stroke:#000;stroke-width:2.5px;"/><path d="M12.825,140.479l-11.575,31.653l47.638,95.756l32.224,10.539" style="fill:none;stroke:#000;stroke-width:2.5px;"/></g></g><path d="M149.858,139.375l-7.576,-39.804l37.598,-75.386l37.068,-22.935" style="fill:none;stroke:#000;stroke-width:2.5px;"/></g></svg>