<?xml version="1.0" encoding="UTF-8" standalone="no"?><!DOCTYPE svg PUBLIC "-//W3C//DTD SVG 1.1//EN" "http://www.w3.org/Graphics/SVG/1.1/DTD/svg11.dtd"><svg width="100%" height="100%" viewBox="0 0 490 420" version="1.1" xmlns="http://www.w3.org/2000/svg" xmlns:xlink="http://www.w3.org/1999/xlink" xml:space="preserve" xmlns:serif="http://www.serif.com/" style="fill-rule:evenodd;clip-rule:evenodd;stroke-linecap:round;stroke-linejoin:round;stroke-miterlimit:1.5;"><g><path d="M209.77,0.75l70.095,138.623l-138.896,0.647l68.801,-139.27Z" style="fill:#fff;stroke:#000;stroke-width:1.5px;"/><path d="M209.894,279.228l69.972,-138.686l-138.897,-0.522l68.925,139.208Z" style="fill:#fff;stroke:#000;stroke-width:1.5px;"/><path d="M348.791,279.166l69.971,-138.686l-138.897,-0.522l68.926,139.208Z" style="fill:#fff;stroke:#000;stroke-width:1.5px;"/><path d="M279.404,418.436l69.972,-138.686l-138.897,-0.522l68.925,139.208Z" style="fill:#fff;stroke:#000;stroke-width:1.5px;"/><path d="M70.998,279.29l69.971,-138.686l-138.897,-0.523l68.926,139.209Z" style="fill:#fff;stroke:#000;stroke-width:1.5px;"/><path d="M279.28,139.958l70.095,138.623l-138.896,0.647l68.801,-139.27Z" style="fill:#fff;stroke:#000;stroke-width:1.5px;"/><path d="M140.384,140.02l70.095,138.623l-138.896,0.646l68.801,-139.269Z" style="fill:#fff;stroke:#000;stroke-width:1.5px;"/><path d="M418.177,139.896l70.095,138.623l-138.897,0.647l68.802,-139.27Z" style="fill:#fff;stroke:#000;stroke-width:1.5px;"/><path d="M418.762,139.896l-138.898,0.062l34.715,-20.416l69.449,-0.031l34.734,20.385Z" style="fill:#dafdff;stroke:#000;stroke-width:1.5px;"/><path d="M488.272,279.104l-138.898,0.062l34.734,20.384l69.449,-0.031l34.715,-20.415Z" style="fill:#dafdff;stroke:#000;stroke-width:1.5px;"/><path d="M209.77,0.75l-68.821,139.26l-1.084,-43.853l34.411,-69.63l35.494,-25.777Z" style="fill:#dafdff;stroke:#000;stroke-width:1.5px;"/><path d="M210.479,278.643l68.215,139.558l-35.382,-25.931l-34.107,-69.779l1.274,-43.848Z" style="fill:#dafdff;stroke:#000;stroke-width:1.5px;"/><path d="M2.024,139.982l68.215,139.558l-35.382,-25.931l-34.107,-69.779l1.274,-43.848Z" style="fill:#dafdff;stroke:#000;stroke-width:1.5px;"/></g></svg>