<?xml version="1.0" encoding="UTF-8" standalone="no"?><!DOCTYPE svg PUBLIC "-//W3C//DTD SVG 1.1//EN" "http://www.w3.org/Graphics/SVG/1.1/DTD/svg11.dtd"><svg width="100%" height="100%" viewBox="0 0 614 438" version="1.1" xmlns="http://www.w3.org/2000/svg" xmlns:xlink="http://www.w3.org/1999/xlink" xml:space="preserve" xmlns:serif="http://www.serif.com/" style="fill-rule:evenodd;clip-rule:evenodd;stroke-linecap:round;stroke-linejoin:round;stroke-miterlimit:1.5;"><g><rect x="3.6" y="129.108" width="146.121" height="55.931" style="fill:#fff;stroke:#000;stroke-width:1.5px;"/><path d="M4.635,129.071l145.667,54.958" style="fill:none;stroke:#f9003c;stroke-width:1.5px;"/><path d="M3.616,184.156l146.323,-55.156" style="fill:none;stroke:#f9003c;stroke-width:1.5px;"/><path d="M145.749,68.146l-136.333,0.26l13.94,-67.656l99.126,19.884l23.267,47.512Z" style="fill:#fff;fill-rule:nonzero;stroke:#000;stroke-width:1.5px;stroke-miterlimit:4;"/><path d="M27.19,353.534l119.281,0l0,58.219l-143.379,0l24.098,-58.219Z" style="fill:#fff;fill-rule:nonzero;stroke:#000;stroke-width:1.5px;stroke-linecap:butt;stroke-linejoin:miter;stroke-miterlimit:4;"/><path d="M401.161,115.104l31.49,42.923l-31.49,42.924l-31.489,-42.924l31.489,-42.923Z" style="fill:#fff;stroke:#000;stroke-width:1.5px;"/><rect x="374.913" y="13.626" width="57.332" height="58.522" style="fill:#fff;stroke:#000;stroke-width:1.5px;"/><path d="M456.706,415.558l-113.386,0l28.347,-63.395l56.693,0l28.346,63.395Z" style="fill:#fdffff;stroke:#000;stroke-width:1.5px;"/><g transform="matrix(0.24,0,0,0.24,-108.543,-61.2296)"><text x="1184.63px" y="815.374px" style="font-family:'Helvetica';font-size:47.917px;fill:#00f;">propriétés</text><text x="1184.63px" y="882.04px" style="font-family:'Helvetica';font-size:41.667px;">côtés opposés égaux et parallèles</text><text x="1184.63px" y="948.707px" style="font-family:'Helvetica';font-size:41.667px;">4 angles droits</text><text x="1184.63px" y="1015.37px" style="font-family:'Helvetica';font-size:41.667px;">2 diagonales égales</text></g><g transform="matrix(0.24,0,0,0.24,178.05,-174.436)"><text x="1184.63px" y="815.374px" style="font-family:'Helvetica';font-size:47.917px;fill:#00f;">propriétés</text><text x="1184.63px" y="882.04px" style="font-family:'Helvetica';font-size:41.667px;">4 côtés égaux</text><text x="1184.63px" y="948.707px" style="font-family:'Helvetica';font-size:41.667px;">4 angles droits</text><text x="1184.63px" y="1015.37px" style="font-family:'Helvetica';font-size:41.667px;">2 diagonales égales</text><text x="1184.63px" y="1082.04px" style="font-family:'Helvetica';font-size:41.667px;">et perpendiculaires</text></g><g transform="matrix(0.24,0,0,0.24,178.05,-61.2296)"><text x="1184.63px" y="815.374px" style="font-family:'Helvetica';font-size:47.917px;fill:#00f;">propriétés</text><text x="1184.63px" y="882.04px" style="font-family:'Helvetica';font-size:41.667px;">4 côtés égaux</text><text x="1184.63px" y="948.707px" style="font-family:'Helvetica';font-size:41.667px;">côtés opposés parallèles</text><text x="1184.63px" y="1015.37px" style="font-family:'Helvetica';font-size:41.667px;">2 diagonales  perpendiculaires</text></g><g transform="matrix(0.24,0,0,0.24,178.05,54.6247)"><text x="1184.63px" y="815.374px" style="font-family:'Helvetica';font-size:47.917px;fill:#00f;">propriétés</text><text x="1184.63px" y="882.04px" style="font-family:'Helvetica';font-size:41.667px;">côtés opposés égaux et parallèles</text><text x="1184.63px" y="948.707px" style="font-family:'Helvetica';font-size:41.667px;">angles opposés égaux</text></g><g transform="matrix(0.24,0,0,0.24,178.05,165.79)"><text x="1184.63px" y="815.374px" style="font-family:'Helvetica';font-size:47.917px;fill:#00f;">propriétés</text><text x="1184.63px" y="882.04px" style="font-family:'Helvetica';font-size:41.667px;">côtés non parallèles égaux</text></g><g transform="matrix(0.24,0,0,0.24,-108.543,54.6247)"><text x="1184.63px" y="815.374px" style="font-family:'Helvetica';font-size:47.917px;fill:#00f;">propriétés</text><text x="1184.63px" y="882.04px" style="font-family:'Helvetica';font-size:41.667px;">2 côtés parallèles</text></g><g transform="matrix(0.24,0,0,0.24,-108.543,165.79)"><text x="1184.63px" y="815.374px" style="font-family:'Helvetica';font-size:47.917px;fill:#00f;">propriétés</text><text x="1184.63px" y="882.04px" style="font-family:'Helvetica';font-size:41.667px;">2 côtés parallèles</text><text x="1184.63px" y="948.707px" style="font-family:'Helvetica';font-size:41.667px;">2 angles droits</text></g><text x="11.834px" y="95.585px" style="font-family:'Helvetica';font-size:11.5px;">un quadrilatère quelconque</text><text x="380.42px" y="95.585px" style="font-family:'Helvetica';font-size:11.5px;">un carré</text><text x="370.468px" y="218.931px" style="font-family:'Helvetica';font-size:11.5px;">un losange</text><text x="345.651px" y="324.572px" style="font-family:'Helvetica';font-size:11.5px;">un parallélogramme</text><text x="353.497px" y="435.037px" style="font-family:'Helvetica';font-size:11.5px;">un trapèze isocèle</text><text x="39.72px" y="218.931px" style="font-family:'Helvetica';font-size:11.5px;">un rectangle</text><text x="45.021px" y="324.572px" style="font-family:'Helvetica';font-size:11.5px;">un trapèze</text><text x="26.604px" y="435.037px" style="font-family:'Helvetica';font-size:11.5px;">un trapèze rectangle</text><path d="M141.969,295.562l-122.063,0l9.063,-53.236l72.968,-0.229l40.032,53.465Z" style="fill:#fff;fill-rule:nonzero;stroke:#000;stroke-width:1.5px;stroke-miterlimit:4;"/><path d="M401.343,115.981l-0.337,83.862" style="fill:none;stroke:#f9003c;stroke-width:1.5px;"/><path d="M370.19,157.62l62.712,0.081" style="fill:none;stroke:#f9003c;stroke-width:1.5px;"/><path d="M375.324,13.275l56.915,58.555" style="fill:none;stroke:#f9003c;stroke-width:1.5px;"/><path d="M375.275,71.208l56.212,-57.566" style="fill:none;stroke:#f9003c;stroke-width:1.5px;"/><g transform="matrix(0.938687,-0.344769,0.344769,0.938687,-96.0483,-73.4676)"><text x="18.767px" y="271.822px" style="font-family:'ArialMT', 'Arial', sans-serif;font-size:12px;fill:#ff1337;">diagonale</text></g><path d="M402.499,147.482l8.301,-0.033l0.193,9.096" style="fill:none;stroke:#00b117;stroke-width:1.5px;"/><path d="M399.472,37.69l8.302,-0.033l0.193,9.096" style="fill:none;stroke:#00b117;stroke-width:1.5px;"/><path d="M407.23,46.877l-8.301,0.034l-0.193,-9.096" style="fill:none;stroke:#00b117;stroke-width:1.5px;"/><path d="M431.206,23.641l-8.302,0.033l-0.193,-9.096" style="fill:none;stroke:#00b117;stroke-width:1.5px;"/><path d="M148.916,138.649l-8.301,0.033l-0.193,-9.096" style="fill:none;stroke:#00b117;stroke-width:1.5px;"/><path d="M145.935,363.557l-8.301,0.033l-0.193,-9.096" style="fill:none;stroke:#00b117;stroke-width:1.5px;"/><path d="M383.956,14.821l0.033,8.301l-9.096,0.193" style="fill:none;stroke:#00b117;stroke-width:1.5px;"/><path d="M13.61,129.942l0.033,8.302l-9.096,0.193" style="fill:none;stroke:#00b117;stroke-width:1.5px;"/><path d="M431.277,61.89l-8.302,-0.033l-0.193,9.096" style="fill:none;stroke:#00b117;stroke-width:1.5px;"/><path d="M149.546,175.002l-8.302,-0.034l-0.192,9.096" style="fill:none;stroke:#00b117;stroke-width:1.5px;"/><path d="M146.06,402.676l-8.302,-0.033l-0.193,9.096" style="fill:none;stroke:#00b117;stroke-width:1.5px;"/><path d="M375.229,62.074l8.302,-0.033l0.193,9.096" style="fill:none;stroke:#00b117;stroke-width:1.5px;"/><path d="M4.093,176.057l8.302,-0.033l0.193,9.096" style="fill:none;stroke:#00b117;stroke-width:1.5px;"/><path d="M428.528,298.052c-0.103,0.206 -0.314,0.336 -0.544,0.336c-6.11,0 -84.664,0 -84.664,0l28.347,-56.693l85.039,0c0,0 -25.845,51.69 -28.178,56.357Z" style="fill:#fdffff;stroke:#000;stroke-width:1.5px;"/></g></svg>