<?xml version="1.0" encoding="UTF-8" standalone="no"?><!DOCTYPE svg PUBLIC "-//W3C//DTD SVG 1.1//EN" "http://www.w3.org/Graphics/SVG/1.1/DTD/svg11.dtd"><svg width="100%" height="100%" viewBox="0 0 628 343" version="1.1" xmlns="http://www.w3.org/2000/svg" xmlns:xlink="http://www.w3.org/1999/xlink" xml:space="preserve" xmlns:serif="http://www.serif.com/" style="fill-rule:evenodd;clip-rule:evenodd;stroke-linecap:round;stroke-linejoin:round;stroke-miterlimit:1.5;"><g><path d="M368.906,0.5c-31.31,0 -56.693,25.382 -56.693,56.693c0,31.29 25.404,56.693 56.693,56.693c31.311,0 56.693,-25.382 56.693,-56.693l-56.693,0l0,-56.693Z" style="fill:#ff1c69;stroke:#000;stroke-width:1px;"/><circle cx="567.331" cy="57.193" r="56.693" style="fill:#ff1c69;stroke:#000;stroke-width:1px;"/><path d="M227.174,0.5c-31.29,0 -56.693,25.403 -56.693,56.693c0,31.29 25.403,56.693 56.693,56.693l0,-113.386Z" style="fill:#ff1c69;stroke:#000;stroke-width:1px;"/><path d="M170.579,57.193l56.693,0" style="fill:none;stroke:#000;stroke-width:1px;"/><path d="M312.311,57.193l56.693,0" style="fill:none;stroke:#000;stroke-width:1px;"/><path d="M369.004,113.886l0,-56.693" style="fill:none;stroke:#000;stroke-width:1px;"/><path d="M567.429,0.5l0,113.386" style="fill:none;stroke:#000;stroke-width:1px;"/><path d="M510.736,57.193l113.386,0" style="fill:none;stroke:#000;stroke-width:1px;"/><path d="M28.846,58.894c0,30.371 25.383,54.992 56.693,54.992l0,-54.992l-56.693,0Z" style="fill:#ff1c69;stroke:#000;stroke-width:1px;"/><rect x="0.5" y="198.925" width="141.732" height="28.346" style="fill:#bbcaff;stroke:#000;stroke-width:1px;"/><rect x="142.232" y="198.925" width="141.732" height="28.346" style="fill:#bbcaff;stroke:#000;stroke-width:1px;"/><rect x="142.232" y="255.618" width="141.732" height="28.346" style="fill:#bbcaff;stroke:#000;stroke-width:1px;"/><rect x="0.5" y="255.618" width="141.732" height="28.346" style="fill:#bbcaff;stroke:#000;stroke-width:1px;"/><rect x="283.965" y="198.925" width="141.732" height="28.346" style="fill:#bbcaff;stroke:#000;stroke-width:1px;"/><rect x="0.5" y="312.311" width="141.732" height="28.346" style="fill:#bbcaff;stroke:#000;stroke-width:1px;"/><text x="10.724px" y="142.232px" style="font-family:'ArialMT', 'Arial', sans-serif;font-size:12px;">un quart = 0,25 = 25%</text><text x="57.193px" y="85.534px" style="font-family:'Arial-BoldMT', 'Arial', sans-serif;font-weight:700;font-size:12px;fill:#fff;">1/4</text><text x="197.904px" y="54.811px" style="font-family:'Arial-BoldMT', 'Arial', sans-serif;font-weight:700;font-size:12px;fill:#fff;">1/2</text><text x="340.967px" y="55.189px" style="font-family:'Arial-BoldMT', 'Arial', sans-serif;font-weight:700;font-size:12px;fill:#fff;">3/4</text><text x="558.65px" y="54.811px" style="font-family:'Arial-BoldMT', 'Arial', sans-serif;font-weight:700;font-size:12px;fill:#fff;">1</text><text x="153.968px" y="340.657px" style="font-family:'ArialMT', 'Arial', sans-serif;font-size:12px;">un tiers = 0,33... = 33% = 1/3</text><text x="292.779px" y="283.965px" style="font-family:'ArialMT', 'Arial', sans-serif;font-size:12px;">deux tiers = 0,66... = 66% = 2/3</text><text x="161.791px" y="142.232px" style="font-family:'ArialMT', 'Arial', sans-serif;font-size:12px;">un demi = 0,50 = 50%</text><text x="312.311px" y="142.232px" style="font-family:'ArialMT', 'Arial', sans-serif;font-size:12px;">trois quarts = 0,75 = 75%</text><text x="552.634px" y="142.232px" style="font-family:'ArialMT', 'Arial', sans-serif;font-size:12px;">100 %</text><path d="M619.872,281.858c5.114,-8.428 7.824,-18.021 7.854,-27.797c0.093,-30.462 -25.314,-55.23 -56.748,-55.32l-0.168,55.157l49.062,27.96Z" style="fill:#4eff56;stroke:#000;stroke-width:0.5px;"/><path d="M518.211,282.294c-5.191,-8.383 -7.989,-17.952 -8.108,-27.728c-0.372,-30.46 24.808,-55.445 56.24,-55.805l0.672,55.153l-48.804,28.38Z" style="fill:#4eff56;stroke:#000;stroke-width:0.5px;"/><path d="M519.66,285.772c5.048,8.464 12.326,15.477 21.09,20.319c27.308,15.087 62.066,5.865 77.635,-20.599l-49.445,-27.318l-49.28,27.598Z" style="fill:#4eff56;stroke:#000;stroke-width:0.5px;"/><text x="442.853px" y="220.663px" style="font-family:'ArialMT', 'Arial', sans-serif;font-size:12px;">100 %</text><text x="550.242px" y="283.965px" style="font-family:'ArialMT', 'Arial', sans-serif;font-size:12px;">un tiers</text></g></svg>