<?xml version="1.0" encoding="UTF-8" standalone="no"?><!DOCTYPE svg PUBLIC "-//W3C//DTD SVG 1.1//EN" "http://www.w3.org/Graphics/SVG/1.1/DTD/svg11.dtd"><svg width="100%" height="100%" viewBox="0 0 337 312" version="1.1" xmlns="http://www.w3.org/2000/svg" xmlns:xlink="http://www.w3.org/1999/xlink" xml:space="preserve" xmlns:serif="http://www.serif.com/" style="fill-rule:evenodd;clip-rule:evenodd;stroke-linejoin:round;stroke-miterlimit:2;"><g><g><g><g><g><g><g><g transform="matrix(0.267857,0,0,1.82692,-42.7548,-171.876)"><rect x="200" y="100" width="1213.33" height="164.211" style="fill:#f9cbff;fill-rule:nonzero;"/><g transform="matrix(3.73333,0,0,0.547368,-546.667,45.2632)"><path d="M200,100l325,0l0,25l-325,0l0,-25Zm0,25l27.083,0l0,275l-27.083,0l0,-275Zm54.167,0l270.833,0l0,25l-270.833,0l0,-25Zm-27.084,25l27.084,0l0,250l-27.084,0l0,-250Zm54.167,0l243.75,0l0,25l-243.75,0l0,-25Zm-27.083,25l27.083,0l0,225l-27.083,0l0,-225Zm54.166,0l216.667,0l0,25l-216.667,0l0,-25Zm-27.083,25l27.083,0l0,200l-27.083,0l0,-200Zm54.167,0l189.583,0l0,25l-189.583,0l0,-25Zm-27.084,25l27.084,0l0,175l-27.084,0l0,-175Zm54.167,0l162.5,0l0,25l-162.5,0l0,-25Zm-27.083,25l27.083,0l0,150l-27.083,0l0,-150Zm54.166,0l135.417,0l0,25l-135.417,0l0,-25Zm-27.083,25l27.083,0l0,125l-27.083,0l0,-125Zm54.167,0l108.333,0l0,25l-108.333,0l0,-25Zm-27.084,25l27.084,0l0,100l-27.084,0l0,-100Zm54.167,0l81.25,0l0,25l-81.25,0l0,-25Zm-27.083,25l27.083,0l0,75l-27.083,0l0,-75Zm54.166,0l54.167,0l0,25l-54.167,0l0,-25Zm-27.083,25l27.083,0l0,50l-27.083,0l0,-50Zm54.167,0l27.083,0l0,25l-27.083,0l0,-25Zm-27.084,25l27.084,0l0,25l-27.084,0l0,-25Z" style="fill:#fff;"/><path d="M227.083,125l27.084,0l0,25l-27.084,0l0,-25Zm27.084,25l27.083,0l0,25l-27.083,0l0,-25Zm27.083,25l27.083,0l0,25l-27.083,0l0,-25Zm27.083,25l27.084,0l0,25l-27.084,0l0,-25Zm27.084,25l27.083,0l0,25l-27.083,0l0,-25Zm27.083,25l27.083,0l0,25l-27.083,0l0,-25Zm27.083,25l27.084,0l0,25l-27.084,0l0,-25Zm27.084,25l27.083,0l0,25l-27.083,0l0,-25Zm27.083,25l27.083,0l0,25l-27.083,0l0,-25Zm27.083,25l27.084,0l0,25l-27.084,0l0,-25Zm27.084,25l27.083,0l0,25l-27.083,0l0,-25Z" style="fill:#f9d8ff;"/></g><g transform="matrix(3.73333,0,0,0.547368,-546.667,45.2632)"><text x="212.714px" y="123.245px" style="font-family:'ArialMT', 'Arial', sans-serif;font-size:30px;fill:#0500f6;">-</text><text x="237.845px" y="116.07px" style="font-family:'HelveticaNeue', 'Helvetica Neue';font-size:10px;fill:#2049ff;">0</text><text x="264.928px" y="116.07px" style="font-family:'HelveticaNeue', 'Helvetica Neue';font-size:10px;fill:#2049ff;">1</text><text x="292.012px" y="116.07px" style="font-family:'HelveticaNeue', 'Helvetica Neue';font-size:10px;fill:#2049ff;">2</text><text x="319.095px" y="116.07px" style="font-family:'HelveticaNeue', 'Helvetica Neue';font-size:10px;fill:#2049ff;">3</text><text x="346.178px" y="116.07px" style="font-family:'HelveticaNeue', 'Helvetica Neue';font-size:10px;fill:#2049ff;">4</text><text x="373.262px" y="116.07px" style="font-family:'HelveticaNeue', 'Helvetica Neue';font-size:10px;fill:#2049ff;">5</text><text x="400.345px" y="116.07px" style="font-family:'HelveticaNeue', 'Helvetica Neue';font-size:10px;fill:#2049ff;">6</text><text x="427.428px" y="116.07px" style="font-family:'HelveticaNeue', 'Helvetica Neue';font-size:10px;fill:#2049ff;">7</text><text x="454.512px" y="116.07px" style="font-family:'HelveticaNeue', 'Helvetica Neue';font-size:10px;fill:#2049ff;">8</text><text x="481.595px" y="116.07px" style="font-family:'HelveticaNeue', 'Helvetica Neue';font-size:10px;fill:#2049ff;">9</text><text x="505.898px" y="116.07px" style="font-family:'HelveticaNeue', 'Helvetica Neue';font-size:10px;fill:#2049ff;">10</text><text x="210.762px" y="141.07px" style="font-family:'HelveticaNeue', 'Helvetica Neue';font-size:10px;fill:#0500f6;">0</text><text x="237.845px" y="141.07px" style="font-family:'HelveticaNeue', 'Helvetica Neue';font-size:10px;">0</text><text x="264.653px" y="141.07px" style="font-family:'HelveticaNeue', 'Helvetica Neue';font-size:10px;">X</text><text x="291.737px" y="141.07px" style="font-family:'HelveticaNeue', 'Helvetica Neue';font-size:10px;">X</text><text x="318.82px" y="141.07px" style="font-family:'HelveticaNeue', 'Helvetica Neue';font-size:10px;">X</text><text x="345.903px" y="141.07px" style="font-family:'HelveticaNeue', 'Helvetica Neue';font-size:10px;">X</text><text x="372.987px" y="141.07px" style="font-family:'HelveticaNeue', 'Helvetica Neue';font-size:10px;">X</text><text x="400.07px" y="141.07px" style="font-family:'HelveticaNeue', 'Helvetica Neue';font-size:10px;">X</text><text x="427.153px" y="141.07px" style="font-family:'HelveticaNeue', 'Helvetica Neue';font-size:10px;">X</text><text x="454.237px" y="141.07px" style="font-family:'HelveticaNeue', 'Helvetica Neue';font-size:10px;">X</text><text x="481.04px" y="141.082px" style="font-family:'ArialMT', 'Arial', sans-serif;font-size:10px;">X</text><text x="508.403px" y="141.07px" style="font-family:'HelveticaNeue', 'Helvetica Neue';font-size:10px;">X</text><text x="210.762px" y="166.07px" style="font-family:'HelveticaNeue', 'Helvetica Neue';font-size:10px;fill:#0500f6;">1</text><text x="237.845px" y="166.07px" style="font-family:'HelveticaNeue', 'Helvetica Neue';font-size:10px;">1</text><text x="264.928px" y="166.07px" style="font-family:'HelveticaNeue', 'Helvetica Neue';font-size:10px;">0</text><text x="291.737px" y="166.07px" style="font-family:'HelveticaNeue', 'Helvetica Neue';font-size:10px;">X</text><text x="318.82px" y="166.07px" style="font-family:'HelveticaNeue', 'Helvetica Neue';font-size:10px;">X</text><text x="345.903px" y="166.07px" style="font-family:'HelveticaNeue', 'Helvetica Neue';font-size:10px;">X</text><text x="372.987px" y="166.07px" style="font-family:'HelveticaNeue', 'Helvetica Neue';font-size:10px;">X</text><text x="400.07px" y="166.07px" style="font-family:'HelveticaNeue', 'Helvetica Neue';font-size:10px;">X</text><text x="427.153px" y="166.07px" style="font-family:'HelveticaNeue', 'Helvetica Neue';font-size:10px;">X</text><text x="453.957px" y="166.082px" style="font-family:'ArialMT', 'Arial', sans-serif;font-size:10px;">X</text><text x="481.32px" y="166.07px" style="font-family:'HelveticaNeue', 'Helvetica Neue';font-size:10px;">X</text><text x="508.403px" y="166.07px" style="font-family:'HelveticaNeue', 'Helvetica Neue';font-size:10px;">X</text><text x="210.762px" y="191.07px" style="font-family:'HelveticaNeue', 'Helvetica Neue';font-size:10px;fill:#0500f6;">2</text><text x="237.845px" y="191.07px" style="font-family:'HelveticaNeue', 'Helvetica Neue';font-size:10px;">2</text><text x="264.928px" y="191.07px" style="font-family:'HelveticaNeue', 'Helvetica Neue';font-size:10px;">1</text><text x="292.012px" y="191.07px" style="font-family:'HelveticaNeue', 'Helvetica Neue';font-size:10px;">0</text><text x="318.82px" y="191.07px" style="font-family:'HelveticaNeue', 'Helvetica Neue';font-size:10px;">X</text><text x="345.903px" y="191.07px" style="font-family:'HelveticaNeue', 'Helvetica Neue';font-size:10px;">X</text><text x="372.987px" y="191.07px" style="font-family:'HelveticaNeue', 'Helvetica Neue';font-size:10px;">X</text><text x="400.07px" y="191.07px" style="font-family:'HelveticaNeue', 'Helvetica Neue';font-size:10px;">X</text><text x="426.873px" y="191.082px" style="font-family:'ArialMT', 'Arial', sans-serif;font-size:10px;">X</text><text x="454.237px" y="191.07px" style="font-family:'HelveticaNeue', 'Helvetica Neue';font-size:10px;">X</text><text x="481.32px" y="191.07px" style="font-family:'HelveticaNeue', 'Helvetica Neue';font-size:10px;">X</text><text x="508.403px" y="191.07px" style="font-family:'HelveticaNeue', 'Helvetica Neue';font-size:10px;">X</text><text x="210.762px" y="216.07px" style="font-family:'HelveticaNeue', 'Helvetica Neue';font-size:10px;fill:#0500f6;">3</text><text x="237.845px" y="216.07px" style="font-family:'HelveticaNeue', 'Helvetica Neue';font-size:10px;">3</text><text x="264.928px" y="216.07px" style="font-family:'HelveticaNeue', 'Helvetica Neue';font-size:10px;">2</text><text x="292.012px" y="216.07px" style="font-family:'HelveticaNeue', 'Helvetica Neue';font-size:10px;">1</text><text x="319.095px" y="216.07px" style="font-family:'HelveticaNeue', 'Helvetica Neue';font-size:10px;">0</text><text x="345.903px" y="216.07px" style="font-family:'HelveticaNeue', 'Helvetica Neue';font-size:10px;">X</text><text x="372.987px" y="216.07px" style="font-family:'HelveticaNeue', 'Helvetica Neue';font-size:10px;">X</text><text x="399.79px" y="216.082px" style="font-family:'ArialMT', 'Arial', sans-serif;font-size:10px;">X</text><text x="427.153px" y="216.07px" style="font-family:'HelveticaNeue', 'Helvetica Neue';font-size:10px;">X</text><text x="454.237px" y="216.07px" style="font-family:'HelveticaNeue', 'Helvetica Neue';font-size:10px;">X</text><text x="481.32px" y="216.07px" style="font-family:'HelveticaNeue', 'Helvetica Neue';font-size:10px;">X</text><text x="508.403px" y="216.07px" style="font-family:'HelveticaNeue', 'Helvetica Neue';font-size:10px;">X</text><text x="210.762px" y="241.07px" style="font-family:'HelveticaNeue', 'Helvetica Neue';font-size:10px;fill:#0500f6;">4</text><text x="237.845px" y="241.07px" style="font-family:'HelveticaNeue', 'Helvetica Neue';font-size:10px;">4</text><text x="264.928px" y="241.07px" style="font-family:'HelveticaNeue', 'Helvetica Neue';font-size:10px;">3</text><text x="292.012px" y="241.07px" style="font-family:'HelveticaNeue', 'Helvetica Neue';font-size:10px;">2</text><text x="319.095px" y="241.07px" style="font-family:'HelveticaNeue', 'Helvetica Neue';font-size:10px;">1</text><text x="346.178px" y="241.07px" style="font-family:'HelveticaNeue', 'Helvetica Neue';font-size:10px;">0</text><text x="372.707px" y="241.082px" style="font-family:'ArialMT', 'Arial', sans-serif;font-size:10px;">X</text><text x="400.07px" y="241.07px" style="font-family:'HelveticaNeue', 'Helvetica Neue';font-size:10px;">X</text><text x="427.153px" y="241.07px" style="font-family:'HelveticaNeue', 'Helvetica Neue';font-size:10px;">X</text><text x="454.237px" y="241.07px" style="font-family:'HelveticaNeue', 'Helvetica Neue';font-size:10px;">X</text><text x="481.32px" y="241.07px" style="font-family:'HelveticaNeue', 'Helvetica Neue';font-size:10px;">X</text><text x="508.403px" y="241.07px" style="font-family:'HelveticaNeue', 'Helvetica Neue';font-size:10px;">X</text><text x="210.762px" y="266.07px" style="font-family:'HelveticaNeue', 'Helvetica Neue';font-size:10px;fill:#0500f6;">5</text><text x="237.845px" y="266.07px" style="font-family:'HelveticaNeue', 'Helvetica Neue';font-size:10px;">5</text><text x="264.928px" y="266.07px" style="font-family:'HelveticaNeue', 'Helvetica Neue';font-size:10px;">4</text><text x="292.012px" y="266.07px" style="font-family:'HelveticaNeue', 'Helvetica Neue';font-size:10px;">3</text><text x="319.095px" y="266.07px" style="font-family:'HelveticaNeue', 'Helvetica Neue';font-size:10px;">2</text><text x="345.623px" y="266.082px" style="font-family:'ArialMT', 'Arial', sans-serif;font-size:10px;">X</text><text x="373.262px" y="266.07px" style="font-family:'HelveticaNeue', 'Helvetica Neue';font-size:10px;">0</text><text x="400.07px" y="266.07px" style="font-family:'HelveticaNeue', 'Helvetica Neue';font-size:10px;">X</text><text x="427.153px" y="266.07px" style="font-family:'HelveticaNeue', 'Helvetica Neue';font-size:10px;">X</text><text x="454.237px" y="266.07px" style="font-family:'HelveticaNeue', 'Helvetica Neue';font-size:10px;">X</text><text x="481.32px" y="266.07px" style="font-family:'HelveticaNeue', 'Helvetica Neue';font-size:10px;">X</text><text x="508.403px" y="266.07px" style="font-family:'HelveticaNeue', 'Helvetica Neue';font-size:10px;">X</text><text x="210.762px" y="291.07px" style="font-family:'HelveticaNeue', 'Helvetica Neue';font-size:10px;fill:#0500f6;">6</text><text x="237.845px" y="291.07px" style="font-family:'HelveticaNeue', 'Helvetica Neue';font-size:10px;">6</text><text x="264.928px" y="291.07px" style="font-family:'HelveticaNeue', 'Helvetica Neue';font-size:10px;">5</text><text x="292.012px" y="291.07px" style="font-family:'HelveticaNeue', 'Helvetica Neue';font-size:10px;">4</text><text x="319.094px" y="291.082px" style="font-family:'ArialMT', 'Arial', sans-serif;font-size:10px;">3</text><text x="346.178px" y="291.07px" style="font-family:'HelveticaNeue', 'Helvetica Neue';font-size:10px;">2</text><text x="373.262px" y="291.07px" style="font-family:'HelveticaNeue', 'Helvetica Neue';font-size:10px;">1</text><text x="400.345px" y="291.07px" style="font-family:'HelveticaNeue', 'Helvetica Neue';font-size:10px;">0</text><text x="427.153px" y="291.07px" style="font-family:'HelveticaNeue', 'Helvetica Neue';font-size:10px;">X</text><text x="454.237px" y="291.07px" style="font-family:'HelveticaNeue', 'Helvetica Neue';font-size:10px;">X</text><text x="481.32px" y="291.07px" style="font-family:'HelveticaNeue', 'Helvetica Neue';font-size:10px;">X</text><text x="508.403px" y="291.07px" style="font-family:'HelveticaNeue', 'Helvetica Neue';font-size:10px;">X</text><text x="210.762px" y="316.07px" style="font-family:'HelveticaNeue', 'Helvetica Neue';font-size:10px;fill:#0500f6;">7</text><text x="237.845px" y="316.07px" style="font-family:'HelveticaNeue', 'Helvetica Neue';font-size:10px;">7</text><text x="264.928px" y="316.07px" style="font-family:'HelveticaNeue', 'Helvetica Neue';font-size:10px;">6</text><text x="292.011px" y="316.082px" style="font-family:'ArialMT', 'Arial', sans-serif;font-size:10px;">5</text><text x="319.095px" y="316.07px" style="font-family:'HelveticaNeue', 'Helvetica Neue';font-size:10px;">4</text><text x="346.178px" y="316.07px" style="font-family:'HelveticaNeue', 'Helvetica Neue';font-size:10px;">3</text><text x="373.262px" y="316.07px" style="font-family:'HelveticaNeue', 'Helvetica Neue';font-size:10px;">2</text><text x="400.345px" y="316.07px" style="font-family:'HelveticaNeue', 'Helvetica Neue';font-size:10px;">1</text><text x="427.428px" y="316.07px" style="font-family:'HelveticaNeue', 'Helvetica Neue';font-size:10px;">0</text><text x="454.237px" y="316.07px" style="font-family:'HelveticaNeue', 'Helvetica Neue';font-size:10px;">X</text><text x="481.32px" y="316.07px" style="font-family:'HelveticaNeue', 'Helvetica Neue';font-size:10px;">X</text><text x="508.403px" y="316.07px" style="font-family:'HelveticaNeue', 'Helvetica Neue';font-size:10px;">X</text><text x="210.762px" y="341.07px" style="font-family:'HelveticaNeue', 'Helvetica Neue';font-size:10px;fill:#0500f6;">8</text><text x="237.845px" y="341.07px" style="font-family:'HelveticaNeue', 'Helvetica Neue';font-size:10px;">8</text><text x="264.928px" y="341.082px" style="font-family:'ArialMT', 'Arial', sans-serif;font-size:10px;">7</text><text x="292.012px" y="341.07px" style="font-family:'HelveticaNeue', 'Helvetica Neue';font-size:10px;">6</text><text x="319.095px" y="341.07px" style="font-family:'HelveticaNeue', 'Helvetica Neue';font-size:10px;">5</text><text x="346.178px" y="341.07px" style="font-family:'HelveticaNeue', 'Helvetica Neue';font-size:10px;">4</text><text x="373.262px" y="341.07px" style="font-family:'HelveticaNeue', 'Helvetica Neue';font-size:10px;">3</text><text x="400.345px" y="341.07px" style="font-family:'HelveticaNeue', 'Helvetica Neue';font-size:10px;">2</text><text x="427.428px" y="341.07px" style="font-family:'HelveticaNeue', 'Helvetica Neue';font-size:10px;">1</text><text x="454.512px" y="341.07px" style="font-family:'HelveticaNeue', 'Helvetica Neue';font-size:10px;">0</text><text x="481.32px" y="341.07px" style="font-family:'HelveticaNeue', 'Helvetica Neue';font-size:10px;">X</text><text x="508.403px" y="341.07px" style="font-family:'HelveticaNeue', 'Helvetica Neue';font-size:10px;">X</text><text x="210.762px" y="366.07px" style="font-family:'HelveticaNeue', 'Helvetica Neue';font-size:10px;fill:#0500f6;">9</text><text x="237.844px" y="366.082px" style="font-family:'ArialMT', 'Arial', sans-serif;font-size:10px;">8</text><text x="264.928px" y="366.07px" style="font-family:'HelveticaNeue', 'Helvetica Neue';font-size:10px;">8</text><text x="292.012px" y="366.07px" style="font-family:'HelveticaNeue', 'Helvetica Neue';font-size:10px;">7</text><text x="319.095px" y="366.07px" style="font-family:'HelveticaNeue', 'Helvetica Neue';font-size:10px;">6</text><text x="346.178px" y="366.07px" style="font-family:'HelveticaNeue', 'Helvetica Neue';font-size:10px;">5</text><text x="373.262px" y="366.07px" style="font-family:'HelveticaNeue', 'Helvetica Neue';font-size:10px;">4</text><text x="400.345px" y="366.07px" style="font-family:'HelveticaNeue', 'Helvetica Neue';font-size:10px;">3</text><text x="427.428px" y="366.07px" style="font-family:'HelveticaNeue', 'Helvetica Neue';font-size:10px;">2</text><text x="454.512px" y="366.07px" style="font-family:'HelveticaNeue', 'Helvetica Neue';font-size:10px;">1</text><text x="481.595px" y="366.07px" style="font-family:'HelveticaNeue', 'Helvetica Neue';font-size:10px;">0</text><text x="508.403px" y="366.07px" style="font-family:'HelveticaNeue', 'Helvetica Neue';font-size:10px;">X</text><text x="207.982px" y="391.07px" style="font-family:'HelveticaNeue', 'Helvetica Neue';font-size:10px;fill:#0500f6;">10</text><text x="235.065px" y="391.07px" style="font-family:'HelveticaNeue', 'Helvetica Neue';font-size:10px;">10</text><text x="264.928px" y="391.07px" style="font-family:'HelveticaNeue', 'Helvetica Neue';font-size:10px;">9</text><text x="292.012px" y="391.07px" style="font-family:'HelveticaNeue', 'Helvetica Neue';font-size:10px;">8</text><text x="319.095px" y="391.07px" style="font-family:'HelveticaNeue', 'Helvetica Neue';font-size:10px;">7</text><text x="346.178px" y="391.07px" style="font-family:'HelveticaNeue', 'Helvetica Neue';font-size:10px;">6</text><text x="373.262px" y="391.07px" style="font-family:'HelveticaNeue', 'Helvetica Neue';font-size:10px;">5</text><text x="400.345px" y="391.07px" style="font-family:'HelveticaNeue', 'Helvetica Neue';font-size:10px;">4</text><text x="427.428px" y="391.07px" style="font-family:'HelveticaNeue', 'Helvetica Neue';font-size:10px;">3</text><text x="454.512px" y="391.07px" style="font-family:'HelveticaNeue', 'Helvetica Neue';font-size:10px;">2</text><text x="481.595px" y="391.07px" style="font-family:'HelveticaNeue', 'Helvetica Neue';font-size:10px;">1</text><text x="508.678px" y="391.07px" style="font-family:'HelveticaNeue', 'Helvetica Neue';font-size:10px;">0</text><path d="M200,99.75l0,300.5m325,-300.5l0,300.5m-297.917,-300.25l0,300m27.084,-300l0,300m27.083,-300l0,300m27.083,-300l0,300m27.084,-300l0,300m27.083,-300l0,300m27.083,-300l0,300m27.084,-300l0,300m27.083,-300l0,300m27.083,-300l0,300m27.084,-300l0,300m-297.917,-300l325,0m-325,25l325,0m-325,25l325,0m-325,25l325,0m-325,25l325,0m-325,25l325,0m-325,25l325,0m-325,25l325,0m-325,25l325,0m-325,25l325,0m-325,25l325,0m-325,25l325,0m-325,25l325,0" style="fill:none;stroke:#000;stroke-width:0.5px;"/></g></g><path d="M28.9,14.637l8.683,-3.82l-4.654,8.266l-4.029,-4.446Z" style="fill:#ff3159;"/><path d="M10.817,35.073c0,0 13.623,-12.345 21.431,-19.422" style="fill:none;stroke:#ff3159;stroke-width:2px;stroke-linecap:round;stroke-miterlimit:1.5;"/></g></g></g></g></g></g></g></svg>