<?xml version="1.0" encoding="UTF-8" standalone="no"?><!DOCTYPE svg PUBLIC "-//W3C//DTD SVG 1.1//EN" "http://www.w3.org/Graphics/SVG/1.1/DTD/svg11.dtd"><svg width="100%" height="100%" viewBox="0 0 560 153" version="1.1" xmlns="http://www.w3.org/2000/svg" xmlns:xlink="http://www.w3.org/1999/xlink" xml:space="preserve" xmlns:serif="http://www.serif.com/" style="fill-rule:evenodd;clip-rule:evenodd;stroke-linejoin:round;stroke-miterlimit:2;"><g transform="matrix(1.27511,0,0,1.27511,-792.833,-162.498)"><text x="645.308px" y="137.427px" style="font-family:'ArialMT', 'Arial', sans-serif;font-size:12px;fill:#ff3520;">km</text><text x="707.639px" y="137.427px" style="font-family:'ArialMT', 'Arial', sans-serif;font-size:12px;">hm</text><text x="766.97px" y="137.427px" style="font-family:'ArialMT', 'Arial', sans-serif;font-size:12px;">dam</text><text x="836.312px" y="137.427px" style="font-family:'ArialMT', 'Arial', sans-serif;font-size:12px;fill:#ff2c20;">m</text><text x="895.643px" y="137.427px" style="font-family:'ArialMT', 'Arial', sans-serif;font-size:12px;">dm</text><text x="958.647px" y="137.427px" style="font-family:'ArialMT', 'Arial', sans-serif;font-size:12px;fill:#ff3f27;">cm</text><text x="1019.32px" y="137.427px" style="font-family:'ArialMT', 'Arial', sans-serif;font-size:12px;">mm</text><text x="628.967px" y="164.042px" style="font-family:'ArialMT', 'Arial', sans-serif;font-size:12px;fill:#ff3a23;">kilomètre</text><text x="685.96px" y="164.042px" style="font-family:'ArialMT', 'Arial', sans-serif;font-size:12px;">hectomètre</text><text x="750.294px" y="164.042px" style="font-family:'ArialMT', 'Arial', sans-serif;font-size:12px;">décamètre</text><text x="825.973px" y="164.042px" style="font-family:'ArialMT', 'Arial', sans-serif;font-size:12px;fill:#ff391c;">mètre</text><text x="877.634px" y="164.042px" style="font-family:'ArialMT', 'Arial', sans-serif;font-size:12px;">décimètre</text><text x="938.634px" y="164.042px" style="font-family:'ArialMT', 'Arial', sans-serif;font-size:12px;fill:#ff3524;">centimètre</text><text x="1003.65px" y="164.042px" style="font-family:'ArialMT', 'Arial', sans-serif;font-size:12px;">millimètre</text><text x="649.97px" y="190.658px" style="font-family:'ArialMT', 'Arial', sans-serif;font-size:12px;">1</text><text x="712.637px" y="190.658px" style="font-family:'ArialMT', 'Arial', sans-serif;font-size:12px;">0</text><text x="775.305px" y="190.658px" style="font-family:'ArialMT', 'Arial', sans-serif;font-size:12px;">0</text><text x="837.973px" y="190.658px" style="font-family:'ArialMT', 'Arial', sans-serif;font-size:12px;">0</text><text x="837.973px" y="216.428px" style="font-family:'ArialMT', 'Arial', sans-serif;font-size:12px;">1</text><text x="900.641px" y="216.428px" style="font-family:'ArialMT', 'Arial', sans-serif;font-size:12px;">0</text><text x="963.308px" y="216.428px" style="font-family:'ArialMT', 'Arial', sans-serif;font-size:12px;">0</text><text x="963.308px" y="243.044px" style="font-family:'ArialMT', 'Arial', sans-serif;font-size:12px;">1</text><text x="1025.98px" y="243.044px" style="font-family:'ArialMT', 'Arial', sans-serif;font-size:12px;">0</text><path d="M621.973,127.635l0,119.318m438.674,-119.318l0,119.318m-376.007,-119.122l0,118.926m62.668,-118.926l0,118.926m62.668,-118.926l0,118.926m62.668,-118.926l0,118.926m62.667,-118.926l0,118.926m62.668,-118.926l0,118.926m-376.006,-118.926l438.674,0m-438.674,13.308l438.674,0m-438.674,13.308l438.674,0m-438.674,13.308l438.674,0m-438.674,13.308l438.674,0m-438.674,13.308l438.674,0m-438.674,12.462l438.674,0m-438.674,13.308l438.674,0m-438.674,13.308l438.674,0m-438.674,13.308l438.674,0" style="fill:none;stroke:#000;stroke-width:0.39px;"/></g></svg>