<?xml version="1.0" encoding="UTF-8" standalone="no"?><!DOCTYPE svg PUBLIC "-//W3C//DTD SVG 1.1//EN" "http://www.w3.org/Graphics/SVG/1.1/DTD/svg11.dtd"><svg width="100%" height="100%" viewBox="0 0 574 149" version="1.1" xmlns="http://www.w3.org/2000/svg" xmlns:xlink="http://www.w3.org/1999/xlink" xml:space="preserve" xmlns:serif="http://www.serif.com/" style="fill-rule:evenodd;clip-rule:evenodd;stroke-linejoin:round;stroke-miterlimit:2;"><g><g><g transform="matrix(1.27511,0,0,1.27511,-792.833,-162.498)"><text x="654.751px" y="144.164px" style="font-family:'ArialMT', 'Arial', sans-serif;font-size:12px;">hl</text><text x="726.206px" y="144.22px" style="font-family:'ArialMT', 'Arial', sans-serif;font-size:12.156px;">dal</text><text x="807.545px" y="144.161px" style="font-family:'Arial-BoldMT', 'Arial', sans-serif;font-weight:700;font-size:12px;fill:#ff2c20;">l</text><text x="879.377px" y="144.22px" style="font-family:'ArialMT', 'Arial', sans-serif;font-size:12.156px;">dl</text><text x="953.935px" y="144.217px" style="font-family:'Arial-BoldMT', 'Arial', sans-serif;font-weight:700;font-size:12.156px;fill:#ff3520;">cl</text><text x="1027.49px" y="144.22px" style="font-family:'ArialMT', 'Arial', sans-serif;font-size:12.156px;">ml</text><text x="640.328px" y="164.293px" style="font-family:'ArialMT', 'Arial', sans-serif;font-size:9.411px;">hectolitre</text><text x="716.531px" y="164.293px" style="font-family:'ArialMT', 'Arial', sans-serif;font-size:9.411px;">décalitre</text><text x="800.582px" y="164.29px" style="font-family:'Arial-BoldMT', 'Arial', sans-serif;font-weight:700;font-size:9.411px;fill:#ff2600;">litre</text><text x="867.894px" y="164.293px" style="font-family:'ArialMT', 'Arial', sans-serif;font-size:9.411px;">décilitre</text><text x="939.391px" y="164.29px" style="font-family:'Arial-BoldMT', 'Arial', sans-serif;font-weight:700;font-size:9.411px;fill:#ff2600;">centilitre</text><text x="1018.22px" y="164.293px" style="font-family:'ArialMT', 'Arial', sans-serif;font-size:9.411px;">millilitre</text><text x="656.084px" y="182.984px" style="font-family:'ArialMT', 'Arial', sans-serif;font-size:12px;">1</text><text x="730.979px" y="182.984px" style="font-family:'ArialMT', 'Arial', sans-serif;font-size:12px;">0</text><text x="805.875px" y="182.984px" style="font-family:'ArialMT', 'Arial', sans-serif;font-size:12px;">0</text><text x="805.875px" y="201.051px" style="font-family:'Arial-BoldMT', 'Arial', sans-serif;font-weight:700;font-size:12px;fill:#ff2600;">1</text><text x="880.771px" y="201.054px" style="font-family:'ArialMT', 'Arial', sans-serif;font-size:12px;fill:#ff2600;">0</text><text x="955.667px" y="201.054px" style="font-family:'ArialMT', 'Arial', sans-serif;font-size:12px;fill:#ff2600;">0</text><text x="955.667px" y="219.212px" style="font-family:'ArialMT', 'Arial', sans-serif;font-size:12px;">1</text><text x="1030.56px" y="219.212px" style="font-family:'ArialMT', 'Arial', sans-serif;font-size:12px;">0</text><text x="656.084px" y="238.061px" style="font-family:'ArialMT', 'Arial', sans-serif;font-size:12px;">1</text><text x="730.979px" y="238.061px" style="font-family:'ArialMT', 'Arial', sans-serif;font-size:12px;">2</text><text x="805.875px" y="238.061px" style="font-family:'ArialMT', 'Arial', sans-serif;font-size:12px;">5</text><path d="M621.973,127.635l0,116.342m449.374,-116.342l0,116.342m-374.479,-116.146l0,115.95m74.896,-115.95l0,115.95m74.896,-115.95l0,115.95m74.896,-115.95l0,115.95m74.896,-115.95l0,115.95m-374.479,-115.95l449.374,0m-449.374,24.071l449.374,0m-449.374,18.04l449.374,0m-449.374,17.488l449.374,0m-449.374,18.652l449.374,0m-449.374,17.664l449.374,0m-449.374,20.035l449.374,0" style="fill:none;stroke:#000;stroke-width:0.39px;"/></g></g></g></svg>