<?xml version="1.0" encoding="UTF-8" standalone="no"?><!DOCTYPE svg PUBLIC "-//W3C//DTD SVG 1.1//EN" "http://www.w3.org/Graphics/SVG/1.1/DTD/svg11.dtd"><svg width="100%" height="100%" viewBox="0 0 421 330" version="1.1" xmlns="http://www.w3.org/2000/svg" xmlns:xlink="http://www.w3.org/1999/xlink" xml:space="preserve" xmlns:serif="http://www.serif.com/" style="fill-rule:evenodd;clip-rule:evenodd;stroke-linejoin:round;stroke-miterlimit:2;"><g><g><g transform="matrix(1,0,0,1,-99.75,-99.5)"><text x="184.979px" y="133.988px" style="font-family:'ArialMT', 'Arial', sans-serif;font-size:12px;">partie entière</text><path d="M100,99.75l0,59.881m240,-59.881l0,59.881m-240,-59.631l240,0m-240,59.381l240,0" style="fill:none;stroke:#000;stroke-width:0.5px;"/></g><g transform="matrix(1,0,0,1,140.25,-99.5)"><text x="149.313px" y="133.988px" style="font-family:'ArialMT', 'Arial', sans-serif;font-size:12px;">partie décimale</text><path d="M100,99.75l0,59.881m180,-59.881l0,59.881m-180,-59.631l180,0m-180,59.381l180,0" style="fill:none;stroke:#000;stroke-width:0.5px;"/></g></g><g transform="matrix(1,0,0,1,-99.75,-35.041)"><text x="199.993px" y="133.988px" style="font-family:'ArialMT', 'Arial', sans-serif;font-size:12px;fill:#ff5be2;">classes</text><path d="M100,99.75l0,59.881m240,-59.881l0,59.881m-240,-59.631l240,0m-240,59.381l240,0" style="fill:none;stroke:#000;stroke-width:0.5px;"/></g><path d="M240.25,64.709l0,140.5m180,-140.5l0,140.5m-160,-140.25l0,140m20,-140l0,140m20,-140l0,140m20,-140l0,140m20,-140l0,140m20,-140l0,140m20,-140l0,140m20,-140l0,140m-160,-140l180,0m-180,140l180,0" style="fill:none;stroke:#000;stroke-width:0.5px;"/><g transform="matrix(1,0,0,1,-99.75,45.5781)"><text x="107.998px" y="133.988px" style="font-family:'ArialMT', 'Arial', sans-serif;font-size:12px;fill:#1000e2;">milliards</text><text x="169.996px" y="133.988px" style="font-family:'ArialMT', 'Arial', sans-serif;font-size:12px;fill:#1000e2;">millions</text><text x="231.335px" y="133.988px" style="font-family:'ArialMT', 'Arial', sans-serif;font-size:12px;fill:#1000e2;">milliers</text><text x="293.989px" y="133.988px" style="font-family:'ArialMT', 'Arial', sans-serif;font-size:12px;fill:#1000e2;">unités</text><path d="M100,99.75l0,59.881m240,-59.881l0,59.881m-180,-59.631l0,59.381m60,-59.381l0,59.381m60,-59.381l0,59.381m-180,-59.381l240,0m-240,59.381l240,0" style="fill:none;stroke:#000;stroke-width:0.5px;"/></g><g transform="matrix(1,0,0,1,-99.75,108.119)"><text x="107px" y="133.988px" style="font-family:'ArialMT', 'Arial', sans-serif;font-size:12px;fill:#ff1717;">c</text><text x="126.663px" y="133.988px" style="font-family:'ArialMT', 'Arial', sans-serif;font-size:12px;fill:#001eef;">d</text><text x="146.663px" y="133.988px" style="font-family:'ArialMT', 'Arial', sans-serif;font-size:12px;fill:#09b500;">u</text><text x="167px" y="133.988px" style="font-family:'ArialMT', 'Arial', sans-serif;font-size:12px;fill:#e2006e;">c</text><text x="186.663px" y="133.988px" style="font-family:'ArialMT', 'Arial', sans-serif;font-size:12px;fill:#0200dc;">d</text><text x="206.663px" y="133.988px" style="font-family:'ArialMT', 'Arial', sans-serif;font-size:12px;fill:#00d30f;">u</text><text x="227px" y="133.988px" style="font-family:'ArialMT', 'Arial', sans-serif;font-size:12px;fill:#df005f;">c</text><text x="246.663px" y="133.988px" style="font-family:'ArialMT', 'Arial', sans-serif;font-size:12px;fill:#0400ed;">d</text><text x="266.663px" y="133.988px" style="font-family:'ArialMT', 'Arial', sans-serif;font-size:12px;fill:#00d804;">u</text><text x="287px" y="133.988px" style="font-family:'ArialMT', 'Arial', sans-serif;font-size:12px;fill:#ee0062;">c</text><text x="306.663px" y="133.988px" style="font-family:'ArialMT', 'Arial', sans-serif;font-size:12px;fill:#0b00e0;">d</text><text x="326.663px" y="133.988px" style="font-family:'ArialMT', 'Arial', sans-serif;font-size:12px;fill:#00db13;">u</text><path d="M100,99.75l0,121.34m420,-121.34l0,121.34m-400,-121.09l0,120.84m20,-120.84l0,120.84m20,-120.84l0,120.84m20,-120.84l0,120.84m20,-120.84l0,120.84m20,-120.84l0,120.84m20,-120.84l0,120.84m20,-120.84l0,120.84m20,-120.84l0,120.84m20,-120.84l0,120.84m20,-120.84l0,120.84m20,-120.84l0,120.84m20,-120.84l0,120.84m20,-120.84l0,120.84m20,-120.84l0,120.84m20,-120.84l0,120.84m20,-120.84l0,120.84m20,-120.84l0,120.84m20,-120.84l0,120.84m20,-120.84l0,120.84m-400,-120.84l420,0m-420,59.381l420,0m-420,12.292l420,0m-420,12.291l420,0m-420,12.292l420,0m-420,12.292l420,0m-420,12.292l420,0" style="fill:none;stroke:#000;stroke-width:0.5px;"/></g><g transform="matrix(6.1149e-17,-1,1,6.1149e-17,-284.234,410.979)"><rect x="210.342" y="532.803" width="33.701" height="7.314" style="fill:none;fill-rule:nonzero;stroke:#000;stroke-width:0.65px;stroke-dasharray:0.65,0.65;"/><text x="210px" y="540px" style="font-family:'ArialMT', 'Arial', sans-serif;font-size:10px;">dixième</text></g><g transform="matrix(4.23425e-05,-1,1,4.23425e-05,-224.09,346.593)"><rect x="145.979" y="532.803" width="57.056" height="7.314" style="fill:none;fill-rule:nonzero;stroke:#000;stroke-width:0.65px;stroke-dasharray:0.65,0.65;"/><text x="145.637px" y="540px" style="font-family:'ArialMT', 'Arial', sans-serif;font-size:10px;">dix-millièmes</text></g><g transform="matrix(4.23425e-05,-1,1,4.23425e-05,-203.924,346.661)"><rect x="146.028" y="532.803" width="63.125" height="7.314" style="fill:none;fill-rule:nonzero;stroke:#000;stroke-width:0.65px;stroke-dasharray:0.65,0.65;"/><text x="145.637px" y="540px" style="font-family:'ArialMT', 'Arial', sans-serif;font-size:10px;">cent-millièmes</text></g><g transform="matrix(4.23425e-05,-1,1,4.23425e-05,-184.789,347.037)"><rect x="146.296" y="532.803" width="53.97" height="7.314" style="fill:none;fill-rule:nonzero;stroke:#000;stroke-width:0.65px;stroke-dasharray:0.65,0.65;"/><text x="145.637px" y="540px" style="font-family:'ArialMT', 'Arial', sans-serif;font-size:10px;">millionièmes</text></g><g transform="matrix(4.23425e-05,-1,1,4.23425e-05,-165.683,346.593)"><rect x="145.979" y="532.803" width="70.4" height="7.314" style="fill:none;fill-rule:nonzero;stroke:#000;stroke-width:0.65px;stroke-dasharray:0.65,0.65;"/><text x="145.637px" y="540px" style="font-family:'ArialMT', 'Arial', sans-serif;font-size:10px;">dix-millionièmes</text></g><g transform="matrix(4.23425e-05,-1,1,4.23425e-05,-145.683,346.661)"><rect x="146.028" y="532.803" width="76.47" height="7.314" style="fill:none;fill-rule:nonzero;stroke:#000;stroke-width:0.65px;stroke-dasharray:0.65,0.65;"/><text x="145.637px" y="540px" style="font-family:'ArialMT', 'Arial', sans-serif;font-size:10px;">cent-millionièmes</text></g><g transform="matrix(4.23425e-05,-1,1,4.23425e-05,-125.682,347.037)"><rect x="146.296" y="532.803" width="57.3" height="7.314" style="fill:none;fill-rule:nonzero;stroke:#000;stroke-width:0.65px;stroke-dasharray:0.65,0.65;"/><text x="145.637px" y="540px" style="font-family:'ArialMT', 'Arial', sans-serif;font-size:10px;">milliardièmes</text></g><g transform="matrix(-0.000306488,-1,1,-0.000306488,5.6069,771.509)"><rect x="570.659" y="282.803" width="40.625" height="7.314" style="fill:none;fill-rule:nonzero;stroke:#000;stroke-width:0.65px;stroke-dasharray:0.65,0.65;"/><text x="570px" y="290px" style="font-family:'ArialMT', 'Arial', sans-serif;font-size:10px;">millièmes</text></g><g transform="matrix(0.000465185,-1,1,0.000465185,-14.2073,770.912)"><rect x="570.391" y="282.803" width="44.8" height="7.314" style="fill:none;fill-rule:nonzero;stroke:#000;stroke-width:0.65px;stroke-dasharray:0.65,0.65;"/><text x="570px" y="290px" style="font-family:'ArialMT', 'Arial', sans-serif;font-size:10px;">centièmes</text></g></g></svg>