<?xml version="1.0" encoding="UTF-8" standalone="no"?><!DOCTYPE svg PUBLIC "-//W3C//DTD SVG 1.1//EN" "http://www.w3.org/Graphics/SVG/1.1/DTD/svg11.dtd"><svg width="100%" height="100%" viewBox="0 0 318 455" version="1.1" xmlns="http://www.w3.org/2000/svg" xmlns:xlink="http://www.w3.org/1999/xlink" xml:space="preserve" xmlns:serif="http://www.serif.com/" style="fill-rule:evenodd;clip-rule:evenodd;"><g><path d="M143.108,14.431l0,203.371" style="fill:none;fill-rule:nonzero;stroke:#000;stroke-width:1px;"/><path d="M35.25,131.822l219.42,0" style="fill:none;fill-rule:nonzero;stroke:#000;stroke-width:1px;"/><rect x="142.608" y="114.559" width="16.762" height="16.762" style="fill:#ff1d25;"/><rect x="143.108" y="115.059" width="16.763" height="16.763" style="fill:none;stroke:#000;stroke-width:1px;"/><path d="M168.371,111.728l49.608,-40.659" style="fill:none;fill-rule:nonzero;"/><path d="M173.079,107.843c5.644,-5.267 5.644,-5.267 12.694,-11.845c6.446,-6.014 6.446,-6.014 11.818,-11.027c2.283,-2.13 2.283,-2.13 3.894,-3.633c0.655,-0.611 0.655,-0.611 1.091,-1.019c0.319,-0.297 0.319,-0.297 0.386,-0.36l-0.439,-0.61c-0.067,0.063 -0.067,0.063 -0.386,0.36c-0.436,0.408 -0.436,0.408 -1.091,1.018c-1.612,1.504 -1.612,1.504 -3.894,3.634c-5.372,5.012 -5.372,5.012 -11.818,11.027c-7.05,6.578 -7.05,6.578 -12.694,11.845l0.439,0.61Zm-2.282,-3.481l-2.445,7.382l6.838,-1.28l-4.393,-6.102Z" style="fill:#2411ff;fill-rule:nonzero;"/><text x="200.393px" y="74.349px" style="font-family:'Helvetica';font-size:14px;fill:#ff1d25;">le symbole</text><text x="200.393px" y="95.899px" style="font-family:'Helvetica';font-size:14px;fill:#ff1d25;">de l’angle droit</text><text x="119.666px" y="10.076px" style="font-family:'Helvetica';font-size:14px;fill:#1200ff;">droite A</text><text x="37.336px" y="124.844px" style="font-family:'Helvetica';font-size:14px;fill:#0006fc;">droite B</text><g transform="matrix(1,0,0,1,-5.34915,-84.7388)"><text x="6.419px" y="331.154px" style="font-family:'Helvetica';font-size:14px;">La</text><text x="25.897px" y="331.154px" style="font-family:'Helvetica';font-size:14px;fill:#1200fc;">droite A</text><text x="76.485px" y="331.154px" style="font-family:'Helvetica';font-size:14px;">et la</text><text x="106.867px" y="331.154px" style="font-family:'Helvetica';font-size:14px;fill:#0100ec;">droite B</text><text x="159.039px" y="331.154px" style="font-family:'Helvetica';font-size:14px;">se coupent en formant</text></g><g transform="matrix(1,0,0,1,-7.29446,-82.8733)"><text x="6.419px" y="348.154px" style="font-family:'Helvetica';font-size:14px;">un</text><text x="25.887px" y="348.154px" style="font-family:'Helvetica';font-size:14px;fill:#ff1d25;">angle droit</text><text x="91.285px" y="348.154px" style="font-family:'Helvetica';font-size:14px;">: on dit qu’elles sont</text><text x="218.958px" y="348.154px" style="font-family:'Helvetica';font-size:14px;fill:#ce0c5a;">perpendiculaires.</text></g><g><text x="107.284px" y="303.575px" style="font-family:'Helvetica';font-size:14px;fill:#0001f9;">A</text><text x="167.967px" y="303.357px" style="font-family:'Helvetica';font-size:14px;fill:#1c00f6;">B</text><path d="M130.596,306.635l26.093,0" style="fill:none;fill-rule:nonzero;stroke:#000;stroke-width:1px;"/><path d="M144.081,279.66l0,26.15" style="fill:none;fill-rule:nonzero;stroke:#000;stroke-width:1px;"/></g><g><text x="34.785px" y="340.399px" style="font-family:'Helvetica';font-size:14px;fill:#ff1d25;">l’angle droit de l’équerre 90° (degrés)</text><rect x="31.723" y="352.129" width="16.763" height="16.762" style="fill:none;stroke:#000;stroke-width:1px;"/><path d="M31.223,351.629l195.622,-0.649" style="fill:none;fill-rule:nonzero;"/><path d="M31.723,351.805l0,100.944" style="fill:none;fill-rule:nonzero;stroke:#000;stroke-width:1px;"/><path d="M31.223,452.249l247.534,-100.944" style="fill:none;fill-rule:nonzero;"/><rect x="31.223" y="351.63" width="16.762" height="16.762" style="fill:#ff1d25;"/><path d="M31.723,452.75l247.534,-100.945" style="fill:none;fill-rule:nonzero;stroke:#000;stroke-width:1px;"/><path d="M31.723,352.129l247.534,-0.324" style="fill:none;fill-rule:nonzero;stroke:#000;stroke-width:1px;"/></g></g></svg>