<?xml version="1.0" encoding="UTF-8" standalone="no"?><!DOCTYPE svg PUBLIC "-//W3C//DTD SVG 1.1//EN" "http://www.w3.org/Graphics/SVG/1.1/DTD/svg11.dtd"><svg width="100%" height="100%" viewBox="0 0 589 318" version="1.1" xmlns="http://www.w3.org/2000/svg" xmlns:xlink="http://www.w3.org/1999/xlink" xml:space="preserve" xmlns:serif="http://www.serif.com/" style="fill-rule:evenodd;clip-rule:evenodd;stroke-linecap:round;stroke-linejoin:round;stroke-miterlimit:1.5;"><g><path d="M109.819,1.309l52.68,105.06l-105.12,0.12l52.44,-105.18Z" style="fill:#fff;stroke:#000;stroke-width:1px;"/><path d="M57.379,106.489l52.681,105.06l-105.12,0.12l52.439,-105.18Z" style="fill:#fff;stroke:#000;stroke-width:1px;"/><path d="M479.175,106.238l52.681,105.06l-105.12,0.12l52.439,-105.18Z" style="fill:#fff;stroke:#000;stroke-width:1px;"/><path d="M214.527,1.178l52.681,105.06l-105.12,0.121l52.439,-105.181Z" style="fill:#fff;stroke:#000;stroke-width:1px;"/><path d="M110.06,211.781l52.439,-105.18l-105.119,0.121l52.68,105.059Z" style="fill:#fff;stroke:#000;stroke-width:1px;"/><path d="M57.62,316.729l52.44,-105.18l-105.12,0.12l52.68,105.06Z" style="fill:#fff;stroke:#000;stroke-width:1px;"/><path d="M162.74,316.608l52.44,-105.18l-105.12,0.121l52.68,105.059Z" style="fill:#fff;stroke:#000;stroke-width:1px;"/><path d="M269.056,316.719l52.44,-105.18l-105.12,0.12l52.68,105.06Z" style="fill:#fff;stroke:#000;stroke-width:1px;"/><path d="M375.017,316.5l52.439,-105.18l-105.12,0.12l52.681,105.06Z" style="fill:#fff;stroke:#000;stroke-width:1px;"/><path d="M479.416,316.478l52.44,-105.18l-105.12,0.12l52.68,105.06Z" style="fill:#fff;stroke:#000;stroke-width:1px;"/><path d="M216.496,211.659l52.44,-105.18l-105.12,0.121l52.68,105.059Z" style="fill:#fff;stroke:#000;stroke-width:1px;"/><path d="M321.616,211.539l52.439,-105.18l-105.119,0.12l52.68,105.06Z" style="fill:#fff;stroke:#000;stroke-width:1px;"/><path d="M426.736,211.418l52.439,-105.18l-105.12,0.121l52.681,105.059Z" style="fill:#fff;stroke:#000;stroke-width:1px;"/><path d="M531.856,211.298l52.439,-105.18l-105.12,0.12l52.681,105.06Z" style="fill:#fff;stroke:#000;stroke-width:1px;"/><path d="M321.375,0.946l52.68,105.06l-105.12,0.12l52.44,-105.18Z" style="fill:#fff;stroke:#000;stroke-width:1px;"/><path d="M426.495,0.946l52.68,105.06l-105.12,0.12l52.44,-105.18Z" style="fill:#fff;stroke:#000;stroke-width:1px;"/><path d="M531.615,0.825l52.68,105.06l-105.12,0.121l52.44,-105.181Z" style="fill:#fff;stroke:#000;stroke-width:1px;"/><path d="M109.819,1.309l-53.049,104.872l-4.085,-34.993l26.525,-52.436l30.609,-17.443Z" style="fill:#dafdff;stroke:#000;stroke-width:1px;"/><path d="M109.696,211.539l52.872,104.961l-30.58,-17.495l-26.436,-52.48l4.144,-34.986Z" style="fill:#dafdff;stroke:#000;stroke-width:1px;"/><path d="M4.644,211.539l52.872,104.961l-30.58,-17.495l-26.436,-52.48l4.144,-34.986Z" style="fill:#dafdff;stroke:#000;stroke-width:1px;"/><path d="M216.016,211.539l52.872,104.961l-30.58,-17.495l-26.436,-52.48l4.144,-34.986Z" style="fill:#dafdff;stroke:#000;stroke-width:1px;"/><path d="M322.264,212.133l52.872,104.962l-30.58,-17.495l-26.436,-52.481l4.144,-34.986Z" style="fill:#dafdff;stroke:#000;stroke-width:1px;"/><path d="M426.664,212.133l52.872,104.962l-30.58,-17.495l-26.436,-52.481l4.144,-34.986Z" style="fill:#dafdff;stroke:#000;stroke-width:1px;"/><path d="M214.648,1.178l-53.049,104.872l-4.085,-34.992l26.525,-52.436l30.609,-17.444Z" style="fill:#dafdff;stroke:#000;stroke-width:1px;"/><path d="M321.496,1.178l-53.049,104.872l-4.085,-34.992l26.524,-52.436l30.61,-17.444Z" style="fill:#dafdff;stroke:#000;stroke-width:1px;"/><path d="M426.692,1.178l-53.048,104.872l-4.085,-34.992l26.524,-52.436l30.609,-17.444Z" style="fill:#dafdff;stroke:#000;stroke-width:1px;"/><path d="M532.516,0.5l-53.049,104.872l-4.085,-34.993l26.524,-52.436l30.61,-17.443Z" style="fill:#dafdff;stroke:#000;stroke-width:1px;"/><path d="M584.28,106.746l-52.724,105.035l30.555,-17.537l26.362,-52.518l-4.193,-34.98Z" style="fill:#dafdff;stroke:#000;stroke-width:1px;"/></g></svg>