<?xml version="1.0" encoding="UTF-8"?>
<!DOCTYPE svg PUBLIC "-//W3C//DTD SVG 1.1//EN" "http://www.w3.org/Graphics/SVG/1.1/DTD/svg11.dtd">
<svg version="1.1" xmlns="http://www.w3.org/2000/svg" xmlns:xlink="http://www.w3.org/1999/xlink" x="0" y="0" width="306" height="115.5" viewBox="0, 0, 306, 115.5">
  <g id="Calque_1" transform="translate(-359, -19.5)">
    <g>
      <path d="M381.584,24.5 L642.416,24.5 C652.127,24.5 660,34.825 660,47.559 L660,99.441 C660,112.175 652.127,122.5 642.416,122.5 L381.584,122.5 C371.873,122.5 364,112.175 364,99.441 L364,47.559 C364,34.825 371.873,24.5 381.584,24.5 z" fill="#FFFFFF"/>
      <path d="M381.584,24.5 L642.416,24.5 C652.127,24.5 660,34.825 660,47.559 L660,99.441 C660,112.175 652.127,122.5 642.416,122.5 L381.584,122.5 C371.873,122.5 364,112.175 364,99.441 L364,47.559 C364,34.825 371.873,24.5 381.584,24.5 z" fill-opacity="0" stroke="#1E94CF" stroke-width="2"/>
    </g>
    <text transform="matrix(1, 0, 0, 1, 534, 91)">
      <tspan x="-129.532" y="-9" font-family="HelveticaNeue-Bold" font-size="36" fill="#EC4B4C">(S + F) -a = 2</tspan>
    </text>
  </g>
</svg>
